<svg width="360" height="561" viewBox="0 0 360 561" fill="none" xmlns="http://www.w3.org/2000/svg">
<g clip-path="url(#clip0)">
<rect width="360" height="560.121" fill="white"/>
<path d="M253 72H283C278.543 65.9891 273.217 59.2951 266.696 48.6393C261.544 40.2229 255.5 28.0109 253 22V72Z" fill="#FF3434"/>
<path d="M253 72H223C227.457 65.9891 232.783 59.2951 239.304 48.6393C244.456 40.2229 250.5 28.0109 253 22V72Z" fill="#FF3434"/>
<path d="M253 72H223C227.457 78.0109 232.783 84.7049 239.304 95.3607C244.456 103.777 250.5 115.989 253 122V72Z" fill="#FF3434"/>
<path d="M253 72H283C278.543 78.0109 273.217 84.7049 266.696 95.3607C261.544 103.777 255.5 115.989 253 122V72Z" fill="#FF3434"/>
<path d="M253 213H283C278.543 206.989 273.217 200.295 266.696 189.639C261.544 181.223 255.5 169.011 253 163V213Z" fill="#FF3434"/>
<path d="M253 213H223C227.457 206.989 232.783 200.295 239.304 189.639C244.456 181.223 250.5 169.011 253 163V213Z" fill="#FF3434"/>
<path d="M253 213H223C227.457 219.011 232.783 225.705 239.304 236.361C244.456 244.777 250.5 256.989 253 263V213Z" fill="#FF3434"/>
<path d="M253 213H283C278.543 219.011 273.217 225.705 266.696 236.361C261.544 244.777 255.5 256.989 253 263V213Z" fill="#FF3434"/>
<path d="M253 346H223C227.457 352.011 232.783 358.705 239.304 369.361C244.456 377.777 250.5 389.989 253 396V346Z" fill="#FF3434"/>
<path d="M253 346H283C278.543 352.011 273.217 358.705 266.696 369.361C261.544 377.777 255.5 389.989 253 396V346Z" fill="#FF3434"/>
<path d="M253 346H283C278.543 339.989 273.217 333.295 266.696 322.639C261.544 314.223 255.5 302.011 253 296V346Z" fill="#FF3434"/>
<path d="M253 346H223C227.457 339.989 232.783 333.295 239.304 322.639C244.456 314.223 250.5 302.011 253 296V346Z" fill="#FF3434"/>
<path d="M253 487H223C227.457 493.011 232.783 499.705 239.304 510.361C244.456 518.777 250.5 530.989 253 537V487Z" fill="#FF3434"/>
<path d="M253 487H283C278.543 493.011 273.217 499.705 266.696 510.361C261.544 518.777 255.5 530.989 253 537V487Z" fill="#FF3434"/>
<path d="M253 487H283C278.543 480.989 273.217 474.295 266.696 463.639C261.544 455.223 255.5 443.011 253 437V487Z" fill="#FF3434"/>
<path d="M253 487H223C227.457 480.989 232.783 474.295 239.304 463.639C244.456 455.223 250.5 443.011 253 437V487Z" fill="#FF3434"/>
<path d="M181 146H211C206.543 139.989 201.217 133.295 194.696 122.639C189.544 114.223 183.5 102.011 181 96V146Z" fill="#FF3434"/>
<path d="M181 146H151C155.457 139.989 160.783 133.295 167.304 122.639C172.456 114.223 178.5 102.011 181 96V146Z" fill="#FF3434"/>
<path d="M181 146H151C155.457 152.011 160.783 158.705 167.304 169.361C172.456 177.777 178.5 189.989 181 196V146Z" fill="#FF3434"/>
<path d="M181 146H211C206.543 152.011 201.217 158.705 194.696 169.361C189.544 177.777 183.5 189.989 181 196V146Z" fill="#FF3434"/>
<path d="M181 416H151C155.457 422.011 160.783 428.705 167.304 439.361C172.456 447.777 178.5 459.989 181 466V416Z" fill="#FF3434"/>
<path d="M181 416H211C206.543 422.011 201.217 428.705 194.696 439.361C189.544 447.777 183.5 459.989 181 466V416Z" fill="#FF3434"/>
<path d="M181 416H211C206.543 409.989 201.217 403.295 194.696 392.639C189.544 384.223 183.5 372.011 181 366V416Z" fill="#FF3434"/>
<path d="M181 416H151C155.457 409.989 160.783 403.295 167.304 392.639C172.456 384.223 178.5 372.011 181 366V416Z" fill="#FF3434"/>
<path d="M107 73H137C132.543 66.9891 127.217 60.2951 120.696 49.6393C115.544 41.2229 109.5 29.0109 107 23V73Z" fill="#FF3434"/>
<path d="M107 73H77C81.4565 66.9891 86.7826 60.2951 93.3043 49.6393C98.4556 41.2229 104.5 29.0109 107 23V73Z" fill="#FF3434"/>
<path d="M107 73H77C81.4565 79.0109 86.7826 85.7049 93.3043 96.3607C98.4556 104.777 104.5 116.989 107 123V73Z" fill="#FF3434"/>
<path d="M107 73H137C132.543 79.0109 127.217 85.7049 120.696 96.3607C115.544 104.777 109.5 116.989 107 123V73Z" fill="#FF3434"/>
<path d="M107 214H137C132.543 207.989 127.217 201.295 120.696 190.639C115.544 182.223 109.5 170.011 107 164V214Z" fill="#FF3434"/>
<path d="M107 214H77C81.4565 207.989 86.7826 201.295 93.3043 190.639C98.4556 182.223 104.5 170.011 107 164V214Z" fill="#FF3434"/>
<path d="M107 214H77C81.4565 220.011 86.7826 226.705 93.3043 237.361C98.4556 245.777 104.5 257.989 107 264V214Z" fill="#FF3434"/>
<path d="M107 214H137C132.543 220.011 127.217 226.705 120.696 237.361C115.544 245.777 109.5 257.989 107 264V214Z" fill="#FF3434"/>
<path d="M107 347H77C81.4565 353.011 86.7826 359.705 93.3043 370.361C98.4556 378.777 104.5 390.989 107 397V347Z" fill="#FF3434"/>
<path d="M107 347H137C132.543 353.011 127.217 359.705 120.696 370.361C115.544 378.777 109.5 390.989 107 397V347Z" fill="#FF3434"/>
<path d="M107 347H137C132.543 340.989 127.217 334.295 120.696 323.639C115.544 315.223 109.5 303.011 107 297L107 347Z" fill="#FF3434"/>
<path d="M107 347H77C81.4565 340.989 86.7826 334.295 93.3043 323.639C98.4556 315.223 104.5 303.011 107 297L107 347Z" fill="#FF3434"/>
<path d="M107 488H77C81.4565 494.011 86.7826 500.705 93.3043 511.361C98.4556 519.777 104.5 531.989 107 538V488Z" fill="#FF3434"/>
<path d="M107 488H137C132.543 494.011 127.217 500.705 120.696 511.361C115.544 519.777 109.5 531.989 107 538V488Z" fill="#FF3434"/>
<path d="M107 488H137C132.543 481.989 127.217 475.295 120.696 464.639C115.544 456.223 109.5 444.011 107 438L107 488Z" fill="#FF3434"/>
<path d="M107 488H77C81.4565 481.989 86.7826 475.295 93.3043 464.639C98.4556 456.223 104.5 444.011 107 438L107 488Z" fill="#FF3434"/>
<path d="M14.26 31.8C14.18 31.92 12.96 32.2 10.6 32.64C8.28 33.08 6.68 33.38 5.8 33.54V28.68C10.68 27.52 14.02 25.76 15.82 23.4H20.68V72H14.26V31.8ZM43.3291 72.54C39.3291 72.54 36.3091 71.24 34.2691 68.64C32.2691 66.04 31.2691 62.56 31.2691 58.2V37.26C31.2691 32.82 32.2491 29.34 34.2091 26.82C36.2091 24.26 39.2491 22.98 43.3291 22.98C47.3691 22.98 50.3691 24.26 52.3291 26.82C54.3291 29.34 55.3291 32.82 55.3291 37.26V58.2C55.3291 62.6 54.3291 66.1 52.3291 68.7C50.3291 71.26 47.3291 72.54 43.3291 72.54ZM43.3291 67.26C47.0091 67.26 48.8491 64.26 48.8491 58.26V37.2C48.8491 34.44 48.4491 32.26 47.6491 30.66C46.8891 29.02 45.4491 28.2 43.3291 28.2C41.2091 28.2 39.7491 29.02 38.9491 30.66C38.1491 32.26 37.7491 34.44 37.7491 37.2V58.26C37.7491 64.26 39.6091 67.26 43.3291 67.26Z" fill="#FF3434"/>
<path d="M31.5 109.608H44C42.1431 107.131 39.9239 104.372 37.2065 99.9797C35.0602 96.5108 32.5417 91.4775 31.5 89V109.608Z" fill="#FF3434"/>
<path d="M31.5 109.608H19C20.8569 107.131 23.0761 104.372 25.7935 99.9797C27.9398 96.5108 30.4583 91.4775 31.5 89V109.608Z" fill="#FF3434"/>
<path d="M31.5 109.608H19C20.8569 112.086 23.0761 114.845 25.7935 119.236C27.9398 122.705 30.4583 127.739 31.5 130.216V109.608Z" fill="#FF3434"/>
<path d="M31.5 109.608H44C42.1431 112.086 39.9239 114.845 37.2065 119.236C35.0602 122.705 32.5417 127.739 31.5 130.216V109.608Z" fill="#FF3434"/>
<path d="M345.74 529.2C345.82 529.08 347.04 528.8 349.4 528.36C351.72 527.92 353.32 527.62 354.2 527.46L354.2 532.32C349.32 533.48 345.98 535.24 344.18 537.6L339.32 537.6L339.32 489L345.74 489L345.74 529.2ZM316.671 488.46C320.671 488.46 323.691 489.76 325.731 492.36C327.731 494.96 328.731 498.44 328.731 502.8L328.731 523.74C328.731 528.18 327.751 531.66 325.791 534.18C323.791 536.74 320.751 538.02 316.671 538.02C312.631 538.02 309.631 536.74 307.671 534.18C305.671 531.66 304.671 528.18 304.671 523.74L304.671 502.8C304.671 498.4 305.671 494.9 307.671 492.3C309.671 489.74 312.671 488.46 316.671 488.46ZM316.671 493.74C312.991 493.74 311.151 496.74 311.151 502.74L311.151 523.8C311.151 526.56 311.551 528.74 312.351 530.34C313.111 531.98 314.551 532.8 316.671 532.8C318.791 532.8 320.251 531.98 321.051 530.34C321.851 528.74 322.251 526.56 322.251 523.8L322.251 502.74C322.251 496.74 320.391 493.74 316.671 493.74Z" fill="#FF3434"/>
<path d="M328.5 451.608H341C339.143 449.131 336.924 446.372 334.207 441.98C332.06 438.511 329.542 433.477 328.5 431V451.608Z" fill="#FF3434"/>
<path d="M328.5 451.608H316C317.857 449.131 320.076 446.372 322.793 441.98C324.94 438.511 327.458 433.477 328.5 431V451.608Z" fill="#FF3434"/>
<path d="M328.5 451.608H316C317.857 454.086 320.076 456.845 322.793 461.236C324.94 464.705 327.458 469.739 328.5 472.216V451.608Z" fill="#FF3434"/>
<path d="M328.5 451.608H341C339.143 454.086 336.924 456.845 334.207 461.236C332.06 464.705 329.542 469.739 328.5 472.216V451.608Z" fill="#FF3434"/>
</g>
<defs>
<clipPath id="clip0">
<rect width="360" height="560.121" fill="white"/>
</clipPath>
</defs>
</svg>
