<svg width="360" height="561" viewBox="0 0 360 561" fill="none" xmlns="http://www.w3.org/2000/svg">
<g clip-path="url(#clip0)">
<rect width="360" height="560.121" fill="white"/>
<path d="M180 146H210C205.543 139.989 200.217 133.295 193.696 122.639C188.544 114.223 182.5 102.011 180 96V146Z" fill="#FF3434"/>
<path d="M180 146H150C154.457 139.989 159.783 133.295 166.304 122.639C171.456 114.223 177.5 102.011 180 96V146Z" fill="#FF3434"/>
<path d="M180 146H150C154.457 152.011 159.783 158.705 166.304 169.361C171.456 177.777 177.5 189.989 180 196V146Z" fill="#FF3434"/>
<path d="M180 146H210C205.543 152.011 200.217 158.705 193.696 169.361C188.544 177.777 182.5 189.989 180 196V146Z" fill="#FF3434"/>
<path d="M180 414H150C154.457 420.011 159.783 426.705 166.304 437.361C171.456 445.777 177.5 457.989 180 464V414Z" fill="#FF3434"/>
<path d="M180 414H210C205.543 420.011 200.217 426.705 193.696 437.361C188.544 445.777 182.5 457.989 180 464V414Z" fill="#FF3434"/>
<path d="M180 414H210C205.543 407.989 200.217 401.295 193.696 390.639C188.544 382.223 182.5 370.011 180 364V414Z" fill="#FF3434"/>
<path d="M180 414H150C154.457 407.989 159.783 401.295 166.304 390.639C171.456 382.223 177.5 370.011 180 364V414Z" fill="#FF3434"/>
<path d="M18.46 67.44L30.82 48.18C31.42 47.22 31.82 46.62 32.02 46.38C33.42 44.14 34.44 42.28 35.08 40.8C35.72 39.32 36.04 37.54 36.04 35.46C36.04 33.14 35.66 31.36 34.9 30.12C34.14 28.88 32.9 28.26 31.18 28.26C27.34 28.26 25.42 31.24 25.42 37.2V38.82H19V37.14C19 32.58 19.94 29.08 21.82 26.64C23.7 24.2 26.72 22.98 30.88 22.98C34.72 22.98 37.62 24.08 39.58 26.28C41.54 28.44 42.52 31.52 42.52 35.52C42.52 37.48 42.28 39.24 41.8 40.8C41.36 42.32 40.82 43.64 40.18 44.76C39.54 45.88 38.54 47.48 37.18 49.56L26.02 66.6H41.38V72H18.46V67.44Z" fill="#FF3434"/>
<path d="M31.5 109.608H44C42.1431 107.131 39.9239 104.372 37.2065 99.9797C35.0602 96.5108 32.5417 91.4775 31.5 89V109.608Z" fill="#FF3434"/>
<path d="M31.5 109.608H19C20.8569 107.131 23.0761 104.372 25.7935 99.9797C27.9398 96.5108 30.4583 91.4775 31.5 89V109.608Z" fill="#FF3434"/>
<path d="M31.5 109.608H19C20.8569 112.086 23.0761 114.845 25.7935 119.236C27.9398 122.705 30.4583 127.739 31.5 130.216V109.608Z" fill="#FF3434"/>
<path d="M31.5 109.608H44C42.1431 112.086 39.9239 114.845 37.2065 119.236C35.0602 122.705 32.5417 127.739 31.5 130.216V109.608Z" fill="#FF3434"/>
<path d="M340.54 493.56L328.18 512.82C327.58 513.78 327.18 514.38 326.98 514.62C325.58 516.86 324.56 518.72 323.92 520.2C323.28 521.68 322.96 523.46 322.96 525.54C322.96 527.86 323.34 529.64 324.1 530.88C324.86 532.12 326.1 532.74 327.82 532.74C331.66 532.74 333.58 529.76 333.58 523.8L333.58 522.18L340 522.18L340 523.86C340 528.42 339.06 531.92 337.18 534.36C335.3 536.8 332.28 538.02 328.12 538.02C324.28 538.02 321.38 536.92 319.42 534.72C317.46 532.56 316.48 529.48 316.48 525.48C316.48 523.52 316.72 521.76 317.2 520.2C317.64 518.68 318.18 517.36 318.82 516.24C319.46 515.12 320.46 513.52 321.82 511.44L332.98 494.4L317.62 494.4L317.62 489L340.54 489L340.54 493.56Z" fill="#FF3434"/>
<path d="M328.5 451.608H341C339.143 449.131 336.924 446.372 334.207 441.98C332.06 438.511 329.542 433.477 328.5 431V451.608Z" fill="#FF3434"/>
<path d="M328.5 451.608H316C317.857 449.131 320.076 446.372 322.793 441.98C324.94 438.511 327.458 433.477 328.5 431V451.608Z" fill="#FF3434"/>
<path d="M328.5 451.608H316C317.857 454.086 320.076 456.845 322.793 461.236C324.94 464.705 327.458 469.739 328.5 472.216V451.608Z" fill="#FF3434"/>
<path d="M328.5 451.608H341C339.143 454.086 336.924 456.845 334.207 461.236C332.06 464.705 329.542 469.739 328.5 472.216V451.608Z" fill="#FF3434"/>
</g>
<defs>
<clipPath id="clip0">
<rect width="360" height="560.121" fill="white"/>
</clipPath>
</defs>
</svg>
