<svg width="360" height="561" viewBox="0 0 360 561" fill="none" xmlns="http://www.w3.org/2000/svg">
<g clip-path="url(#clip0)">
<rect width="360" height="560.121" fill="white"/>
<path d="M221.734 153.5C225.355 135.1 190.956 104.74 180.545 96C170.135 104.74 134.637 135.1 138.258 153.5C142.296 174.018 164.856 170.367 174.663 165C174.512 168.987 172.921 175.792 171.473 178C169.662 180.76 160.994 188 153.752 188H180.093H205.34C198.098 188 191.004 180.76 189.194 178C187.746 175.792 185.676 168.987 185.526 165C195.332 170.367 217.696 174.018 221.734 153.5Z" fill="black"/>
<path d="M138.266 405.5C134.645 423.9 169.044 454.26 179.455 463C189.865 454.26 225.363 423.9 221.742 405.5C217.704 384.982 195.144 388.633 185.337 394C185.488 390.013 187.079 383.208 188.527 381C190.338 378.24 199.006 371 206.248 371H179.907H154.66C161.902 371 168.996 378.24 170.806 381C172.254 383.208 174.324 390.013 174.474 394C164.668 388.633 142.304 384.982 138.266 405.5Z" fill="black"/>
<path d="M18.46 67.44L30.82 48.18C31.42 47.22 31.82 46.62 32.02 46.38C33.42 44.14 34.44 42.28 35.08 40.8C35.72 39.32 36.04 37.54 36.04 35.46C36.04 33.14 35.66 31.36 34.9 30.12C34.14 28.88 32.9 28.26 31.18 28.26C27.34 28.26 25.42 31.24 25.42 37.2V38.82H19V37.14C19 32.58 19.94 29.08 21.82 26.64C23.7 24.2 26.72 22.98 30.88 22.98C34.72 22.98 37.62 24.08 39.58 26.28C41.54 28.44 42.52 31.52 42.52 35.52C42.52 37.48 42.28 39.24 41.8 40.8C41.36 42.32 40.82 43.64 40.18 44.76C39.54 45.88 38.54 47.48 37.18 49.56L26.02 66.6H41.38V72H18.46V67.44Z" fill="black"/>
<path d="M45.9051 109.25C47.1983 102.77 34.9128 92.078 31.1948 89C27.4768 92.078 14.799 102.77 16.0922 109.25C17.5343 116.476 25.5913 115.19 29.0938 113.3C29.0399 114.704 28.4719 117.101 27.9546 117.878C27.308 118.85 24.2121 121.4 21.6257 121.4H31.0331H40.0499C37.4635 121.4 34.9302 118.85 34.2836 117.878C33.7663 117.101 33.0273 114.704 32.9734 113.3C36.4759 115.19 44.463 116.476 45.9051 109.25Z" fill="black"/>
<path d="M340.54 493.56L328.18 512.82C327.58 513.78 327.18 514.38 326.98 514.62C325.58 516.86 324.56 518.72 323.92 520.2C323.28 521.68 322.96 523.46 322.96 525.54C322.96 527.86 323.34 529.64 324.1 530.88C324.86 532.12 326.1 532.74 327.82 532.74C331.66 532.74 333.58 529.76 333.58 523.8L333.58 522.18L340 522.18L340 523.86C340 528.42 339.06 531.92 337.18 534.36C335.3 536.8 332.28 538.02 328.12 538.02C324.28 538.02 321.38 536.92 319.42 534.72C317.46 532.56 316.48 529.48 316.48 525.48C316.48 523.52 316.72 521.76 317.2 520.2C317.64 518.68 318.18 517.36 318.82 516.24C319.46 515.12 320.46 513.52 321.82 511.44L332.98 494.4L317.62 494.4L317.62 489L340.54 489L340.54 493.56Z" fill="black"/>
<path d="M313.095 452.15C311.802 458.63 324.087 469.322 327.805 472.4C331.523 469.322 344.201 458.63 342.908 452.15C341.466 444.924 333.409 446.21 329.906 448.1C329.96 446.696 330.528 444.299 331.045 443.522C331.692 442.55 334.788 440 337.374 440L327.967 440L318.95 440C321.537 440 324.07 442.55 324.716 443.522C325.234 444.299 325.973 446.696 326.027 448.1C322.524 446.21 314.537 444.924 313.095 452.15Z" fill="black"/>
</g>
<defs>
<clipPath id="clip0">
<rect width="360" height="560.121" fill="white"/>
</clipPath>
</defs>
</svg>
