<svg width="360" height="561" viewBox="0 0 360 561" fill="none" xmlns="http://www.w3.org/2000/svg">
<g clip-path="url(#clip0)">
<rect width="360" height="560.121" fill="white"/>
<path d="M179.262 126.148C184.81 126.148 190.131 110.632 194.054 106.709C197.976 102.786 200.18 97.4658 200.18 91.918C200.18 86.3702 197.976 81.0496 194.054 77.1268C190.131 73.2039 184.81 71 179.262 71V126.148Z" fill="black"/>
<path d="M223 126.148C223 137.7 213.635 144.689 202.082 144.689C195.571 144.689 190.672 142.311 186.393 138.508C182.115 134.705 181.639 130.902 179.262 126.148C179.262 120.107 181.348 117.13 185.443 113.311C189.179 109.827 196.57 107.131 202.082 107.131C213.635 107.131 223 114.595 223 126.148Z" fill="black"/>
<path d="M179.262 126.148C173.714 126.148 168.394 110.632 164.471 106.709C160.548 102.786 158.344 97.4658 158.344 91.918C158.344 86.3702 160.548 81.0496 164.471 77.1268C168.394 73.2039 173.714 71 179.262 71V126.148Z" fill="black"/>
<path d="M136 126.148C136 137.7 144.89 144.689 156.443 144.689C162.954 144.689 167.545 143.094 172.131 138.508C176.41 134.23 176.885 130.902 179.262 126.148C179.262 120.107 177.652 117.13 173.557 113.311C169.821 109.827 161.954 107.131 156.443 107.131C144.89 107.131 136 114.595 136 126.148Z" fill="black"/>
<path d="M179.262 158V122.344H182.115C182.273 124.563 182.115 131.852 184.016 138.984C185.889 146.004 191.781 154.355 195.426 158H179.262Z" fill="black"/>
<path d="M179.262 158V122.344H176.41C176.251 124.563 176.41 131.852 174.508 138.984C172.636 146.004 166.743 154.355 163.098 158H179.262Z" fill="black"/>
<path d="M179.262 292.148C184.81 292.148 190.131 276.632 194.054 272.709C197.976 268.786 200.18 263.466 200.18 257.918C200.18 252.37 197.976 247.05 194.054 243.127C190.131 239.204 184.81 237 179.262 237V292.148Z" fill="black"/>
<path d="M223 292.148C223 303.7 213.635 310.689 202.082 310.689C195.571 310.689 190.672 308.311 186.393 304.508C182.115 300.705 181.639 296.902 179.262 292.148C179.262 286.107 181.348 283.13 185.443 279.311C189.179 275.827 196.57 273.131 202.082 273.131C213.635 273.131 223 280.595 223 292.148Z" fill="black"/>
<path d="M179.262 292.148C173.714 292.148 168.394 276.632 164.471 272.709C160.548 268.786 158.344 263.466 158.344 257.918C158.344 252.37 160.548 247.05 164.471 243.127C168.394 239.204 173.714 237 179.262 237V292.148Z" fill="black"/>
<path d="M136 292.148C136 303.7 144.89 310.689 156.443 310.689C162.954 310.689 167.545 309.094 172.131 304.508C176.41 300.23 176.885 296.902 179.262 292.148C179.262 286.107 177.652 283.13 173.557 279.311C169.821 275.827 161.954 273.131 156.443 273.131C144.89 273.131 136 280.595 136 292.148Z" fill="black"/>
<path d="M179.262 324V288.344H182.115C182.273 290.563 182.115 297.852 184.016 304.984C185.889 312.004 191.781 320.355 195.426 324H179.262Z" fill="black"/>
<path d="M179.262 324V288.344H176.41C176.251 290.563 176.41 297.852 174.508 304.984C172.636 312.004 166.743 320.355 163.098 324H179.262Z" fill="black"/>
<path d="M179.738 434.852C174.19 434.852 168.869 450.368 164.946 454.291C161.024 458.214 158.82 463.534 158.82 469.082C158.82 474.63 161.024 479.95 164.946 483.873C168.869 487.796 174.19 490 179.738 490V434.852Z" fill="black"/>
<path d="M136 434.852C136 423.3 145.365 416.311 156.918 416.311C163.429 416.311 168.328 418.689 172.607 422.492C176.885 426.295 177.361 430.098 179.738 434.852C179.738 440.893 177.652 443.87 173.557 447.689C169.821 451.173 162.43 453.869 156.918 453.869C145.365 453.869 136 446.405 136 434.852Z" fill="black"/>
<path d="M179.738 434.852C185.286 434.852 190.606 450.368 194.529 454.291C198.452 458.214 200.656 463.534 200.656 469.082C200.656 474.63 198.452 479.95 194.529 483.873C190.606 487.796 185.286 490 179.738 490V434.852Z" fill="black"/>
<path d="M223 434.852C223 423.3 214.11 416.311 202.557 416.311C196.046 416.311 191.455 417.906 186.869 422.492C182.59 426.77 182.115 430.098 179.738 434.852C179.738 440.893 181.348 443.87 185.443 447.689C189.179 451.173 197.046 453.869 202.557 453.869C214.11 453.869 223 446.405 223 434.852Z" fill="black"/>
<path d="M179.738 403V438.656H176.885C176.727 436.437 176.885 429.148 174.984 422.016C173.111 414.996 167.219 406.645 163.574 403H179.738Z" fill="black"/>
<path d="M179.738 403V438.656H182.59C182.749 436.437 182.59 429.148 184.492 422.016C186.364 414.996 192.257 406.645 195.902 403H179.738Z" fill="black"/>
<path d="M30.28 72.54C26.4 72.54 23.44 71.46 21.4 69.3C19.4 67.1 18.4 64.02 18.4 60.06V58.44H24.76V59.52C24.84 62 25.26 63.9 26.02 65.22C26.82 66.54 28.24 67.2 30.28 67.2C32.44 67.2 33.9 66.46 34.66 64.98C35.46 63.46 35.86 61.22 35.86 58.26C35.86 55.54 35.36 53.42 34.36 51.9C33.36 50.34 31.74 49.48 29.5 49.32C29.34 49.28 29.04 49.26 28.6 49.26V42.84H29.44C31.72 42.76 33.36 42.16 34.36 41.04C35.36 39.92 35.86 38.06 35.86 35.46C35.86 33.06 35.46 31.26 34.66 30.06C33.86 28.82 32.42 28.2 30.34 28.2C28.26 28.2 26.82 28.86 26.02 30.18C25.26 31.5 24.84 33.44 24.76 36V37.02H18.4V35.4C18.4 31.44 19.4 28.38 21.4 26.22C23.44 24.06 26.42 22.98 30.34 22.98C34.26 22.98 37.22 24.08 39.22 26.28C41.26 28.44 42.28 31.5 42.28 35.46C42.28 38.3 41.66 40.62 40.42 42.42C39.18 44.22 37.48 45.44 35.32 46.08C37.52 46.76 39.22 48.14 40.42 50.22C41.66 52.3 42.28 54.98 42.28 58.26C42.28 62.78 41.3 66.3 39.34 68.82C37.42 71.3 34.4 72.54 30.28 72.54Z" fill="black"/>
<path d="M29.918 108.016C31.8311 108.016 33.6658 102.666 35.0185 101.314C36.3712 99.9608 37.1311 98.1262 37.1311 96.2131C37.1311 94.3001 36.3712 92.4654 35.0185 91.1127C33.6658 89.76 31.8311 89 29.918 89V108.016Z" fill="black"/>
<path d="M45 108.016C45 112 41.7706 114.41 37.7869 114.41C35.5417 114.41 33.8525 113.59 32.377 112.279C30.9016 110.967 30.7377 109.656 29.918 108.016C29.918 105.933 30.6371 104.907 32.0492 103.59C33.3376 102.389 35.8862 101.459 37.7869 101.459C41.7706 101.459 45 104.033 45 108.016Z" fill="black"/>
<path d="M29.918 108.016C28.005 108.016 26.1703 102.666 24.8176 101.314C23.4649 99.9608 22.7049 98.1262 22.7049 96.2131C22.7049 94.3001 23.4649 92.4654 24.8176 91.1127C26.1703 89.76 28.005 89 29.918 89V108.016Z" fill="black"/>
<path d="M15 108.016C15 112 18.0655 114.41 22.0492 114.41C24.2944 114.41 25.8776 113.86 27.459 112.279C28.9344 110.803 29.0984 109.656 29.918 108.016C29.918 105.933 29.3629 104.907 27.9508 103.59C26.6624 102.389 23.9498 101.459 22.0492 101.459C18.0655 101.459 15 104.033 15 108.016Z" fill="black"/>
<path d="M29.918 119V106.705H30.9016C30.9563 107.47 30.9016 109.984 31.5574 112.443C32.203 114.864 34.235 117.743 35.4918 119H29.918Z" fill="black"/>
<path d="M29.918 119V106.705H28.9344C28.8798 107.47 28.9344 109.984 28.2787 112.443C27.6331 114.864 25.6011 117.743 24.3443 119H29.918Z" fill="black"/>
<path d="M328.72 488.46C332.6 488.46 335.56 489.54 337.6 491.7C339.6 493.9 340.6 496.98 340.6 500.94L340.6 502.56L334.24 502.56L334.24 501.48C334.16 499 333.74 497.1 332.98 495.78C332.18 494.46 330.76 493.8 328.72 493.8C326.56 493.8 325.1 494.54 324.34 496.02C323.54 497.54 323.14 499.78 323.14 502.74C323.14 505.46 323.64 507.58 324.64 509.1C325.64 510.66 327.26 511.52 329.5 511.68C329.66 511.72 329.96 511.74 330.4 511.74L330.4 518.16L329.56 518.16C327.28 518.24 325.64 518.84 324.64 519.96C323.64 521.08 323.14 522.94 323.14 525.54C323.14 527.94 323.54 529.74 324.34 530.94C325.14 532.18 326.58 532.8 328.66 532.8C330.74 532.8 332.18 532.14 332.98 530.82C333.74 529.5 334.16 527.56 334.24 525L334.24 523.98L340.6 523.98L340.6 525.6C340.6 529.56 339.6 532.62 337.6 534.78C335.56 536.94 332.58 538.02 328.66 538.02C324.74 538.02 321.78 536.92 319.78 534.72C317.74 532.56 316.72 529.5 316.72 525.54C316.72 522.7 317.34 520.38 318.58 518.58C319.82 516.78 321.52 515.56 323.68 514.92C321.48 514.24 319.78 512.86 318.58 510.78C317.34 508.7 316.72 506.02 316.72 502.74C316.72 498.22 317.7 494.7 319.66 492.18C321.58 489.7 324.6 488.46 328.72 488.46Z" fill="black"/>
<path d="M329.082 452.984C327.169 452.984 325.334 458.334 323.982 459.686C322.629 461.039 321.869 462.874 321.869 464.787C321.869 466.7 322.629 468.535 323.982 469.887C325.334 471.24 327.169 472 329.082 472L329.082 452.984Z" fill="black"/>
<path d="M314 452.984C314 449 317.229 446.59 321.213 446.59C323.458 446.59 325.148 447.41 326.623 448.721C328.098 450.033 328.262 451.344 329.082 452.984C329.082 455.067 328.363 456.093 326.951 457.41C325.662 458.611 323.114 459.541 321.213 459.541C317.229 459.541 314 456.967 314 452.984Z" fill="black"/>
<path d="M329.082 452.984C330.995 452.984 332.83 458.334 334.182 459.686C335.535 461.039 336.295 462.874 336.295 464.787C336.295 466.7 335.535 468.535 334.182 469.887C332.83 471.24 330.995 472 329.082 472L329.082 452.984Z" fill="black"/>
<path d="M344 452.984C344 449 340.935 446.59 336.951 446.59C334.706 446.59 333.122 447.14 331.541 448.721C330.066 450.197 329.902 451.344 329.082 452.984C329.082 455.067 329.637 456.093 331.049 457.41C332.338 458.611 335.05 459.541 336.951 459.541C340.935 459.541 344 456.967 344 452.984Z" fill="black"/>
<path d="M329.082 442L329.082 454.295L328.098 454.295C328.044 453.53 328.098 451.016 327.443 448.557C326.797 446.136 324.765 443.257 323.508 442L329.082 442Z" fill="black"/>
<path d="M329.082 442L329.082 454.295L330.066 454.295C330.12 453.53 330.066 451.016 330.721 448.557C331.367 446.136 333.399 443.257 334.656 442L329.082 442Z" fill="black"/>
</g>
<defs>
<clipPath id="clip0">
<rect width="360" height="560.121" fill="white"/>
</clipPath>
</defs>
</svg>
