<svg width="360" height="561" viewBox="0 0 360 561" fill="none" xmlns="http://www.w3.org/2000/svg">
<g clip-path="url(#clip0)">
<rect width="360" height="560.121" fill="white"/>
<path d="M180 114H210C205.543 107.989 200.217 101.295 193.696 90.6393C188.544 82.2229 182.5 70.0109 180 64V114Z" fill="#FF3434"/>
<path d="M180 114H150C154.457 107.989 159.783 101.295 166.304 90.6393C171.456 82.2229 177.5 70.0109 180 64V114Z" fill="#FF3434"/>
<path d="M180 114H150C154.457 120.011 159.783 126.705 166.304 137.361C171.456 145.777 177.5 157.989 180 164V114Z" fill="#FF3434"/>
<path d="M180 114H210C205.543 120.011 200.217 126.705 193.696 137.361C188.544 145.777 182.5 157.989 180 164V114Z" fill="#FF3434"/>
<path d="M180 280H210C205.543 273.989 200.217 267.295 193.696 256.639C188.544 248.223 182.5 236.011 180 230V280Z" fill="#FF3434"/>
<path d="M180 280H150C154.457 273.989 159.783 267.295 166.304 256.639C171.456 248.223 177.5 236.011 180 230V280Z" fill="#FF3434"/>
<path d="M180 280H150C154.457 286.011 159.783 292.705 166.304 303.361C171.456 311.777 177.5 323.989 180 330V280Z" fill="#FF3434"/>
<path d="M180 280H210C205.543 286.011 200.217 292.705 193.696 303.361C188.544 311.777 182.5 323.989 180 330V280Z" fill="#FF3434"/>
<path d="M180 446H150C154.457 452.011 159.783 458.705 166.304 469.361C171.456 477.777 177.5 489.989 180 496V446Z" fill="#FF3434"/>
<path d="M180 446H210C205.543 452.011 200.217 458.705 193.696 469.361C188.544 477.777 182.5 489.989 180 496V446Z" fill="#FF3434"/>
<path d="M180 446H210C205.543 439.989 200.217 433.295 193.696 422.639C188.544 414.223 182.5 402.011 180 396V446Z" fill="#FF3434"/>
<path d="M180 446H150C154.457 439.989 159.783 433.295 166.304 422.639C171.456 414.223 177.5 402.011 180 396V446Z" fill="#FF3434"/>
<path d="M30.28 72.54C26.4 72.54 23.44 71.46 21.4 69.3C19.4 67.1 18.4 64.02 18.4 60.06V58.44H24.76V59.52C24.84 62 25.26 63.9 26.02 65.22C26.82 66.54 28.24 67.2 30.28 67.2C32.44 67.2 33.9 66.46 34.66 64.98C35.46 63.46 35.86 61.22 35.86 58.26C35.86 55.54 35.36 53.42 34.36 51.9C33.36 50.34 31.74 49.48 29.5 49.32C29.34 49.28 29.04 49.26 28.6 49.26V42.84H29.44C31.72 42.76 33.36 42.16 34.36 41.04C35.36 39.92 35.86 38.06 35.86 35.46C35.86 33.06 35.46 31.26 34.66 30.06C33.86 28.82 32.42 28.2 30.34 28.2C28.26 28.2 26.82 28.86 26.02 30.18C25.26 31.5 24.84 33.44 24.76 36V37.02H18.4V35.4C18.4 31.44 19.4 28.38 21.4 26.22C23.44 24.06 26.42 22.98 30.34 22.98C34.26 22.98 37.22 24.08 39.22 26.28C41.26 28.44 42.28 31.5 42.28 35.46C42.28 38.3 41.66 40.62 40.42 42.42C39.18 44.22 37.48 45.44 35.32 46.08C37.52 46.76 39.22 48.14 40.42 50.22C41.66 52.3 42.28 54.98 42.28 58.26C42.28 62.78 41.3 66.3 39.34 68.82C37.42 71.3 34.4 72.54 30.28 72.54Z" fill="#FF3434"/>
<path d="M31.5 109.608H44C42.1431 107.131 39.9239 104.372 37.2065 99.9797C35.0602 96.5108 32.5417 91.4775 31.5 89V109.608Z" fill="#FF3434"/>
<path d="M31.5 109.608H19C20.8569 107.131 23.0761 104.372 25.7935 99.9797C27.9398 96.5108 30.4583 91.4775 31.5 89V109.608Z" fill="#FF3434"/>
<path d="M31.5 109.608H19C20.8569 112.086 23.0761 114.845 25.7935 119.236C27.9398 122.705 30.4583 127.739 31.5 130.216V109.608Z" fill="#FF3434"/>
<path d="M31.5 109.608H44C42.1431 112.086 39.9239 114.845 37.2065 119.236C35.0602 122.705 32.5417 127.739 31.5 130.216V109.608Z" fill="#FF3434"/>
<path d="M328.72 488.46C332.6 488.46 335.56 489.54 337.6 491.7C339.6 493.9 340.6 496.98 340.6 500.94L340.6 502.56L334.24 502.56L334.24 501.48C334.16 499 333.74 497.1 332.98 495.78C332.18 494.46 330.76 493.8 328.72 493.8C326.56 493.8 325.1 494.54 324.34 496.02C323.54 497.54 323.14 499.78 323.14 502.74C323.14 505.46 323.64 507.58 324.64 509.1C325.64 510.66 327.26 511.52 329.5 511.68C329.66 511.72 329.96 511.74 330.4 511.74L330.4 518.16L329.56 518.16C327.28 518.24 325.64 518.84 324.64 519.96C323.64 521.08 323.14 522.94 323.14 525.54C323.14 527.94 323.54 529.74 324.34 530.94C325.14 532.18 326.58 532.8 328.66 532.8C330.74 532.8 332.18 532.14 332.98 530.82C333.74 529.5 334.16 527.56 334.24 525L334.24 523.98L340.6 523.98L340.6 525.6C340.6 529.56 339.6 532.62 337.6 534.78C335.56 536.94 332.58 538.02 328.66 538.02C324.74 538.02 321.78 536.92 319.78 534.72C317.74 532.56 316.72 529.5 316.72 525.54C316.72 522.7 317.34 520.38 318.58 518.58C319.82 516.78 321.52 515.56 323.68 514.92C321.48 514.24 319.78 512.86 318.58 510.78C317.34 508.7 316.72 506.02 316.72 502.74C316.72 498.22 317.7 494.7 319.66 492.18C321.58 489.7 324.6 488.46 328.72 488.46Z" fill="#FF3434"/>
<path d="M328.5 451.608H341C339.143 449.131 336.924 446.372 334.207 441.98C332.06 438.511 329.542 433.477 328.5 431V451.608Z" fill="#FF3434"/>
<path d="M328.5 451.608H316C317.857 449.131 320.076 446.372 322.793 441.98C324.94 438.511 327.458 433.477 328.5 431V451.608Z" fill="#FF3434"/>
<path d="M328.5 451.608H316C317.857 454.086 320.076 456.845 322.793 461.236C324.94 464.705 327.458 469.739 328.5 472.216V451.608Z" fill="#FF3434"/>
<path d="M328.5 451.608H341C339.143 454.086 336.924 456.845 334.207 461.236C332.06 464.705 329.542 469.739 328.5 472.216V451.608Z" fill="#FF3434"/>
</g>
<defs>
<clipPath id="clip0">
<rect width="360" height="560.121" fill="white"/>
</clipPath>
</defs>
</svg>
