<svg width="360" height="561" viewBox="0 0 360 561" fill="none" xmlns="http://www.w3.org/2000/svg">
<g clip-path="url(#clip0)">
<rect width="360" height="560.121" fill="white"/>
<path d="M223 96.5593C223 103.185 220.855 109.222 217.336 113.763C216.852 114.388 216.341 114.984 215.807 115.55C211.952 119.633 206.848 122.119 201.25 122.119C189.238 122.119 179.5 110.675 179.5 96.5593C179.5 82.4433 189.238 71 201.25 71C213.262 71 223 82.4433 223 96.5593Z" fill="#FF3434"/>
<path d="M201.25 122.119C189.238 122.119 179.5 110.675 179.5 96.5593V158L215.807 115.55C211.952 119.633 206.848 122.119 201.25 122.119Z" fill="#FF3434"/>
<path d="M136 96.5593C136 103.185 138.145 109.222 141.664 113.763C142.148 114.388 142.659 114.984 143.193 115.55C147.048 119.633 152.152 122.119 157.75 122.119C169.762 122.119 179.5 110.675 179.5 96.5593C179.5 82.4433 169.762 71 157.75 71C145.738 71 136 82.4433 136 96.5593Z" fill="#FF3434"/>
<path d="M157.75 122.119C169.762 122.119 179.5 110.675 179.5 96.5593V158L143.193 115.55C147.048 119.633 152.152 122.119 157.75 122.119Z" fill="#FF3434"/>
<path d="M223 262.559C223 269.185 220.855 275.222 217.336 279.763C216.852 280.388 216.341 280.984 215.807 281.55C211.952 285.633 206.848 288.119 201.25 288.119C189.238 288.119 179.5 276.675 179.5 262.559C179.5 248.443 189.238 237 201.25 237C213.262 237 223 248.443 223 262.559Z" fill="#FF3434"/>
<path d="M201.25 288.119C189.238 288.119 179.5 276.675 179.5 262.559V324L215.807 281.55C211.952 285.633 206.848 288.119 201.25 288.119Z" fill="#FF3434"/>
<path d="M136 262.559C136 269.185 138.145 275.222 141.664 279.763C142.148 280.388 142.659 280.984 143.193 281.55C147.048 285.633 152.152 288.119 157.75 288.119C169.762 288.119 179.5 276.675 179.5 262.559C179.5 248.443 169.762 237 157.75 237C145.738 237 136 248.443 136 262.559Z" fill="#FF3434"/>
<path d="M157.75 288.119C169.762 288.119 179.5 276.675 179.5 262.559V324L143.193 281.55C147.048 285.633 152.152 288.119 157.75 288.119Z" fill="#FF3434"/>
<path d="M136 464.441C136 457.815 138.145 451.778 141.664 447.237C142.148 446.612 142.659 446.016 143.193 445.45C147.048 441.367 152.152 438.881 157.75 438.881C169.762 438.881 179.5 450.325 179.5 464.441C179.5 478.557 169.762 490 157.75 490C145.738 490 136 478.557 136 464.441Z" fill="#FF3434"/>
<path d="M157.75 438.881C169.762 438.881 179.5 450.325 179.5 464.441V403L143.193 445.45C147.048 441.367 152.152 438.881 157.75 438.881Z" fill="#FF3434"/>
<path d="M223 464.441C223 457.815 220.855 451.778 217.336 447.237C216.852 446.612 216.341 446.016 215.807 445.45C211.952 441.367 206.848 438.881 201.25 438.881C189.238 438.881 179.5 450.325 179.5 464.441C179.5 478.557 189.238 490 201.25 490C213.262 490 223 478.557 223 464.441Z" fill="#FF3434"/>
<path d="M201.25 438.881C189.238 438.881 179.5 450.325 179.5 464.441V403L215.807 445.45C211.952 441.367 206.848 438.881 201.25 438.881Z" fill="#FF3434"/>
<path d="M30.28 72.54C26.4 72.54 23.44 71.46 21.4 69.3C19.4 67.1 18.4 64.02 18.4 60.06V58.44H24.76V59.52C24.84 62 25.26 63.9 26.02 65.22C26.82 66.54 28.24 67.2 30.28 67.2C32.44 67.2 33.9 66.46 34.66 64.98C35.46 63.46 35.86 61.22 35.86 58.26C35.86 55.54 35.36 53.42 34.36 51.9C33.36 50.34 31.74 49.48 29.5 49.32C29.34 49.28 29.04 49.26 28.6 49.26V42.84H29.44C31.72 42.76 33.36 42.16 34.36 41.04C35.36 39.92 35.86 38.06 35.86 35.46C35.86 33.06 35.46 31.26 34.66 30.06C33.86 28.82 32.42 28.2 30.34 28.2C28.26 28.2 26.82 28.86 26.02 30.18C25.26 31.5 24.84 33.44 24.76 36V37.02H18.4V35.4C18.4 31.44 19.4 28.38 21.4 26.22C23.44 24.06 26.42 22.98 30.34 22.98C34.26 22.98 37.22 24.08 39.22 26.28C41.26 28.44 42.28 31.5 42.28 35.46C42.28 38.3 41.66 40.62 40.42 42.42C39.18 44.22 37.48 45.44 35.32 46.08C37.52 46.76 39.22 48.14 40.42 50.22C41.66 52.3 42.28 54.98 42.28 58.26C42.28 62.78 41.3 66.3 39.34 68.82C37.42 71.3 34.4 72.54 30.28 72.54Z" fill="#FF3434"/>
<path d="M46 96.9975C46 99.0706 45.2602 100.96 44.0469 102.38C43.8799 102.576 43.7039 102.763 43.5197 102.94C42.1905 104.217 40.4304 104.995 38.5 104.995C34.3579 104.995 31 101.414 31 96.9975C31 92.5806 34.3579 89 38.5 89C42.6421 89 46 92.5806 46 96.9975Z" fill="#FF3434"/>
<path d="M38.5 104.995C34.3579 104.995 31 101.414 31 96.9975V116.222L43.5197 102.94C42.1905 104.217 40.4304 104.995 38.5 104.995Z" fill="#FF3434"/>
<path d="M16 96.9975C16 99.0706 16.7398 100.96 17.9531 102.38C18.1201 102.576 18.2961 102.763 18.4803 102.94C19.8095 104.217 21.5696 104.995 23.5 104.995C27.6421 104.995 31 101.414 31 96.9975C31 92.5806 27.6421 89 23.5 89C19.3579 89 16 92.5806 16 96.9975Z" fill="#FF3434"/>
<path d="M23.5 104.995C27.6421 104.995 31 101.414 31 96.9975V116.222L18.4803 102.94C19.8095 104.217 21.5696 104.995 23.5 104.995Z" fill="#FF3434"/>
<path d="M328.72 488.46C332.6 488.46 335.56 489.54 337.6 491.7C339.6 493.9 340.6 496.98 340.6 500.94L340.6 502.56L334.24 502.56L334.24 501.48C334.16 499 333.74 497.1 332.98 495.78C332.18 494.46 330.76 493.8 328.72 493.8C326.56 493.8 325.1 494.54 324.34 496.02C323.54 497.54 323.14 499.78 323.14 502.74C323.14 505.46 323.64 507.58 324.64 509.1C325.64 510.66 327.26 511.52 329.5 511.68C329.66 511.72 329.96 511.74 330.4 511.74L330.4 518.16L329.56 518.16C327.28 518.24 325.64 518.84 324.64 519.96C323.64 521.08 323.14 522.94 323.14 525.54C323.14 527.94 323.54 529.74 324.34 530.94C325.14 532.18 326.58 532.8 328.66 532.8C330.74 532.8 332.18 532.14 332.98 530.82C333.74 529.5 334.16 527.56 334.24 525L334.24 523.98L340.6 523.98L340.6 525.6C340.6 529.56 339.6 532.62 337.6 534.78C335.56 536.94 332.58 538.02 328.66 538.02C324.74 538.02 321.78 536.92 319.78 534.72C317.74 532.56 316.72 529.5 316.72 525.54C316.72 522.7 317.34 520.38 318.58 518.58C319.82 516.78 321.52 515.56 323.68 514.92C321.48 514.24 319.78 512.86 318.58 510.78C317.34 508.7 316.72 506.02 316.72 502.74C316.72 498.22 317.7 494.7 319.66 492.18C321.58 489.7 324.6 488.46 328.72 488.46Z" fill="#FF3434"/>
<path d="M313 464.225C313 462.152 313.74 460.263 314.953 458.842C315.12 458.646 315.296 458.46 315.48 458.282C316.81 457.005 318.57 456.227 320.5 456.227C324.642 456.227 328 459.808 328 464.225C328 468.642 324.642 472.222 320.5 472.222C316.358 472.222 313 468.642 313 464.225Z" fill="#FF3434"/>
<path d="M320.5 456.227C324.642 456.227 328 459.808 328 464.225V445L315.48 458.282C316.81 457.005 318.57 456.227 320.5 456.227Z" fill="#FF3434"/>
<path d="M343 464.225C343 462.152 342.26 460.263 341.047 458.842C340.88 458.646 340.704 458.46 340.52 458.282C339.19 457.005 337.43 456.227 335.5 456.227C331.358 456.227 328 459.808 328 464.225C328 468.642 331.358 472.222 335.5 472.222C339.642 472.222 343 468.642 343 464.225Z" fill="#FF3434"/>
<path d="M335.5 456.227C331.358 456.227 328 459.808 328 464.225V445L340.52 458.282C339.19 457.005 337.43 456.227 335.5 456.227Z" fill="#FF3434"/>
</g>
<defs>
<clipPath id="clip0">
<rect width="360" height="560.121" fill="white"/>
</clipPath>
</defs>
</svg>
