<svg width="360" height="561" viewBox="0 0 360 561" fill="none" xmlns="http://www.w3.org/2000/svg">
<g clip-path="url(#clip0)">
<rect width="360" height="560.121" fill="white"/>
<path d="M221.734 125.5C225.355 107.1 190.956 76.74 180.545 68C170.135 76.74 134.637 107.1 138.258 125.5C142.296 146.018 164.856 142.367 174.663 137C174.512 140.987 172.921 147.792 171.473 150C169.662 152.76 160.994 160 153.752 160H180.093H205.34C198.098 160 191.004 152.76 189.194 150C187.746 147.792 185.676 140.987 185.526 137C195.332 142.367 217.696 146.018 221.734 125.5Z" fill="black"/>
<path d="M221.734 291.5C225.355 273.1 190.956 242.74 180.545 234C170.135 242.74 134.637 273.1 138.258 291.5C142.296 312.018 164.856 308.367 174.663 303C174.512 306.987 172.921 313.792 171.473 316C169.662 318.76 160.994 326 153.752 326H180.093H205.34C198.098 326 191.004 318.76 189.194 316C187.746 313.792 185.676 306.987 185.526 303C195.332 308.367 217.696 312.018 221.734 291.5Z" fill="black"/>
<path d="M138.266 434.5C134.645 452.9 169.044 483.26 179.455 492C189.865 483.26 225.363 452.9 221.742 434.5C217.704 413.982 195.144 417.633 185.337 423C185.488 419.013 187.079 412.208 188.527 410C190.338 407.24 199.006 400 206.248 400H179.907H154.66C161.902 400 168.996 407.24 170.806 410C172.254 412.208 174.324 419.013 174.474 423C164.668 417.633 142.304 413.982 138.266 434.5Z" fill="black"/>
<path d="M30.28 72.54C26.4 72.54 23.44 71.46 21.4 69.3C19.4 67.1 18.4 64.02 18.4 60.06V58.44H24.76V59.52C24.84 62 25.26 63.9 26.02 65.22C26.82 66.54 28.24 67.2 30.28 67.2C32.44 67.2 33.9 66.46 34.66 64.98C35.46 63.46 35.86 61.22 35.86 58.26C35.86 55.54 35.36 53.42 34.36 51.9C33.36 50.34 31.74 49.48 29.5 49.32C29.34 49.28 29.04 49.26 28.6 49.26V42.84H29.44C31.72 42.76 33.36 42.16 34.36 41.04C35.36 39.92 35.86 38.06 35.86 35.46C35.86 33.06 35.46 31.26 34.66 30.06C33.86 28.82 32.42 28.2 30.34 28.2C28.26 28.2 26.82 28.86 26.02 30.18C25.26 31.5 24.84 33.44 24.76 36V37.02H18.4V35.4C18.4 31.44 19.4 28.38 21.4 26.22C23.44 24.06 26.42 22.98 30.34 22.98C34.26 22.98 37.22 24.08 39.22 26.28C41.26 28.44 42.28 31.5 42.28 35.46C42.28 38.3 41.66 40.62 40.42 42.42C39.18 44.22 37.48 45.44 35.32 46.08C37.52 46.76 39.22 48.14 40.42 50.22C41.66 52.3 42.28 54.98 42.28 58.26C42.28 62.78 41.3 66.3 39.34 68.82C37.42 71.3 34.4 72.54 30.28 72.54Z" fill="black"/>
<path d="M45.9051 109.25C47.1983 102.77 34.9128 92.078 31.1948 89C27.4768 92.078 14.799 102.77 16.0922 109.25C17.5343 116.476 25.5913 115.19 29.0938 113.3C29.0399 114.704 28.4719 117.101 27.9546 117.878C27.308 118.85 24.2121 121.4 21.6257 121.4H31.0331H40.0499C37.4635 121.4 34.9302 118.85 34.2836 117.878C33.7663 117.101 33.0273 114.704 32.9734 113.3C36.4759 115.19 44.463 116.476 45.9051 109.25Z" fill="black"/>
<path d="M328.72 488.46C332.6 488.46 335.56 489.54 337.6 491.7C339.6 493.9 340.6 496.98 340.6 500.94L340.6 502.56L334.24 502.56L334.24 501.48C334.16 499 333.74 497.1 332.98 495.78C332.18 494.46 330.76 493.8 328.72 493.8C326.56 493.8 325.1 494.54 324.34 496.02C323.54 497.54 323.14 499.78 323.14 502.74C323.14 505.46 323.64 507.58 324.64 509.1C325.64 510.66 327.26 511.52 329.5 511.68C329.66 511.72 329.96 511.74 330.4 511.74L330.4 518.16L329.56 518.16C327.28 518.24 325.64 518.84 324.64 519.96C323.64 521.08 323.14 522.94 323.14 525.54C323.14 527.94 323.54 529.74 324.34 530.94C325.14 532.18 326.58 532.8 328.66 532.8C330.74 532.8 332.18 532.14 332.98 530.82C333.74 529.5 334.16 527.56 334.24 525L334.24 523.98L340.6 523.98L340.6 525.6C340.6 529.56 339.6 532.62 337.6 534.78C335.56 536.94 332.58 538.02 328.66 538.02C324.74 538.02 321.78 536.92 319.78 534.72C317.74 532.56 316.72 529.5 316.72 525.54C316.72 522.7 317.34 520.38 318.58 518.58C319.82 516.78 321.52 515.56 323.68 514.92C321.48 514.24 319.78 512.86 318.58 510.78C317.34 508.7 316.72 506.02 316.72 502.74C316.72 498.22 317.7 494.7 319.66 492.18C321.58 489.7 324.6 488.46 328.72 488.46Z" fill="black"/>
<path d="M313.095 452.15C311.802 458.63 324.087 469.322 327.805 472.4C331.523 469.322 344.201 458.63 342.908 452.15C341.466 444.924 333.409 446.21 329.906 448.1C329.96 446.696 330.528 444.299 331.045 443.522C331.692 442.55 334.788 440 337.374 440L327.967 440L318.95 440C321.537 440 324.07 442.55 324.716 443.522C325.234 444.299 325.973 446.696 326.027 448.1C322.524 446.21 314.537 444.924 313.095 452.15Z" fill="black"/>
</g>
<defs>
<clipPath id="clip0">
<rect width="360" height="560.121" fill="white"/>
</clipPath>
</defs>
</svg>
