<svg width="360" height="561" viewBox="0 0 360 561" fill="none" xmlns="http://www.w3.org/2000/svg">
<g clip-path="url(#clip0)">
<rect width="360" height="560.121" fill="white"/>
<path d="M104.911 124.148C110.157 124.148 115.189 108.632 118.898 104.709C122.608 100.786 124.692 95.4658 124.692 89.918C124.692 84.3702 122.608 79.0496 118.898 75.1268C115.189 71.2039 110.157 69 104.911 69V124.148Z" fill="black"/>
<path d="M146.272 124.148C146.272 135.7 137.415 142.689 126.491 142.689C120.333 142.689 115.701 140.311 111.655 136.508C107.609 132.705 107.159 128.902 104.911 124.148C104.911 118.107 106.883 115.13 110.756 111.311C114.289 107.827 121.278 105.131 126.491 105.131C137.415 105.131 146.272 112.595 146.272 124.148Z" fill="black"/>
<path d="M104.911 124.148C99.6648 124.148 94.6334 108.632 90.9237 104.709C87.214 100.786 85.1299 95.4658 85.1299 89.918C85.1299 84.3702 87.214 79.0496 90.9237 75.1268C94.6334 71.2039 99.6648 69 104.911 69V124.148Z" fill="black"/>
<path d="M64 124.148C64 135.7 72.4068 142.689 83.3316 142.689C89.4889 142.689 93.8306 141.094 98.1675 136.508C102.214 132.23 102.663 128.902 104.911 124.148C104.911 118.107 103.389 115.13 99.5162 111.311C95.9828 107.827 88.5439 105.131 83.3316 105.131C72.4068 105.131 64 112.595 64 124.148Z" fill="black"/>
<path d="M104.911 156V120.344H107.609C107.758 122.563 107.609 129.852 109.407 136.984C111.177 144.004 116.75 152.355 120.197 156H104.911Z" fill="black"/>
<path d="M104.911 156V120.344H102.214C102.064 122.563 102.214 129.852 100.415 136.984C98.6449 144.004 93.0723 152.355 89.6256 156H104.911Z" fill="black"/>
<path d="M105.361 435.852C100.114 435.852 95.0829 451.368 91.3732 455.291C87.6635 459.214 85.5795 464.534 85.5795 470.082C85.5795 475.63 87.6635 480.95 91.3732 484.873C95.0829 488.796 100.114 491 105.361 491V435.852Z" fill="black"/>
<path d="M64 435.852C64 424.3 72.8563 417.311 83.7812 417.311C89.9385 417.311 94.5709 419.689 98.6171 423.492C102.663 427.295 103.113 431.098 105.361 435.852C105.361 441.893 103.389 444.87 99.5162 448.689C95.9828 452.173 88.9935 454.869 83.7812 454.869C72.8563 454.869 64 447.405 64 435.852Z" fill="black"/>
<path d="M105.361 435.852C110.607 435.852 115.638 451.368 119.348 455.291C123.058 459.214 125.142 464.534 125.142 470.082C125.142 475.63 123.058 480.95 119.348 484.873C115.638 488.796 110.607 491 105.361 491V435.852Z" fill="black"/>
<path d="M146.272 435.852C146.272 424.3 137.865 417.311 126.94 417.311C120.783 417.311 116.441 418.906 112.104 423.492C108.058 427.77 107.609 431.098 105.361 435.852C105.361 441.893 106.883 444.87 110.756 448.689C114.289 452.173 121.728 454.869 126.94 454.869C137.865 454.869 146.272 447.405 146.272 435.852Z" fill="black"/>
<path d="M105.361 404V439.656H102.663C102.513 437.437 102.663 430.148 100.865 423.016C99.0945 415.996 93.5219 407.645 90.0752 404H105.361Z" fill="black"/>
<path d="M105.361 404V439.656H108.058C108.208 437.437 108.058 430.148 109.856 423.016C111.627 415.996 117.199 407.645 120.646 404H105.361Z" fill="black"/>
<path d="M254.911 124.148C260.157 124.148 265.189 108.632 268.898 104.709C272.608 100.786 274.692 95.4658 274.692 89.918C274.692 84.3702 272.608 79.0496 268.898 75.1268C265.189 71.2039 260.157 69 254.911 69V124.148Z" fill="black"/>
<path d="M296.272 124.148C296.272 135.7 287.415 142.689 276.491 142.689C270.333 142.689 265.701 140.311 261.655 136.508C257.609 132.705 257.159 128.902 254.911 124.148C254.911 118.107 256.883 115.13 260.756 111.311C264.289 107.827 271.278 105.131 276.491 105.131C287.415 105.131 296.272 112.595 296.272 124.148Z" fill="black"/>
<path d="M254.911 124.148C249.665 124.148 244.633 108.632 240.924 104.709C237.214 100.786 235.13 95.4658 235.13 89.918C235.13 84.3702 237.214 79.0496 240.924 75.1268C244.633 71.2039 249.665 69 254.911 69V124.148Z" fill="black"/>
<path d="M214 124.148C214 135.7 222.407 142.689 233.332 142.689C239.489 142.689 243.831 141.094 248.167 136.508C252.214 132.23 252.663 128.902 254.911 124.148C254.911 118.107 253.389 115.13 249.516 111.311C245.983 107.827 238.544 105.131 233.332 105.131C222.407 105.131 214 112.595 214 124.148Z" fill="black"/>
<path d="M254.911 156V120.344H257.609C257.758 122.563 257.609 129.852 259.407 136.984C261.177 144.004 266.75 152.355 270.197 156H254.911Z" fill="black"/>
<path d="M254.911 156V120.344H252.214C252.064 122.563 252.214 129.852 250.415 136.984C248.645 144.004 243.072 152.355 239.626 156H254.911Z" fill="black"/>
<path d="M255.361 435.852C250.114 435.852 245.083 451.368 241.373 455.291C237.664 459.214 235.579 464.534 235.579 470.082C235.579 475.63 237.664 480.95 241.373 484.873C245.083 488.796 250.114 491 255.361 491V435.852Z" fill="black"/>
<path d="M214 435.852C214 424.3 222.856 417.311 233.781 417.311C239.938 417.311 244.571 419.689 248.617 423.492C252.663 427.295 253.113 431.098 255.361 435.852C255.361 441.893 253.389 444.87 249.516 448.689C245.983 452.173 238.993 454.869 233.781 454.869C222.856 454.869 214 447.405 214 435.852Z" fill="black"/>
<path d="M255.361 435.852C260.607 435.852 265.638 451.368 269.348 455.291C273.058 459.214 275.142 464.534 275.142 470.082C275.142 475.63 273.058 480.95 269.348 484.873C265.638 488.796 260.607 491 255.361 491V435.852Z" fill="black"/>
<path d="M296.272 435.852C296.272 424.3 287.865 417.311 276.94 417.311C270.783 417.311 266.441 418.906 262.104 423.492C258.058 427.77 257.609 431.098 255.361 435.852C255.361 441.893 256.883 444.87 260.756 448.689C264.289 452.173 271.728 454.869 276.94 454.869C287.865 454.869 296.272 447.405 296.272 435.852Z" fill="black"/>
<path d="M255.361 404V439.656H252.663C252.513 437.437 252.663 430.148 250.865 423.016C249.094 415.996 243.522 407.645 240.075 404H255.361Z" fill="black"/>
<path d="M255.361 404V439.656H258.058C258.208 437.437 258.058 430.148 259.856 423.016C261.627 415.996 267.199 407.645 270.646 404H255.361Z" fill="black"/>
<path d="M32.5 58.98H18.4V52.26L31.06 23.4H38.62V53.28H44.08V58.98H38.62V72H32.5V58.98ZM32.5 53.28V31.2L24.58 53.28H32.5Z" fill="black"/>
<path d="M29.918 108.016C31.8311 108.016 33.6658 102.666 35.0185 101.314C36.3712 99.9608 37.1311 98.1262 37.1311 96.2131C37.1311 94.3001 36.3712 92.4654 35.0185 91.1127C33.6658 89.76 31.8311 89 29.918 89V108.016Z" fill="black"/>
<path d="M45 108.016C45 112 41.7706 114.41 37.7869 114.41C35.5417 114.41 33.8525 113.59 32.377 112.279C30.9016 110.967 30.7377 109.656 29.918 108.016C29.918 105.933 30.6371 104.907 32.0492 103.59C33.3376 102.389 35.8862 101.459 37.7869 101.459C41.7706 101.459 45 104.033 45 108.016Z" fill="black"/>
<path d="M29.918 108.016C28.005 108.016 26.1703 102.666 24.8176 101.314C23.4649 99.9608 22.7049 98.1262 22.7049 96.2131C22.7049 94.3001 23.4649 92.4654 24.8176 91.1127C26.1703 89.76 28.005 89 29.918 89V108.016Z" fill="black"/>
<path d="M15 108.016C15 112 18.0655 114.41 22.0492 114.41C24.2944 114.41 25.8776 113.86 27.459 112.279C28.9344 110.803 29.0984 109.656 29.918 108.016C29.918 105.933 29.3629 104.907 27.9508 103.59C26.6624 102.389 23.9498 101.459 22.0492 101.459C18.0655 101.459 15 104.033 15 108.016Z" fill="black"/>
<path d="M29.918 119V106.705H30.9016C30.9563 107.47 30.9016 109.984 31.5574 112.443C32.203 114.864 34.235 117.743 35.4918 119H29.918Z" fill="black"/>
<path d="M29.918 119V106.705H28.9344C28.8798 107.47 28.9344 109.984 28.2787 112.443C27.6331 114.864 25.6011 117.743 24.3443 119H29.918Z" fill="black"/>
<path d="M326.5 502.02L340.6 502.02L340.6 508.74L327.94 537.6L320.38 537.6L320.38 507.72L314.92 507.72L314.92 502.02L320.38 502.02L320.38 489L326.5 489L326.5 502.02ZM326.5 507.72L326.5 529.8L334.42 507.72L326.5 507.72Z" fill="black"/>
<path d="M329.082 452.984C327.169 452.984 325.334 458.334 323.982 459.686C322.629 461.039 321.869 462.874 321.869 464.787C321.869 466.7 322.629 468.535 323.982 469.887C325.334 471.24 327.169 472 329.082 472L329.082 452.984Z" fill="black"/>
<path d="M314 452.984C314 449 317.229 446.59 321.213 446.59C323.458 446.59 325.148 447.41 326.623 448.721C328.098 450.033 328.262 451.344 329.082 452.984C329.082 455.067 328.363 456.093 326.951 457.41C325.662 458.611 323.114 459.541 321.213 459.541C317.229 459.541 314 456.967 314 452.984Z" fill="black"/>
<path d="M329.082 452.984C330.995 452.984 332.83 458.334 334.182 459.686C335.535 461.039 336.295 462.874 336.295 464.787C336.295 466.7 335.535 468.535 334.182 469.887C332.83 471.24 330.995 472 329.082 472L329.082 452.984Z" fill="black"/>
<path d="M344 452.984C344 449 340.935 446.59 336.951 446.59C334.706 446.59 333.122 447.14 331.541 448.721C330.066 450.197 329.902 451.344 329.082 452.984C329.082 455.067 329.637 456.093 331.049 457.41C332.338 458.611 335.05 459.541 336.951 459.541C340.935 459.541 344 456.967 344 452.984Z" fill="black"/>
<path d="M329.082 442L329.082 454.295L328.098 454.295C328.044 453.53 328.098 451.016 327.443 448.557C326.797 446.136 324.765 443.257 323.508 442L329.082 442Z" fill="black"/>
<path d="M329.082 442L329.082 454.295L330.066 454.295C330.12 453.53 330.066 451.016 330.721 448.557C331.367 446.136 333.399 443.257 334.656 442L329.082 442Z" fill="black"/>
</g>
<defs>
<clipPath id="clip0">
<rect width="360" height="560.121" fill="white"/>
</clipPath>
</defs>
</svg>
