<svg width="360" height="561" viewBox="0 0 360 561" fill="none" xmlns="http://www.w3.org/2000/svg">
<g clip-path="url(#clip0)">
<rect width="360" height="560.121" fill="white"/>
<path d="M104.262 124.148C109.81 124.148 115.131 108.632 119.054 104.709C122.976 100.786 125.18 95.4658 125.18 89.918C125.18 84.3702 122.976 79.0496 119.054 75.1268C115.131 71.2039 109.81 69 104.262 69V124.148Z" fill="black"/>
<path d="M148 124.148C148 135.7 138.635 142.689 127.082 142.689C120.571 142.689 115.672 140.311 111.393 136.508C107.115 132.705 106.639 128.902 104.262 124.148C104.262 118.107 106.348 115.13 110.443 111.311C114.179 107.827 121.57 105.131 127.082 105.131C138.635 105.131 148 112.595 148 124.148Z" fill="black"/>
<path d="M104.262 124.148C98.7145 124.148 93.3939 108.632 89.471 104.709C85.5481 100.786 83.3443 95.4658 83.3443 89.918C83.3443 84.3702 85.5481 79.0496 89.471 75.1268C93.3939 71.2039 98.7145 69 104.262 69V124.148Z" fill="black"/>
<path d="M61 124.148C61 135.7 69.8899 142.689 81.4426 142.689C87.9538 142.689 92.545 141.094 97.1311 136.508C101.41 132.23 101.885 128.902 104.262 124.148C104.262 118.107 102.652 115.13 98.5574 111.311C94.8209 107.827 86.9545 105.131 81.4426 105.131C69.8899 105.131 61 112.595 61 124.148Z" fill="black"/>
<path d="M104.262 156V120.344H107.115C107.273 122.563 107.115 129.852 109.016 136.984C110.889 144.004 116.781 152.355 120.426 156H104.262Z" fill="black"/>
<path d="M104.262 156V120.344H101.41C101.251 122.563 101.41 129.852 99.5082 136.984C97.636 144.004 91.7432 152.355 88.0984 156H104.262Z" fill="black"/>
<path d="M104.738 435.852C99.1899 435.852 93.8693 451.368 89.9464 455.291C86.0235 459.214 83.8197 464.534 83.8197 470.082C83.8197 475.63 86.0235 480.95 89.9464 484.873C93.8693 488.796 99.1899 491 104.738 491V435.852Z" fill="black"/>
<path d="M61 435.852C61 424.3 70.3653 417.311 81.918 417.311C88.4292 417.311 93.3279 419.689 97.6066 423.492C101.885 427.295 102.361 431.098 104.738 435.852C104.738 441.893 102.652 444.87 98.5574 448.689C94.8209 452.173 87.4299 454.869 81.918 454.869C70.3653 454.869 61 447.405 61 435.852Z" fill="black"/>
<path d="M104.738 435.852C110.286 435.852 115.606 451.368 119.529 455.291C123.452 459.214 125.656 464.534 125.656 470.082C125.656 475.63 123.452 480.95 119.529 484.873C115.606 488.796 110.286 491 104.738 491V435.852Z" fill="black"/>
<path d="M148 435.852C148 424.3 139.11 417.311 127.557 417.311C121.046 417.311 116.455 418.906 111.869 423.492C107.59 427.77 107.115 431.098 104.738 435.852C104.738 441.893 106.348 444.87 110.443 448.689C114.179 452.173 122.046 454.869 127.557 454.869C139.11 454.869 148 447.405 148 435.852Z" fill="black"/>
<path d="M104.738 404V439.656H101.885C101.727 437.437 101.885 430.148 99.9836 423.016C98.1114 415.996 92.2186 407.645 88.5738 404H104.738Z" fill="black"/>
<path d="M104.738 404V439.656H107.59C107.749 437.437 107.59 430.148 109.492 423.016C111.364 415.996 117.257 407.645 120.902 404H104.738Z" fill="black"/>
<path d="M254.262 124.148C259.81 124.148 265.131 108.632 269.054 104.709C272.976 100.786 275.18 95.4658 275.18 89.918C275.18 84.3702 272.976 79.0496 269.054 75.1268C265.131 71.2039 259.81 69 254.262 69V124.148Z" fill="black"/>
<path d="M298 124.148C298 135.7 288.635 142.689 277.082 142.689C270.571 142.689 265.672 140.311 261.393 136.508C257.115 132.705 256.639 128.902 254.262 124.148C254.262 118.107 256.348 115.13 260.443 111.311C264.179 107.827 271.57 105.131 277.082 105.131C288.635 105.131 298 112.595 298 124.148Z" fill="black"/>
<path d="M254.262 124.148C248.714 124.148 243.394 108.632 239.471 104.709C235.548 100.786 233.344 95.4658 233.344 89.918C233.344 84.3702 235.548 79.0496 239.471 75.1268C243.394 71.2039 248.714 69 254.262 69V124.148Z" fill="black"/>
<path d="M211 124.148C211 135.7 219.89 142.689 231.443 142.689C237.954 142.689 242.545 141.094 247.131 136.508C251.41 132.23 251.885 128.902 254.262 124.148C254.262 118.107 252.652 115.13 248.557 111.311C244.821 107.827 236.954 105.131 231.443 105.131C219.89 105.131 211 112.595 211 124.148Z" fill="black"/>
<path d="M254.262 156V120.344H257.115C257.273 122.563 257.115 129.852 259.016 136.984C260.889 144.004 266.781 152.355 270.426 156H254.262Z" fill="black"/>
<path d="M254.262 156V120.344H251.41C251.251 122.563 251.41 129.852 249.508 136.984C247.636 144.004 241.743 152.355 238.098 156H254.262Z" fill="black"/>
<path d="M180.262 292.148C185.81 292.148 191.131 276.632 195.054 272.709C198.976 268.786 201.18 263.466 201.18 257.918C201.18 252.37 198.976 247.05 195.054 243.127C191.131 239.204 185.81 237 180.262 237V292.148Z" fill="black"/>
<path d="M224 292.148C224 303.7 214.635 310.689 203.082 310.689C196.571 310.689 191.672 308.311 187.393 304.508C183.115 300.705 182.639 296.902 180.262 292.148C180.262 286.107 182.348 283.13 186.443 279.311C190.179 275.827 197.57 273.131 203.082 273.131C214.635 273.131 224 280.595 224 292.148Z" fill="black"/>
<path d="M180.262 292.148C174.714 292.148 169.394 276.632 165.471 272.709C161.548 268.786 159.344 263.466 159.344 257.918C159.344 252.37 161.548 247.05 165.471 243.127C169.394 239.204 174.714 237 180.262 237V292.148Z" fill="black"/>
<path d="M137 292.148C137 303.7 145.89 310.689 157.443 310.689C163.954 310.689 168.545 309.094 173.131 304.508C177.41 300.23 177.885 296.902 180.262 292.148C180.262 286.107 178.652 283.13 174.557 279.311C170.821 275.827 162.954 273.131 157.443 273.131C145.89 273.131 137 280.595 137 292.148Z" fill="black"/>
<path d="M180.262 324V288.344H183.115C183.273 290.563 183.115 297.852 185.016 304.984C186.889 312.004 192.781 320.355 196.426 324H180.262Z" fill="black"/>
<path d="M180.262 324V288.344H177.41C177.251 290.563 177.41 297.852 175.508 304.984C173.636 312.004 167.743 320.355 164.098 324H180.262Z" fill="black"/>
<path d="M254.738 433.852C249.19 433.852 243.869 449.368 239.946 453.291C236.024 457.214 233.82 462.534 233.82 468.082C233.82 473.63 236.024 478.95 239.946 482.873C243.869 486.796 249.19 489 254.738 489V433.852Z" fill="black"/>
<path d="M211 433.852C211 422.3 220.365 415.311 231.918 415.311C238.429 415.311 243.328 417.689 247.607 421.492C251.885 425.295 252.361 429.098 254.738 433.852C254.738 439.893 252.652 442.87 248.557 446.689C244.821 450.173 237.43 452.869 231.918 452.869C220.365 452.869 211 445.405 211 433.852Z" fill="black"/>
<path d="M254.738 433.852C260.286 433.852 265.606 449.368 269.529 453.291C273.452 457.214 275.656 462.534 275.656 468.082C275.656 473.63 273.452 478.95 269.529 482.873C265.606 486.796 260.286 489 254.738 489V433.852Z" fill="black"/>
<path d="M298 433.852C298 422.3 289.11 415.311 277.557 415.311C271.046 415.311 266.455 416.906 261.869 421.492C257.59 425.77 257.115 429.098 254.738 433.852C254.738 439.893 256.348 442.87 260.443 446.689C264.179 450.173 272.046 452.869 277.557 452.869C289.11 452.869 298 445.405 298 433.852Z" fill="black"/>
<path d="M254.738 402V437.656H251.885C251.727 435.437 251.885 428.148 249.984 421.016C248.111 413.996 242.219 405.645 238.574 402H254.738Z" fill="black"/>
<path d="M254.738 402V437.656H257.59C257.749 435.437 257.59 428.148 259.492 421.016C261.364 413.996 267.257 405.645 270.902 402H254.738Z" fill="black"/>
<path d="M30.58 72.48C26.38 72.48 23.36 71.3 21.52 68.94C19.72 66.54 18.82 63.02 18.82 58.38H25.24C25.24 61.1 25.6 63.28 26.32 64.92C27.08 66.56 28.54 67.38 30.7 67.38C32.34 67.38 33.56 66.9 34.36 65.94C35.16 64.98 35.66 63.72 35.86 62.16C36.1 60.56 36.22 58.44 36.22 55.8C36.22 53.36 36.08 51.42 35.8 49.98C35.56 48.5 35.04 47.38 34.24 46.62C33.48 45.82 32.32 45.42 30.76 45.42C29.52 45.42 28.42 45.8 27.46 46.56C26.54 47.32 25.84 48.28 25.36 49.44H19.9V23.4H40.84V29.82H25.72L25.3 43.26C27.02 41.46 29.36 40.56 32.32 40.56C36.04 40.56 38.68 41.84 40.24 44.4C41.84 46.92 42.64 50.44 42.64 54.96C42.64 60.48 41.74 64.78 39.94 67.86C38.14 70.94 35.02 72.48 30.58 72.48Z" fill="black"/>
<path d="M29.918 108.016C31.8311 108.016 33.6658 102.666 35.0185 101.314C36.3712 99.9608 37.1311 98.1262 37.1311 96.2131C37.1311 94.3001 36.3712 92.4654 35.0185 91.1127C33.6658 89.76 31.8311 89 29.918 89V108.016Z" fill="black"/>
<path d="M45 108.016C45 112 41.7706 114.41 37.7869 114.41C35.5417 114.41 33.8525 113.59 32.377 112.279C30.9016 110.967 30.7377 109.656 29.918 108.016C29.918 105.933 30.6371 104.907 32.0492 103.59C33.3376 102.389 35.8862 101.459 37.7869 101.459C41.7706 101.459 45 104.033 45 108.016Z" fill="black"/>
<path d="M29.918 108.016C28.005 108.016 26.1703 102.666 24.8176 101.314C23.4649 99.9608 22.7049 98.1262 22.7049 96.2131C22.7049 94.3001 23.4649 92.4654 24.8176 91.1127C26.1703 89.76 28.005 89 29.918 89V108.016Z" fill="black"/>
<path d="M15 108.016C15 112 18.0655 114.41 22.0492 114.41C24.2944 114.41 25.8776 113.86 27.459 112.279C28.9344 110.803 29.0984 109.656 29.918 108.016C29.918 105.933 29.3629 104.907 27.9508 103.59C26.6624 102.389 23.9498 101.459 22.0492 101.459C18.0655 101.459 15 104.033 15 108.016Z" fill="black"/>
<path d="M29.918 119V106.705H30.9016C30.9563 107.47 30.9016 109.984 31.5574 112.443C32.203 114.864 34.235 117.743 35.4918 119H29.918Z" fill="black"/>
<path d="M29.918 119V106.705H28.9344C28.8798 107.47 28.9344 109.984 28.2787 112.443C27.6331 114.864 25.6011 117.743 24.3443 119H29.918Z" fill="black"/>
<path d="M328.42 488.52C332.62 488.52 335.64 489.7 337.48 492.06C339.28 494.46 340.18 497.98 340.18 502.62L333.76 502.62C333.76 499.9 333.4 497.72 332.68 496.08C331.92 494.44 330.46 493.62 328.3 493.62C326.66 493.62 325.44 494.1 324.64 495.06C323.84 496.02 323.34 497.28 323.14 498.84C322.9 500.44 322.78 502.56 322.78 505.2C322.78 507.64 322.92 509.58 323.2 511.02C323.44 512.5 323.96 513.62 324.76 514.38C325.52 515.18 326.68 515.58 328.24 515.58C329.48 515.58 330.58 515.2 331.54 514.44C332.46 513.68 333.16 512.72 333.64 511.56L339.1 511.56L339.1 537.6L318.16 537.6L318.16 531.18L333.28 531.18L333.7 517.74C331.98 519.54 329.64 520.44 326.68 520.44C322.96 520.44 320.32 519.16 318.76 516.6C317.16 514.08 316.36 510.56 316.36 506.04C316.36 500.52 317.26 496.22 319.06 493.14C320.86 490.06 323.98 488.52 328.42 488.52Z" fill="black"/>
<path d="M329.082 452.984C327.169 452.984 325.334 458.334 323.982 459.686C322.629 461.039 321.869 462.874 321.869 464.787C321.869 466.7 322.629 468.535 323.982 469.887C325.334 471.24 327.169 472 329.082 472L329.082 452.984Z" fill="black"/>
<path d="M314 452.984C314 449 317.229 446.59 321.213 446.59C323.458 446.59 325.148 447.41 326.623 448.721C328.098 450.033 328.262 451.344 329.082 452.984C329.082 455.067 328.363 456.093 326.951 457.41C325.662 458.611 323.114 459.541 321.213 459.541C317.229 459.541 314 456.967 314 452.984Z" fill="black"/>
<path d="M329.082 452.984C330.995 452.984 332.83 458.334 334.182 459.686C335.535 461.039 336.295 462.874 336.295 464.787C336.295 466.7 335.535 468.535 334.182 469.887C332.83 471.24 330.995 472 329.082 472L329.082 452.984Z" fill="black"/>
<path d="M344 452.984C344 449 340.935 446.59 336.951 446.59C334.706 446.59 333.122 447.14 331.541 448.721C330.066 450.197 329.902 451.344 329.082 452.984C329.082 455.067 329.637 456.093 331.049 457.41C332.338 458.611 335.05 459.541 336.951 459.541C340.935 459.541 344 456.967 344 452.984Z" fill="black"/>
<path d="M329.082 442L329.082 454.295L328.098 454.295C328.044 453.53 328.098 451.016 327.443 448.557C326.797 446.136 324.765 443.257 323.508 442L329.082 442Z" fill="black"/>
<path d="M329.082 442L329.082 454.295L330.066 454.295C330.12 453.53 330.066 451.016 330.721 448.557C331.367 446.136 333.399 443.257 334.656 442L329.082 442Z" fill="black"/>
</g>
<defs>
<clipPath id="clip0">
<rect width="360" height="560.121" fill="white"/>
</clipPath>
</defs>
</svg>
