<svg width="360" height="561" viewBox="0 0 360 561" fill="none" xmlns="http://www.w3.org/2000/svg">
<g clip-path="url(#clip0)">
<rect width="360" height="560.121" fill="white"/>
<path d="M105 119H135C130.543 112.989 125.217 106.295 118.696 95.6393C113.544 87.2229 107.5 75.0109 105 69V119Z" fill="#FF3434"/>
<path d="M105 119H75C79.4565 112.989 84.7826 106.295 91.3043 95.6393C96.4556 87.2229 102.5 75.0109 105 69V119Z" fill="#FF3434"/>
<path d="M105 119H75C79.4565 125.011 84.7826 131.705 91.3043 142.361C96.4556 150.777 102.5 162.989 105 169V119Z" fill="#FF3434"/>
<path d="M105 119H135C130.543 125.011 125.217 131.705 118.696 142.361C113.544 150.777 107.5 162.989 105 169V119Z" fill="#FF3434"/>
<path d="M105 441H75C79.4565 447.011 84.7826 453.705 91.3043 464.361C96.4556 472.777 102.5 484.989 105 491V441Z" fill="#FF3434"/>
<path d="M105 441H135C130.543 447.011 125.217 453.705 118.696 464.361C113.544 472.777 107.5 484.989 105 491V441Z" fill="#FF3434"/>
<path d="M105 441H135C130.543 434.989 125.217 428.295 118.696 417.639C113.544 409.223 107.5 397.011 105 391L105 441Z" fill="#FF3434"/>
<path d="M105 441H75C79.4565 434.989 84.7826 428.295 91.3043 417.639C96.4556 409.223 102.5 397.011 105 391L105 441Z" fill="#FF3434"/>
<path d="M255 119H285C280.543 112.989 275.217 106.295 268.696 95.6393C263.544 87.2229 257.5 75.0109 255 69V119Z" fill="#FF3434"/>
<path d="M255 119H225C229.457 112.989 234.783 106.295 241.304 95.6393C246.456 87.2229 252.5 75.0109 255 69V119Z" fill="#FF3434"/>
<path d="M255 119H225C229.457 125.011 234.783 131.705 241.304 142.361C246.456 150.777 252.5 162.989 255 169V119Z" fill="#FF3434"/>
<path d="M255 119H285C280.543 125.011 275.217 131.705 268.696 142.361C263.544 150.777 257.5 162.989 255 169V119Z" fill="#FF3434"/>
<path d="M180 201H210C205.543 194.989 200.217 188.295 193.696 177.639C188.544 169.223 182.5 157.011 180 151V201Z" fill="#FF3434"/>
<path d="M180 201H150C154.457 194.989 159.783 188.295 166.304 177.639C171.456 169.223 177.5 157.011 180 151V201Z" fill="#FF3434"/>
<path d="M180 201H150C154.457 207.011 159.783 213.705 166.304 224.361C171.456 232.777 177.5 244.989 180 251V201Z" fill="#FF3434"/>
<path d="M180 201H210C205.543 207.011 200.217 213.705 193.696 224.361C188.544 232.777 182.5 244.989 180 251V201Z" fill="#FF3434"/>
<path d="M105 284H135C130.543 277.989 125.217 271.295 118.696 260.639C113.544 252.223 107.5 240.011 105 234V284Z" fill="#FF3434"/>
<path d="M105 284H75C79.4565 277.989 84.7826 271.295 91.3043 260.639C96.4556 252.223 102.5 240.011 105 234V284Z" fill="#FF3434"/>
<path d="M105 284H75C79.4565 290.011 84.7826 296.705 91.3043 307.361C96.4556 315.777 102.5 327.989 105 334V284Z" fill="#FF3434"/>
<path d="M105 284H135C130.543 290.011 125.217 296.705 118.696 307.361C113.544 315.777 107.5 327.989 105 334V284Z" fill="#FF3434"/>
<path d="M255 284H285C280.543 277.989 275.217 271.295 268.696 260.639C263.544 252.223 257.5 240.011 255 234V284Z" fill="#FF3434"/>
<path d="M255 284H225C229.457 277.989 234.783 271.295 241.304 260.639C246.456 252.223 252.5 240.011 255 234V284Z" fill="#FF3434"/>
<path d="M255 284H225C229.457 290.011 234.783 296.705 241.304 307.361C246.456 315.777 252.5 327.989 255 334V284Z" fill="#FF3434"/>
<path d="M255 284H285C280.543 290.011 275.217 296.705 268.696 307.361C263.544 315.777 257.5 327.989 255 334V284Z" fill="#FF3434"/>
<path d="M255 441H225C229.457 447.011 234.783 453.705 241.304 464.361C246.456 472.777 252.5 484.989 255 491V441Z" fill="#FF3434"/>
<path d="M255 441H285C280.543 447.011 275.217 453.705 268.696 464.361C263.544 472.777 257.5 484.989 255 491V441Z" fill="#FF3434"/>
<path d="M255 441H285C280.543 434.989 275.217 428.295 268.696 417.639C263.544 409.223 257.5 397.011 255 391V441Z" fill="#FF3434"/>
<path d="M255 441H225C229.457 434.989 234.783 428.295 241.304 417.639C246.456 409.223 252.5 397.011 255 391V441Z" fill="#FF3434"/>
<path d="M33.34 28.44H20.32V23.4H39.76V26.52L30.76 72H24.58L33.34 28.44Z" fill="#FF3434"/>
<path d="M31.5 109.608H44C42.1431 107.131 39.9239 104.372 37.2065 99.9797C35.0602 96.5108 32.5417 91.4775 31.5 89V109.608Z" fill="#FF3434"/>
<path d="M31.5 109.608H19C20.8569 107.131 23.0761 104.372 25.7935 99.9797C27.9398 96.5108 30.4583 91.4775 31.5 89V109.608Z" fill="#FF3434"/>
<path d="M31.5 109.608H19C20.8569 112.086 23.0761 114.845 25.7935 119.236C27.9398 122.705 30.4583 127.739 31.5 130.216V109.608Z" fill="#FF3434"/>
<path d="M31.5 109.608H44C42.1431 112.086 39.9239 114.845 37.2065 119.236C35.0602 122.705 32.5417 127.739 31.5 130.216V109.608Z" fill="#FF3434"/>
<path d="M326.66 532.56L339.68 532.56L339.68 537.6L320.24 537.6L320.24 534.48L329.24 489L335.42 489L326.66 532.56Z" fill="#FF3434"/>
<path d="M328.5 451.608H341C339.143 449.131 336.924 446.372 334.207 441.98C332.06 438.511 329.542 433.477 328.5 431V451.608Z" fill="#FF3434"/>
<path d="M328.5 451.608H316C317.857 449.131 320.076 446.372 322.793 441.98C324.94 438.511 327.458 433.477 328.5 431V451.608Z" fill="#FF3434"/>
<path d="M328.5 451.608H316C317.857 454.086 320.076 456.845 322.793 461.236C324.94 464.705 327.458 469.739 328.5 472.216V451.608Z" fill="#FF3434"/>
<path d="M328.5 451.608H341C339.143 454.086 336.924 456.845 334.207 461.236C332.06 464.705 329.542 469.739 328.5 472.216V451.608Z" fill="#FF3434"/>
</g>
<defs>
<clipPath id="clip0">
<rect width="360" height="560.121" fill="white"/>
</clipPath>
</defs>
</svg>
