<svg width="360" height="561" viewBox="0 0 360 561" fill="none" xmlns="http://www.w3.org/2000/svg">
<g clip-path="url(#clip0)">
<rect width="360" height="560.121" fill="white"/>
<path d="M148 94.5593C148 101.185 145.855 107.222 142.336 111.763C141.852 112.388 141.341 112.984 140.807 113.55C136.952 117.633 131.848 120.119 126.25 120.119C114.238 120.119 104.5 108.675 104.5 94.5593C104.5 80.4433 114.238 69 126.25 69C138.262 69 148 80.4433 148 94.5593Z" fill="#FF3434"/>
<path d="M126.25 120.119C114.238 120.119 104.5 108.675 104.5 94.5593V156L140.807 113.55C136.952 117.633 131.848 120.119 126.25 120.119Z" fill="#FF3434"/>
<path d="M61 94.5593C61 101.185 63.1453 107.222 66.6641 111.763C67.1484 112.388 67.6586 112.984 68.1929 113.55C72.0477 117.633 77.1519 120.119 82.75 120.119C94.7622 120.119 104.5 108.675 104.5 94.5593C104.5 80.4433 94.7622 69 82.75 69C70.7378 69 61 80.4433 61 94.5593Z" fill="#FF3434"/>
<path d="M82.75 120.119C94.7622 120.119 104.5 108.675 104.5 94.5593V156L68.1929 113.55C72.0477 117.633 77.1519 120.119 82.75 120.119Z" fill="#FF3434"/>
<path d="M61 465.441C61 458.815 63.1453 452.778 66.6641 448.237C67.1484 447.612 67.6586 447.016 68.1929 446.45C72.0477 442.367 77.1519 439.881 82.75 439.881C94.7622 439.881 104.5 451.325 104.5 465.441C104.5 479.557 94.7622 491 82.75 491C70.7378 491 61 479.557 61 465.441Z" fill="#FF3434"/>
<path d="M82.75 439.881C94.7622 439.881 104.5 451.325 104.5 465.441V404L68.1929 446.45C72.0477 442.367 77.1519 439.881 82.75 439.881Z" fill="#FF3434"/>
<path d="M148 465.441C148 458.815 145.855 452.778 142.336 448.237C141.852 447.612 141.341 447.016 140.807 446.45C136.952 442.367 131.848 439.881 126.25 439.881C114.238 439.881 104.5 451.325 104.5 465.441C104.5 479.557 114.238 491 126.25 491C138.262 491 148 479.557 148 465.441Z" fill="#FF3434"/>
<path d="M126.25 439.881C114.238 439.881 104.5 451.325 104.5 465.441V404L140.807 446.45C136.952 442.367 131.848 439.881 126.25 439.881Z" fill="#FF3434"/>
<path d="M298 94.5593C298 101.185 295.855 107.222 292.336 111.763C291.852 112.388 291.341 112.984 290.807 113.55C286.952 117.633 281.848 120.119 276.25 120.119C264.238 120.119 254.5 108.675 254.5 94.5593C254.5 80.4433 264.238 69 276.25 69C288.262 69 298 80.4433 298 94.5593Z" fill="#FF3434"/>
<path d="M276.25 120.119C264.238 120.119 254.5 108.675 254.5 94.5593V156L290.807 113.55C286.952 117.633 281.848 120.119 276.25 120.119Z" fill="#FF3434"/>
<path d="M211 94.5593C211 101.185 213.145 107.222 216.664 111.763C217.148 112.388 217.659 112.984 218.193 113.55C222.048 117.633 227.152 120.119 232.75 120.119C244.762 120.119 254.5 108.675 254.5 94.5593C254.5 80.4433 244.762 69 232.75 69C220.738 69 211 80.4433 211 94.5593Z" fill="#FF3434"/>
<path d="M232.75 120.119C244.762 120.119 254.5 108.675 254.5 94.5593V156L218.193 113.55C222.048 117.633 227.152 120.119 232.75 120.119Z" fill="#FF3434"/>
<path d="M223 176.559C223 183.185 220.855 189.222 217.336 193.763C216.852 194.388 216.341 194.984 215.807 195.55C211.952 199.633 206.848 202.119 201.25 202.119C189.238 202.119 179.5 190.675 179.5 176.559C179.5 162.443 189.238 151 201.25 151C213.262 151 223 162.443 223 176.559Z" fill="#FF3434"/>
<path d="M201.25 202.119C189.238 202.119 179.5 190.675 179.5 176.559V238L215.807 195.55C211.952 199.633 206.848 202.119 201.25 202.119Z" fill="#FF3434"/>
<path d="M136 176.559C136 183.185 138.145 189.222 141.664 193.763C142.148 194.388 142.659 194.984 143.193 195.55C147.048 199.633 152.152 202.119 157.75 202.119C169.762 202.119 179.5 190.675 179.5 176.559C179.5 162.443 169.762 151 157.75 151C145.738 151 136 162.443 136 176.559Z" fill="#FF3434"/>
<path d="M157.75 202.119C169.762 202.119 179.5 190.675 179.5 176.559V238L143.193 195.55C147.048 199.633 152.152 202.119 157.75 202.119Z" fill="#FF3434"/>
<path d="M148 259.559C148 266.185 145.855 272.222 142.336 276.763C141.852 277.388 141.341 277.984 140.807 278.55C136.952 282.633 131.848 285.119 126.25 285.119C114.238 285.119 104.5 273.675 104.5 259.559C104.5 245.443 114.238 234 126.25 234C138.262 234 148 245.443 148 259.559Z" fill="#FF3434"/>
<path d="M126.25 285.119C114.238 285.119 104.5 273.675 104.5 259.559V321L140.807 278.55C136.952 282.633 131.848 285.119 126.25 285.119Z" fill="#FF3434"/>
<path d="M61 259.559C61 266.185 63.1453 272.222 66.6641 276.763C67.1484 277.388 67.6586 277.984 68.1929 278.55C72.0477 282.633 77.1519 285.119 82.75 285.119C94.7622 285.119 104.5 273.675 104.5 259.559C104.5 245.443 94.7622 234 82.75 234C70.7378 234 61 245.443 61 259.559Z" fill="#FF3434"/>
<path d="M82.75 285.119C94.7622 285.119 104.5 273.675 104.5 259.559V321L68.1929 278.55C72.0477 282.633 77.1519 285.119 82.75 285.119Z" fill="#FF3434"/>
<path d="M298 259.559C298 266.185 295.855 272.222 292.336 276.763C291.852 277.388 291.341 277.984 290.807 278.55C286.952 282.633 281.848 285.119 276.25 285.119C264.238 285.119 254.5 273.675 254.5 259.559C254.5 245.443 264.238 234 276.25 234C288.262 234 298 245.443 298 259.559Z" fill="#FF3434"/>
<path d="M276.25 285.119C264.238 285.119 254.5 273.675 254.5 259.559V321L290.807 278.55C286.952 282.633 281.848 285.119 276.25 285.119Z" fill="#FF3434"/>
<path d="M211 259.559C211 266.185 213.145 272.222 216.664 276.763C217.148 277.388 217.659 277.984 218.193 278.55C222.048 282.633 227.152 285.119 232.75 285.119C244.762 285.119 254.5 273.675 254.5 259.559C254.5 245.443 244.762 234 232.75 234C220.738 234 211 245.443 211 259.559Z" fill="#FF3434"/>
<path d="M232.75 285.119C244.762 285.119 254.5 273.675 254.5 259.559V321L218.193 278.55C222.048 282.633 227.152 285.119 232.75 285.119Z" fill="#FF3434"/>
<path d="M211 465.441C211 458.815 213.145 452.778 216.664 448.237C217.148 447.612 217.659 447.016 218.193 446.45C222.048 442.367 227.152 439.881 232.75 439.881C244.762 439.881 254.5 451.325 254.5 465.441C254.5 479.557 244.762 491 232.75 491C220.738 491 211 479.557 211 465.441Z" fill="#FF3434"/>
<path d="M232.75 439.881C244.762 439.881 254.5 451.325 254.5 465.441V404L218.193 446.45C222.048 442.367 227.152 439.881 232.75 439.881Z" fill="#FF3434"/>
<path d="M298 465.441C298 458.815 295.855 452.778 292.336 448.237C291.852 447.612 291.341 447.016 290.807 446.45C286.952 442.367 281.848 439.881 276.25 439.881C264.238 439.881 254.5 451.325 254.5 465.441C254.5 479.557 264.238 491 276.25 491C288.262 491 298 479.557 298 465.441Z" fill="#FF3434"/>
<path d="M276.25 439.881C264.238 439.881 254.5 451.325 254.5 465.441V404L290.807 446.45C286.952 442.367 281.848 439.881 276.25 439.881Z" fill="#FF3434"/>
<path d="M33.34 28.44H20.32V23.4H39.76V26.52L30.76 72H24.58L33.34 28.44Z" fill="#FF3434"/>
<path d="M46 96.9975C46 99.0706 45.2602 100.96 44.0469 102.38C43.8799 102.576 43.7039 102.763 43.5197 102.94C42.1905 104.217 40.4304 104.995 38.5 104.995C34.3579 104.995 31 101.414 31 96.9975C31 92.5806 34.3579 89 38.5 89C42.6421 89 46 92.5806 46 96.9975Z" fill="#FF3434"/>
<path d="M38.5 104.995C34.3579 104.995 31 101.414 31 96.9975V116.222L43.5197 102.94C42.1905 104.217 40.4304 104.995 38.5 104.995Z" fill="#FF3434"/>
<path d="M16 96.9975C16 99.0706 16.7398 100.96 17.9531 102.38C18.1201 102.576 18.2961 102.763 18.4803 102.94C19.8095 104.217 21.5696 104.995 23.5 104.995C27.6421 104.995 31 101.414 31 96.9975C31 92.5806 27.6421 89 23.5 89C19.3579 89 16 92.5806 16 96.9975Z" fill="#FF3434"/>
<path d="M23.5 104.995C27.6421 104.995 31 101.414 31 96.9975V116.222L18.4803 102.94C19.8095 104.217 21.5696 104.995 23.5 104.995Z" fill="#FF3434"/>
<path d="M324.66 532.56L337.68 532.56L337.68 537.6L318.24 537.6L318.24 534.48L327.24 489L333.42 489L324.66 532.56Z" fill="#FF3434"/>
<path d="M313 464.225C313 462.152 313.74 460.263 314.953 458.842C315.12 458.646 315.296 458.46 315.48 458.282C316.81 457.005 318.57 456.227 320.5 456.227C324.642 456.227 328 459.808 328 464.225C328 468.642 324.642 472.222 320.5 472.222C316.358 472.222 313 468.642 313 464.225Z" fill="#FF3434"/>
<path d="M320.5 456.227C324.642 456.227 328 459.808 328 464.225V445L315.48 458.282C316.81 457.005 318.57 456.227 320.5 456.227Z" fill="#FF3434"/>
<path d="M343 464.225C343 462.152 342.26 460.263 341.047 458.842C340.88 458.646 340.704 458.46 340.52 458.282C339.19 457.005 337.43 456.227 335.5 456.227C331.358 456.227 328 459.808 328 464.225C328 468.642 331.358 472.222 335.5 472.222C339.642 472.222 343 468.642 343 464.225Z" fill="#FF3434"/>
<path d="M335.5 456.227C331.358 456.227 328 459.808 328 464.225V445L340.52 458.282C339.19 457.005 337.43 456.227 335.5 456.227Z" fill="#FF3434"/>
</g>
<defs>
<clipPath id="clip0">
<rect width="360" height="560.121" fill="white"/>
</clipPath>
</defs>
</svg>
