<svg width="360" height="561" viewBox="0 0 360 561" fill="none" xmlns="http://www.w3.org/2000/svg">
<g clip-path="url(#clip0)">
<rect width="360" height="560.121" fill="white"/>
<path d="M146.734 126.5C150.355 108.1 115.956 77.74 105.545 69C95.135 77.74 59.6371 108.1 63.2581 126.5C67.2959 147.018 89.8557 143.367 99.6626 138C99.5117 141.987 97.9214 148.792 96.473 151C94.6625 153.76 85.994 161 78.752 161H105.093H130.34C123.098 161 116.004 153.76 114.194 151C112.746 148.792 110.676 141.987 110.526 138C120.332 143.367 142.696 147.018 146.734 126.5Z" fill="black"/>
<path d="M63.2658 433.5C59.6448 451.9 94.0442 482.26 104.455 491C114.865 482.26 150.363 451.9 146.742 433.5C142.704 412.982 120.144 416.633 110.337 422C110.488 418.013 112.079 411.208 113.527 409C115.338 406.24 124.006 399 131.248 399H104.907H79.6603C86.9023 399 93.9956 406.24 95.8061 409C97.2545 411.208 99.3235 418.013 99.4744 422C89.6675 416.633 67.3036 412.982 63.2658 433.5Z" fill="black"/>
<path d="M296.734 126.5C300.355 108.1 265.956 77.74 255.545 69C245.135 77.74 209.637 108.1 213.258 126.5C217.296 147.018 239.856 143.367 249.663 138C249.512 141.987 247.921 148.792 246.473 151C244.662 153.76 235.994 161 228.752 161H255.093H280.34C273.098 161 266.004 153.76 264.194 151C262.746 148.792 260.676 141.987 260.526 138C270.332 143.367 292.696 147.018 296.734 126.5Z" fill="black"/>
<path d="M221.734 208.5C225.355 190.1 190.956 159.74 180.545 151C170.135 159.74 134.637 190.1 138.258 208.5C142.296 229.018 164.856 225.367 174.663 220C174.512 223.987 172.921 230.792 171.473 233C169.662 235.76 160.994 243 153.752 243H180.093H205.34C198.098 243 191.004 235.76 189.194 233C187.746 230.792 185.676 223.987 185.526 220C195.332 225.367 217.696 229.018 221.734 208.5Z" fill="black"/>
<path d="M146.734 291.5C150.355 273.1 115.956 242.74 105.545 234C95.135 242.74 59.6371 273.1 63.2581 291.5C67.2959 312.018 89.8557 308.367 99.6626 303C99.5117 306.987 97.9214 313.792 96.473 316C94.6625 318.76 85.994 326 78.752 326H105.093H130.34C123.098 326 116.004 318.76 114.194 316C112.746 313.792 110.676 306.987 110.526 303C120.332 308.367 142.696 312.018 146.734 291.5Z" fill="black"/>
<path d="M296.734 291.5C300.355 273.1 265.956 242.74 255.545 234C245.135 242.74 209.637 273.1 213.258 291.5C217.296 312.018 239.856 308.367 249.663 303C249.512 306.987 247.921 313.792 246.473 316C244.662 318.76 235.994 326 228.752 326H255.093H280.34C273.098 326 266.004 318.76 264.194 316C262.746 313.792 260.676 306.987 260.526 303C270.332 308.367 292.696 312.018 296.734 291.5Z" fill="black"/>
<path d="M213.266 433.5C209.645 451.9 244.044 482.26 254.455 491C264.865 482.26 300.363 451.9 296.742 433.5C292.704 412.982 270.144 416.633 260.337 422C260.488 418.013 262.079 411.208 263.527 409C265.338 406.24 274.006 399 281.248 399H254.907H229.66C236.902 399 243.996 406.24 245.806 409C247.254 411.208 249.324 418.013 249.474 422C239.668 416.633 217.304 412.982 213.266 433.5Z" fill="black"/>
<path d="M32.34 28.44H19.32V23.4H38.76V26.52L29.76 72H23.58L32.34 28.44Z" fill="black"/>
<path d="M45.9051 109.25C47.1983 102.77 34.9128 92.078 31.1948 89C27.4768 92.078 14.799 102.77 16.0922 109.25C17.5343 116.476 25.5913 115.19 29.0938 113.3C29.0399 114.704 28.4719 117.101 27.9546 117.878C27.308 118.85 24.2121 121.4 21.6257 121.4H31.0331H40.0499C37.4635 121.4 34.9302 118.85 34.2836 117.878C33.7663 117.101 33.0273 114.704 32.9734 113.3C36.4759 115.19 44.463 116.476 45.9051 109.25Z" fill="black"/>
<path d="M326.66 532.56L339.68 532.56L339.68 537.6L320.24 537.6L320.24 534.48L329.24 489L335.42 489L326.66 532.56Z" fill="black"/>
<path d="M313.095 452.15C311.802 458.63 324.087 469.322 327.805 472.4C331.523 469.322 344.201 458.63 342.908 452.15C341.466 444.924 333.409 446.21 329.906 448.1C329.96 446.696 330.528 444.299 331.045 443.522C331.692 442.55 334.788 440 337.374 440L327.967 440L318.95 440C321.537 440 324.07 442.55 324.716 443.522C325.234 444.299 325.973 446.696 326.027 448.1C322.524 446.21 314.537 444.924 313.095 452.15Z" fill="black"/>
</g>
<defs>
<clipPath id="clip0">
<rect width="360" height="560.121" fill="white"/>
</clipPath>
</defs>
</svg>
