<svg width="360" height="561" viewBox="0 0 360 561" fill="none" xmlns="http://www.w3.org/2000/svg">
<g clip-path="url(#clip0)">
<rect width="360" height="560.121" fill="white"/>
<path d="M104.262 124.148C109.81 124.148 115.131 108.632 119.054 104.709C122.976 100.786 125.18 95.4658 125.18 89.918C125.18 84.3702 122.976 79.0496 119.054 75.1268C115.131 71.2039 109.81 69 104.262 69V124.148Z" fill="black"/>
<path d="M148 124.148C148 135.7 138.635 142.689 127.082 142.689C120.571 142.689 115.672 140.311 111.393 136.508C107.115 132.705 106.639 128.902 104.262 124.148C104.262 118.107 106.348 115.13 110.443 111.311C114.179 107.827 121.57 105.131 127.082 105.131C138.635 105.131 148 112.595 148 124.148Z" fill="black"/>
<path d="M104.262 124.148C98.7145 124.148 93.3939 108.632 89.471 104.709C85.5481 100.786 83.3443 95.4658 83.3443 89.918C83.3443 84.3702 85.5481 79.0496 89.471 75.1268C93.3939 71.2039 98.7145 69 104.262 69V124.148Z" fill="black"/>
<path d="M61 124.148C61 135.7 69.8899 142.689 81.4426 142.689C87.9538 142.689 92.545 141.094 97.1311 136.508C101.41 132.23 101.885 128.902 104.262 124.148C104.262 118.107 102.652 115.13 98.5574 111.311C94.8209 107.827 86.9545 105.131 81.4426 105.131C69.8899 105.131 61 112.595 61 124.148Z" fill="black"/>
<path d="M104.262 156V120.344H107.115C107.273 122.563 107.115 129.852 109.016 136.984C110.889 144.004 116.781 152.355 120.426 156H104.262Z" fill="black"/>
<path d="M104.262 156V120.344H101.41C101.251 122.563 101.41 129.852 99.5082 136.984C97.636 144.004 91.7432 152.355 88.0984 156H104.262Z" fill="black"/>
<path d="M104.738 435.852C99.1899 435.852 93.8693 451.368 89.9464 455.291C86.0235 459.214 83.8197 464.534 83.8197 470.082C83.8197 475.63 86.0235 480.95 89.9464 484.873C93.8693 488.796 99.1899 491 104.738 491V435.852Z" fill="black"/>
<path d="M61 435.852C61 424.3 70.3653 417.311 81.918 417.311C88.4292 417.311 93.3279 419.689 97.6066 423.492C101.885 427.295 102.361 431.098 104.738 435.852C104.738 441.893 102.652 444.87 98.5574 448.689C94.8209 452.173 87.4299 454.869 81.918 454.869C70.3653 454.869 61 447.405 61 435.852Z" fill="black"/>
<path d="M104.738 435.852C110.286 435.852 115.606 451.368 119.529 455.291C123.452 459.214 125.656 464.534 125.656 470.082C125.656 475.63 123.452 480.95 119.529 484.873C115.606 488.796 110.286 491 104.738 491V435.852Z" fill="black"/>
<path d="M148 435.852C148 424.3 139.11 417.311 127.557 417.311C121.046 417.311 116.455 418.906 111.869 423.492C107.59 427.77 107.115 431.098 104.738 435.852C104.738 441.893 106.348 444.87 110.443 448.689C114.179 452.173 122.046 454.869 127.557 454.869C139.11 454.869 148 447.405 148 435.852Z" fill="black"/>
<path d="M104.738 404V439.656H101.885C101.727 437.437 101.885 430.148 99.9836 423.016C98.1114 415.996 92.2186 407.645 88.5738 404H104.738Z" fill="black"/>
<path d="M104.738 404V439.656H107.59C107.749 437.437 107.59 430.148 109.492 423.016C111.364 415.996 117.257 407.645 120.902 404H104.738Z" fill="black"/>
<path d="M254.262 124.148C259.81 124.148 265.131 108.632 269.054 104.709C272.976 100.786 275.18 95.4658 275.18 89.918C275.18 84.3702 272.976 79.0496 269.054 75.1268C265.131 71.2039 259.81 69 254.262 69V124.148Z" fill="black"/>
<path d="M298 124.148C298 135.7 288.635 142.689 277.082 142.689C270.571 142.689 265.672 140.311 261.393 136.508C257.115 132.705 256.639 128.902 254.262 124.148C254.262 118.107 256.348 115.13 260.443 111.311C264.179 107.827 271.57 105.131 277.082 105.131C288.635 105.131 298 112.595 298 124.148Z" fill="black"/>
<path d="M254.262 124.148C248.714 124.148 243.394 108.632 239.471 104.709C235.548 100.786 233.344 95.4658 233.344 89.918C233.344 84.3702 235.548 79.0496 239.471 75.1268C243.394 71.2039 248.714 69 254.262 69V124.148Z" fill="black"/>
<path d="M211 124.148C211 135.7 219.89 142.689 231.443 142.689C237.954 142.689 242.545 141.094 247.131 136.508C251.41 132.23 251.885 128.902 254.262 124.148C254.262 118.107 252.652 115.13 248.557 111.311C244.821 107.827 236.954 105.131 231.443 105.131C219.89 105.131 211 112.595 211 124.148Z" fill="black"/>
<path d="M254.262 156V120.344H257.115C257.273 122.563 257.115 129.852 259.016 136.984C260.889 144.004 266.781 152.355 270.426 156H254.262Z" fill="black"/>
<path d="M254.262 156V120.344H251.41C251.251 122.563 251.41 129.852 249.508 136.984C247.636 144.004 241.743 152.355 238.098 156H254.262Z" fill="black"/>
<path d="M104.262 289.148C109.81 289.148 115.131 273.632 119.054 269.709C122.976 265.786 125.18 260.466 125.18 254.918C125.18 249.37 122.976 244.05 119.054 240.127C115.131 236.204 109.81 234 104.262 234V289.148Z" fill="black"/>
<path d="M148 289.148C148 300.7 138.635 307.689 127.082 307.689C120.571 307.689 115.672 305.311 111.393 301.508C107.115 297.705 106.639 293.902 104.262 289.148C104.262 283.107 106.348 280.13 110.443 276.311C114.179 272.827 121.57 270.131 127.082 270.131C138.635 270.131 148 277.595 148 289.148Z" fill="black"/>
<path d="M104.262 289.148C98.7145 289.148 93.3939 273.632 89.471 269.709C85.5481 265.786 83.3443 260.466 83.3443 254.918C83.3443 249.37 85.5481 244.05 89.471 240.127C93.3939 236.204 98.7145 234 104.262 234V289.148Z" fill="black"/>
<path d="M61 289.148C61 300.7 69.8899 307.689 81.4426 307.689C87.9538 307.689 92.545 306.094 97.1311 301.508C101.41 297.23 101.885 293.902 104.262 289.148C104.262 283.107 102.652 280.13 98.5574 276.311C94.8209 272.827 86.9545 270.131 81.4426 270.131C69.8899 270.131 61 277.595 61 289.148Z" fill="black"/>
<path d="M104.262 321V285.344H107.115C107.273 287.563 107.115 294.852 109.016 301.984C110.889 309.004 116.781 317.355 120.426 321H104.262Z" fill="black"/>
<path d="M104.262 321V285.344H101.41C101.251 287.563 101.41 294.852 99.5082 301.984C97.636 309.004 91.7432 317.355 88.0984 321H104.262Z" fill="black"/>
<path d="M254.262 289.148C259.81 289.148 265.131 273.632 269.054 269.709C272.976 265.786 275.18 260.466 275.18 254.918C275.18 249.37 272.976 244.05 269.054 240.127C265.131 236.204 259.81 234 254.262 234V289.148Z" fill="black"/>
<path d="M298 289.148C298 300.7 288.635 307.689 277.082 307.689C270.571 307.689 265.672 305.311 261.393 301.508C257.115 297.705 256.639 293.902 254.262 289.148C254.262 283.107 256.348 280.13 260.443 276.311C264.179 272.827 271.57 270.131 277.082 270.131C288.635 270.131 298 277.595 298 289.148Z" fill="black"/>
<path d="M254.262 289.148C248.714 289.148 243.394 273.632 239.471 269.709C235.548 265.786 233.344 260.466 233.344 254.918C233.344 249.37 235.548 244.05 239.471 240.127C243.394 236.204 248.714 234 254.262 234V289.148Z" fill="black"/>
<path d="M211 289.148C211 300.7 219.89 307.689 231.443 307.689C237.954 307.689 242.545 306.094 247.131 301.508C251.41 297.23 251.885 293.902 254.262 289.148C254.262 283.107 252.652 280.13 248.557 276.311C244.821 272.827 236.954 270.131 231.443 270.131C219.89 270.131 211 277.595 211 289.148Z" fill="black"/>
<path d="M254.262 321V285.344H257.115C257.273 287.563 257.115 294.852 259.016 301.984C260.889 309.004 266.781 317.355 270.426 321H254.262Z" fill="black"/>
<path d="M254.262 321V285.344H251.41C251.251 287.563 251.41 294.852 249.508 301.984C247.636 309.004 241.743 317.355 238.098 321H254.262Z" fill="black"/>
<path d="M254.738 435.852C249.19 435.852 243.869 451.368 239.946 455.291C236.024 459.214 233.82 464.534 233.82 470.082C233.82 475.63 236.024 480.95 239.946 484.873C243.869 488.796 249.19 491 254.738 491V435.852Z" fill="black"/>
<path d="M211 435.852C211 424.3 220.365 417.311 231.918 417.311C238.429 417.311 243.328 419.689 247.607 423.492C251.885 427.295 252.361 431.098 254.738 435.852C254.738 441.893 252.652 444.87 248.557 448.689C244.821 452.173 237.43 454.869 231.918 454.869C220.365 454.869 211 447.405 211 435.852Z" fill="black"/>
<path d="M254.738 435.852C260.286 435.852 265.606 451.368 269.529 455.291C273.452 459.214 275.656 464.534 275.656 470.082C275.656 475.63 273.452 480.95 269.529 484.873C265.606 488.796 260.286 491 254.738 491V435.852Z" fill="black"/>
<path d="M298 435.852C298 424.3 289.11 417.311 277.557 417.311C271.046 417.311 266.455 418.906 261.869 423.492C257.59 427.77 257.115 431.098 254.738 435.852C254.738 441.893 256.348 444.87 260.443 448.689C264.179 452.173 272.046 454.869 277.557 454.869C289.11 454.869 298 447.405 298 435.852Z" fill="black"/>
<path d="M254.738 404V439.656H251.885C251.727 437.437 251.885 430.148 249.984 423.016C248.111 415.996 242.219 407.645 238.574 404H254.738Z" fill="black"/>
<path d="M254.738 404V439.656H257.59C257.749 437.437 257.59 430.148 259.492 423.016C261.364 415.996 267.257 407.645 270.902 404H254.738Z" fill="black"/>
<path d="M179.262 206.148C184.81 206.148 190.131 190.632 194.054 186.709C197.976 182.786 200.18 177.466 200.18 171.918C200.18 166.37 197.976 161.05 194.054 157.127C190.131 153.204 184.81 151 179.262 151V206.148Z" fill="black"/>
<path d="M223 206.148C223 217.7 213.635 224.689 202.082 224.689C195.571 224.689 190.672 222.311 186.393 218.508C182.115 214.705 181.639 210.902 179.262 206.148C179.262 200.107 181.348 197.13 185.443 193.311C189.179 189.827 196.57 187.131 202.082 187.131C213.635 187.131 223 194.595 223 206.148Z" fill="black"/>
<path d="M179.262 206.148C173.714 206.148 168.394 190.632 164.471 186.709C160.548 182.786 158.344 177.466 158.344 171.918C158.344 166.37 160.548 161.05 164.471 157.127C168.394 153.204 173.714 151 179.262 151V206.148Z" fill="black"/>
<path d="M136 206.148C136 217.7 144.89 224.689 156.443 224.689C162.954 224.689 167.545 223.094 172.131 218.508C176.41 214.23 176.885 210.902 179.262 206.148C179.262 200.107 177.652 197.13 173.557 193.311C169.821 189.827 161.954 187.131 156.443 187.131C144.89 187.131 136 194.595 136 206.148Z" fill="black"/>
<path d="M179.262 238V202.344H182.115C182.273 204.563 182.115 211.852 184.016 218.984C185.889 226.004 191.781 234.355 195.426 238H179.262Z" fill="black"/>
<path d="M179.262 238V202.344H176.41C176.251 204.563 176.41 211.852 174.508 218.984C172.636 226.004 166.743 234.355 163.098 238H179.262Z" fill="black"/>
<path d="M179.738 357.852C174.19 357.852 168.869 373.368 164.946 377.291C161.024 381.214 158.82 386.534 158.82 392.082C158.82 397.63 161.024 402.95 164.946 406.873C168.869 410.796 174.19 413 179.738 413V357.852Z" fill="black"/>
<path d="M136 357.852C136 346.3 145.365 339.311 156.918 339.311C163.429 339.311 168.328 341.689 172.607 345.492C176.885 349.295 177.361 353.098 179.738 357.852C179.738 363.893 177.652 366.87 173.557 370.689C169.821 374.173 162.43 376.869 156.918 376.869C145.365 376.869 136 369.405 136 357.852Z" fill="black"/>
<path d="M179.738 357.852C185.286 357.852 190.606 373.368 194.529 377.291C198.452 381.214 200.656 386.534 200.656 392.082C200.656 397.63 198.452 402.95 194.529 406.873C190.606 410.796 185.286 413 179.738 413V357.852Z" fill="black"/>
<path d="M223 357.852C223 346.3 214.11 339.311 202.557 339.311C196.046 339.311 191.455 340.906 186.869 345.492C182.59 349.77 182.115 353.098 179.738 357.852C179.738 363.893 181.348 366.87 185.443 370.689C189.179 374.173 197.046 376.869 202.557 376.869C214.11 376.869 223 369.405 223 357.852Z" fill="black"/>
<path d="M179.738 326V361.656H176.885C176.727 359.437 176.885 352.148 174.984 345.016C173.111 337.996 167.219 329.645 163.574 326H179.738Z" fill="black"/>
<path d="M179.738 326V361.656H182.59C182.749 359.437 182.59 352.148 184.492 345.016C186.364 337.996 192.257 329.645 195.902 326H179.738Z" fill="black"/>
<path d="M30 72.54C25.76 72.54 22.7 71.32 20.82 68.88C18.94 66.44 18 62.92 18 58.32C18 55.24 18.5 52.78 19.5 50.94C20.54 49.1 22.04 47.58 24 46.38C20.4 43.98 18.6 40.36 18.6 35.52C18.6 31.56 19.54 28.48 21.42 26.28C23.3 24.08 26.16 22.98 30 22.98C33.8 22.98 36.62 24.08 38.46 26.28C40.34 28.48 41.28 31.56 41.28 35.52C41.28 38.12 40.82 40.3 39.9 42.06C38.98 43.78 37.64 45.22 35.88 46.38C37.84 47.62 39.34 49.16 40.38 51C41.42 52.84 41.94 55.28 41.94 58.32C41.94 62.88 41 66.4 39.12 68.88C37.24 71.32 34.2 72.54 30 72.54ZM30 43.44C33.32 43.4 34.98 40.64 34.98 35.16C34.98 33 34.58 31.26 33.78 29.94C33.02 28.62 31.76 27.96 30 27.96C28.24 27.96 26.94 28.62 26.1 29.94C25.3 31.26 24.9 33 24.9 35.16C24.9 37.56 25.28 39.54 26.04 41.1C26.8 42.62 28.12 43.4 30 43.44ZM30 67.44C32.16 67.44 33.66 66.66 34.5 65.1C35.34 63.5 35.76 61.28 35.76 58.44C35.76 55.84 35.3 53.72 34.38 52.08C33.5 50.44 32.04 49.6 30 49.56C27.92 49.6 26.42 50.44 25.5 52.08C24.58 53.72 24.12 55.84 24.12 58.44C24.12 61.28 24.54 63.5 25.38 65.1C26.26 66.66 27.8 67.44 30 67.44Z" fill="black"/>
<path d="M29.918 108.016C31.8311 108.016 33.6658 102.666 35.0185 101.314C36.3712 99.9608 37.1311 98.1262 37.1311 96.2131C37.1311 94.3001 36.3712 92.4654 35.0185 91.1127C33.6658 89.76 31.8311 89 29.918 89V108.016Z" fill="black"/>
<path d="M45 108.016C45 112 41.7706 114.41 37.7869 114.41C35.5417 114.41 33.8525 113.59 32.377 112.279C30.9016 110.967 30.7377 109.656 29.918 108.016C29.918 105.933 30.6371 104.907 32.0492 103.59C33.3376 102.389 35.8862 101.459 37.7869 101.459C41.7706 101.459 45 104.033 45 108.016Z" fill="black"/>
<path d="M29.918 108.016C28.005 108.016 26.1703 102.666 24.8176 101.314C23.4649 99.9608 22.7049 98.1262 22.7049 96.2131C22.7049 94.3001 23.4649 92.4654 24.8176 91.1127C26.1703 89.76 28.005 89 29.918 89V108.016Z" fill="black"/>
<path d="M15 108.016C15 112 18.0655 114.41 22.0492 114.41C24.2944 114.41 25.8776 113.86 27.459 112.279C28.9344 110.803 29.0984 109.656 29.918 108.016C29.918 105.933 29.3629 104.907 27.9508 103.59C26.6624 102.389 23.9498 101.459 22.0492 101.459C18.0655 101.459 15 104.033 15 108.016Z" fill="black"/>
<path d="M29.918 119V106.705H30.9016C30.9563 107.47 30.9016 109.984 31.5574 112.443C32.203 114.864 34.235 117.743 35.4918 119H29.918Z" fill="black"/>
<path d="M29.918 119V106.705H28.9344C28.8798 107.47 28.9344 109.984 28.2787 112.443C27.6331 114.864 25.6011 117.743 24.3443 119H29.918Z" fill="black"/>
<path d="M330 488.46C334.24 488.46 337.3 489.68 339.18 492.12C341.06 494.56 342 498.08 342 502.68C342 505.76 341.5 508.22 340.5 510.06C339.46 511.9 337.96 513.42 336 514.62C339.6 517.02 341.4 520.64 341.4 525.48C341.4 529.44 340.46 532.52 338.58 534.72C336.7 536.92 333.84 538.02 330 538.02C326.2 538.02 323.38 536.92 321.54 534.72C319.66 532.52 318.72 529.44 318.72 525.48C318.72 522.88 319.18 520.7 320.1 518.94C321.02 517.22 322.36 515.78 324.12 514.62C322.16 513.38 320.66 511.84 319.62 510C318.58 508.16 318.06 505.72 318.06 502.68C318.06 498.12 319 494.6 320.88 492.12C322.76 489.68 325.8 488.46 330 488.46ZM330 517.56C326.68 517.6 325.02 520.36 325.02 525.84C325.02 528 325.42 529.74 326.22 531.06C326.98 532.38 328.24 533.04 330 533.04C331.76 533.04 333.06 532.38 333.9 531.06C334.7 529.74 335.1 528 335.1 525.84C335.1 523.44 334.72 521.46 333.96 519.9C333.2 518.38 331.88 517.6 330 517.56ZM330 493.56C327.84 493.56 326.34 494.34 325.5 495.9C324.66 497.5 324.24 499.72 324.24 502.56C324.24 505.16 324.7 507.28 325.62 508.92C326.5 510.56 327.96 511.4 330 511.44C332.08 511.4 333.58 510.56 334.5 508.92C335.42 507.28 335.88 505.16 335.88 502.56C335.88 499.72 335.46 497.5 334.62 495.9C333.74 494.34 332.2 493.56 330 493.56Z" fill="black"/>
<path d="M329.082 452.984C327.169 452.984 325.334 458.334 323.982 459.686C322.629 461.039 321.869 462.874 321.869 464.787C321.869 466.7 322.629 468.535 323.982 469.887C325.334 471.24 327.169 472 329.082 472L329.082 452.984Z" fill="black"/>
<path d="M314 452.984C314 449 317.229 446.59 321.213 446.59C323.458 446.59 325.148 447.41 326.623 448.721C328.098 450.033 328.262 451.344 329.082 452.984C329.082 455.067 328.363 456.093 326.951 457.41C325.662 458.611 323.114 459.541 321.213 459.541C317.229 459.541 314 456.967 314 452.984Z" fill="black"/>
<path d="M329.082 452.984C330.995 452.984 332.83 458.334 334.182 459.686C335.535 461.039 336.295 462.874 336.295 464.787C336.295 466.7 335.535 468.535 334.182 469.887C332.83 471.24 330.995 472 329.082 472L329.082 452.984Z" fill="black"/>
<path d="M344 452.984C344 449 340.935 446.59 336.951 446.59C334.706 446.59 333.122 447.14 331.541 448.721C330.066 450.197 329.902 451.344 329.082 452.984C329.082 455.067 329.637 456.093 331.049 457.41C332.338 458.611 335.05 459.541 336.951 459.541C340.935 459.541 344 456.967 344 452.984Z" fill="black"/>
<path d="M329.082 442L329.082 454.295L328.098 454.295C328.044 453.53 328.098 451.016 327.443 448.557C326.797 446.136 324.765 443.257 323.508 442L329.082 442Z" fill="black"/>
<path d="M329.082 442L329.082 454.295L330.066 454.295C330.12 453.53 330.066 451.016 330.721 448.557C331.367 446.136 333.399 443.257 334.656 442L329.082 442Z" fill="black"/>
</g>
<defs>
<clipPath id="clip0">
<rect width="360" height="560.121" fill="white"/>
</clipPath>
</defs>
</svg>
