<svg width="360" height="561" viewBox="0 0 360 561" fill="none" xmlns="http://www.w3.org/2000/svg">
<g clip-path="url(#clip0)">
<rect width="360" height="560.121" fill="white"/>
<path d="M293.734 79.5C297.355 61.1 262.956 30.74 252.545 22C242.135 30.74 206.637 61.1 210.258 79.5C214.296 100.018 236.856 96.3667 246.663 91C246.512 94.9867 244.921 101.792 243.473 104C241.662 106.76 232.994 114 225.752 114H252.093H277.34C270.098 114 263.004 106.76 261.194 104C259.746 101.792 257.676 94.9867 257.526 91C267.332 96.3667 289.696 100.018 293.734 79.5Z" fill="black"/>
<path d="M293.734 220.5C297.355 202.1 262.956 171.74 252.545 163C242.135 171.74 206.637 202.1 210.258 220.5C214.296 241.018 236.856 237.367 246.663 232C246.512 235.987 244.921 242.792 243.473 245C241.662 247.76 232.994 255 225.752 255H252.093H277.34C270.098 255 263.004 247.76 261.194 245C259.746 242.792 257.676 235.987 257.526 232C267.332 237.367 289.696 241.018 293.734 220.5Z" fill="black"/>
<path d="M210.266 338.5C206.645 356.9 241.044 387.26 251.455 396C261.865 387.26 297.363 356.9 293.742 338.5C289.704 317.982 267.144 321.633 257.337 327C257.488 323.013 259.079 316.208 260.527 314C262.338 311.24 271.006 304 278.248 304H251.907H226.66C233.902 304 240.996 311.24 242.806 314C244.254 316.208 246.324 323.013 246.474 327C236.668 321.633 214.304 317.982 210.266 338.5Z" fill="black"/>
<path d="M210.266 479.5C206.645 497.9 241.044 528.26 251.455 537C261.865 528.26 297.363 497.9 293.742 479.5C289.704 458.982 267.144 462.633 257.337 468C257.488 464.013 259.079 457.208 260.527 455C262.338 452.24 271.006 445 278.248 445H251.907H226.66C233.902 445 240.996 452.24 242.806 455C244.254 457.208 246.324 464.013 246.474 468C236.668 462.633 214.304 458.982 210.266 479.5Z" fill="black"/>
<path d="M221.734 291.5C225.355 273.1 190.956 242.74 180.545 234C170.135 242.74 134.637 273.1 138.258 291.5C142.296 312.018 164.856 308.367 174.663 303C174.512 306.987 172.921 313.792 171.473 316C169.662 318.76 160.994 326 153.752 326H180.093H205.34C198.098 326 191.004 318.76 189.194 316C187.746 313.792 185.676 306.987 185.526 303C195.332 308.367 217.696 312.018 221.734 291.5Z" fill="black"/>
<path d="M147.734 80.5C151.355 62.1 116.956 31.74 106.545 23C96.135 31.74 60.6371 62.1 64.2581 80.5C68.2959 101.018 90.8557 97.3667 100.663 92C100.512 95.9867 98.9214 102.792 97.473 105C95.6625 107.76 86.994 115 79.752 115H106.093H131.34C124.098 115 117.004 107.76 115.194 105C113.746 102.792 111.676 95.9867 111.526 92C121.332 97.3667 143.696 101.018 147.734 80.5Z" fill="black"/>
<path d="M147.734 221.5C151.355 203.1 116.956 172.74 106.545 164C96.135 172.74 60.6371 203.1 64.2581 221.5C68.2959 242.018 90.8557 238.367 100.663 233C100.512 236.987 98.9214 243.792 97.473 246C95.6625 248.76 86.994 256 79.752 256H106.093H131.34C124.098 256 117.004 248.76 115.194 246C113.746 243.792 111.676 236.987 111.526 233C121.332 238.367 143.696 242.018 147.734 221.5Z" fill="black"/>
<path d="M64.2658 339.5C60.6448 357.9 95.0442 388.26 105.455 397C115.865 388.26 151.363 357.9 147.742 339.5C143.704 318.982 121.144 322.633 111.337 328C111.488 324.013 113.079 317.208 114.527 315C116.338 312.24 125.006 305 132.248 305H105.907H80.6603C87.9023 305 94.9956 312.24 96.8061 315C98.2545 317.208 100.324 324.013 100.474 328C90.6675 322.633 68.3036 318.982 64.2658 339.5Z" fill="black"/>
<path d="M64.2658 480.5C60.6448 498.9 95.0442 529.26 105.455 538C115.865 529.26 151.363 498.9 147.742 480.5C143.704 459.982 121.144 463.633 111.337 469C111.488 465.013 113.079 458.208 114.527 456C116.338 453.24 125.006 446 132.248 446H105.907H80.6603C87.9023 446 94.9956 453.24 96.8061 456C98.2545 458.208 100.324 465.013 100.474 469C90.6675 463.633 68.3036 459.982 64.2658 480.5Z" fill="black"/>
<path d="M30.7 72.54C26.9 72.54 23.98 71.5 21.94 69.42C19.9 67.34 18.84 64.36 18.76 60.48V59.94H25.18C25.18 62.42 25.58 64.26 26.38 65.46C27.22 66.62 28.68 67.2 30.76 67.2C34.36 67.2 36.16 63.74 36.16 56.82V49.44C35.52 50.48 34.6 51.3 33.4 51.9C32.24 52.5 30.8 52.8 29.08 52.8C25.28 52.8 22.58 51.6 20.98 49.2C19.42 46.76 18.64 43.28 18.64 38.76C18.64 34 19.62 30.18 21.58 27.3C23.54 24.42 26.58 22.98 30.7 22.98C34.7 22.98 37.68 24.46 39.64 27.42C41.64 30.34 42.64 34.16 42.64 38.88V55.2C42.64 60.44 41.72 64.64 39.88 67.8C38.04 70.96 34.98 72.54 30.7 72.54ZM30.7 47.94C33.06 47.94 34.88 46.82 36.16 44.58V37.38C36.16 31.3 34.34 28.26 30.7 28.26C28.7 28.26 27.26 29.1 26.38 30.78C25.54 32.42 25.12 34.56 25.12 37.2C25.12 39.64 25.22 41.58 25.42 43.02C25.62 44.46 26.12 45.64 26.92 46.56C27.72 47.48 28.98 47.94 30.7 47.94Z" fill="black"/>
<path d="M45.9051 109.25C47.1983 102.77 34.9128 92.078 31.1948 89C27.4768 92.078 14.799 102.77 16.0922 109.25C17.5343 116.476 25.5913 115.19 29.0938 113.3C29.0399 114.704 28.4719 117.101 27.9546 117.878C27.308 118.85 24.2121 121.4 21.6257 121.4H31.0331H40.0499C37.4635 121.4 34.9302 118.85 34.2836 117.878C33.7663 117.101 33.0273 114.704 32.9734 113.3C36.4759 115.19 44.463 116.476 45.9051 109.25Z" fill="black"/>
<path d="M328.3 488.46C332.1 488.46 335.02 489.5 337.06 491.58C339.1 493.66 340.16 496.64 340.24 500.52L340.24 501.06L333.82 501.06C333.82 498.58 333.42 496.74 332.62 495.54C331.78 494.38 330.32 493.8 328.24 493.8C324.64 493.8 322.84 497.26 322.84 504.18L322.84 511.56C323.48 510.52 324.4 509.7 325.6 509.1C326.76 508.5 328.2 508.2 329.92 508.2C333.72 508.2 336.42 509.4 338.02 511.8C339.58 514.24 340.36 517.72 340.36 522.24C340.36 527 339.38 530.82 337.42 533.7C335.46 536.58 332.42 538.02 328.3 538.02C324.3 538.02 321.32 536.54 319.36 533.58C317.36 530.66 316.36 526.84 316.36 522.12L316.36 505.8C316.36 500.56 317.28 496.36 319.12 493.2C320.96 490.04 324.02 488.46 328.3 488.46ZM328.3 513.06C325.94 513.06 324.12 514.18 322.84 516.42L322.84 523.62C322.84 529.7 324.66 532.74 328.3 532.74C330.3 532.74 331.74 531.9 332.62 530.22C333.46 528.58 333.88 526.44 333.88 523.8C333.88 521.36 333.78 519.42 333.58 517.98C333.38 516.54 332.88 515.36 332.08 514.44C331.28 513.52 330.02 513.06 328.3 513.06Z" fill="black"/>
<path d="M313.095 452.15C311.802 458.63 324.087 469.322 327.805 472.4C331.523 469.322 344.201 458.63 342.908 452.15C341.466 444.924 333.409 446.21 329.906 448.1C329.96 446.696 330.528 444.299 331.045 443.522C331.692 442.55 334.788 440 337.374 440L327.967 440L318.95 440C321.537 440 324.07 442.55 324.716 443.522C325.234 444.299 325.973 446.696 326.027 448.1C322.524 446.21 314.537 444.924 313.095 452.15Z" fill="black"/>
</g>
<defs>
<clipPath id="clip0">
<rect width="360" height="560.121" fill="white"/>
</clipPath>
</defs>
</svg>
