<svg width="360" height="561" viewBox="0 0 360 561" fill="none" xmlns="http://www.w3.org/2000/svg">
<g clip-path="url(#clip0)">
<rect width="360" height="560.121" fill="white"/>
<path d="M27.46 23.4H34L44.38 72H37.96L35.74 59.76H25.84L23.5 72H17.14L27.46 23.4ZM34.84 54.9L30.76 33L26.74 54.9H34.84Z" fill="#FF3434"/>
<path d="M31.5 109.608H44C42.1431 107.131 39.9239 104.372 37.2065 99.9797C35.0602 96.5108 32.5417 91.4775 31.5 89V109.608Z" fill="#FF3434"/>
<path d="M31.5 109.608H19C20.8569 107.131 23.0761 104.372 25.7935 99.9797C27.9398 96.5108 30.4583 91.4775 31.5 89V109.608Z" fill="#FF3434"/>
<path d="M31.5 109.608H19C20.8569 112.086 23.0761 114.845 25.7935 119.236C27.9398 122.705 30.4583 127.739 31.5 130.216V109.608Z" fill="#FF3434"/>
<path d="M31.5 109.608H44C42.1431 112.086 39.9239 114.845 37.2065 119.236C35.0602 122.705 32.5417 127.739 31.5 130.216V109.608Z" fill="#FF3434"/>
<path d="M331.54 537.6L325 537.6L314.62 489L321.04 489L323.26 501.24L333.16 501.24L335.5 489L341.86 489L331.54 537.6ZM324.16 506.1L328.24 528L332.26 506.1L324.16 506.1Z" fill="#FF3434"/>
<path d="M328.5 451.608H341C339.143 449.131 336.924 446.372 334.207 441.98C332.06 438.511 329.542 433.477 328.5 431V451.608Z" fill="#FF3434"/>
<path d="M328.5 451.608H316C317.857 449.131 320.076 446.372 322.793 441.98C324.94 438.511 327.458 433.477 328.5 431V451.608Z" fill="#FF3434"/>
<path d="M328.5 451.608H316C317.857 454.086 320.076 456.845 322.793 461.236C324.94 464.705 327.458 469.739 328.5 472.216V451.608Z" fill="#FF3434"/>
<path d="M328.5 451.608H341C339.143 454.086 336.924 456.845 334.207 461.236C332.06 464.705 329.542 469.739 328.5 472.216V451.608Z" fill="#FF3434"/>
<path d="M180 280.432H230C222.572 270.523 213.696 259.486 202.826 241.919C194.241 228.043 184.167 207.91 180 198V280.432Z" fill="#FF3434"/>
<path d="M180 280.432H130C137.428 270.523 146.304 259.486 157.174 241.919C165.759 228.043 175.833 207.91 180 198V280.432Z" fill="#FF3434"/>
<path d="M180 280.432H130C137.428 290.342 146.304 301.378 157.174 318.946C165.759 332.822 175.833 352.955 180 362.865V280.432Z" fill="#FF3434"/>
<path d="M180 280.432H230C222.572 290.342 213.696 301.378 202.826 318.946C194.241 332.822 184.167 352.955 180 362.865V280.432Z" fill="#FF3434"/>
</g>
<defs>
<clipPath id="clip0">
<rect width="360" height="560.121" fill="white"/>
</clipPath>
</defs>
</svg>
