<svg width="360" height="561" viewBox="0 0 360 561" fill="none" xmlns="http://www.w3.org/2000/svg">
<g clip-path="url(#clip0)">
<rect width="360" height="560.121" fill="white"/>
<path d="M27.46 23.4H34L44.38 72H37.96L35.74 59.76H25.84L23.5 72H17.14L27.46 23.4ZM34.84 54.9L30.76 33L26.74 54.9H34.84Z" fill="#FF3434"/>
<path d="M46 96.9975C46 99.0706 45.2602 100.96 44.0469 102.38C43.8799 102.576 43.7039 102.763 43.5197 102.94C42.1905 104.217 40.4304 104.995 38.5 104.995C34.3579 104.995 31 101.414 31 96.9975C31 92.5806 34.3579 89 38.5 89C42.6421 89 46 92.5806 46 96.9975Z" fill="#FF3434"/>
<path d="M38.5 104.995C34.3579 104.995 31 101.414 31 96.9975V116.222L43.5197 102.94C42.1905 104.217 40.4304 104.995 38.5 104.995Z" fill="#FF3434"/>
<path d="M16 96.9975C16 99.0706 16.7398 100.96 17.9531 102.38C18.1201 102.576 18.2961 102.763 18.4803 102.94C19.8095 104.217 21.5696 104.995 23.5 104.995C27.6421 104.995 31 101.414 31 96.9975C31 92.5806 27.6421 89 23.5 89C19.3579 89 16 92.5806 16 96.9975Z" fill="#FF3434"/>
<path d="M23.5 104.995C27.6421 104.995 31 101.414 31 96.9975V116.222L18.4803 102.94C19.8095 104.217 21.5696 104.995 23.5 104.995Z" fill="#FF3434"/>
<path d="M331.54 537.6L325 537.6L314.62 489L321.04 489L323.26 501.24L333.16 501.24L335.5 489L341.86 489L331.54 537.6ZM324.16 506.1L328.24 528L332.26 506.1L324.16 506.1Z" fill="#FF3434"/>
<path d="M313 464.225C313 462.152 313.74 460.263 314.953 458.842C315.12 458.646 315.296 458.46 315.48 458.282C316.81 457.005 318.57 456.227 320.5 456.227C324.642 456.227 328 459.808 328 464.225C328 468.642 324.642 472.222 320.5 472.222C316.358 472.222 313 468.642 313 464.225Z" fill="#FF3434"/>
<path d="M320.5 456.227C324.642 456.227 328 459.808 328 464.225V445L315.48 458.282C316.81 457.005 318.57 456.227 320.5 456.227Z" fill="#FF3434"/>
<path d="M343 464.225C343 462.152 342.26 460.263 341.047 458.842C340.88 458.646 340.704 458.46 340.52 458.282C339.19 457.005 337.43 456.227 335.5 456.227C331.358 456.227 328 459.808 328 464.225C328 468.642 331.358 472.222 335.5 472.222C339.642 472.222 343 468.642 343 464.225Z" fill="#FF3434"/>
<path d="M335.5 456.227C331.358 456.227 328 459.808 328 464.225V445L340.52 458.282C339.19 457.005 337.43 456.227 335.5 456.227Z" fill="#FF3434"/>
<path d="M237 245.785C237 254.543 234.164 262.523 229.513 268.525C228.873 269.352 228.198 270.14 227.492 270.888C222.397 276.285 215.65 279.571 208.25 279.571C192.372 279.571 179.5 264.444 179.5 245.785C179.5 227.126 192.372 212 208.25 212C224.128 212 237 227.126 237 245.785Z" fill="#FF3434"/>
<path d="M208.25 279.571C192.372 279.571 179.5 264.444 179.5 245.785V327L227.492 270.888C222.397 276.285 215.65 279.571 208.25 279.571Z" fill="#FF3434"/>
<path d="M122 245.785C122 254.543 124.836 262.523 129.487 268.525C130.127 269.352 130.802 270.14 131.508 270.888C136.603 276.285 143.35 279.571 150.75 279.571C166.628 279.571 179.5 264.444 179.5 245.785C179.5 227.126 166.628 212 150.75 212C134.872 212 122 227.126 122 245.785Z" fill="#FF3434"/>
<path d="M150.75 279.571C166.628 279.571 179.5 264.444 179.5 245.785V327L131.508 270.888C136.603 276.285 143.35 279.571 150.75 279.571Z" fill="#FF3434"/>
</g>
<defs>
<clipPath id="clip0">
<rect width="360" height="560.121" fill="white"/>
</clipPath>
</defs>
</svg>
