<svg width="360" height="561" viewBox="0 0 360 561" fill="none" xmlns="http://www.w3.org/2000/svg">
<g clip-path="url(#clip0)">
<rect width="360" height="560.121" fill="white"/>
<path d="M235.023 298.75C240.992 268.75 184.29 219.25 167.13 205C149.97 219.25 91.4568 268.75 97.4255 298.75C104.081 332.203 141.268 326.25 157.433 317.5C157.184 324 154.563 335.096 152.175 338.696C149.191 343.196 134.902 355 122.965 355H166.384H208C196.062 355 184.37 343.196 181.386 338.696C178.998 335.096 175.588 324 175.339 317.5C191.504 326.25 228.368 332.203 235.023 298.75Z" fill="#575757"/>
<path d="M249.023 298.75C254.992 268.75 198.29 219.25 181.13 205C163.97 219.25 105.457 268.75 111.426 298.75C118.081 332.203 155.268 326.25 171.433 317.5C171.184 324 168.563 335.096 166.175 338.696C163.191 343.196 148.902 355 136.965 355H180.384H222C210.062 355 198.37 343.196 195.386 338.696C192.998 335.096 189.588 324 189.339 317.5C205.504 326.25 242.368 332.203 249.023 298.75Z" fill="black"/>
<path d="M27.46 23.4H34L44.38 72H37.96L35.74 59.76H25.84L23.5 72H17.14L27.46 23.4ZM34.84 54.9L30.76 33L26.74 54.9H34.84Z" fill="black"/>
<path d="M45.9051 109.25C47.1983 102.77 34.9128 92.078 31.1948 89C27.4768 92.078 14.799 102.77 16.0922 109.25C17.5343 116.476 25.5913 115.19 29.0938 113.3C29.0399 114.704 28.4719 117.101 27.9546 117.878C27.308 118.85 24.2121 121.4 21.6257 121.4H31.0331H40.0499C37.4635 121.4 34.9302 118.85 34.2836 117.878C33.7663 117.101 33.0273 114.704 32.9734 113.3C36.4759 115.19 44.463 116.476 45.9051 109.25Z" fill="black"/>
<path d="M331.54 537.6L325 537.6L314.62 489L321.04 489L323.26 501.24L333.16 501.24L335.5 489L341.86 489L331.54 537.6ZM324.16 506.1L328.24 528L332.26 506.1L324.16 506.1Z" fill="black"/>
<path d="M313.095 452.15C311.802 458.63 324.087 469.322 327.805 472.4C331.523 469.322 344.201 458.63 342.908 452.15C341.466 444.924 333.409 446.21 329.906 448.1C329.96 446.696 330.528 444.299 331.045 443.522C331.692 442.55 334.788 440 337.374 440L327.967 440L318.95 440C321.537 440 324.07 442.55 324.716 443.522C325.234 444.299 325.973 446.696 326.027 448.1C322.524 446.21 314.537 444.924 313.095 452.15Z" fill="black"/>
</g>
<defs>
<clipPath id="clip0">
<rect width="360" height="560.121" fill="white"/>
</clipPath>
</defs>
</svg>
