<svg width="360" height="561" viewBox="0 0 360 561" fill="none" xmlns="http://www.w3.org/2000/svg">
<rect width="360" height="560.121" fill="#575757"/>
<path d="M360 560L0 0V560H360Z" fill="black" fill-opacity="0.1"/>
<path d="M216.763 114.625C219.996 98.425 189.282 71.695 179.987 64C170.692 71.695 138.997 98.425 142.23 114.625C145.836 132.69 165.978 129.475 174.734 124.75C174.6 128.26 173.18 134.252 171.887 136.196C170.27 138.626 162.53 145 156.064 145H179.583H202.125C195.659 145 189.325 138.626 187.709 136.196C186.416 134.252 184.568 128.26 184.434 124.75C193.19 129.475 213.158 132.69 216.763 114.625Z" fill="#DBDBDB"/>
<path d="M179.279 229.978C184.444 229.978 189.398 215.354 193.05 211.657C196.702 207.96 198.754 202.945 198.754 197.716C198.754 192.487 196.702 187.472 193.05 183.775C189.398 180.077 184.444 178 179.279 178V229.978Z" fill="#DBDBDB"/>
<path d="M220 229.978C220 240.867 211.281 247.454 200.525 247.454C194.462 247.454 189.902 245.213 185.918 241.628C181.934 238.044 181.492 234.459 179.279 229.978C179.279 224.284 181.22 221.479 185.033 217.88C188.512 214.596 195.393 212.055 200.525 212.055C211.281 212.055 220 219.089 220 229.978Z" fill="#DBDBDB"/>
<path d="M179.279 229.978C174.113 229.978 169.16 215.354 165.507 211.657C161.855 207.96 159.803 202.945 159.803 197.716C159.803 192.487 161.855 187.472 165.507 183.775C169.16 180.077 174.113 178 179.279 178V229.978Z" fill="#DBDBDB"/>
<path d="M139 229.978C139 240.867 147.277 247.454 158.033 247.454C164.095 247.454 168.37 245.951 172.639 241.628C176.623 237.596 177.066 234.459 179.279 229.978C179.279 224.284 177.78 221.479 173.967 217.88C170.488 214.596 163.165 212.055 158.033 212.055C147.277 212.055 139 219.089 139 229.978Z" fill="#DBDBDB"/>
<path d="M179.279 260V226.393H181.934C182.082 228.485 181.934 235.355 183.705 242.076C185.448 248.694 190.934 256.565 194.328 260H179.279Z" fill="#DBDBDB"/>
<path d="M179.279 260V226.393H176.623C176.475 228.485 176.623 235.355 174.852 242.076C173.109 248.694 167.623 256.565 164.23 260H179.279Z" fill="#DBDBDB"/>
<path d="M179.5 345H211C206.321 338.749 200.728 331.787 193.88 320.705C188.472 311.952 182.125 299.251 179.5 293V345Z" fill="#DBDBDB"/>
<path d="M179.5 345H148C152.679 338.749 158.272 331.787 165.12 320.705C170.528 311.952 176.875 299.251 179.5 293V345Z" fill="#DBDBDB"/>
<path d="M179.5 345H148C152.679 351.251 158.272 358.213 165.12 369.295C170.528 378.048 176.875 390.749 179.5 397V345Z" fill="#DBDBDB"/>
<path d="M179.5 345H211C206.321 351.251 200.728 358.213 193.88 369.295C188.472 378.048 182.125 390.749 179.5 397V345Z" fill="#DBDBDB"/>
<path d="M217 449.39C217 454.416 215.151 458.996 212.117 462.441C211.7 462.915 211.26 463.367 210.799 463.797C207.476 466.894 203.076 468.78 198.25 468.78C187.895 468.78 179.5 460.099 179.5 449.39C179.5 438.681 187.895 430 198.25 430C208.605 430 217 438.681 217 449.39Z" fill="#DBDBDB"/>
<path d="M198.25 468.78C187.895 468.78 179.5 460.099 179.5 449.39V496L210.799 463.797C207.476 466.894 203.076 468.78 198.25 468.78Z" fill="#DBDBDB"/>
<path d="M142 449.39C142 454.416 143.849 458.996 146.883 462.441C147.3 462.915 147.74 463.367 148.201 463.797C151.524 466.894 155.924 468.78 160.75 468.78C171.105 468.78 179.5 460.099 179.5 449.39C179.5 438.681 171.105 430 160.75 430C150.395 430 142 438.681 142 449.39Z" fill="#DBDBDB"/>
<path d="M160.75 468.78C171.105 468.78 179.5 460.099 179.5 449.39V496L148.201 463.797C151.524 466.894 155.924 468.78 160.75 468.78Z" fill="#DBDBDB"/>
</svg>
