<svg width="360" height="561" viewBox="0 0 360 561" fill="none" xmlns="http://www.w3.org/2000/svg">
<g clip-path="url(#clip0)">
<rect width="360" height="560.121" fill="white"/>
<path d="M179.18 320.164C198.311 320.164 216.658 266.663 230.185 253.136C243.712 239.608 251.311 221.262 251.311 202.131C251.311 183.001 243.712 164.654 230.185 151.127C216.658 137.6 198.311 130 179.18 130V320.164Z" fill="#F4F4F4"/>
<path d="M330 320.164C330 360.001 297.706 384.098 257.869 384.098C235.417 384.098 218.525 375.902 203.77 362.787C189.016 349.672 187.377 336.557 179.18 320.164C179.18 299.333 186.371 289.069 200.492 275.902C213.376 263.887 238.862 254.59 257.869 254.59C297.706 254.59 330 280.327 330 320.164Z" fill="#F4F4F4"/>
<path d="M179.18 320.164C160.05 320.164 141.703 266.663 128.176 253.136C114.649 239.608 107.049 221.262 107.049 202.131C107.049 183.001 114.649 164.654 128.176 151.127C141.703 137.6 160.05 130 179.18 130V320.164Z" fill="#F4F4F4"/>
<path d="M30 320.164C30 360.001 60.6549 384.098 100.492 384.098C122.944 384.098 138.776 378.601 154.59 362.787C169.344 348.033 170.984 336.557 179.18 320.164C179.18 299.333 173.629 289.069 159.508 275.902C146.624 263.887 119.498 254.59 100.492 254.59C60.6549 254.59 30 280.327 30 320.164Z" fill="#F4F4F4"/>
<path d="M179.18 430V307.049H189.016C189.563 314.699 189.016 339.836 195.574 364.426C202.03 388.636 222.35 417.432 234.918 430H179.18Z" fill="#F4F4F4"/>
<path d="M179.18 430V307.049H169.344C168.798 314.699 169.344 339.836 162.787 364.426C156.331 388.636 136.011 417.432 123.443 430H179.18Z" fill="#F4F4F4"/>
<path d="M90.7 269.8C94.1 269.8 96.6 269.5 98.2 268.9C99.8667 268.233 101 267.067 101.6 265.4C102.2 263.667 102.5 261.033 102.5 257.5V195H113.7V257.7C113.7 262.567 113.2 266.467 112.2 269.4C111.2 272.267 109.4 274.4 106.8 275.8C104.267 277.2 100.7 277.9 96.1 277.9H90.7V269.8ZM139.178 195H150.078L167.378 276H156.678L152.978 255.6H136.478L132.578 276H121.978L139.178 195ZM151.478 247.5L144.678 211L137.978 247.5H151.478ZM195.506 276.9C187.506 276.9 181.873 274.533 178.606 269.8C175.34 265 173.706 258.4 173.706 250V221.4C173.706 212.533 175.306 205.8 178.506 201.2C181.706 196.6 187.373 194.3 195.506 194.3C202.773 194.3 207.973 196.267 211.106 200.2C214.306 204.133 215.906 209.933 215.906 217.6V224H205.206V218.3C205.206 214.567 205.04 211.7 204.706 209.7C204.373 207.7 203.506 206.1 202.106 204.9C200.773 203.7 198.606 203.1 195.606 203.1C192.54 203.1 190.24 203.767 188.706 205.1C187.24 206.367 186.273 208.167 185.806 210.5C185.34 212.767 185.106 215.833 185.106 219.7V251.8C185.106 255.933 185.44 259.167 186.106 261.5C186.773 263.833 187.84 265.5 189.306 266.5C190.84 267.5 192.94 268 195.606 268C198.473 268 200.606 267.367 202.006 266.1C203.406 264.833 204.273 263.1 204.606 260.9C205.006 258.7 205.206 255.7 205.206 251.9V245.9H215.906V251.9C215.906 259.967 214.373 266.167 211.306 270.5C208.306 274.767 203.04 276.9 195.506 276.9ZM226.671 195H237.971V233.2L256.571 195H267.071L251.071 230.7L269.671 276H258.671L243.171 238L237.971 247.4V276H226.671V195Z" fill="#DBDBDB"/>
<path d="M90.7 157.8C94.1 157.8 96.6 157.5 98.2 156.9C99.8667 156.233 101 155.067 101.6 153.4C102.2 151.667 102.5 149.033 102.5 145.5V83H113.7V145.7C113.7 150.567 113.2 154.467 112.2 157.4C111.2 160.267 109.4 162.4 106.8 163.8C104.267 165.2 100.7 165.9 96.1 165.9H90.7V157.8ZM139.178 83H150.078L167.378 164H156.678L152.978 143.6H136.478L132.578 164H121.978L139.178 83ZM151.478 135.5L144.678 99L137.978 135.5H151.478ZM195.506 164.9C187.506 164.9 181.873 162.533 178.606 157.8C175.34 153 173.706 146.4 173.706 138V109.4C173.706 100.533 175.306 93.8 178.506 89.2C181.706 84.6 187.373 82.3 195.506 82.3C202.773 82.3 207.973 84.2667 211.106 88.2C214.306 92.1333 215.906 97.9333 215.906 105.6V112H205.206V106.3C205.206 102.567 205.04 99.7 204.706 97.7C204.373 95.7 203.506 94.1 202.106 92.9C200.773 91.7 198.606 91.1 195.606 91.1C192.54 91.1 190.24 91.7667 188.706 93.1C187.24 94.3667 186.273 96.1667 185.806 98.5C185.34 100.767 185.106 103.833 185.106 107.7V139.8C185.106 143.933 185.44 147.167 186.106 149.5C186.773 151.833 187.84 153.5 189.306 154.5C190.84 155.5 192.94 156 195.606 156C198.473 156 200.606 155.367 202.006 154.1C203.406 152.833 204.273 151.1 204.606 148.9C205.006 146.7 205.206 143.7 205.206 139.9V133.9H215.906V139.9C215.906 147.967 214.373 154.167 211.306 158.5C208.306 162.767 203.04 164.9 195.506 164.9ZM226.671 83H237.971V121.2L256.571 83H267.071L251.071 118.7L269.671 164H258.671L243.171 126L237.971 135.4V164H226.671V83Z" fill="#DBDBDB"/>
<path d="M90.7 493.8C94.1 493.8 96.6 493.5 98.2 492.9C99.8667 492.233 101 491.067 101.6 489.4C102.2 487.667 102.5 485.033 102.5 481.5V419H113.7V481.7C113.7 486.567 113.2 490.467 112.2 493.4C111.2 496.267 109.4 498.4 106.8 499.8C104.267 501.2 100.7 501.9 96.1 501.9H90.7V493.8ZM139.178 419H150.078L167.378 500H156.678L152.978 479.6H136.478L132.578 500H121.978L139.178 419ZM151.478 471.5L144.678 435L137.978 471.5H151.478ZM195.506 500.9C187.506 500.9 181.873 498.533 178.606 493.8C175.34 489 173.706 482.4 173.706 474V445.4C173.706 436.533 175.306 429.8 178.506 425.2C181.706 420.6 187.373 418.3 195.506 418.3C202.773 418.3 207.973 420.267 211.106 424.2C214.306 428.133 215.906 433.933 215.906 441.6V448H205.206V442.3C205.206 438.567 205.04 435.7 204.706 433.7C204.373 431.7 203.506 430.1 202.106 428.9C200.773 427.7 198.606 427.1 195.606 427.1C192.54 427.1 190.24 427.767 188.706 429.1C187.24 430.367 186.273 432.167 185.806 434.5C185.34 436.767 185.106 439.833 185.106 443.7V475.8C185.106 479.933 185.44 483.167 186.106 485.5C186.773 487.833 187.84 489.5 189.306 490.5C190.84 491.5 192.94 492 195.606 492C198.473 492 200.606 491.367 202.006 490.1C203.406 488.833 204.273 487.1 204.606 484.9C205.006 482.7 205.206 479.7 205.206 475.9V469.9H215.906V475.9C215.906 483.967 214.373 490.167 211.306 494.5C208.306 498.767 203.04 500.9 195.506 500.9ZM226.671 419H237.971V457.2L256.571 419H267.071L251.071 454.7L269.671 500H258.671L243.171 462L237.971 471.4V500H226.671V419Z" fill="#DBDBDB"/>
<path d="M90.7 381.8C94.1 381.8 96.6 381.5 98.2 380.9C99.8667 380.233 101 379.067 101.6 377.4C102.2 375.667 102.5 373.033 102.5 369.5V307H113.7V369.7C113.7 374.567 113.2 378.467 112.2 381.4C111.2 384.267 109.4 386.4 106.8 387.8C104.267 389.2 100.7 389.9 96.1 389.9H90.7V381.8ZM139.178 307H150.078L167.378 388H156.678L152.978 367.6H136.478L132.578 388H121.978L139.178 307ZM151.478 359.5L144.678 323L137.978 359.5H151.478ZM195.506 388.9C187.506 388.9 181.873 386.533 178.606 381.8C175.34 377 173.706 370.4 173.706 362V333.4C173.706 324.533 175.306 317.8 178.506 313.2C181.706 308.6 187.373 306.3 195.506 306.3C202.773 306.3 207.973 308.267 211.106 312.2C214.306 316.133 215.906 321.933 215.906 329.6V336H205.206V330.3C205.206 326.567 205.04 323.7 204.706 321.7C204.373 319.7 203.506 318.1 202.106 316.9C200.773 315.7 198.606 315.1 195.606 315.1C192.54 315.1 190.24 315.767 188.706 317.1C187.24 318.367 186.273 320.167 185.806 322.5C185.34 324.767 185.106 327.833 185.106 331.7V363.8C185.106 367.933 185.44 371.167 186.106 373.5C186.773 375.833 187.84 377.5 189.306 378.5C190.84 379.5 192.94 380 195.606 380C198.473 380 200.606 379.367 202.006 378.1C203.406 376.833 204.273 375.1 204.606 372.9C205.006 370.7 205.206 367.7 205.206 363.9V357.9H215.906V363.9C215.906 371.967 214.373 378.167 211.306 382.5C208.306 386.767 203.04 388.9 195.506 388.9ZM226.671 307H237.971V345.2L256.571 307H267.071L251.071 342.7L269.671 388H258.671L243.171 350L237.971 359.4V388H226.671V307Z" fill="#DBDBDB"/>
<path d="M90.7 318.8C94.1 318.8 96.6 318.5 98.2 317.9C99.8667 317.233 101 316.067 101.6 314.4C102.2 312.667 102.5 310.033 102.5 306.5V244H113.7V306.7C113.7 311.567 113.2 315.467 112.2 318.4C111.2 321.267 109.4 323.4 106.8 324.8C104.267 326.2 100.7 326.9 96.1 326.9H90.7V318.8ZM139.178 244H150.078L167.378 325H156.678L152.978 304.6H136.478L132.578 325H121.978L139.178 244ZM151.478 296.5L144.678 260L137.978 296.5H151.478ZM195.506 325.9C187.506 325.9 181.873 323.533 178.606 318.8C175.34 314 173.706 307.4 173.706 299V270.4C173.706 261.533 175.306 254.8 178.506 250.2C181.706 245.6 187.373 243.3 195.506 243.3C202.773 243.3 207.973 245.267 211.106 249.2C214.306 253.133 215.906 258.933 215.906 266.6V273H205.206V267.3C205.206 263.567 205.04 260.7 204.706 258.7C204.373 256.7 203.506 255.1 202.106 253.9C200.773 252.7 198.606 252.1 195.606 252.1C192.54 252.1 190.24 252.767 188.706 254.1C187.24 255.367 186.273 257.167 185.806 259.5C185.34 261.767 185.106 264.833 185.106 268.7V300.8C185.106 304.933 185.44 308.167 186.106 310.5C186.773 312.833 187.84 314.5 189.306 315.5C190.84 316.5 192.94 317 195.606 317C198.473 317 200.606 316.367 202.006 315.1C203.406 313.833 204.273 312.1 204.606 309.9C205.006 307.7 205.206 304.7 205.206 300.9V294.9H215.906V300.9C215.906 308.967 214.373 315.167 211.306 319.5C208.306 323.767 203.04 325.9 195.506 325.9ZM226.671 244H237.971V282.2L256.571 244H267.071L251.071 279.7L269.671 325H258.671L243.171 287L237.971 296.4V325H226.671V244Z" fill="black"/>
<path d="M21.42 68.28C23.46 68.28 24.96 68.1 25.92 67.74C26.92 67.34 27.6 66.64 27.96 65.64C28.32 64.6 28.5 63.02 28.5 60.9V23.4H35.22V61.02C35.22 63.94 34.92 66.28 34.32 68.04C33.72 69.76 32.64 71.04 31.08 71.88C29.56 72.72 27.42 73.14 24.66 73.14H21.42V68.28Z" fill="black"/>
<path d="M29.918 108.016C31.8311 108.016 33.6658 102.666 35.0185 101.314C36.3712 99.9608 37.1311 98.1262 37.1311 96.2131C37.1311 94.3001 36.3712 92.4654 35.0185 91.1127C33.6658 89.76 31.8311 89 29.918 89V108.016Z" fill="black"/>
<path d="M45 108.016C45 112 41.7706 114.41 37.7869 114.41C35.5417 114.41 33.8525 113.59 32.377 112.279C30.9016 110.967 30.7377 109.656 29.918 108.016C29.918 105.933 30.6371 104.907 32.0492 103.59C33.3376 102.389 35.8862 101.459 37.7869 101.459C41.7706 101.459 45 104.033 45 108.016Z" fill="black"/>
<path d="M29.918 108.016C28.005 108.016 26.1703 102.666 24.8176 101.314C23.4649 99.9608 22.7049 98.1262 22.7049 96.2131C22.7049 94.3001 23.4649 92.4654 24.8176 91.1127C26.1703 89.76 28.005 89 29.918 89V108.016Z" fill="black"/>
<path d="M15 108.016C15 112 18.0655 114.41 22.0492 114.41C24.2944 114.41 25.8776 113.86 27.459 112.279C28.9344 110.803 29.0984 109.656 29.918 108.016C29.918 105.933 29.3629 104.907 27.9508 103.59C26.6624 102.389 23.9498 101.459 22.0492 101.459C18.0655 101.459 15 104.033 15 108.016Z" fill="black"/>
<path d="M29.918 119V106.705H30.9016C30.9563 107.47 30.9016 109.984 31.5574 112.443C32.203 114.864 34.235 117.743 35.4918 119H29.918Z" fill="black"/>
<path d="M29.918 119V106.705H28.9344C28.8798 107.47 28.9344 109.984 28.2787 112.443C27.6331 114.864 25.6011 117.743 24.3443 119H29.918Z" fill="black"/>
<path d="M337.58 492.72C335.54 492.72 334.04 492.9 333.08 493.26C332.08 493.66 331.4 494.36 331.04 495.36C330.68 496.4 330.5 497.98 330.5 500.1L330.5 537.6L323.78 537.6L323.78 499.98C323.78 497.06 324.08 494.72 324.68 492.96C325.28 491.24 326.36 489.96 327.92 489.12C329.44 488.28 331.58 487.86 334.34 487.86L337.58 487.86L337.58 492.72Z" fill="black"/>
<path d="M329.082 452.984C327.169 452.984 325.334 458.334 323.982 459.686C322.629 461.039 321.869 462.874 321.869 464.787C321.869 466.7 322.629 468.535 323.982 469.887C325.334 471.24 327.169 472 329.082 472L329.082 452.984Z" fill="black"/>
<path d="M314 452.984C314 449 317.229 446.59 321.213 446.59C323.458 446.59 325.148 447.41 326.623 448.721C328.098 450.033 328.262 451.344 329.082 452.984C329.082 455.067 328.363 456.093 326.951 457.41C325.662 458.611 323.114 459.541 321.213 459.541C317.229 459.541 314 456.967 314 452.984Z" fill="black"/>
<path d="M329.082 452.984C330.995 452.984 332.83 458.334 334.182 459.686C335.535 461.039 336.295 462.874 336.295 464.787C336.295 466.7 335.535 468.535 334.182 469.887C332.83 471.24 330.995 472 329.082 472L329.082 452.984Z" fill="black"/>
<path d="M344 452.984C344 449 340.935 446.59 336.951 446.59C334.706 446.59 333.122 447.14 331.541 448.721C330.066 450.197 329.902 451.344 329.082 452.984C329.082 455.067 329.637 456.093 331.049 457.41C332.338 458.611 335.05 459.541 336.951 459.541C340.935 459.541 344 456.967 344 452.984Z" fill="black"/>
<path d="M329.082 442L329.082 454.295L328.098 454.295C328.044 453.53 328.098 451.016 327.443 448.557C326.797 446.136 324.765 443.257 323.508 442L329.082 442Z" fill="black"/>
<path d="M329.082 442L329.082 454.295L330.066 454.295C330.12 453.53 330.066 451.016 330.721 448.557C331.367 446.136 333.399 443.257 334.656 442L329.082 442Z" fill="black"/>
</g>
<defs>
<clipPath id="clip0">
<rect width="360" height="560.121" fill="white"/>
</clipPath>
</defs>
</svg>
