<svg width="360" height="561" viewBox="0 0 360 561" fill="none" xmlns="http://www.w3.org/2000/svg">
<g clip-path="url(#clip0)">
<rect width="360" height="560.121" fill="white"/>
<path d="M180 280H300C282.174 255.956 260.87 229.18 234.783 186.557C214.178 152.892 190 104.044 180 80V280Z" fill="#FFEDED"/>
<path d="M180 280H60C77.8261 255.956 99.1304 229.18 125.217 186.557C145.822 152.892 170 104.044 180 80V280Z" fill="#FFEDED"/>
<path d="M180 280H60C77.8261 304.044 99.1304 330.82 125.217 373.443C145.822 407.108 170 455.956 180 480V280Z" fill="#FFEDED"/>
<path d="M180 280H300C282.174 304.044 260.87 330.82 234.783 373.443C214.178 407.108 190 455.956 180 480V280Z" fill="#FFEDED"/>
<path d="M95.3 195H106.6V233.2L125.2 195H135.7L119.7 230.7L138.3 276H127.3L111.8 238L106.6 247.4V276H95.3V195ZM145.412 195H156.512V276H145.412V195ZM169.616 195H177.316L200.316 248.8V195H209.716V276H202.516L179.216 220.7V276H169.616V195ZM241.748 277C234.415 277 229.115 274.7 225.848 270.1C222.582 265.433 220.948 258.533 220.948 249.4V222.3C220.948 216.033 221.582 210.9 222.848 206.9C224.182 202.833 226.415 199.733 229.548 197.6C232.748 195.4 237.115 194.3 242.648 194.3C250.115 194.3 255.482 196.2 258.748 200C262.082 203.8 263.748 209.767 263.748 217.9V220.9H253.148V218.4C253.148 214.533 252.915 211.567 252.448 209.5C251.982 207.367 250.982 205.767 249.448 204.7C247.982 203.633 245.782 203.1 242.848 203.1C239.715 203.1 237.382 203.833 235.848 205.3C234.315 206.7 233.315 208.6 232.848 211C232.448 213.4 232.248 216.6 232.248 220.6V250.6C232.248 256.8 232.982 261.267 234.448 264C235.982 266.667 238.882 268 243.148 268C247.348 268 250.215 266.533 251.748 263.6C253.348 260.667 254.148 255.967 254.148 249.5V243.9H243.848V235.9H264.348V276H257.248L256.148 266.7C253.615 273.567 248.815 277 241.748 277Z" fill="#FFC5C5"/>
<path d="M95.3 83H106.6V121.2L125.2 83H135.7L119.7 118.7L138.3 164H127.3L111.8 126L106.6 135.4V164H95.3V83ZM145.412 83H156.512V164H145.412V83ZM169.616 83H177.316L200.316 136.8V83H209.716V164H202.516L179.216 108.7V164H169.616V83ZM241.748 165C234.415 165 229.115 162.7 225.848 158.1C222.582 153.433 220.948 146.533 220.948 137.4V110.3C220.948 104.033 221.582 98.9 222.848 94.9C224.182 90.8333 226.415 87.7333 229.548 85.6C232.748 83.4 237.115 82.3 242.648 82.3C250.115 82.3 255.482 84.2 258.748 88C262.082 91.8 263.748 97.7667 263.748 105.9V108.9H253.148V106.4C253.148 102.533 252.915 99.5667 252.448 97.5C251.982 95.3667 250.982 93.7667 249.448 92.7C247.982 91.6333 245.782 91.1 242.848 91.1C239.715 91.1 237.382 91.8333 235.848 93.3C234.315 94.7 233.315 96.6 232.848 99C232.448 101.4 232.248 104.6 232.248 108.6V138.6C232.248 144.8 232.982 149.267 234.448 152C235.982 154.667 238.882 156 243.148 156C247.348 156 250.215 154.533 251.748 151.6C253.348 148.667 254.148 143.967 254.148 137.5V131.9H243.848V123.9H264.348V164H257.248L256.148 154.7C253.615 161.567 248.815 165 241.748 165Z" fill="#FFC5C5"/>
<path d="M95.3 419H106.6V457.2L125.2 419H135.7L119.7 454.7L138.3 500H127.3L111.8 462L106.6 471.4V500H95.3V419ZM145.412 419H156.512V500H145.412V419ZM169.616 419H177.316L200.316 472.8V419H209.716V500H202.516L179.216 444.7V500H169.616V419ZM241.748 501C234.415 501 229.115 498.7 225.848 494.1C222.582 489.433 220.948 482.533 220.948 473.4V446.3C220.948 440.033 221.582 434.9 222.848 430.9C224.182 426.833 226.415 423.733 229.548 421.6C232.748 419.4 237.115 418.3 242.648 418.3C250.115 418.3 255.482 420.2 258.748 424C262.082 427.8 263.748 433.767 263.748 441.9V444.9H253.148V442.4C253.148 438.533 252.915 435.567 252.448 433.5C251.982 431.367 250.982 429.767 249.448 428.7C247.982 427.633 245.782 427.1 242.848 427.1C239.715 427.1 237.382 427.833 235.848 429.3C234.315 430.7 233.315 432.6 232.848 435C232.448 437.4 232.248 440.6 232.248 444.6V474.6C232.248 480.8 232.982 485.267 234.448 488C235.982 490.667 238.882 492 243.148 492C247.348 492 250.215 490.533 251.748 487.6C253.348 484.667 254.148 479.967 254.148 473.5V467.9H243.848V459.9H264.348V500H257.248L256.148 490.7C253.615 497.567 248.815 501 241.748 501Z" fill="#FFC5C5"/>
<path d="M95.3 307H106.6V345.2L125.2 307H135.7L119.7 342.7L138.3 388H127.3L111.8 350L106.6 359.4V388H95.3V307ZM145.412 307H156.512V388H145.412V307ZM169.616 307H177.316L200.316 360.8V307H209.716V388H202.516L179.216 332.7V388H169.616V307ZM241.748 389C234.415 389 229.115 386.7 225.848 382.1C222.582 377.433 220.948 370.533 220.948 361.4V334.3C220.948 328.033 221.582 322.9 222.848 318.9C224.182 314.833 226.415 311.733 229.548 309.6C232.748 307.4 237.115 306.3 242.648 306.3C250.115 306.3 255.482 308.2 258.748 312C262.082 315.8 263.748 321.767 263.748 329.9V332.9H253.148V330.4C253.148 326.533 252.915 323.567 252.448 321.5C251.982 319.367 250.982 317.767 249.448 316.7C247.982 315.633 245.782 315.1 242.848 315.1C239.715 315.1 237.382 315.833 235.848 317.3C234.315 318.7 233.315 320.6 232.848 323C232.448 325.4 232.248 328.6 232.248 332.6V362.6C232.248 368.8 232.982 373.267 234.448 376C235.982 378.667 238.882 380 243.148 380C247.348 380 250.215 378.533 251.748 375.6C253.348 372.667 254.148 367.967 254.148 361.5V355.9H243.848V347.9H264.348V388H257.248L256.148 378.7C253.615 385.567 248.815 389 241.748 389Z" fill="#FFC5C5"/>
<path d="M95.3 244H106.6V282.2L125.2 244H135.7L119.7 279.7L138.3 325H127.3L111.8 287L106.6 296.4V325H95.3V244ZM145.412 244H156.512V325H145.412V244ZM169.616 244H177.316L200.316 297.8V244H209.716V325H202.516L179.216 269.7V325H169.616V244ZM241.748 326C234.415 326 229.115 323.7 225.848 319.1C222.582 314.433 220.948 307.533 220.948 298.4V271.3C220.948 265.033 221.582 259.9 222.848 255.9C224.182 251.833 226.415 248.733 229.548 246.6C232.748 244.4 237.115 243.3 242.648 243.3C250.115 243.3 255.482 245.2 258.748 249C262.082 252.8 263.748 258.767 263.748 266.9V269.9H253.148V267.4C253.148 263.533 252.915 260.567 252.448 258.5C251.982 256.367 250.982 254.767 249.448 253.7C247.982 252.633 245.782 252.1 242.848 252.1C239.715 252.1 237.382 252.833 235.848 254.3C234.315 255.7 233.315 257.6 232.848 260C232.448 262.4 232.248 265.6 232.248 269.6V299.6C232.248 305.8 232.982 310.267 234.448 313C235.982 315.667 238.882 317 243.148 317C247.348 317 250.215 315.533 251.748 312.6C253.348 309.667 254.148 304.967 254.148 298.5V292.9H243.848V284.9H264.348V325H257.248L256.148 315.7C253.615 322.567 248.815 326 241.748 326Z" fill="#FF3434"/>
<path d="M19.78 23.4H26.56V46.32L37.72 23.4H44.02L34.42 44.82L45.58 72H38.98L29.68 49.2L26.56 54.84V72H19.78V23.4Z" fill="#FF3434"/>
<path d="M31.5 109.608H44C42.1431 107.131 39.9239 104.372 37.2065 99.9797C35.0602 96.5108 32.5417 91.4775 31.5 89V109.608Z" fill="#FF3434"/>
<path d="M31.5 109.608H19C20.8569 107.131 23.0761 104.372 25.7935 99.9797C27.9398 96.5108 30.4583 91.4775 31.5 89V109.608Z" fill="#FF3434"/>
<path d="M31.5 109.608H19C20.8569 112.086 23.0761 114.845 25.7935 119.236C27.9398 122.705 30.4583 127.739 31.5 130.216V109.608Z" fill="#FF3434"/>
<path d="M31.5 109.608H44C42.1431 112.086 39.9239 114.845 37.2065 119.236C35.0602 122.705 32.5417 127.739 31.5 130.216V109.608Z" fill="#FF3434"/>
<path d="M339.22 537.6L332.44 537.6L332.44 514.68L321.28 537.6L314.98 537.6L324.58 516.18L313.42 489L320.02 489L329.32 511.8L332.44 506.16L332.44 489L339.22 489L339.22 537.6Z" fill="#FF3434"/>
<path d="M328.5 451.608H341C339.143 449.131 336.924 446.372 334.207 441.98C332.06 438.511 329.542 433.477 328.5 431V451.608Z" fill="#FF3434"/>
<path d="M328.5 451.608H316C317.857 449.131 320.076 446.372 322.793 441.98C324.94 438.511 327.458 433.477 328.5 431V451.608Z" fill="#FF3434"/>
<path d="M328.5 451.608H316C317.857 454.086 320.076 456.845 322.793 461.236C324.94 464.705 327.458 469.739 328.5 472.216V451.608Z" fill="#FF3434"/>
<path d="M328.5 451.608H341C339.143 454.086 336.924 456.845 334.207 461.236C332.06 464.705 329.542 469.739 328.5 472.216V451.608Z" fill="#FF3434"/>
</g>
<defs>
<clipPath id="clip0">
<rect width="360" height="560.121" fill="white"/>
</clipPath>
</defs>
</svg>
