<svg width="360" height="561" viewBox="0 0 360 561" fill="none" xmlns="http://www.w3.org/2000/svg">
<g clip-path="url(#clip0)">
<rect width="360" height="560.121" fill="white"/>
<path d="M296 47.5593C296 54.1849 293.855 60.2217 290.336 64.7627C289.852 65.3877 289.341 65.9843 288.807 66.5502C284.952 70.6332 279.848 73.1186 274.25 73.1186C262.238 73.1186 252.5 61.6753 252.5 47.5593C252.5 33.4433 262.238 22 274.25 22C286.262 22 296 33.4433 296 47.5593Z" fill="#FF3434"/>
<path d="M274.25 73.1186C262.238 73.1186 252.5 61.6753 252.5 47.5593V109L288.807 66.5502C284.952 70.6332 279.848 73.1186 274.25 73.1186Z" fill="#FF3434"/>
<path d="M209 47.5593C209 54.1849 211.145 60.2217 214.664 64.7627C215.148 65.3877 215.659 65.9843 216.193 66.5502C220.048 70.6332 225.152 73.1186 230.75 73.1186C242.762 73.1186 252.5 61.6753 252.5 47.5593C252.5 33.4433 242.762 22 230.75 22C218.738 22 209 33.4433 209 47.5593Z" fill="#FF3434"/>
<path d="M230.75 73.1186C242.762 73.1186 252.5 61.6753 252.5 47.5593V109L216.193 66.5502C220.048 70.6332 225.152 73.1186 230.75 73.1186Z" fill="#FF3434"/>
<path d="M296 188.559C296 195.185 293.855 201.222 290.336 205.763C289.852 206.388 289.341 206.984 288.807 207.55C284.952 211.633 279.848 214.119 274.25 214.119C262.238 214.119 252.5 202.675 252.5 188.559C252.5 174.443 262.238 163 274.25 163C286.262 163 296 174.443 296 188.559Z" fill="#FF3434"/>
<path d="M274.25 214.119C262.238 214.119 252.5 202.675 252.5 188.559V250L288.807 207.55C284.952 211.633 279.848 214.119 274.25 214.119Z" fill="#FF3434"/>
<path d="M209 188.559C209 195.185 211.145 201.222 214.664 205.763C215.148 206.388 215.659 206.984 216.193 207.55C220.048 211.633 225.152 214.119 230.75 214.119C242.762 214.119 252.5 202.675 252.5 188.559C252.5 174.443 242.762 163 230.75 163C218.738 163 209 174.443 209 188.559Z" fill="#FF3434"/>
<path d="M230.75 214.119C242.762 214.119 252.5 202.675 252.5 188.559V250L216.193 207.55C220.048 211.633 225.152 214.119 230.75 214.119Z" fill="#FF3434"/>
<path d="M209 370.441C209 363.815 211.145 357.778 214.664 353.237C215.148 352.612 215.659 352.016 216.193 351.45C220.048 347.367 225.152 344.881 230.75 344.881C242.762 344.881 252.5 356.325 252.5 370.441C252.5 384.557 242.762 396 230.75 396C218.738 396 209 384.557 209 370.441Z" fill="#FF3434"/>
<path d="M230.75 344.881C242.762 344.881 252.5 356.325 252.5 370.441V309L216.193 351.45C220.048 347.367 225.152 344.881 230.75 344.881Z" fill="#FF3434"/>
<path d="M296 370.441C296 363.815 293.855 357.778 290.336 353.237C289.852 352.612 289.341 352.016 288.807 351.45C284.952 347.367 279.848 344.881 274.25 344.881C262.238 344.881 252.5 356.325 252.5 370.441C252.5 384.557 262.238 396 274.25 396C286.262 396 296 384.557 296 370.441Z" fill="#FF3434"/>
<path d="M274.25 344.881C262.238 344.881 252.5 356.325 252.5 370.441V309L288.807 351.45C284.952 347.367 279.848 344.881 274.25 344.881Z" fill="#FF3434"/>
<path d="M209 511.441C209 504.815 211.145 498.778 214.664 494.237C215.148 493.612 215.659 493.016 216.193 492.45C220.048 488.367 225.152 485.881 230.75 485.881C242.762 485.881 252.5 497.325 252.5 511.441C252.5 525.557 242.762 537 230.75 537C218.738 537 209 525.557 209 511.441Z" fill="#FF3434"/>
<path d="M230.75 485.881C242.762 485.881 252.5 497.325 252.5 511.441V450L216.193 492.45C220.048 488.367 225.152 485.881 230.75 485.881Z" fill="#FF3434"/>
<path d="M296 511.441C296 504.815 293.855 498.778 290.336 494.237C289.852 493.612 289.341 493.016 288.807 492.45C284.952 488.367 279.848 485.881 274.25 485.881C262.238 485.881 252.5 497.325 252.5 511.441C252.5 525.557 262.238 537 274.25 537C286.262 537 296 525.557 296 511.441Z" fill="#FF3434"/>
<path d="M274.25 485.881C262.238 485.881 252.5 497.325 252.5 511.441V450L288.807 492.45C284.952 488.367 279.848 485.881 274.25 485.881Z" fill="#FF3434"/>
<path d="M224 121.559C224 128.185 221.855 134.222 218.336 138.763C217.852 139.388 217.341 139.984 216.807 140.55C212.952 144.633 207.848 147.119 202.25 147.119C190.238 147.119 180.5 135.675 180.5 121.559C180.5 107.443 190.238 96 202.25 96C214.262 96 224 107.443 224 121.559Z" fill="#FF3434"/>
<path d="M202.25 147.119C190.238 147.119 180.5 135.675 180.5 121.559V183L216.807 140.55C212.952 144.633 207.848 147.119 202.25 147.119Z" fill="#FF3434"/>
<path d="M137 121.559C137 128.185 139.145 134.222 142.664 138.763C143.148 139.388 143.659 139.984 144.193 140.55C148.048 144.633 153.152 147.119 158.75 147.119C170.762 147.119 180.5 135.675 180.5 121.559C180.5 107.443 170.762 96 158.75 96C146.738 96 137 107.443 137 121.559Z" fill="#FF3434"/>
<path d="M158.75 147.119C170.762 147.119 180.5 135.675 180.5 121.559V183L144.193 140.55C148.048 144.633 153.152 147.119 158.75 147.119Z" fill="#FF3434"/>
<path d="M137 440.441C137 433.815 139.145 427.778 142.664 423.237C143.148 422.612 143.659 422.016 144.193 421.45C148.048 417.367 153.152 414.881 158.75 414.881C170.762 414.881 180.5 426.325 180.5 440.441C180.5 454.557 170.762 466 158.75 466C146.738 466 137 454.557 137 440.441Z" fill="#FF3434"/>
<path d="M158.75 414.881C170.762 414.881 180.5 426.325 180.5 440.441V379L144.193 421.45C148.048 417.367 153.152 414.881 158.75 414.881Z" fill="#FF3434"/>
<path d="M224 440.441C224 433.815 221.855 427.778 218.336 423.237C217.852 422.612 217.341 422.016 216.807 421.45C212.952 417.367 207.848 414.881 202.25 414.881C190.238 414.881 180.5 426.325 180.5 440.441C180.5 454.557 190.238 466 202.25 466C214.262 466 224 454.557 224 440.441Z" fill="#FF3434"/>
<path d="M202.25 414.881C190.238 414.881 180.5 426.325 180.5 440.441V379L216.807 421.45C212.952 417.367 207.848 414.881 202.25 414.881Z" fill="#FF3434"/>
<path d="M150 48.5593C150 55.1849 147.855 61.2217 144.336 65.7627C143.852 66.3877 143.341 66.9843 142.807 67.5502C138.952 71.6332 133.848 74.1186 128.25 74.1186C116.238 74.1186 106.5 62.6753 106.5 48.5593C106.5 34.4433 116.238 23 128.25 23C140.262 23 150 34.4433 150 48.5593Z" fill="#FF3434"/>
<path d="M128.25 74.1186C116.238 74.1186 106.5 62.6753 106.5 48.5593V110L142.807 67.5502C138.952 71.6332 133.848 74.1186 128.25 74.1186Z" fill="#FF3434"/>
<path d="M63 48.5593C63 55.1849 65.1453 61.2217 68.6641 65.7627C69.1484 66.3877 69.6586 66.9843 70.1929 67.5502C74.0477 71.6332 79.1519 74.1186 84.75 74.1186C96.7622 74.1186 106.5 62.6753 106.5 48.5593C106.5 34.4433 96.7622 23 84.75 23C72.7378 23 63 34.4433 63 48.5593Z" fill="#FF3434"/>
<path d="M84.75 74.1186C96.7622 74.1186 106.5 62.6753 106.5 48.5593V110L70.1929 67.5502C74.0477 71.6332 79.1519 74.1186 84.75 74.1186Z" fill="#FF3434"/>
<path d="M150 189.559C150 196.185 147.855 202.222 144.336 206.763C143.852 207.388 143.341 207.984 142.807 208.55C138.952 212.633 133.848 215.119 128.25 215.119C116.238 215.119 106.5 203.675 106.5 189.559C106.5 175.443 116.238 164 128.25 164C140.262 164 150 175.443 150 189.559Z" fill="#FF3434"/>
<path d="M128.25 215.119C116.238 215.119 106.5 203.675 106.5 189.559V251L142.807 208.55C138.952 212.633 133.848 215.119 128.25 215.119Z" fill="#FF3434"/>
<path d="M63 189.559C63 196.185 65.1453 202.222 68.6641 206.763C69.1484 207.388 69.6586 207.984 70.1929 208.55C74.0477 212.633 79.1519 215.119 84.75 215.119C96.7622 215.119 106.5 203.675 106.5 189.559C106.5 175.443 96.7622 164 84.75 164C72.7378 164 63 175.443 63 189.559Z" fill="#FF3434"/>
<path d="M84.75 215.119C96.7622 215.119 106.5 203.675 106.5 189.559V251L70.1929 208.55C74.0477 212.633 79.1519 215.119 84.75 215.119Z" fill="#FF3434"/>
<path d="M63 371.441C63 364.815 65.1453 358.778 68.6641 354.237C69.1484 353.612 69.6586 353.016 70.1929 352.45C74.0477 348.367 79.1519 345.881 84.75 345.881C96.7622 345.881 106.5 357.325 106.5 371.441C106.5 385.557 96.7622 397 84.75 397C72.7378 397 63 385.557 63 371.441Z" fill="#FF3434"/>
<path d="M84.75 345.881C96.7622 345.881 106.5 357.325 106.5 371.441V310L70.1929 352.45C74.0477 348.367 79.1519 345.881 84.75 345.881Z" fill="#FF3434"/>
<path d="M150 371.441C150 364.815 147.855 358.778 144.336 354.237C143.852 353.612 143.341 353.016 142.807 352.45C138.952 348.367 133.848 345.881 128.25 345.881C116.238 345.881 106.5 357.325 106.5 371.441C106.5 385.557 116.238 397 128.25 397C140.262 397 150 385.557 150 371.441Z" fill="#FF3434"/>
<path d="M128.25 345.881C116.238 345.881 106.5 357.325 106.5 371.441V310L142.807 352.45C138.952 348.367 133.848 345.881 128.25 345.881Z" fill="#FF3434"/>
<path d="M63 512.441C63 505.815 65.1453 499.778 68.6641 495.237C69.1484 494.612 69.6586 494.016 70.1929 493.45C74.0477 489.367 79.1519 486.881 84.75 486.881C96.7622 486.881 106.5 498.325 106.5 512.441C106.5 526.557 96.7622 538 84.75 538C72.7378 538 63 526.557 63 512.441Z" fill="#FF3434"/>
<path d="M84.75 486.881C96.7622 486.881 106.5 498.325 106.5 512.441V451L70.1929 493.45C74.0477 489.367 79.1519 486.881 84.75 486.881Z" fill="#FF3434"/>
<path d="M150 512.441C150 505.815 147.855 499.778 144.336 495.237C143.852 494.612 143.341 494.016 142.807 493.45C138.952 489.367 133.848 486.881 128.25 486.881C116.238 486.881 106.5 498.325 106.5 512.441C106.5 526.557 116.238 538 128.25 538C140.262 538 150 526.557 150 512.441Z" fill="#FF3434"/>
<path d="M128.25 486.881C116.238 486.881 106.5 498.325 106.5 512.441V451L142.807 493.45C138.952 489.367 133.848 486.881 128.25 486.881Z" fill="#FF3434"/>
<path d="M15.26 31.8C15.18 31.92 13.96 32.2 11.6 32.64C9.28 33.08 7.68 33.38 6.8 33.54V28.68C11.68 27.52 15.02 25.76 16.82 23.4H21.68V72H15.26V31.8ZM44.3291 72.54C40.3291 72.54 37.3091 71.24 35.2691 68.64C33.2691 66.04 32.2691 62.56 32.2691 58.2V37.26C32.2691 32.82 33.2491 29.34 35.2091 26.82C37.2091 24.26 40.2491 22.98 44.3291 22.98C48.3691 22.98 51.3691 24.26 53.3291 26.82C55.3291 29.34 56.3291 32.82 56.3291 37.26V58.2C56.3291 62.6 55.3291 66.1 53.3291 68.7C51.3291 71.26 48.3291 72.54 44.3291 72.54ZM44.3291 67.26C48.0091 67.26 49.8491 64.26 49.8491 58.26V37.2C49.8491 34.44 49.4491 32.26 48.6491 30.66C47.8891 29.02 46.4491 28.2 44.3291 28.2C42.2091 28.2 40.7491 29.02 39.9491 30.66C39.1491 32.26 38.7491 34.44 38.7491 37.2V58.26C38.7491 64.26 40.6091 67.26 44.3291 67.26Z" fill="#FF3434"/>
<path d="M46 96.9975C46 99.0706 45.2602 100.96 44.0469 102.38C43.8799 102.576 43.7039 102.763 43.5197 102.94C42.1905 104.217 40.4304 104.995 38.5 104.995C34.3579 104.995 31 101.414 31 96.9975C31 92.5806 34.3579 89 38.5 89C42.6421 89 46 92.5806 46 96.9975Z" fill="#FF3434"/>
<path d="M38.5 104.995C34.3579 104.995 31 101.414 31 96.9975V116.222L43.5197 102.94C42.1905 104.217 40.4304 104.995 38.5 104.995Z" fill="#FF3434"/>
<path d="M16 96.9975C16 99.0706 16.7398 100.96 17.9531 102.38C18.1201 102.576 18.2961 102.763 18.4803 102.94C19.8095 104.217 21.5696 104.995 23.5 104.995C27.6421 104.995 31 101.414 31 96.9975C31 92.5806 27.6421 89 23.5 89C19.3579 89 16 92.5806 16 96.9975Z" fill="#FF3434"/>
<path d="M23.5 104.995C27.6421 104.995 31 101.414 31 96.9975V116.222L18.4803 102.94C19.8095 104.217 21.5696 104.995 23.5 104.995Z" fill="#FF3434"/>
<path d="M343.74 529.2C343.82 529.08 345.04 528.8 347.4 528.36C349.72 527.92 351.32 527.62 352.2 527.46L352.2 532.32C347.32 533.48 343.98 535.24 342.18 537.6L337.32 537.6L337.32 489L343.74 489L343.74 529.2ZM314.671 488.46C318.671 488.46 321.691 489.76 323.731 492.36C325.731 494.96 326.731 498.44 326.731 502.8L326.731 523.74C326.731 528.18 325.751 531.66 323.791 534.18C321.791 536.74 318.751 538.02 314.671 538.02C310.631 538.02 307.631 536.74 305.671 534.18C303.671 531.66 302.671 528.18 302.671 523.74L302.671 502.8C302.671 498.4 303.671 494.9 305.671 492.3C307.671 489.74 310.671 488.46 314.671 488.46ZM314.671 493.74C310.991 493.74 309.151 496.74 309.151 502.74L309.151 523.8C309.151 526.56 309.551 528.74 310.351 530.34C311.111 531.98 312.551 532.8 314.671 532.8C316.791 532.8 318.251 531.98 319.051 530.34C319.851 528.74 320.251 526.56 320.251 523.8L320.251 502.74C320.251 496.74 318.391 493.74 314.671 493.74Z" fill="#FF3434"/>
<path d="M313 464.225C313 462.152 313.74 460.263 314.953 458.842C315.12 458.646 315.296 458.46 315.48 458.282C316.81 457.005 318.57 456.227 320.5 456.227C324.642 456.227 328 459.808 328 464.225C328 468.642 324.642 472.222 320.5 472.222C316.358 472.222 313 468.642 313 464.225Z" fill="#FF3434"/>
<path d="M320.5 456.227C324.642 456.227 328 459.808 328 464.225V445L315.48 458.282C316.81 457.005 318.57 456.227 320.5 456.227Z" fill="#FF3434"/>
<path d="M343 464.225C343 462.152 342.26 460.263 341.047 458.842C340.88 458.646 340.704 458.46 340.52 458.282C339.19 457.005 337.43 456.227 335.5 456.227C331.358 456.227 328 459.808 328 464.225C328 468.642 331.358 472.222 335.5 472.222C339.642 472.222 343 468.642 343 464.225Z" fill="#FF3434"/>
<path d="M335.5 456.227C331.358 456.227 328 459.808 328 464.225V445L340.52 458.282C339.19 457.005 337.43 456.227 335.5 456.227Z" fill="#FF3434"/>
</g>
<defs>
<clipPath id="clip0">
<rect width="360" height="560.121" fill="white"/>
</clipPath>
</defs>
</svg>
