<svg width="360" height="561" viewBox="0 0 360 561" fill="none" xmlns="http://www.w3.org/2000/svg">
<g clip-path="url(#clip0)">
<rect width="360" height="560.121" fill="white"/>
<path d="M293.734 79.5C297.355 61.1 262.956 30.74 252.545 22C242.135 30.74 206.637 61.1 210.258 79.5C214.296 100.018 236.856 96.3667 246.663 91C246.512 94.9867 244.921 101.792 243.473 104C241.662 106.76 232.994 114 225.752 114H252.093H277.34C270.098 114 263.004 106.76 261.194 104C259.746 101.792 257.676 94.9867 257.526 91C267.332 96.3667 289.696 100.018 293.734 79.5Z" fill="black"/>
<path d="M293.734 220.5C297.355 202.1 262.956 171.74 252.545 163C242.135 171.74 206.637 202.1 210.258 220.5C214.296 241.018 236.856 237.367 246.663 232C246.512 235.987 244.921 242.792 243.473 245C241.662 247.76 232.994 255 225.752 255H252.093H277.34C270.098 255 263.004 247.76 261.194 245C259.746 242.792 257.676 235.987 257.526 232C267.332 237.367 289.696 241.018 293.734 220.5Z" fill="black"/>
<path d="M210.266 338.5C206.645 356.9 241.044 387.26 251.455 396C261.865 387.26 297.363 356.9 293.742 338.5C289.704 317.982 267.144 321.633 257.337 327C257.488 323.013 259.079 316.208 260.527 314C262.338 311.24 271.006 304 278.248 304H251.907H226.66C233.902 304 240.996 311.24 242.806 314C244.254 316.208 246.324 323.013 246.474 327C236.668 321.633 214.304 317.982 210.266 338.5Z" fill="black"/>
<path d="M210.266 479.5C206.645 497.9 241.044 528.26 251.455 537C261.865 528.26 297.363 497.9 293.742 479.5C289.704 458.982 267.144 462.633 257.337 468C257.488 464.013 259.079 457.208 260.527 455C262.338 452.24 271.006 445 278.248 445H251.907H226.66C233.902 445 240.996 452.24 242.806 455C244.254 457.208 246.324 464.013 246.474 468C236.668 462.633 214.304 458.982 210.266 479.5Z" fill="black"/>
<path d="M221.734 153.5C225.355 135.1 190.956 104.74 180.545 96C170.135 104.74 134.637 135.1 138.258 153.5C142.296 174.018 164.856 170.367 174.663 165C174.512 168.987 172.921 175.792 171.473 178C169.662 180.76 160.994 188 153.752 188H180.093H205.34C198.098 188 191.004 180.76 189.194 178C187.746 175.792 185.676 168.987 185.526 165C195.332 170.367 217.696 174.018 221.734 153.5Z" fill="black"/>
<path d="M138.266 408.5C134.645 426.9 169.044 457.26 179.455 466C189.865 457.26 225.363 426.9 221.742 408.5C217.704 387.982 195.144 391.633 185.337 397C185.488 393.013 187.079 386.208 188.527 384C190.338 381.24 199.006 374 206.248 374H179.907H154.66C161.902 374 168.996 381.24 170.806 384C172.254 386.208 174.324 393.013 174.474 397C164.668 391.633 142.304 387.982 138.266 408.5Z" fill="black"/>
<path d="M147.734 80.5C151.355 62.1 116.956 31.74 106.545 23C96.135 31.74 60.6371 62.1 64.2581 80.5C68.2959 101.018 90.8557 97.3667 100.663 92C100.512 95.9867 98.9214 102.792 97.473 105C95.6625 107.76 86.994 115 79.752 115H106.093H131.34C124.098 115 117.004 107.76 115.194 105C113.746 102.792 111.676 95.9867 111.526 92C121.332 97.3667 143.696 101.018 147.734 80.5Z" fill="black"/>
<path d="M147.734 221.5C151.355 203.1 116.956 172.74 106.545 164C96.135 172.74 60.6371 203.1 64.2581 221.5C68.2959 242.018 90.8557 238.367 100.663 233C100.512 236.987 98.9214 243.792 97.473 246C95.6625 248.76 86.994 256 79.752 256H106.093H131.34C124.098 256 117.004 248.76 115.194 246C113.746 243.792 111.676 236.987 111.526 233C121.332 238.367 143.696 242.018 147.734 221.5Z" fill="black"/>
<path d="M64.2658 339.5C60.6448 357.9 95.0442 388.26 105.455 397C115.865 388.26 151.363 357.9 147.742 339.5C143.704 318.982 121.144 322.633 111.337 328C111.488 324.013 113.079 317.208 114.527 315C116.338 312.24 125.006 305 132.248 305H105.907H80.6603C87.9023 305 94.9956 312.24 96.8061 315C98.2545 317.208 100.324 324.013 100.474 328C90.6675 322.633 68.3036 318.982 64.2658 339.5Z" fill="black"/>
<path d="M64.2658 480.5C60.6448 498.9 95.0442 529.26 105.455 538C115.865 529.26 151.363 498.9 147.742 480.5C143.704 459.982 121.144 463.633 111.337 469C111.488 465.013 113.079 458.208 114.527 456C116.338 453.24 125.006 446 132.248 446H105.907H80.6603C87.9023 446 94.9956 453.24 96.8061 456C98.2545 458.208 100.324 465.013 100.474 469C90.6675 463.633 68.3036 459.982 64.2658 480.5Z" fill="black"/>
<path d="M14.26 31.8C14.18 31.92 12.96 32.2 10.6 32.64C8.28 33.08 6.68 33.38 5.8 33.54V28.68C10.68 27.52 14.02 25.76 15.82 23.4H20.68V72H14.26V31.8ZM43.3291 72.54C39.3291 72.54 36.3091 71.24 34.2691 68.64C32.2691 66.04 31.2691 62.56 31.2691 58.2V37.26C31.2691 32.82 32.2491 29.34 34.2091 26.82C36.2091 24.26 39.2491 22.98 43.3291 22.98C47.3691 22.98 50.3691 24.26 52.3291 26.82C54.3291 29.34 55.3291 32.82 55.3291 37.26V58.2C55.3291 62.6 54.3291 66.1 52.3291 68.7C50.3291 71.26 47.3291 72.54 43.3291 72.54ZM43.3291 67.26C47.0091 67.26 48.8491 64.26 48.8491 58.26V37.2C48.8491 34.44 48.4491 32.26 47.6491 30.66C46.8891 29.02 45.4491 28.2 43.3291 28.2C41.2091 28.2 39.7491 29.02 38.9491 30.66C38.1491 32.26 37.7491 34.44 37.7491 37.2V58.26C37.7491 64.26 39.6091 67.26 43.3291 67.26Z" fill="black"/>
<path d="M45.9051 109.25C47.1983 102.77 34.9128 92.078 31.1948 89C27.4768 92.078 14.799 102.77 16.0922 109.25C17.5343 116.476 25.5913 115.19 29.0938 113.3C29.0399 114.704 28.4719 117.101 27.9546 117.878C27.308 118.85 24.2121 121.4 21.6257 121.4H31.0331H40.0499C37.4635 121.4 34.9302 118.85 34.2836 117.878C33.7663 117.101 33.0273 114.704 32.9734 113.3C36.4759 115.19 44.463 116.476 45.9051 109.25Z" fill="black"/>
<path d="M344.74 529.2C344.82 529.08 346.04 528.8 348.4 528.36C350.72 527.92 352.32 527.62 353.2 527.46L353.2 532.32C348.32 533.48 344.98 535.24 343.18 537.6L338.32 537.6L338.32 489L344.74 489L344.74 529.2ZM315.671 488.46C319.671 488.46 322.691 489.76 324.731 492.36C326.731 494.96 327.731 498.44 327.731 502.8L327.731 523.74C327.731 528.18 326.751 531.66 324.791 534.18C322.791 536.74 319.751 538.02 315.671 538.02C311.631 538.02 308.631 536.74 306.671 534.18C304.671 531.66 303.671 528.18 303.671 523.74L303.671 502.8C303.671 498.4 304.671 494.9 306.671 492.3C308.671 489.74 311.671 488.46 315.671 488.46ZM315.671 493.74C311.991 493.74 310.151 496.74 310.151 502.74L310.151 523.8C310.151 526.56 310.551 528.74 311.351 530.34C312.111 531.98 313.551 532.8 315.671 532.8C317.791 532.8 319.251 531.98 320.051 530.34C320.851 528.74 321.251 526.56 321.251 523.8L321.251 502.74C321.251 496.74 319.391 493.74 315.671 493.74Z" fill="black"/>
<path d="M313.095 452.15C311.802 458.63 324.087 469.322 327.805 472.4C331.523 469.322 344.201 458.63 342.908 452.15C341.466 444.924 333.409 446.21 329.906 448.1C329.96 446.696 330.528 444.299 331.045 443.522C331.692 442.55 334.788 440 337.374 440L327.967 440L318.95 440C321.537 440 324.07 442.55 324.716 443.522C325.234 444.299 325.973 446.696 326.027 448.1C322.524 446.21 314.537 444.924 313.095 452.15Z" fill="black"/>
</g>
<defs>
<clipPath id="clip0">
<rect width="360" height="560.121" fill="white"/>
</clipPath>
</defs>
</svg>
