<svg width="360" height="561" viewBox="0 0 360 561" fill="none" xmlns="http://www.w3.org/2000/svg">
<g clip-path="url(#clip0)">
<rect width="360" height="560.121" fill="white"/>
<path d="M252.262 77.1475C257.81 77.1475 263.131 61.6322 267.054 57.7093C270.976 53.7864 273.18 48.4658 273.18 42.918C273.18 37.3702 270.976 32.0496 267.054 28.1268C263.131 24.2039 257.81 22 252.262 22V77.1475Z" fill="black"/>
<path d="M296 77.1475C296 88.7003 286.635 95.6885 275.082 95.6885C268.571 95.6885 263.672 93.3115 259.393 89.5082C255.115 85.7049 254.639 81.9016 252.262 77.1475C252.262 71.1067 254.348 68.13 258.443 64.3115C262.179 60.8274 269.57 58.1311 275.082 58.1311C286.635 58.1311 296 65.5948 296 77.1475Z" fill="black"/>
<path d="M252.262 77.1475C246.714 77.1475 241.394 61.6322 237.471 57.7093C233.548 53.7864 231.344 48.4658 231.344 42.918C231.344 37.3702 233.548 32.0496 237.471 28.1268C241.394 24.2039 246.714 22 252.262 22V77.1475Z" fill="black"/>
<path d="M209 77.1475C209 88.7003 217.89 95.6885 229.443 95.6885C235.954 95.6885 240.545 94.0943 245.131 89.5082C249.41 85.2295 249.885 81.9016 252.262 77.1475C252.262 71.1067 250.652 68.13 246.557 64.3115C242.821 60.8274 234.954 58.1311 229.443 58.1311C217.89 58.1311 209 65.5948 209 77.1475Z" fill="black"/>
<path d="M252.262 109V73.3443H255.115C255.273 75.5628 255.115 82.8525 257.016 89.9836C258.889 97.0044 264.781 105.355 268.426 109H252.262Z" fill="black"/>
<path d="M252.262 109V73.3443H249.41C249.251 75.5628 249.41 82.8525 247.508 89.9836C245.636 97.0044 239.743 105.355 236.098 109H252.262Z" fill="black"/>
<path d="M252.262 218.148C257.81 218.148 263.131 202.632 267.054 198.709C270.976 194.786 273.18 189.466 273.18 183.918C273.18 178.37 270.976 173.05 267.054 169.127C263.131 165.204 257.81 163 252.262 163V218.148Z" fill="black"/>
<path d="M296 218.148C296 229.7 286.635 236.689 275.082 236.689C268.571 236.689 263.672 234.311 259.393 230.508C255.115 226.705 254.639 222.902 252.262 218.148C252.262 212.107 254.348 209.13 258.443 205.311C262.179 201.827 269.57 199.131 275.082 199.131C286.635 199.131 296 206.595 296 218.148Z" fill="black"/>
<path d="M252.262 218.148C246.714 218.148 241.394 202.632 237.471 198.709C233.548 194.786 231.344 189.466 231.344 183.918C231.344 178.37 233.548 173.05 237.471 169.127C241.394 165.204 246.714 163 252.262 163V218.148Z" fill="black"/>
<path d="M209 218.148C209 229.7 217.89 236.689 229.443 236.689C235.954 236.689 240.545 235.094 245.131 230.508C249.41 226.23 249.885 222.902 252.262 218.148C252.262 212.107 250.652 209.13 246.557 205.311C242.821 201.827 234.954 199.131 229.443 199.131C217.89 199.131 209 206.595 209 218.148Z" fill="black"/>
<path d="M252.262 250V214.344H255.115C255.273 216.563 255.115 223.852 257.016 230.984C258.889 238.004 264.781 246.355 268.426 250H252.262Z" fill="black"/>
<path d="M252.262 250V214.344H249.41C249.251 216.563 249.41 223.852 247.508 230.984C245.636 238.004 239.743 246.355 236.098 250H252.262Z" fill="black"/>
<path d="M252.738 340.852C247.19 340.852 241.869 356.368 237.946 360.291C234.024 364.214 231.82 369.534 231.82 375.082C231.82 380.63 234.024 385.95 237.946 389.873C241.869 393.796 247.19 396 252.738 396V340.852Z" fill="black"/>
<path d="M209 340.852C209 329.3 218.365 322.311 229.918 322.311C236.429 322.311 241.328 324.689 245.607 328.492C249.885 332.295 250.361 336.098 252.738 340.852C252.738 346.893 250.652 349.87 246.557 353.689C242.821 357.173 235.43 359.869 229.918 359.869C218.365 359.869 209 352.405 209 340.852Z" fill="black"/>
<path d="M252.738 340.852C258.286 340.852 263.606 356.368 267.529 360.291C271.452 364.214 273.656 369.534 273.656 375.082C273.656 380.63 271.452 385.95 267.529 389.873C263.606 393.796 258.286 396 252.738 396V340.852Z" fill="black"/>
<path d="M296 340.852C296 329.3 287.11 322.311 275.557 322.311C269.046 322.311 264.455 323.906 259.869 328.492C255.59 332.77 255.115 336.098 252.738 340.852C252.738 346.893 254.348 349.87 258.443 353.689C262.179 357.173 270.046 359.869 275.557 359.869C287.11 359.869 296 352.405 296 340.852Z" fill="black"/>
<path d="M252.738 309V344.656H249.885C249.727 342.437 249.885 335.148 247.984 328.016C246.111 320.996 240.219 312.645 236.574 309H252.738Z" fill="black"/>
<path d="M252.738 309V344.656H255.59C255.749 342.437 255.59 335.148 257.492 328.016C259.364 320.996 265.257 312.645 268.902 309H252.738Z" fill="black"/>
<path d="M252.738 481.852C247.19 481.852 241.869 497.368 237.946 501.291C234.024 505.214 231.82 510.534 231.82 516.082C231.82 521.63 234.024 526.95 237.946 530.873C241.869 534.796 247.19 537 252.738 537V481.852Z" fill="black"/>
<path d="M209 481.852C209 470.3 218.365 463.311 229.918 463.311C236.429 463.311 241.328 465.689 245.607 469.492C249.885 473.295 250.361 477.098 252.738 481.852C252.738 487.893 250.652 490.87 246.557 494.689C242.821 498.173 235.43 500.869 229.918 500.869C218.365 500.869 209 493.405 209 481.852Z" fill="black"/>
<path d="M252.738 481.852C258.286 481.852 263.606 497.368 267.529 501.291C271.452 505.214 273.656 510.534 273.656 516.082C273.656 521.63 271.452 526.95 267.529 530.873C263.606 534.796 258.286 537 252.738 537V481.852Z" fill="black"/>
<path d="M296 481.852C296 470.3 287.11 463.311 275.557 463.311C269.046 463.311 264.455 464.906 259.869 469.492C255.59 473.77 255.115 477.098 252.738 481.852C252.738 487.893 254.348 490.87 258.443 494.689C262.179 498.173 270.046 500.869 275.557 500.869C287.11 500.869 296 493.405 296 481.852Z" fill="black"/>
<path d="M252.738 450V485.656H249.885C249.727 483.437 249.885 476.148 247.984 469.016C246.111 461.996 240.219 453.645 236.574 450H252.738Z" fill="black"/>
<path d="M252.738 450V485.656H255.59C255.749 483.437 255.59 476.148 257.492 469.016C259.364 461.996 265.257 453.645 268.902 450H252.738Z" fill="black"/>
<path d="M180.262 151.148C185.81 151.148 191.131 135.632 195.054 131.709C198.976 127.786 201.18 122.466 201.18 116.918C201.18 111.37 198.976 106.05 195.054 102.127C191.131 98.2039 185.81 96 180.262 96V151.148Z" fill="black"/>
<path d="M224 151.148C224 162.7 214.635 169.689 203.082 169.689C196.571 169.689 191.672 167.311 187.393 163.508C183.115 159.705 182.639 155.902 180.262 151.148C180.262 145.107 182.348 142.13 186.443 138.311C190.179 134.827 197.57 132.131 203.082 132.131C214.635 132.131 224 139.595 224 151.148Z" fill="black"/>
<path d="M180.262 151.148C174.714 151.148 169.394 135.632 165.471 131.709C161.548 127.786 159.344 122.466 159.344 116.918C159.344 111.37 161.548 106.05 165.471 102.127C169.394 98.2039 174.714 96 180.262 96V151.148Z" fill="black"/>
<path d="M137 151.148C137 162.7 145.89 169.689 157.443 169.689C163.954 169.689 168.545 168.094 173.131 163.508C177.41 159.23 177.885 155.902 180.262 151.148C180.262 145.107 178.652 142.13 174.557 138.311C170.821 134.827 162.954 132.131 157.443 132.131C145.89 132.131 137 139.595 137 151.148Z" fill="black"/>
<path d="M180.262 183V147.344H183.115C183.273 149.563 183.115 156.852 185.016 163.984C186.889 171.004 192.781 179.355 196.426 183H180.262Z" fill="black"/>
<path d="M180.262 183V147.344H177.41C177.251 149.563 177.41 156.852 175.508 163.984C173.636 171.004 167.743 179.355 164.098 183H180.262Z" fill="black"/>
<path d="M179.262 288.148C184.81 288.148 190.131 272.632 194.054 268.709C197.976 264.786 200.18 259.466 200.18 253.918C200.18 248.37 197.976 243.05 194.054 239.127C190.131 235.204 184.81 233 179.262 233V288.148Z" fill="black"/>
<path d="M223 288.148C223 299.7 213.635 306.689 202.082 306.689C195.571 306.689 190.672 304.311 186.393 300.508C182.115 296.705 181.639 292.902 179.262 288.148C179.262 282.107 181.348 279.13 185.443 275.311C189.179 271.827 196.57 269.131 202.082 269.131C213.635 269.131 223 276.595 223 288.148Z" fill="black"/>
<path d="M179.262 288.148C173.714 288.148 168.394 272.632 164.471 268.709C160.548 264.786 158.344 259.466 158.344 253.918C158.344 248.37 160.548 243.05 164.471 239.127C168.394 235.204 173.714 233 179.262 233V288.148Z" fill="black"/>
<path d="M136 288.148C136 299.7 144.89 306.689 156.443 306.689C162.954 306.689 167.545 305.094 172.131 300.508C176.41 296.23 176.885 292.902 179.262 288.148C179.262 282.107 177.652 279.13 173.557 275.311C169.821 271.827 161.954 269.131 156.443 269.131C144.89 269.131 136 276.595 136 288.148Z" fill="black"/>
<path d="M179.262 320V284.344H182.115C182.273 286.563 182.115 293.852 184.016 300.984C185.889 308.004 191.781 316.355 195.426 320H179.262Z" fill="black"/>
<path d="M179.262 320V284.344H176.41C176.251 286.563 176.41 293.852 174.508 300.984C172.636 308.004 166.743 316.355 163.098 320H179.262Z" fill="black"/>
<path d="M180.738 410.852C175.19 410.852 169.869 426.368 165.946 430.291C162.024 434.214 159.82 439.534 159.82 445.082C159.82 450.63 162.024 455.95 165.946 459.873C169.869 463.796 175.19 466 180.738 466V410.852Z" fill="black"/>
<path d="M137 410.852C137 399.3 146.365 392.311 157.918 392.311C164.429 392.311 169.328 394.689 173.607 398.492C177.885 402.295 178.361 406.098 180.738 410.852C180.738 416.893 178.652 419.87 174.557 423.689C170.821 427.173 163.43 429.869 157.918 429.869C146.365 429.869 137 422.405 137 410.852Z" fill="black"/>
<path d="M180.738 410.852C186.286 410.852 191.606 426.368 195.529 430.291C199.452 434.214 201.656 439.534 201.656 445.082C201.656 450.63 199.452 455.95 195.529 459.873C191.606 463.796 186.286 466 180.738 466V410.852Z" fill="black"/>
<path d="M224 410.852C224 399.3 215.11 392.311 203.557 392.311C197.046 392.311 192.455 393.906 187.869 398.492C183.59 402.77 183.115 406.098 180.738 410.852C180.738 416.893 182.348 419.87 186.443 423.689C190.179 427.173 198.046 429.869 203.557 429.869C215.11 429.869 224 422.405 224 410.852Z" fill="black"/>
<path d="M180.738 379V414.656H177.885C177.727 412.437 177.885 405.148 175.984 398.016C174.111 390.996 168.219 382.645 164.574 379H180.738Z" fill="black"/>
<path d="M180.738 379V414.656H183.59C183.749 412.437 183.59 405.148 185.492 398.016C187.364 390.996 193.257 382.645 196.902 379H180.738Z" fill="black"/>
<path d="M106.262 78.1475C111.81 78.1475 117.131 62.6322 121.054 58.7093C124.976 54.7864 127.18 49.4658 127.18 43.918C127.18 38.3702 124.976 33.0496 121.054 29.1268C117.131 25.2039 111.81 23 106.262 23V78.1475Z" fill="black"/>
<path d="M150 78.1475C150 89.7003 140.635 96.6885 129.082 96.6885C122.571 96.6885 117.672 94.3115 113.393 90.5082C109.115 86.7049 108.639 82.9016 106.262 78.1475C106.262 72.1067 108.348 69.13 112.443 65.3115C116.179 61.8274 123.57 59.1311 129.082 59.1311C140.635 59.1311 150 66.5948 150 78.1475Z" fill="black"/>
<path d="M106.262 78.1475C100.714 78.1475 95.3939 62.6322 91.471 58.7093C87.5481 54.7864 85.3443 49.4658 85.3443 43.918C85.3443 38.3702 87.5481 33.0496 91.471 29.1268C95.3939 25.2039 100.714 23 106.262 23V78.1475Z" fill="black"/>
<path d="M63 78.1475C63 89.7003 71.8899 96.6885 83.4426 96.6885C89.9538 96.6885 94.545 95.0943 99.1311 90.5082C103.41 86.2295 103.885 82.9016 106.262 78.1475C106.262 72.1067 104.652 69.13 100.557 65.3115C96.8209 61.8274 88.9545 59.1311 83.4426 59.1311C71.8899 59.1311 63 66.5948 63 78.1475Z" fill="black"/>
<path d="M106.262 110V74.3443H109.115C109.273 76.5628 109.115 83.8525 111.016 90.9836C112.889 98.0044 118.781 106.355 122.426 110H106.262Z" fill="black"/>
<path d="M106.262 110V74.3443H103.41C103.251 76.5628 103.41 83.8525 101.508 90.9836C99.636 98.0044 93.7432 106.355 90.0984 110H106.262Z" fill="black"/>
<path d="M106.262 219.148C111.81 219.148 117.131 203.632 121.054 199.709C124.976 195.786 127.18 190.466 127.18 184.918C127.18 179.37 124.976 174.05 121.054 170.127C117.131 166.204 111.81 164 106.262 164V219.148Z" fill="black"/>
<path d="M150 219.148C150 230.7 140.635 237.689 129.082 237.689C122.571 237.689 117.672 235.311 113.393 231.508C109.115 227.705 108.639 223.902 106.262 219.148C106.262 213.107 108.348 210.13 112.443 206.311C116.179 202.827 123.57 200.131 129.082 200.131C140.635 200.131 150 207.595 150 219.148Z" fill="black"/>
<path d="M106.262 219.148C100.714 219.148 95.3939 203.632 91.471 199.709C87.5481 195.786 85.3443 190.466 85.3443 184.918C85.3443 179.37 87.5481 174.05 91.471 170.127C95.3939 166.204 100.714 164 106.262 164V219.148Z" fill="black"/>
<path d="M63 219.148C63 230.7 71.8899 237.689 83.4426 237.689C89.9538 237.689 94.545 236.094 99.1311 231.508C103.41 227.23 103.885 223.902 106.262 219.148C106.262 213.107 104.652 210.13 100.557 206.311C96.8209 202.827 88.9545 200.131 83.4426 200.131C71.8899 200.131 63 207.595 63 219.148Z" fill="black"/>
<path d="M106.262 251V215.344H109.115C109.273 217.563 109.115 224.852 111.016 231.984C112.889 239.004 118.781 247.355 122.426 251H106.262Z" fill="black"/>
<path d="M106.262 251V215.344H103.41C103.251 217.563 103.41 224.852 101.508 231.984C99.636 239.004 93.7432 247.355 90.0984 251H106.262Z" fill="black"/>
<path d="M106.738 341.852C101.19 341.852 95.8693 357.368 91.9464 361.291C88.0235 365.214 85.8197 370.534 85.8197 376.082C85.8197 381.63 88.0235 386.95 91.9464 390.873C95.8693 394.796 101.19 397 106.738 397V341.852Z" fill="black"/>
<path d="M63 341.852C63 330.3 72.3653 323.311 83.918 323.311C90.4292 323.311 95.3279 325.689 99.6066 329.492C103.885 333.295 104.361 337.098 106.738 341.852C106.738 347.893 104.652 350.87 100.557 354.689C96.8209 358.173 89.4299 360.869 83.918 360.869C72.3653 360.869 63 353.405 63 341.852Z" fill="black"/>
<path d="M106.738 341.852C112.286 341.852 117.606 357.368 121.529 361.291C125.452 365.214 127.656 370.534 127.656 376.082C127.656 381.63 125.452 386.95 121.529 390.873C117.606 394.796 112.286 397 106.738 397V341.852Z" fill="black"/>
<path d="M150 341.852C150 330.3 141.11 323.311 129.557 323.311C123.046 323.311 118.455 324.906 113.869 329.492C109.59 333.77 109.115 337.098 106.738 341.852C106.738 347.893 108.348 350.87 112.443 354.689C116.179 358.173 124.046 360.869 129.557 360.869C141.11 360.869 150 353.405 150 341.852Z" fill="black"/>
<path d="M106.738 310V345.656H103.885C103.727 343.437 103.885 336.148 101.984 329.016C100.111 321.996 94.2186 313.645 90.5738 310H106.738Z" fill="black"/>
<path d="M106.738 310V345.656H109.59C109.749 343.437 109.59 336.148 111.492 329.016C113.364 321.996 119.257 313.645 122.902 310H106.738Z" fill="black"/>
<path d="M106.738 482.852C101.19 482.852 95.8693 498.368 91.9464 502.291C88.0235 506.214 85.8197 511.534 85.8197 517.082C85.8197 522.63 88.0235 527.95 91.9464 531.873C95.8693 535.796 101.19 538 106.738 538V482.852Z" fill="black"/>
<path d="M63 482.852C63 471.3 72.3653 464.311 83.918 464.311C90.4292 464.311 95.3279 466.689 99.6066 470.492C103.885 474.295 104.361 478.098 106.738 482.852C106.738 488.893 104.652 491.87 100.557 495.689C96.8209 499.173 89.4299 501.869 83.918 501.869C72.3653 501.869 63 494.405 63 482.852Z" fill="black"/>
<path d="M106.738 482.852C112.286 482.852 117.606 498.368 121.529 502.291C125.452 506.214 127.656 511.534 127.656 517.082C127.656 522.63 125.452 527.95 121.529 531.873C117.606 535.796 112.286 538 106.738 538V482.852Z" fill="black"/>
<path d="M150 482.852C150 471.3 141.11 464.311 129.557 464.311C123.046 464.311 118.455 465.906 113.869 470.492C109.59 474.77 109.115 478.098 106.738 482.852C106.738 488.893 108.348 491.87 112.443 495.689C116.179 499.173 124.046 501.869 129.557 501.869C141.11 501.869 150 494.405 150 482.852Z" fill="black"/>
<path d="M106.738 451V486.656H103.885C103.727 484.437 103.885 477.148 101.984 470.016C100.111 462.996 94.2186 454.645 90.5738 451H106.738Z" fill="black"/>
<path d="M106.738 451V486.656H109.59C109.749 484.437 109.59 477.148 111.492 470.016C113.364 462.996 119.257 454.645 122.902 451H106.738Z" fill="black"/>
<path d="M16.26 31.8C16.18 31.92 14.96 32.2 12.6 32.64C10.28 33.08 8.68 33.38 7.8 33.54V28.68C12.68 27.52 16.02 25.76 17.82 23.4H22.68V72H16.26V31.8ZM40.0491 31.8C39.9691 31.92 38.7491 32.2 36.3891 32.64C34.0691 33.08 32.4691 33.38 31.5891 33.54V28.68C36.4691 27.52 39.8091 25.76 41.6091 23.4H46.4691V72H40.0491V31.8Z" fill="black"/>
<path d="M29.918 108.016C31.8311 108.016 33.6658 102.666 35.0185 101.314C36.3712 99.9608 37.1311 98.1262 37.1311 96.2131C37.1311 94.3001 36.3712 92.4654 35.0185 91.1127C33.6658 89.76 31.8311 89 29.918 89V108.016Z" fill="black"/>
<path d="M45 108.016C45 112 41.7706 114.41 37.7869 114.41C35.5417 114.41 33.8525 113.59 32.377 112.279C30.9016 110.967 30.7377 109.656 29.918 108.016C29.918 105.933 30.6371 104.907 32.0492 103.59C33.3376 102.389 35.8862 101.459 37.7869 101.459C41.7706 101.459 45 104.033 45 108.016Z" fill="black"/>
<path d="M29.918 108.016C28.005 108.016 26.1703 102.666 24.8176 101.314C23.4649 99.9608 22.7049 98.1262 22.7049 96.2131C22.7049 94.3001 23.4649 92.4654 24.8176 91.1127C26.1703 89.76 28.005 89 29.918 89V108.016Z" fill="black"/>
<path d="M15 108.016C15 112 18.0655 114.41 22.0492 114.41C24.2944 114.41 25.8776 113.86 27.459 112.279C28.9344 110.803 29.0984 109.656 29.918 108.016C29.918 105.933 29.3629 104.907 27.9508 103.59C26.6624 102.389 23.9498 101.459 22.0492 101.459C18.0655 101.459 15 104.033 15 108.016Z" fill="black"/>
<path d="M29.918 119V106.705H30.9016C30.9563 107.47 30.9016 109.984 31.5574 112.443C32.203 114.864 34.235 117.743 35.4918 119H29.918Z" fill="black"/>
<path d="M29.918 119V106.705H28.9344C28.8798 107.47 28.9344 109.984 28.2787 112.443C27.6331 114.864 25.6011 117.743 24.3443 119H29.918Z" fill="black"/>
<path d="M343.74 529.2C343.82 529.08 345.04 528.8 347.4 528.36C349.72 527.92 351.32 527.62 352.2 527.46L352.2 532.32C347.32 533.48 343.98 535.24 342.18 537.6L337.32 537.6L337.32 489L343.74 489L343.74 529.2ZM319.951 529.2C320.031 529.08 321.251 528.8 323.611 528.36C325.931 527.92 327.531 527.62 328.411 527.46L328.411 532.32C323.531 533.48 320.191 535.24 318.391 537.6L313.531 537.6L313.531 489L319.951 489L319.951 529.2Z" fill="black"/>
<path d="M329.082 452.984C327.169 452.984 325.334 458.334 323.982 459.686C322.629 461.039 321.869 462.874 321.869 464.787C321.869 466.7 322.629 468.535 323.982 469.887C325.334 471.24 327.169 472 329.082 472L329.082 452.984Z" fill="black"/>
<path d="M314 452.984C314 449 317.229 446.59 321.213 446.59C323.458 446.59 325.148 447.41 326.623 448.721C328.098 450.033 328.262 451.344 329.082 452.984C329.082 455.067 328.363 456.093 326.951 457.41C325.662 458.611 323.114 459.541 321.213 459.541C317.229 459.541 314 456.967 314 452.984Z" fill="black"/>
<path d="M329.082 452.984C330.995 452.984 332.83 458.334 334.182 459.686C335.535 461.039 336.295 462.874 336.295 464.787C336.295 466.7 335.535 468.535 334.182 469.887C332.83 471.24 330.995 472 329.082 472L329.082 452.984Z" fill="black"/>
<path d="M344 452.984C344 449 340.935 446.59 336.951 446.59C334.706 446.59 333.122 447.14 331.541 448.721C330.066 450.197 329.902 451.344 329.082 452.984C329.082 455.067 329.637 456.093 331.049 457.41C332.338 458.611 335.05 459.541 336.951 459.541C340.935 459.541 344 456.967 344 452.984Z" fill="black"/>
<path d="M329.082 442L329.082 454.295L328.098 454.295C328.044 453.53 328.098 451.016 327.443 448.557C326.797 446.136 324.765 443.257 323.508 442L329.082 442Z" fill="black"/>
<path d="M329.082 442L329.082 454.295L330.066 454.295C330.12 453.53 330.066 451.016 330.721 448.557C331.367 446.136 333.399 443.257 334.656 442L329.082 442Z" fill="black"/>
</g>
<defs>
<clipPath id="clip0">
<rect width="360" height="560.121" fill="white"/>
</clipPath>
</defs>
</svg>
