<svg width="360" height="561" viewBox="0 0 360 561" fill="none" xmlns="http://www.w3.org/2000/svg">
<g clip-path="url(#clip0)">
<rect width="360" height="560.121" fill="white"/>
<path d="M293.734 79.5C297.355 61.1 262.956 30.74 252.545 22C242.135 30.74 206.637 61.1 210.258 79.5C214.296 100.018 236.856 96.3667 246.663 91C246.512 94.9867 244.921 101.792 243.473 104C241.662 106.76 232.994 114 225.752 114H252.093H277.34C270.098 114 263.004 106.76 261.194 104C259.746 101.792 257.676 94.9867 257.526 91C267.332 96.3667 289.696 100.018 293.734 79.5Z" fill="black"/>
<path d="M293.734 220.5C297.355 202.1 262.956 171.74 252.545 163C242.135 171.74 206.637 202.1 210.258 220.5C214.296 241.018 236.856 237.367 246.663 232C246.512 235.987 244.921 242.792 243.473 245C241.662 247.76 232.994 255 225.752 255H252.093H277.34C270.098 255 263.004 247.76 261.194 245C259.746 242.792 257.676 235.987 257.526 232C267.332 237.367 289.696 241.018 293.734 220.5Z" fill="black"/>
<path d="M210.266 338.5C206.645 356.9 241.044 387.26 251.455 396C261.865 387.26 297.363 356.9 293.742 338.5C289.704 317.982 267.144 321.633 257.337 327C257.488 323.013 259.079 316.208 260.527 314C262.338 311.24 271.006 304 278.248 304H251.907H226.66C233.902 304 240.996 311.24 242.806 314C244.254 316.208 246.324 323.013 246.474 327C236.668 321.633 214.304 317.982 210.266 338.5Z" fill="black"/>
<path d="M210.266 479.5C206.645 497.9 241.044 528.26 251.455 537C261.865 528.26 297.363 497.9 293.742 479.5C289.704 458.982 267.144 462.633 257.337 468C257.488 464.013 259.079 457.208 260.527 455C262.338 452.24 271.006 445 278.248 445H251.907H226.66C233.902 445 240.996 452.24 242.806 455C244.254 457.208 246.324 464.013 246.474 468C236.668 462.633 214.304 458.982 210.266 479.5Z" fill="black"/>
<path d="M221.734 153.5C225.355 135.1 190.956 104.74 180.545 96C170.135 104.74 134.637 135.1 138.258 153.5C142.296 174.018 164.856 170.367 174.663 165C174.512 168.987 172.921 175.792 171.473 178C169.662 180.76 160.994 188 153.752 188H180.093H205.34C198.098 188 191.004 180.76 189.194 178C187.746 175.792 185.676 168.987 185.526 165C195.332 170.367 217.696 174.018 221.734 153.5Z" fill="black"/>
<path d="M220.734 290.5C224.355 272.1 189.956 241.74 179.545 233C169.135 241.74 133.637 272.1 137.258 290.5C141.296 311.018 163.856 307.367 173.663 302C173.512 305.987 171.921 312.792 170.473 315C168.662 317.76 159.994 325 152.752 325H179.093H204.34C197.098 325 190.004 317.76 188.194 315C186.746 312.792 184.676 305.987 184.526 302C194.332 307.367 216.696 311.018 220.734 290.5Z" fill="black"/>
<path d="M138.266 408.5C134.645 426.9 169.044 457.26 179.455 466C189.865 457.26 225.363 426.9 221.742 408.5C217.704 387.982 195.144 391.633 185.337 397C185.488 393.013 187.079 386.208 188.527 384C190.338 381.24 199.006 374 206.248 374H179.907H154.66C161.902 374 168.996 381.24 170.806 384C172.254 386.208 174.324 393.013 174.474 397C164.668 391.633 142.304 387.982 138.266 408.5Z" fill="black"/>
<path d="M147.734 80.5C151.355 62.1 116.956 31.74 106.545 23C96.135 31.74 60.6371 62.1 64.2581 80.5C68.2959 101.018 90.8557 97.3667 100.663 92C100.512 95.9867 98.9214 102.792 97.473 105C95.6625 107.76 86.994 115 79.752 115H106.093H131.34C124.098 115 117.004 107.76 115.194 105C113.746 102.792 111.676 95.9867 111.526 92C121.332 97.3667 143.696 101.018 147.734 80.5Z" fill="black"/>
<path d="M147.734 221.5C151.355 203.1 116.956 172.74 106.545 164C96.135 172.74 60.6371 203.1 64.2581 221.5C68.2959 242.018 90.8557 238.367 100.663 233C100.512 236.987 98.9214 243.792 97.473 246C95.6625 248.76 86.994 256 79.752 256H106.093H131.34C124.098 256 117.004 248.76 115.194 246C113.746 243.792 111.676 236.987 111.526 233C121.332 238.367 143.696 242.018 147.734 221.5Z" fill="black"/>
<path d="M64.2658 339.5C60.6448 357.9 95.0442 388.26 105.455 397C115.865 388.26 151.363 357.9 147.742 339.5C143.704 318.982 121.144 322.633 111.337 328C111.488 324.013 113.079 317.208 114.527 315C116.338 312.24 125.006 305 132.248 305H105.907H80.6603C87.9023 305 94.9956 312.24 96.8061 315C98.2545 317.208 100.324 324.013 100.474 328C90.6675 322.633 68.3036 318.982 64.2658 339.5Z" fill="black"/>
<path d="M64.2658 480.5C60.6448 498.9 95.0442 529.26 105.455 538C115.865 529.26 151.363 498.9 147.742 480.5C143.704 459.982 121.144 463.633 111.337 469C111.488 465.013 113.079 458.208 114.527 456C116.338 453.24 125.006 446 132.248 446H105.907H80.6603C87.9023 446 94.9956 453.24 96.8061 456C98.2545 458.208 100.324 465.013 100.474 469C90.6675 463.633 68.3036 459.982 64.2658 480.5Z" fill="black"/>
<path d="M17.26 31.8C17.18 31.92 15.96 32.2 13.6 32.64C11.28 33.08 9.68 33.38 8.8 33.54V28.68C13.68 27.52 17.02 25.76 18.82 23.4H23.68V72H17.26V31.8ZM41.0491 31.8C40.9691 31.92 39.7491 32.2 37.3891 32.64C35.0691 33.08 33.4691 33.38 32.5891 33.54V28.68C37.4691 27.52 40.8091 25.76 42.6091 23.4H47.4691V72H41.0491V31.8Z" fill="black"/>
<path d="M45.9051 109.25C47.1983 102.77 34.9128 92.078 31.1948 89C27.4768 92.078 14.799 102.77 16.0922 109.25C17.5343 116.476 25.5913 115.19 29.0938 113.3C29.0399 114.704 28.4719 117.101 27.9546 117.878C27.308 118.85 24.2121 121.4 21.6257 121.4H31.0331H40.0499C37.4635 121.4 34.9302 118.85 34.2836 117.878C33.7663 117.101 33.0273 114.704 32.9734 113.3C36.4759 115.19 44.463 116.476 45.9051 109.25Z" fill="black"/>
<path d="M341.74 529.2C341.82 529.08 343.04 528.8 345.4 528.36C347.72 527.92 349.32 527.62 350.2 527.46L350.2 532.32C345.32 533.48 341.98 535.24 340.18 537.6L335.32 537.6L335.32 489L341.74 489L341.74 529.2ZM317.951 529.2C318.031 529.08 319.251 528.8 321.611 528.36C323.931 527.92 325.531 527.62 326.411 527.46L326.411 532.32C321.531 533.48 318.191 535.24 316.391 537.6L311.531 537.6L311.531 489L317.951 489L317.951 529.2Z" fill="black"/>
<path d="M313.095 452.15C311.802 458.63 324.087 469.322 327.805 472.4C331.523 469.322 344.201 458.63 342.908 452.15C341.466 444.924 333.409 446.21 329.906 448.1C329.96 446.696 330.528 444.299 331.045 443.522C331.692 442.55 334.788 440 337.374 440L327.967 440L318.95 440C321.537 440 324.07 442.55 324.716 443.522C325.234 444.299 325.973 446.696 326.027 448.1C322.524 446.21 314.537 444.924 313.095 452.15Z" fill="black"/>
</g>
<defs>
<clipPath id="clip0">
<rect width="360" height="560.121" fill="white"/>
</clipPath>
</defs>
</svg>
