<svg width="360" height="561" viewBox="0 0 360 561" fill="none" xmlns="http://www.w3.org/2000/svg">
<g clip-path="url(#clip0)">
<rect width="360" height="560.121" fill="white"/>
<path d="M179.262 151.148C184.81 151.148 190.131 135.632 194.054 131.709C197.976 127.786 200.18 122.466 200.18 116.918C200.18 111.37 197.976 106.05 194.054 102.127C190.131 98.2039 184.81 96 179.262 96V151.148Z" fill="black"/>
<path d="M223 151.148C223 162.7 213.635 169.689 202.082 169.689C195.571 169.689 190.672 167.311 186.393 163.508C182.115 159.705 181.639 155.902 179.262 151.148C179.262 145.107 181.348 142.13 185.443 138.311C189.179 134.827 196.57 132.131 202.082 132.131C213.635 132.131 223 139.595 223 151.148Z" fill="black"/>
<path d="M179.262 151.148C173.714 151.148 168.394 135.632 164.471 131.709C160.548 127.786 158.344 122.466 158.344 116.918C158.344 111.37 160.548 106.05 164.471 102.127C168.394 98.2039 173.714 96 179.262 96V151.148Z" fill="black"/>
<path d="M136 151.148C136 162.7 144.89 169.689 156.443 169.689C162.954 169.689 167.545 168.094 172.131 163.508C176.41 159.23 176.885 155.902 179.262 151.148C179.262 145.107 177.652 142.13 173.557 138.311C169.821 134.827 161.954 132.131 156.443 132.131C144.89 132.131 136 139.595 136 151.148Z" fill="black"/>
<path d="M179.262 183V147.344H182.115C182.273 149.563 182.115 156.852 184.016 163.984C185.889 171.004 191.781 179.355 195.426 183H179.262Z" fill="black"/>
<path d="M179.262 183V147.344H176.41C176.251 149.563 176.41 156.852 174.508 163.984C172.636 171.004 166.743 179.355 163.098 183H179.262Z" fill="black"/>
<path d="M179.738 408.852C174.19 408.852 168.869 424.368 164.946 428.291C161.024 432.214 158.82 437.534 158.82 443.082C158.82 448.63 161.024 453.95 164.946 457.873C168.869 461.796 174.19 464 179.738 464V408.852Z" fill="black"/>
<path d="M136 408.852C136 397.3 145.365 390.311 156.918 390.311C163.429 390.311 168.328 392.689 172.607 396.492C176.885 400.295 177.361 404.098 179.738 408.852C179.738 414.893 177.652 417.87 173.557 421.689C169.821 425.173 162.43 427.869 156.918 427.869C145.365 427.869 136 420.405 136 408.852Z" fill="black"/>
<path d="M179.738 408.852C185.286 408.852 190.606 424.368 194.529 428.291C198.452 432.214 200.656 437.534 200.656 443.082C200.656 448.63 198.452 453.95 194.529 457.873C190.606 461.796 185.286 464 179.738 464V408.852Z" fill="black"/>
<path d="M223 408.852C223 397.3 214.11 390.311 202.557 390.311C196.046 390.311 191.455 391.906 186.869 396.492C182.59 400.77 182.115 404.098 179.738 408.852C179.738 414.893 181.348 417.87 185.443 421.689C189.179 425.173 197.046 427.869 202.557 427.869C214.11 427.869 223 420.405 223 408.852Z" fill="black"/>
<path d="M179.738 377V412.656H176.885C176.727 410.437 176.885 403.148 174.984 396.016C173.111 388.996 167.219 380.645 163.574 377H179.738Z" fill="black"/>
<path d="M179.738 377V412.656H182.59C182.749 410.437 182.59 403.148 184.492 396.016C186.364 388.996 192.257 380.645 195.902 377H179.738Z" fill="black"/>
<path d="M18.46 67.44L30.82 48.18C31.42 47.22 31.82 46.62 32.02 46.38C33.42 44.14 34.44 42.28 35.08 40.8C35.72 39.32 36.04 37.54 36.04 35.46C36.04 33.14 35.66 31.36 34.9 30.12C34.14 28.88 32.9 28.26 31.18 28.26C27.34 28.26 25.42 31.24 25.42 37.2V38.82H19V37.14C19 32.58 19.94 29.08 21.82 26.64C23.7 24.2 26.72 22.98 30.88 22.98C34.72 22.98 37.62 24.08 39.58 26.28C41.54 28.44 42.52 31.52 42.52 35.52C42.52 37.48 42.28 39.24 41.8 40.8C41.36 42.32 40.82 43.64 40.18 44.76C39.54 45.88 38.54 47.48 37.18 49.56L26.02 66.6H41.38V72H18.46V67.44Z" fill="black"/>
<path d="M29.918 108.016C31.8311 108.016 33.6658 102.666 35.0185 101.314C36.3712 99.9608 37.1311 98.1262 37.1311 96.2131C37.1311 94.3001 36.3712 92.4654 35.0185 91.1127C33.6658 89.76 31.8311 89 29.918 89V108.016Z" fill="black"/>
<path d="M45 108.016C45 112 41.7706 114.41 37.7869 114.41C35.5417 114.41 33.8525 113.59 32.377 112.279C30.9016 110.967 30.7377 109.656 29.918 108.016C29.918 105.933 30.6371 104.907 32.0492 103.59C33.3376 102.389 35.8862 101.459 37.7869 101.459C41.7706 101.459 45 104.033 45 108.016Z" fill="black"/>
<path d="M29.918 108.016C28.005 108.016 26.1703 102.666 24.8176 101.314C23.4649 99.9608 22.7049 98.1262 22.7049 96.2131C22.7049 94.3001 23.4649 92.4654 24.8176 91.1127C26.1703 89.76 28.005 89 29.918 89V108.016Z" fill="black"/>
<path d="M15 108.016C15 112 18.0655 114.41 22.0492 114.41C24.2944 114.41 25.8776 113.86 27.459 112.279C28.9344 110.803 29.0984 109.656 29.918 108.016C29.918 105.933 29.3629 104.907 27.9508 103.59C26.6624 102.389 23.9498 101.459 22.0492 101.459C18.0655 101.459 15 104.033 15 108.016Z" fill="black"/>
<path d="M29.918 119V106.705H30.9016C30.9563 107.47 30.9016 109.984 31.5574 112.443C32.203 114.864 34.235 117.743 35.4918 119H29.918Z" fill="black"/>
<path d="M29.918 119V106.705H28.9344C28.8798 107.47 28.9344 109.984 28.2787 112.443C27.6331 114.864 25.6011 117.743 24.3443 119H29.918Z" fill="black"/>
<path d="M340.54 493.56L328.18 512.82C327.58 513.78 327.18 514.38 326.98 514.62C325.58 516.86 324.56 518.72 323.92 520.2C323.28 521.68 322.96 523.46 322.96 525.54C322.96 527.86 323.34 529.64 324.1 530.88C324.86 532.12 326.1 532.74 327.82 532.74C331.66 532.74 333.58 529.76 333.58 523.8L333.58 522.18L340 522.18L340 523.86C340 528.42 339.06 531.92 337.18 534.36C335.3 536.8 332.28 538.02 328.12 538.02C324.28 538.02 321.38 536.92 319.42 534.72C317.46 532.56 316.48 529.48 316.48 525.48C316.48 523.52 316.72 521.76 317.2 520.2C317.64 518.68 318.18 517.36 318.82 516.24C319.46 515.12 320.46 513.52 321.82 511.44L332.98 494.4L317.62 494.4L317.62 489L340.54 489L340.54 493.56Z" fill="black"/>
<path d="M329.082 452.984C327.169 452.984 325.334 458.334 323.982 459.686C322.629 461.039 321.869 462.874 321.869 464.787C321.869 466.7 322.629 468.535 323.982 469.887C325.334 471.24 327.169 472 329.082 472L329.082 452.984Z" fill="black"/>
<path d="M314 452.984C314 449 317.229 446.59 321.213 446.59C323.458 446.59 325.148 447.41 326.623 448.721C328.098 450.033 328.262 451.344 329.082 452.984C329.082 455.067 328.363 456.093 326.951 457.41C325.662 458.611 323.114 459.541 321.213 459.541C317.229 459.541 314 456.967 314 452.984Z" fill="black"/>
<path d="M329.082 452.984C330.995 452.984 332.83 458.334 334.182 459.686C335.535 461.039 336.295 462.874 336.295 464.787C336.295 466.7 335.535 468.535 334.182 469.887C332.83 471.24 330.995 472 329.082 472L329.082 452.984Z" fill="black"/>
<path d="M344 452.984C344 449 340.935 446.59 336.951 446.59C334.706 446.59 333.122 447.14 331.541 448.721C330.066 450.197 329.902 451.344 329.082 452.984C329.082 455.067 329.637 456.093 331.049 457.41C332.338 458.611 335.05 459.541 336.951 459.541C340.935 459.541 344 456.967 344 452.984Z" fill="black"/>
<path d="M329.082 442L329.082 454.295L328.098 454.295C328.044 453.53 328.098 451.016 327.443 448.557C326.797 446.136 324.765 443.257 323.508 442L329.082 442Z" fill="black"/>
<path d="M329.082 442L329.082 454.295L330.066 454.295C330.12 453.53 330.066 451.016 330.721 448.557C331.367 446.136 333.399 443.257 334.656 442L329.082 442Z" fill="black"/>
</g>
<defs>
<clipPath id="clip0">
<rect width="360" height="560.121" fill="white"/>
</clipPath>
</defs>
</svg>
