<svg width="360" height="561" viewBox="0 0 360 561" fill="none" xmlns="http://www.w3.org/2000/svg">
<g clip-path="url(#clip0)">
<rect width="360" height="560.121" fill="white"/>
<path d="M223 121.559C223 128.185 220.855 134.222 217.336 138.763C216.852 139.388 216.341 139.984 215.807 140.55C211.952 144.633 206.848 147.119 201.25 147.119C189.238 147.119 179.5 135.675 179.5 121.559C179.5 107.443 189.238 96 201.25 96C213.262 96 223 107.443 223 121.559Z" fill="#FF3434"/>
<path d="M201.25 147.119C189.238 147.119 179.5 135.675 179.5 121.559V183L215.807 140.55C211.952 144.633 206.848 147.119 201.25 147.119Z" fill="#FF3434"/>
<path d="M136 121.559C136 128.185 138.145 134.222 141.664 138.763C142.148 139.388 142.659 139.984 143.193 140.55C147.048 144.633 152.152 147.119 157.75 147.119C169.762 147.119 179.5 135.675 179.5 121.559C179.5 107.443 169.762 96 157.75 96C145.738 96 136 107.443 136 121.559Z" fill="#FF3434"/>
<path d="M157.75 147.119C169.762 147.119 179.5 135.675 179.5 121.559V183L143.193 140.55C147.048 144.633 152.152 147.119 157.75 147.119Z" fill="#FF3434"/>
<path d="M136 438.441C136 431.815 138.145 425.778 141.664 421.237C142.148 420.612 142.659 420.016 143.193 419.45C147.048 415.367 152.152 412.881 157.75 412.881C169.762 412.881 179.5 424.325 179.5 438.441C179.5 452.557 169.762 464 157.75 464C145.738 464 136 452.557 136 438.441Z" fill="#FF3434"/>
<path d="M157.75 412.881C169.762 412.881 179.5 424.325 179.5 438.441V377L143.193 419.45C147.048 415.367 152.152 412.881 157.75 412.881Z" fill="#FF3434"/>
<path d="M223 438.441C223 431.815 220.855 425.778 217.336 421.237C216.852 420.612 216.341 420.016 215.807 419.45C211.952 415.367 206.848 412.881 201.25 412.881C189.238 412.881 179.5 424.325 179.5 438.441C179.5 452.557 189.238 464 201.25 464C213.262 464 223 452.557 223 438.441Z" fill="#FF3434"/>
<path d="M201.25 412.881C189.238 412.881 179.5 424.325 179.5 438.441V377L215.807 419.45C211.952 415.367 206.848 412.881 201.25 412.881Z" fill="#FF3434"/>
<path d="M18.46 67.44L30.82 48.18C31.42 47.22 31.82 46.62 32.02 46.38C33.42 44.14 34.44 42.28 35.08 40.8C35.72 39.32 36.04 37.54 36.04 35.46C36.04 33.14 35.66 31.36 34.9 30.12C34.14 28.88 32.9 28.26 31.18 28.26C27.34 28.26 25.42 31.24 25.42 37.2V38.82H19V37.14C19 32.58 19.94 29.08 21.82 26.64C23.7 24.2 26.72 22.98 30.88 22.98C34.72 22.98 37.62 24.08 39.58 26.28C41.54 28.44 42.52 31.52 42.52 35.52C42.52 37.48 42.28 39.24 41.8 40.8C41.36 42.32 40.82 43.64 40.18 44.76C39.54 45.88 38.54 47.48 37.18 49.56L26.02 66.6H41.38V72H18.46V67.44Z" fill="#FF3434"/>
<path d="M46 96.9975C46 99.0706 45.2602 100.96 44.0469 102.38C43.8799 102.576 43.7039 102.763 43.5197 102.94C42.1905 104.217 40.4304 104.995 38.5 104.995C34.3579 104.995 31 101.414 31 96.9975C31 92.5806 34.3579 89 38.5 89C42.6421 89 46 92.5806 46 96.9975Z" fill="#FF3434"/>
<path d="M38.5 104.995C34.3579 104.995 31 101.414 31 96.9975V116.222L43.5197 102.94C42.1905 104.217 40.4304 104.995 38.5 104.995Z" fill="#FF3434"/>
<path d="M16 96.9975C16 99.0706 16.7398 100.96 17.9531 102.38C18.1201 102.576 18.2961 102.763 18.4803 102.94C19.8095 104.217 21.5696 104.995 23.5 104.995C27.6421 104.995 31 101.414 31 96.9975C31 92.5806 27.6421 89 23.5 89C19.3579 89 16 92.5806 16 96.9975Z" fill="#FF3434"/>
<path d="M23.5 104.995C27.6421 104.995 31 101.414 31 96.9975V116.222L18.4803 102.94C19.8095 104.217 21.5696 104.995 23.5 104.995Z" fill="#FF3434"/>
<path d="M340.54 493.56L328.18 512.82C327.58 513.78 327.18 514.38 326.98 514.62C325.58 516.86 324.56 518.72 323.92 520.2C323.28 521.68 322.96 523.46 322.96 525.54C322.96 527.86 323.34 529.64 324.1 530.88C324.86 532.12 326.1 532.74 327.82 532.74C331.66 532.74 333.58 529.76 333.58 523.8L333.58 522.18L340 522.18L340 523.86C340 528.42 339.06 531.92 337.18 534.36C335.3 536.8 332.28 538.02 328.12 538.02C324.28 538.02 321.38 536.92 319.42 534.72C317.46 532.56 316.48 529.48 316.48 525.48C316.48 523.52 316.72 521.76 317.2 520.2C317.64 518.68 318.18 517.36 318.82 516.24C319.46 515.12 320.46 513.52 321.82 511.44L332.98 494.4L317.62 494.4L317.62 489L340.54 489L340.54 493.56Z" fill="#FF3434"/>
<path d="M313 464.225C313 462.152 313.74 460.263 314.953 458.842C315.12 458.646 315.296 458.46 315.48 458.282C316.81 457.005 318.57 456.227 320.5 456.227C324.642 456.227 328 459.808 328 464.225C328 468.642 324.642 472.222 320.5 472.222C316.358 472.222 313 468.642 313 464.225Z" fill="#FF3434"/>
<path d="M320.5 456.227C324.642 456.227 328 459.808 328 464.225V445L315.48 458.282C316.81 457.005 318.57 456.227 320.5 456.227Z" fill="#FF3434"/>
<path d="M343 464.225C343 462.152 342.26 460.263 341.047 458.842C340.88 458.646 340.704 458.46 340.52 458.282C339.19 457.005 337.43 456.227 335.5 456.227C331.358 456.227 328 459.808 328 464.225C328 468.642 331.358 472.222 335.5 472.222C339.642 472.222 343 468.642 343 464.225Z" fill="#FF3434"/>
<path d="M335.5 456.227C331.358 456.227 328 459.808 328 464.225V445L340.52 458.282C339.19 457.005 337.43 456.227 335.5 456.227Z" fill="#FF3434"/>
</g>
<defs>
<clipPath id="clip0">
<rect width="360" height="560.121" fill="white"/>
</clipPath>
</defs>
</svg>
