<svg width="360" height="561" viewBox="0 0 360 561" fill="none" xmlns="http://www.w3.org/2000/svg">
<g clip-path="url(#clip0)">
<rect width="360" height="560.121" fill="white"/>
<path d="M146.272 94.5593C146.272 101.185 144.243 107.222 140.915 111.763C140.458 112.388 139.975 112.984 139.47 113.55C135.824 117.633 130.998 120.119 125.704 120.119C114.344 120.119 105.136 108.675 105.136 94.5593C105.136 80.4433 114.344 69 125.704 69C137.063 69 146.272 80.4433 146.272 94.5593Z" fill="#FF3434"/>
<path d="M125.704 120.119C114.344 120.119 105.136 108.675 105.136 94.5593V156L139.47 113.55C135.824 117.633 130.998 120.119 125.704 120.119Z" fill="#FF3434"/>
<path d="M64 94.5593C64 101.185 66.0287 107.222 69.3563 111.763C69.8142 112.388 70.2968 112.984 70.802 113.55C74.4473 117.633 79.274 120.119 84.5679 120.119C95.9273 120.119 105.136 108.675 105.136 94.5593C105.136 80.4433 95.9273 69 84.5679 69C73.2086 69 64 80.4433 64 94.5593Z" fill="#FF3434"/>
<path d="M84.5679 120.119C95.9273 120.119 105.136 108.675 105.136 94.5593V156L70.802 113.55C74.4473 117.633 79.274 120.119 84.5679 120.119Z" fill="#FF3434"/>
<path d="M64 465.441C64 458.815 66.0287 452.778 69.3563 448.237C69.8142 447.612 70.2968 447.016 70.802 446.45C74.4473 442.367 79.274 439.881 84.5679 439.881C95.9273 439.881 105.136 451.325 105.136 465.441C105.136 479.557 95.9273 491 84.5679 491C73.2086 491 64 479.557 64 465.441Z" fill="#FF3434"/>
<path d="M84.5679 439.881C95.9273 439.881 105.136 451.325 105.136 465.441V404L70.802 446.45C74.4473 442.367 79.274 439.881 84.5679 439.881Z" fill="#FF3434"/>
<path d="M146.272 465.441C146.272 458.815 144.243 452.778 140.915 448.237C140.458 447.612 139.975 447.016 139.47 446.45C135.824 442.367 130.998 439.881 125.704 439.881C114.344 439.881 105.136 451.325 105.136 465.441C105.136 479.557 114.344 491 125.704 491C137.063 491 146.272 479.557 146.272 465.441Z" fill="#FF3434"/>
<path d="M125.704 439.881C114.344 439.881 105.136 451.325 105.136 465.441V404L139.47 446.45C135.824 442.367 130.998 439.881 125.704 439.881Z" fill="#FF3434"/>
<path d="M296.272 94.5593C296.272 101.185 294.243 107.222 290.915 111.763C290.458 112.388 289.975 112.984 289.47 113.55C285.824 117.633 280.998 120.119 275.704 120.119C264.344 120.119 255.136 108.675 255.136 94.5593C255.136 80.4433 264.344 69 275.704 69C287.063 69 296.272 80.4433 296.272 94.5593Z" fill="#FF3434"/>
<path d="M275.704 120.119C264.344 120.119 255.136 108.675 255.136 94.5593V156L289.47 113.55C285.824 117.633 280.998 120.119 275.704 120.119Z" fill="#FF3434"/>
<path d="M214 94.5593C214 101.185 216.029 107.222 219.356 111.763C219.814 112.388 220.297 112.984 220.802 113.55C224.447 117.633 229.274 120.119 234.568 120.119C245.927 120.119 255.136 108.675 255.136 94.5593C255.136 80.4433 245.927 69 234.568 69C223.209 69 214 80.4433 214 94.5593Z" fill="#FF3434"/>
<path d="M234.568 120.119C245.927 120.119 255.136 108.675 255.136 94.5593V156L220.802 113.55C224.447 117.633 229.274 120.119 234.568 120.119Z" fill="#FF3434"/>
<path d="M214 465.441C214 458.815 216.029 452.778 219.356 448.237C219.814 447.612 220.297 447.016 220.802 446.45C224.447 442.367 229.274 439.881 234.568 439.881C245.927 439.881 255.136 451.325 255.136 465.441C255.136 479.557 245.927 491 234.568 491C223.209 491 214 479.557 214 465.441Z" fill="#FF3434"/>
<path d="M234.568 439.881C245.927 439.881 255.136 451.325 255.136 465.441V404L220.802 446.45C224.447 442.367 229.274 439.881 234.568 439.881Z" fill="#FF3434"/>
<path d="M296.272 465.441C296.272 458.815 294.243 452.778 290.915 448.237C290.458 447.612 289.975 447.016 289.47 446.45C285.824 442.367 280.998 439.881 275.704 439.881C264.344 439.881 255.136 451.325 255.136 465.441C255.136 479.557 264.344 491 275.704 491C287.063 491 296.272 479.557 296.272 465.441Z" fill="#FF3434"/>
<path d="M275.704 439.881C264.344 439.881 255.136 451.325 255.136 465.441V404L289.47 446.45C285.824 442.367 280.998 439.881 275.704 439.881Z" fill="#FF3434"/>
<path d="M32.5 58.98H18.4V52.26L31.06 23.4H38.62V53.28H44.08V58.98H38.62V72H32.5V58.98ZM32.5 53.28V31.2L24.58 53.28H32.5Z" fill="#FF3434"/>
<path d="M46 96.9975C46 99.0706 45.2602 100.96 44.0469 102.38C43.8799 102.576 43.7039 102.763 43.5197 102.94C42.1905 104.217 40.4304 104.995 38.5 104.995C34.3579 104.995 31 101.414 31 96.9975C31 92.5806 34.3579 89 38.5 89C42.6421 89 46 92.5806 46 96.9975Z" fill="#FF3434"/>
<path d="M38.5 104.995C34.3579 104.995 31 101.414 31 96.9975V116.222L43.5197 102.94C42.1905 104.217 40.4304 104.995 38.5 104.995Z" fill="#FF3434"/>
<path d="M16 96.9975C16 99.0706 16.7398 100.96 17.9531 102.38C18.1201 102.576 18.2961 102.763 18.4803 102.94C19.8095 104.217 21.5696 104.995 23.5 104.995C27.6421 104.995 31 101.414 31 96.9975C31 92.5806 27.6421 89 23.5 89C19.3579 89 16 92.5806 16 96.9975Z" fill="#FF3434"/>
<path d="M23.5 104.995C27.6421 104.995 31 101.414 31 96.9975V116.222L18.4803 102.94C19.8095 104.217 21.5696 104.995 23.5 104.995Z" fill="#FF3434"/>
<path d="M326.5 502.02L340.6 502.02L340.6 508.74L327.94 537.6L320.38 537.6L320.38 507.72L314.92 507.72L314.92 502.02L320.38 502.02L320.38 489L326.5 489L326.5 502.02ZM326.5 507.72L326.5 529.8L334.42 507.72L326.5 507.72Z" fill="#FF3434"/>
<path d="M313 464.225C313 462.152 313.74 460.263 314.953 458.842C315.12 458.646 315.296 458.46 315.48 458.282C316.81 457.005 318.57 456.227 320.5 456.227C324.642 456.227 328 459.808 328 464.225C328 468.642 324.642 472.222 320.5 472.222C316.358 472.222 313 468.642 313 464.225Z" fill="#FF3434"/>
<path d="M320.5 456.227C324.642 456.227 328 459.808 328 464.225V445L315.48 458.282C316.81 457.005 318.57 456.227 320.5 456.227Z" fill="#FF3434"/>
<path d="M343 464.225C343 462.152 342.26 460.263 341.047 458.842C340.88 458.646 340.704 458.46 340.52 458.282C339.19 457.005 337.43 456.227 335.5 456.227C331.358 456.227 328 459.808 328 464.225C328 468.642 331.358 472.222 335.5 472.222C339.642 472.222 343 468.642 343 464.225Z" fill="#FF3434"/>
<path d="M335.5 456.227C331.358 456.227 328 459.808 328 464.225V445L340.52 458.282C339.19 457.005 337.43 456.227 335.5 456.227Z" fill="#FF3434"/>
</g>
<defs>
<clipPath id="clip0">
<rect width="360" height="560.121" fill="white"/>
</clipPath>
</defs>
</svg>
