<svg width="360" height="561" viewBox="0 0 360 561" fill="none" xmlns="http://www.w3.org/2000/svg">
<g clip-path="url(#clip0)">
<rect width="360" height="560.121" fill="white"/>
<path d="M104 119H134C129.543 112.989 124.217 106.295 117.696 95.6393C112.544 87.2229 106.5 75.0109 104 69V119Z" fill="#FF3434"/>
<path d="M104 119H74C78.4565 112.989 83.7826 106.295 90.3043 95.6393C95.4556 87.2229 101.5 75.0109 104 69V119Z" fill="#FF3434"/>
<path d="M104 119H74C78.4565 125.011 83.7826 131.705 90.3043 142.361C95.4556 150.777 101.5 162.989 104 169V119Z" fill="#FF3434"/>
<path d="M104 119H134C129.543 125.011 124.217 131.705 117.696 142.361C112.544 150.777 106.5 162.989 104 169V119Z" fill="#FF3434"/>
<path d="M105 441H75C79.4565 447.011 84.7826 453.705 91.3043 464.361C96.4556 472.777 102.5 484.989 105 491V441Z" fill="#FF3434"/>
<path d="M105 441H135C130.543 447.011 125.217 453.705 118.696 464.361C113.544 472.777 107.5 484.989 105 491V441Z" fill="#FF3434"/>
<path d="M105 441H135C130.543 434.989 125.217 428.295 118.696 417.639C113.544 409.223 107.5 397.011 105 391L105 441Z" fill="#FF3434"/>
<path d="M105 441H75C79.4565 434.989 84.7826 428.295 91.3043 417.639C96.4556 409.223 102.5 397.011 105 391L105 441Z" fill="#FF3434"/>
<path d="M254 119H284C279.543 112.989 274.217 106.295 267.696 95.6393C262.544 87.2229 256.5 75.0109 254 69V119Z" fill="#FF3434"/>
<path d="M254 119H224C228.457 112.989 233.783 106.295 240.304 95.6393C245.456 87.2229 251.5 75.0109 254 69V119Z" fill="#FF3434"/>
<path d="M254 119H224C228.457 125.011 233.783 131.705 240.304 142.361C245.456 150.777 251.5 162.989 254 169V119Z" fill="#FF3434"/>
<path d="M254 119H284C279.543 125.011 274.217 131.705 267.696 142.361C262.544 150.777 256.5 162.989 254 169V119Z" fill="#FF3434"/>
<path d="M180 287H210C205.543 280.989 200.217 274.295 193.696 263.639C188.544 255.223 182.5 243.011 180 237V287Z" fill="#FF3434"/>
<path d="M180 287H150C154.457 280.989 159.783 274.295 166.304 263.639C171.456 255.223 177.5 243.011 180 237V287Z" fill="#FF3434"/>
<path d="M180 287H150C154.457 293.011 159.783 299.705 166.304 310.361C171.456 318.777 177.5 330.989 180 337V287Z" fill="#FF3434"/>
<path d="M180 287H210C205.543 293.011 200.217 299.705 193.696 310.361C188.544 318.777 182.5 330.989 180 337V287Z" fill="#FF3434"/>
<path d="M255 439H225C229.457 445.011 234.783 451.705 241.304 462.361C246.456 470.777 252.5 482.989 255 489V439Z" fill="#FF3434"/>
<path d="M255 439H285C280.543 445.011 275.217 451.705 268.696 462.361C263.544 470.777 257.5 482.989 255 489V439Z" fill="#FF3434"/>
<path d="M255 439H285C280.543 432.989 275.217 426.295 268.696 415.639C263.544 407.223 257.5 395.011 255 389V439Z" fill="#FF3434"/>
<path d="M255 439H225C229.457 432.989 234.783 426.295 241.304 415.639C246.456 407.223 252.5 395.011 255 389V439Z" fill="#FF3434"/>
<path d="M30.58 72.48C26.38 72.48 23.36 71.3 21.52 68.94C19.72 66.54 18.82 63.02 18.82 58.38H25.24C25.24 61.1 25.6 63.28 26.32 64.92C27.08 66.56 28.54 67.38 30.7 67.38C32.34 67.38 33.56 66.9 34.36 65.94C35.16 64.98 35.66 63.72 35.86 62.16C36.1 60.56 36.22 58.44 36.22 55.8C36.22 53.36 36.08 51.42 35.8 49.98C35.56 48.5 35.04 47.38 34.24 46.62C33.48 45.82 32.32 45.42 30.76 45.42C29.52 45.42 28.42 45.8 27.46 46.56C26.54 47.32 25.84 48.28 25.36 49.44H19.9V23.4H40.84V29.82H25.72L25.3 43.26C27.02 41.46 29.36 40.56 32.32 40.56C36.04 40.56 38.68 41.84 40.24 44.4C41.84 46.92 42.64 50.44 42.64 54.96C42.64 60.48 41.74 64.78 39.94 67.86C38.14 70.94 35.02 72.48 30.58 72.48Z" fill="#FF3434"/>
<path d="M31.5 109.608H44C42.1431 107.131 39.9239 104.372 37.2065 99.9797C35.0602 96.5108 32.5417 91.4775 31.5 89V109.608Z" fill="#FF3434"/>
<path d="M31.5 109.608H19C20.8569 107.131 23.0761 104.372 25.7935 99.9797C27.9398 96.5108 30.4583 91.4775 31.5 89V109.608Z" fill="#FF3434"/>
<path d="M31.5 109.608H19C20.8569 112.086 23.0761 114.845 25.7935 119.236C27.9398 122.705 30.4583 127.739 31.5 130.216V109.608Z" fill="#FF3434"/>
<path d="M31.5 109.608H44C42.1431 112.086 39.9239 114.845 37.2065 119.236C35.0602 122.705 32.5417 127.739 31.5 130.216V109.608Z" fill="#FF3434"/>
<path d="M328.42 488.52C332.62 488.52 335.64 489.7 337.48 492.06C339.28 494.46 340.18 497.98 340.18 502.62L333.76 502.62C333.76 499.9 333.4 497.72 332.68 496.08C331.92 494.44 330.46 493.62 328.3 493.62C326.66 493.62 325.44 494.1 324.64 495.06C323.84 496.02 323.34 497.28 323.14 498.84C322.9 500.44 322.78 502.56 322.78 505.2C322.78 507.64 322.92 509.58 323.2 511.02C323.44 512.5 323.96 513.62 324.76 514.38C325.52 515.18 326.68 515.58 328.24 515.58C329.48 515.58 330.58 515.2 331.54 514.44C332.46 513.68 333.16 512.72 333.64 511.56L339.1 511.56L339.1 537.6L318.16 537.6L318.16 531.18L333.28 531.18L333.7 517.74C331.98 519.54 329.64 520.44 326.68 520.44C322.96 520.44 320.32 519.16 318.76 516.6C317.16 514.08 316.36 510.56 316.36 506.04C316.36 500.52 317.26 496.22 319.06 493.14C320.86 490.06 323.98 488.52 328.42 488.52Z" fill="#FF3434"/>
<path d="M328.5 451.608H341C339.143 449.131 336.924 446.372 334.207 441.98C332.06 438.511 329.542 433.477 328.5 431V451.608Z" fill="#FF3434"/>
<path d="M328.5 451.608H316C317.857 449.131 320.076 446.372 322.793 441.98C324.94 438.511 327.458 433.477 328.5 431V451.608Z" fill="#FF3434"/>
<path d="M328.5 451.608H316C317.857 454.086 320.076 456.845 322.793 461.236C324.94 464.705 327.458 469.739 328.5 472.216V451.608Z" fill="#FF3434"/>
<path d="M328.5 451.608H341C339.143 454.086 336.924 456.845 334.207 461.236C332.06 464.705 329.542 469.739 328.5 472.216V451.608Z" fill="#FF3434"/>
</g>
<defs>
<clipPath id="clip0">
<rect width="360" height="560.121" fill="white"/>
</clipPath>
</defs>
</svg>
