<svg width="360" height="561" viewBox="0 0 360 561" fill="none" xmlns="http://www.w3.org/2000/svg">
<g clip-path="url(#clip0)">
<rect width="360" height="560.121" fill="white"/>
<path d="M148 94.5593C148 101.185 145.855 107.222 142.336 111.763C141.852 112.388 141.341 112.984 140.807 113.55C136.952 117.633 131.848 120.119 126.25 120.119C114.238 120.119 104.5 108.675 104.5 94.5593C104.5 80.4433 114.238 69 126.25 69C138.262 69 148 80.4433 148 94.5593Z" fill="#FF3434"/>
<path d="M126.25 120.119C114.238 120.119 104.5 108.675 104.5 94.5593V156L140.807 113.55C136.952 117.633 131.848 120.119 126.25 120.119Z" fill="#FF3434"/>
<path d="M61 94.5593C61 101.185 63.1453 107.222 66.6641 111.763C67.1484 112.388 67.6586 112.984 68.1929 113.55C72.0477 117.633 77.1519 120.119 82.75 120.119C94.7622 120.119 104.5 108.675 104.5 94.5593C104.5 80.4433 94.7622 69 82.75 69C70.7378 69 61 80.4433 61 94.5593Z" fill="#FF3434"/>
<path d="M82.75 120.119C94.7622 120.119 104.5 108.675 104.5 94.5593V156L68.1929 113.55C72.0477 117.633 77.1519 120.119 82.75 120.119Z" fill="#FF3434"/>
<path d="M61 465.441C61 458.815 63.1453 452.778 66.6641 448.237C67.1484 447.612 67.6586 447.016 68.1929 446.45C72.0477 442.367 77.1519 439.881 82.75 439.881C94.7622 439.881 104.5 451.325 104.5 465.441C104.5 479.557 94.7622 491 82.75 491C70.7378 491 61 479.557 61 465.441Z" fill="#FF3434"/>
<path d="M82.75 439.881C94.7622 439.881 104.5 451.325 104.5 465.441V404L68.1929 446.45C72.0477 442.367 77.1519 439.881 82.75 439.881Z" fill="#FF3434"/>
<path d="M148 465.441C148 458.815 145.855 452.778 142.336 448.237C141.852 447.612 141.341 447.016 140.807 446.45C136.952 442.367 131.848 439.881 126.25 439.881C114.238 439.881 104.5 451.325 104.5 465.441C104.5 479.557 114.238 491 126.25 491C138.262 491 148 479.557 148 465.441Z" fill="#FF3434"/>
<path d="M126.25 439.881C114.238 439.881 104.5 451.325 104.5 465.441V404L140.807 446.45C136.952 442.367 131.848 439.881 126.25 439.881Z" fill="#FF3434"/>
<path d="M298 94.5593C298 101.185 295.855 107.222 292.336 111.763C291.852 112.388 291.341 112.984 290.807 113.55C286.952 117.633 281.848 120.119 276.25 120.119C264.238 120.119 254.5 108.675 254.5 94.5593C254.5 80.4433 264.238 69 276.25 69C288.262 69 298 80.4433 298 94.5593Z" fill="#FF3434"/>
<path d="M276.25 120.119C264.238 120.119 254.5 108.675 254.5 94.5593V156L290.807 113.55C286.952 117.633 281.848 120.119 276.25 120.119Z" fill="#FF3434"/>
<path d="M211 94.5593C211 101.185 213.145 107.222 216.664 111.763C217.148 112.388 217.659 112.984 218.193 113.55C222.048 117.633 227.152 120.119 232.75 120.119C244.762 120.119 254.5 108.675 254.5 94.5593C254.5 80.4433 244.762 69 232.75 69C220.738 69 211 80.4433 211 94.5593Z" fill="#FF3434"/>
<path d="M232.75 120.119C244.762 120.119 254.5 108.675 254.5 94.5593V156L218.193 113.55C222.048 117.633 227.152 120.119 232.75 120.119Z" fill="#FF3434"/>
<path d="M224 262.559C224 269.185 221.855 275.222 218.336 279.763C217.852 280.388 217.341 280.984 216.807 281.55C212.952 285.633 207.848 288.119 202.25 288.119C190.238 288.119 180.5 276.675 180.5 262.559C180.5 248.443 190.238 237 202.25 237C214.262 237 224 248.443 224 262.559Z" fill="#FF3434"/>
<path d="M202.25 288.119C190.238 288.119 180.5 276.675 180.5 262.559V324L216.807 281.55C212.952 285.633 207.848 288.119 202.25 288.119Z" fill="#FF3434"/>
<path d="M137 262.559C137 269.185 139.145 275.222 142.664 279.763C143.148 280.388 143.659 280.984 144.193 281.55C148.048 285.633 153.152 288.119 158.75 288.119C170.762 288.119 180.5 276.675 180.5 262.559C180.5 248.443 170.762 237 158.75 237C146.738 237 137 248.443 137 262.559Z" fill="#FF3434"/>
<path d="M158.75 288.119C170.762 288.119 180.5 276.675 180.5 262.559V324L144.193 281.55C148.048 285.633 153.152 288.119 158.75 288.119Z" fill="#FF3434"/>
<path d="M211 463.441C211 456.815 213.145 450.778 216.664 446.237C217.148 445.612 217.659 445.016 218.193 444.45C222.048 440.367 227.152 437.881 232.75 437.881C244.762 437.881 254.5 449.325 254.5 463.441C254.5 477.557 244.762 489 232.75 489C220.738 489 211 477.557 211 463.441Z" fill="#FF3434"/>
<path d="M232.75 437.881C244.762 437.881 254.5 449.325 254.5 463.441V402L218.193 444.45C222.048 440.367 227.152 437.881 232.75 437.881Z" fill="#FF3434"/>
<path d="M298 463.441C298 456.815 295.855 450.778 292.336 446.237C291.852 445.612 291.341 445.016 290.807 444.45C286.952 440.367 281.848 437.881 276.25 437.881C264.238 437.881 254.5 449.325 254.5 463.441C254.5 477.557 264.238 489 276.25 489C288.262 489 298 477.557 298 463.441Z" fill="#FF3434"/>
<path d="M276.25 437.881C264.238 437.881 254.5 449.325 254.5 463.441V402L290.807 444.45C286.952 440.367 281.848 437.881 276.25 437.881Z" fill="#FF3434"/>
<path d="M30.58 72.48C26.38 72.48 23.36 71.3 21.52 68.94C19.72 66.54 18.82 63.02 18.82 58.38H25.24C25.24 61.1 25.6 63.28 26.32 64.92C27.08 66.56 28.54 67.38 30.7 67.38C32.34 67.38 33.56 66.9 34.36 65.94C35.16 64.98 35.66 63.72 35.86 62.16C36.1 60.56 36.22 58.44 36.22 55.8C36.22 53.36 36.08 51.42 35.8 49.98C35.56 48.5 35.04 47.38 34.24 46.62C33.48 45.82 32.32 45.42 30.76 45.42C29.52 45.42 28.42 45.8 27.46 46.56C26.54 47.32 25.84 48.28 25.36 49.44H19.9V23.4H40.84V29.82H25.72L25.3 43.26C27.02 41.46 29.36 40.56 32.32 40.56C36.04 40.56 38.68 41.84 40.24 44.4C41.84 46.92 42.64 50.44 42.64 54.96C42.64 60.48 41.74 64.78 39.94 67.86C38.14 70.94 35.02 72.48 30.58 72.48Z" fill="#FF3434"/>
<path d="M46 96.9975C46 99.0706 45.2602 100.96 44.0469 102.38C43.8799 102.576 43.7039 102.763 43.5197 102.94C42.1905 104.217 40.4304 104.995 38.5 104.995C34.3579 104.995 31 101.414 31 96.9975C31 92.5806 34.3579 89 38.5 89C42.6421 89 46 92.5806 46 96.9975Z" fill="#FF3434"/>
<path d="M38.5 104.995C34.3579 104.995 31 101.414 31 96.9975V116.222L43.5197 102.94C42.1905 104.217 40.4304 104.995 38.5 104.995Z" fill="#FF3434"/>
<path d="M16 96.9975C16 99.0706 16.7398 100.96 17.9531 102.38C18.1201 102.576 18.2961 102.763 18.4803 102.94C19.8095 104.217 21.5696 104.995 23.5 104.995C27.6421 104.995 31 101.414 31 96.9975C31 92.5806 27.6421 89 23.5 89C19.3579 89 16 92.5806 16 96.9975Z" fill="#FF3434"/>
<path d="M23.5 104.995C27.6421 104.995 31 101.414 31 96.9975V116.222L18.4803 102.94C19.8095 104.217 21.5696 104.995 23.5 104.995Z" fill="#FF3434"/>
<path d="M328.42 488.52C332.62 488.52 335.64 489.7 337.48 492.06C339.28 494.46 340.18 497.98 340.18 502.62L333.76 502.62C333.76 499.9 333.4 497.72 332.68 496.08C331.92 494.44 330.46 493.62 328.3 493.62C326.66 493.62 325.44 494.1 324.64 495.06C323.84 496.02 323.34 497.28 323.14 498.84C322.9 500.44 322.78 502.56 322.78 505.2C322.78 507.64 322.92 509.58 323.2 511.02C323.44 512.5 323.96 513.62 324.76 514.38C325.52 515.18 326.68 515.58 328.24 515.58C329.48 515.58 330.58 515.2 331.54 514.44C332.46 513.68 333.16 512.72 333.64 511.56L339.1 511.56L339.1 537.6L318.16 537.6L318.16 531.18L333.28 531.18L333.7 517.74C331.98 519.54 329.64 520.44 326.68 520.44C322.96 520.44 320.32 519.16 318.76 516.6C317.16 514.08 316.36 510.56 316.36 506.04C316.36 500.52 317.26 496.22 319.06 493.14C320.86 490.06 323.98 488.52 328.42 488.52Z" fill="#FF3434"/>
<path d="M313 464.225C313 462.152 313.74 460.263 314.953 458.842C315.12 458.646 315.296 458.46 315.48 458.282C316.81 457.005 318.57 456.227 320.5 456.227C324.642 456.227 328 459.808 328 464.225C328 468.642 324.642 472.222 320.5 472.222C316.358 472.222 313 468.642 313 464.225Z" fill="#FF3434"/>
<path d="M320.5 456.227C324.642 456.227 328 459.808 328 464.225V445L315.48 458.282C316.81 457.005 318.57 456.227 320.5 456.227Z" fill="#FF3434"/>
<path d="M343 464.225C343 462.152 342.26 460.263 341.047 458.842C340.88 458.646 340.704 458.46 340.52 458.282C339.19 457.005 337.43 456.227 335.5 456.227C331.358 456.227 328 459.808 328 464.225C328 468.642 331.358 472.222 335.5 472.222C339.642 472.222 343 468.642 343 464.225Z" fill="#FF3434"/>
<path d="M335.5 456.227C331.358 456.227 328 459.808 328 464.225V445L340.52 458.282C339.19 457.005 337.43 456.227 335.5 456.227Z" fill="#FF3434"/>
</g>
<defs>
<clipPath id="clip0">
<rect width="360" height="560.121" fill="white"/>
</clipPath>
</defs>
</svg>
