<svg width="360" height="561" viewBox="0 0 360 561" fill="none" xmlns="http://www.w3.org/2000/svg">
<g clip-path="url(#clip0)">
<rect width="360" height="560.121" fill="white"/>
<path d="M104.262 124.148C109.81 124.148 115.131 108.632 119.054 104.709C122.976 100.786 125.18 95.4658 125.18 89.918C125.18 84.3702 122.976 79.0496 119.054 75.1268C115.131 71.2039 109.81 69 104.262 69V124.148Z" fill="black"/>
<path d="M148 124.148C148 135.7 138.635 142.689 127.082 142.689C120.571 142.689 115.672 140.311 111.393 136.508C107.115 132.705 106.639 128.902 104.262 124.148C104.262 118.107 106.348 115.13 110.443 111.311C114.179 107.827 121.57 105.131 127.082 105.131C138.635 105.131 148 112.595 148 124.148Z" fill="black"/>
<path d="M104.262 124.148C98.7145 124.148 93.3939 108.632 89.471 104.709C85.5481 100.786 83.3443 95.4658 83.3443 89.918C83.3443 84.3702 85.5481 79.0496 89.471 75.1268C93.3939 71.2039 98.7145 69 104.262 69V124.148Z" fill="black"/>
<path d="M61 124.148C61 135.7 69.8899 142.689 81.4426 142.689C87.9538 142.689 92.545 141.094 97.1311 136.508C101.41 132.23 101.885 128.902 104.262 124.148C104.262 118.107 102.652 115.13 98.5574 111.311C94.8209 107.827 86.9545 105.131 81.4426 105.131C69.8899 105.131 61 112.595 61 124.148Z" fill="black"/>
<path d="M104.262 156V120.344H107.115C107.273 122.563 107.115 129.852 109.016 136.984C110.889 144.004 116.781 152.355 120.426 156H104.262Z" fill="black"/>
<path d="M104.262 156V120.344H101.41C101.251 122.563 101.41 129.852 99.5082 136.984C97.636 144.004 91.7432 152.355 88.0984 156H104.262Z" fill="black"/>
<path d="M104.738 435.852C99.1899 435.852 93.8693 451.368 89.9464 455.291C86.0235 459.214 83.8197 464.534 83.8197 470.082C83.8197 475.63 86.0235 480.95 89.9464 484.873C93.8693 488.796 99.1899 491 104.738 491V435.852Z" fill="black"/>
<path d="M61 435.852C61 424.3 70.3653 417.311 81.918 417.311C88.4292 417.311 93.3279 419.689 97.6066 423.492C101.885 427.295 102.361 431.098 104.738 435.852C104.738 441.893 102.652 444.87 98.5574 448.689C94.8209 452.173 87.4299 454.869 81.918 454.869C70.3653 454.869 61 447.405 61 435.852Z" fill="black"/>
<path d="M104.738 435.852C110.286 435.852 115.606 451.368 119.529 455.291C123.452 459.214 125.656 464.534 125.656 470.082C125.656 475.63 123.452 480.95 119.529 484.873C115.606 488.796 110.286 491 104.738 491V435.852Z" fill="black"/>
<path d="M148 435.852C148 424.3 139.11 417.311 127.557 417.311C121.046 417.311 116.455 418.906 111.869 423.492C107.59 427.77 107.115 431.098 104.738 435.852C104.738 441.893 106.348 444.87 110.443 448.689C114.179 452.173 122.046 454.869 127.557 454.869C139.11 454.869 148 447.405 148 435.852Z" fill="black"/>
<path d="M104.738 404V439.656H101.885C101.727 437.437 101.885 430.148 99.9836 423.016C98.1114 415.996 92.2186 407.645 88.5738 404H104.738Z" fill="black"/>
<path d="M104.738 404V439.656H107.59C107.749 437.437 107.59 430.148 109.492 423.016C111.364 415.996 117.257 407.645 120.902 404H104.738Z" fill="black"/>
<path d="M254.262 124.148C259.81 124.148 265.131 108.632 269.054 104.709C272.976 100.786 275.18 95.4658 275.18 89.918C275.18 84.3702 272.976 79.0496 269.054 75.1268C265.131 71.2039 259.81 69 254.262 69V124.148Z" fill="black"/>
<path d="M298 124.148C298 135.7 288.635 142.689 277.082 142.689C270.571 142.689 265.672 140.311 261.393 136.508C257.115 132.705 256.639 128.902 254.262 124.148C254.262 118.107 256.348 115.13 260.443 111.311C264.179 107.827 271.57 105.131 277.082 105.131C288.635 105.131 298 112.595 298 124.148Z" fill="black"/>
<path d="M254.262 124.148C248.714 124.148 243.394 108.632 239.471 104.709C235.548 100.786 233.344 95.4658 233.344 89.918C233.344 84.3702 235.548 79.0496 239.471 75.1268C243.394 71.2039 248.714 69 254.262 69V124.148Z" fill="black"/>
<path d="M211 124.148C211 135.7 219.89 142.689 231.443 142.689C237.954 142.689 242.545 141.094 247.131 136.508C251.41 132.23 251.885 128.902 254.262 124.148C254.262 118.107 252.652 115.13 248.557 111.311C244.821 107.827 236.954 105.131 231.443 105.131C219.89 105.131 211 112.595 211 124.148Z" fill="black"/>
<path d="M254.262 156V120.344H257.115C257.273 122.563 257.115 129.852 259.016 136.984C260.889 144.004 266.781 152.355 270.426 156H254.262Z" fill="black"/>
<path d="M254.262 156V120.344H251.41C251.251 122.563 251.41 129.852 249.508 136.984C247.636 144.004 241.743 152.355 238.098 156H254.262Z" fill="black"/>
<path d="M104.262 289.148C109.81 289.148 115.131 273.632 119.054 269.709C122.976 265.786 125.18 260.466 125.18 254.918C125.18 249.37 122.976 244.05 119.054 240.127C115.131 236.204 109.81 234 104.262 234V289.148Z" fill="black"/>
<path d="M148 289.148C148 300.7 138.635 307.689 127.082 307.689C120.571 307.689 115.672 305.311 111.393 301.508C107.115 297.705 106.639 293.902 104.262 289.148C104.262 283.107 106.348 280.13 110.443 276.311C114.179 272.827 121.57 270.131 127.082 270.131C138.635 270.131 148 277.595 148 289.148Z" fill="black"/>
<path d="M104.262 289.148C98.7145 289.148 93.3939 273.632 89.471 269.709C85.5481 265.786 83.3443 260.466 83.3443 254.918C83.3443 249.37 85.5481 244.05 89.471 240.127C93.3939 236.204 98.7145 234 104.262 234V289.148Z" fill="black"/>
<path d="M61 289.148C61 300.7 69.8899 307.689 81.4426 307.689C87.9538 307.689 92.545 306.094 97.1311 301.508C101.41 297.23 101.885 293.902 104.262 289.148C104.262 283.107 102.652 280.13 98.5574 276.311C94.8209 272.827 86.9545 270.131 81.4426 270.131C69.8899 270.131 61 277.595 61 289.148Z" fill="black"/>
<path d="M104.262 321V285.344H107.115C107.273 287.563 107.115 294.852 109.016 301.984C110.889 309.004 116.781 317.355 120.426 321H104.262Z" fill="black"/>
<path d="M104.262 321V285.344H101.41C101.251 287.563 101.41 294.852 99.5082 301.984C97.636 309.004 91.7432 317.355 88.0984 321H104.262Z" fill="black"/>
<path d="M254.262 289.148C259.81 289.148 265.131 273.632 269.054 269.709C272.976 265.786 275.18 260.466 275.18 254.918C275.18 249.37 272.976 244.05 269.054 240.127C265.131 236.204 259.81 234 254.262 234V289.148Z" fill="black"/>
<path d="M298 289.148C298 300.7 288.635 307.689 277.082 307.689C270.571 307.689 265.672 305.311 261.393 301.508C257.115 297.705 256.639 293.902 254.262 289.148C254.262 283.107 256.348 280.13 260.443 276.311C264.179 272.827 271.57 270.131 277.082 270.131C288.635 270.131 298 277.595 298 289.148Z" fill="black"/>
<path d="M254.262 289.148C248.714 289.148 243.394 273.632 239.471 269.709C235.548 265.786 233.344 260.466 233.344 254.918C233.344 249.37 235.548 244.05 239.471 240.127C243.394 236.204 248.714 234 254.262 234V289.148Z" fill="black"/>
<path d="M211 289.148C211 300.7 219.89 307.689 231.443 307.689C237.954 307.689 242.545 306.094 247.131 301.508C251.41 297.23 251.885 293.902 254.262 289.148C254.262 283.107 252.652 280.13 248.557 276.311C244.821 272.827 236.954 270.131 231.443 270.131C219.89 270.131 211 277.595 211 289.148Z" fill="black"/>
<path d="M254.262 321V285.344H257.115C257.273 287.563 257.115 294.852 259.016 301.984C260.889 309.004 266.781 317.355 270.426 321H254.262Z" fill="black"/>
<path d="M254.262 321V285.344H251.41C251.251 287.563 251.41 294.852 249.508 301.984C247.636 309.004 241.743 317.355 238.098 321H254.262Z" fill="black"/>
<path d="M254.738 435.852C249.19 435.852 243.869 451.368 239.946 455.291C236.024 459.214 233.82 464.534 233.82 470.082C233.82 475.63 236.024 480.95 239.946 484.873C243.869 488.796 249.19 491 254.738 491V435.852Z" fill="black"/>
<path d="M211 435.852C211 424.3 220.365 417.311 231.918 417.311C238.429 417.311 243.328 419.689 247.607 423.492C251.885 427.295 252.361 431.098 254.738 435.852C254.738 441.893 252.652 444.87 248.557 448.689C244.821 452.173 237.43 454.869 231.918 454.869C220.365 454.869 211 447.405 211 435.852Z" fill="black"/>
<path d="M254.738 435.852C260.286 435.852 265.606 451.368 269.529 455.291C273.452 459.214 275.656 464.534 275.656 470.082C275.656 475.63 273.452 480.95 269.529 484.873C265.606 488.796 260.286 491 254.738 491V435.852Z" fill="black"/>
<path d="M298 435.852C298 424.3 289.11 417.311 277.557 417.311C271.046 417.311 266.455 418.906 261.869 423.492C257.59 427.77 257.115 431.098 254.738 435.852C254.738 441.893 256.348 444.87 260.443 448.689C264.179 452.173 272.046 454.869 277.557 454.869C289.11 454.869 298 447.405 298 435.852Z" fill="black"/>
<path d="M254.738 404V439.656H251.885C251.727 437.437 251.885 430.148 249.984 423.016C248.111 415.996 242.219 407.645 238.574 404H254.738Z" fill="black"/>
<path d="M254.738 404V439.656H257.59C257.749 437.437 257.59 430.148 259.492 423.016C261.364 415.996 267.257 407.645 270.902 404H254.738Z" fill="black"/>
<path d="M30.42 72.54C26.42 72.54 23.42 71.08 21.42 68.16C19.46 65.2 18.48 61.34 18.48 56.58V40.2C18.48 34.96 19.4 30.78 21.24 27.66C23.08 24.54 26.14 22.98 30.42 22.98C34.18 22.98 37.08 24 39.12 26.04C41.16 28.08 42.22 31 42.3 34.8L42.36 35.52H35.88C35.88 33.04 35.48 31.22 34.68 30.06C33.88 28.86 32.46 28.26 30.42 28.26C26.74 28.26 24.9 31.72 24.9 38.64V46.02C25.54 44.98 26.46 44.16 27.66 43.56C28.9 42.96 30.34 42.66 31.98 42.66C35.78 42.66 38.48 43.88 40.08 46.32C41.68 48.72 42.48 52.18 42.48 56.7C42.48 61.46 41.5 65.3 39.54 68.22C37.58 71.1 34.54 72.54 30.42 72.54ZM30.42 67.2C32.42 67.2 33.84 66.38 34.68 64.74C35.56 63.1 36 60.94 36 58.26C36 55.82 35.9 53.88 35.7 52.44C35.5 51 35 49.82 34.2 48.9C33.4 47.98 32.14 47.52 30.42 47.52C29.18 47.52 28.08 47.84 27.12 48.48C26.2 49.12 25.46 49.9 24.9 50.82V58.08C24.9 60.84 25.32 63.06 26.16 64.74C27.04 66.38 28.46 67.2 30.42 67.2Z" fill="black"/>
<path d="M29.918 108.016C31.8311 108.016 33.6658 102.666 35.0185 101.314C36.3712 99.9608 37.1311 98.1262 37.1311 96.2131C37.1311 94.3001 36.3712 92.4654 35.0185 91.1127C33.6658 89.76 31.8311 89 29.918 89V108.016Z" fill="black"/>
<path d="M45 108.016C45 112 41.7706 114.41 37.7869 114.41C35.5417 114.41 33.8525 113.59 32.377 112.279C30.9016 110.967 30.7377 109.656 29.918 108.016C29.918 105.933 30.6371 104.907 32.0492 103.59C33.3376 102.389 35.8862 101.459 37.7869 101.459C41.7706 101.459 45 104.033 45 108.016Z" fill="black"/>
<path d="M29.918 108.016C28.005 108.016 26.1703 102.666 24.8176 101.314C23.4649 99.9608 22.7049 98.1262 22.7049 96.2131C22.7049 94.3001 23.4649 92.4654 24.8176 91.1127C26.1703 89.76 28.005 89 29.918 89V108.016Z" fill="black"/>
<path d="M15 108.016C15 112 18.0655 114.41 22.0492 114.41C24.2944 114.41 25.8776 113.86 27.459 112.279C28.9344 110.803 29.0984 109.656 29.918 108.016C29.918 105.933 29.3629 104.907 27.9508 103.59C26.6624 102.389 23.9498 101.459 22.0492 101.459C18.0655 101.459 15 104.033 15 108.016Z" fill="black"/>
<path d="M29.918 119V106.705H30.9016C30.9563 107.47 30.9016 109.984 31.5574 112.443C32.203 114.864 34.235 117.743 35.4918 119H29.918Z" fill="black"/>
<path d="M29.918 119V106.705H28.9344C28.8798 107.47 28.9344 109.984 28.2787 112.443C27.6331 114.864 25.6011 117.743 24.3443 119H29.918Z" fill="black"/>
<path d="M328.58 488.46C332.58 488.46 335.58 489.92 337.58 492.84C339.54 495.8 340.52 499.66 340.52 504.42L340.52 520.8C340.52 526.04 339.6 530.22 337.76 533.34C335.92 536.46 332.86 538.02 328.58 538.02C324.82 538.02 321.92 537 319.88 534.96C317.84 532.92 316.78 530 316.7 526.2L316.64 525.48L323.12 525.48C323.12 527.96 323.52 529.78 324.32 530.94C325.12 532.14 326.54 532.74 328.58 532.74C332.26 532.74 334.1 529.28 334.1 522.36L334.1 514.98C333.46 516.02 332.54 516.84 331.34 517.44C330.1 518.04 328.66 518.34 327.02 518.34C323.22 518.34 320.52 517.12 318.92 514.68C317.32 512.28 316.52 508.82 316.52 504.3C316.52 499.54 317.5 495.7 319.46 492.78C321.42 489.9 324.46 488.46 328.58 488.46ZM328.58 493.8C326.58 493.8 325.16 494.62 324.32 496.26C323.44 497.9 323 500.06 323 502.74C323 505.18 323.1 507.12 323.3 508.56C323.5 510 324 511.18 324.8 512.1C325.6 513.02 326.86 513.48 328.58 513.48C329.82 513.48 330.92 513.16 331.88 512.52C332.8 511.88 333.54 511.1 334.1 510.18L334.1 502.92C334.1 500.16 333.68 497.94 332.84 496.26C331.96 494.62 330.54 493.8 328.58 493.8Z" fill="black"/>
<path d="M329.082 452.984C327.169 452.984 325.334 458.334 323.982 459.686C322.629 461.039 321.869 462.874 321.869 464.787C321.869 466.7 322.629 468.535 323.982 469.887C325.334 471.24 327.169 472 329.082 472L329.082 452.984Z" fill="black"/>
<path d="M314 452.984C314 449 317.229 446.59 321.213 446.59C323.458 446.59 325.148 447.41 326.623 448.721C328.098 450.033 328.262 451.344 329.082 452.984C329.082 455.067 328.363 456.093 326.951 457.41C325.662 458.611 323.114 459.541 321.213 459.541C317.229 459.541 314 456.967 314 452.984Z" fill="black"/>
<path d="M329.082 452.984C330.995 452.984 332.83 458.334 334.182 459.686C335.535 461.039 336.295 462.874 336.295 464.787C336.295 466.7 335.535 468.535 334.182 469.887C332.83 471.24 330.995 472 329.082 472L329.082 452.984Z" fill="black"/>
<path d="M344 452.984C344 449 340.935 446.59 336.951 446.59C334.706 446.59 333.122 447.14 331.541 448.721C330.066 450.197 329.902 451.344 329.082 452.984C329.082 455.067 329.637 456.093 331.049 457.41C332.338 458.611 335.05 459.541 336.951 459.541C340.935 459.541 344 456.967 344 452.984Z" fill="black"/>
<path d="M329.082 442L329.082 454.295L328.098 454.295C328.044 453.53 328.098 451.016 327.443 448.557C326.797 446.136 324.765 443.257 323.508 442L329.082 442Z" fill="black"/>
<path d="M329.082 442L329.082 454.295L330.066 454.295C330.12 453.53 330.066 451.016 330.721 448.557C331.367 446.136 333.399 443.257 334.656 442L329.082 442Z" fill="black"/>
</g>
<defs>
<clipPath id="clip0">
<rect width="360" height="560.121" fill="white"/>
</clipPath>
</defs>
</svg>
