<svg width="360" height="561" viewBox="0 0 360 561" fill="none" xmlns="http://www.w3.org/2000/svg">
<g clip-path="url(#clip0)">
<rect width="360" height="560.121" fill="white"/>
<path d="M105 119H135C130.543 112.989 125.217 106.295 118.696 95.6393C113.544 87.2229 107.5 75.0109 105 69V119Z" fill="#FF3434"/>
<path d="M105 119H75C79.4565 112.989 84.7826 106.295 91.3043 95.6393C96.4556 87.2229 102.5 75.0109 105 69V119Z" fill="#FF3434"/>
<path d="M105 119H75C79.4565 125.011 84.7826 131.705 91.3043 142.361C96.4556 150.777 102.5 162.989 105 169V119Z" fill="#FF3434"/>
<path d="M105 119H135C130.543 125.011 125.217 131.705 118.696 142.361C113.544 150.777 107.5 162.989 105 169V119Z" fill="#FF3434"/>
<path d="M105 441H75C79.4565 447.011 84.7826 453.705 91.3043 464.361C96.4556 472.777 102.5 484.989 105 491V441Z" fill="#FF3434"/>
<path d="M105 441H135C130.543 447.011 125.217 453.705 118.696 464.361C113.544 472.777 107.5 484.989 105 491V441Z" fill="#FF3434"/>
<path d="M105 441H135C130.543 434.989 125.217 428.295 118.696 417.639C113.544 409.223 107.5 397.011 105 391L105 441Z" fill="#FF3434"/>
<path d="M105 441H75C79.4565 434.989 84.7826 428.295 91.3043 417.639C96.4556 409.223 102.5 397.011 105 391L105 441Z" fill="#FF3434"/>
<path d="M255 119H285C280.543 112.989 275.217 106.295 268.696 95.6393C263.544 87.2229 257.5 75.0109 255 69V119Z" fill="#FF3434"/>
<path d="M255 119H225C229.457 112.989 234.783 106.295 241.304 95.6393C246.456 87.2229 252.5 75.0109 255 69V119Z" fill="#FF3434"/>
<path d="M255 119H225C229.457 125.011 234.783 131.705 241.304 142.361C246.456 150.777 252.5 162.989 255 169V119Z" fill="#FF3434"/>
<path d="M255 119H285C280.543 125.011 275.217 131.705 268.696 142.361C263.544 150.777 257.5 162.989 255 169V119Z" fill="#FF3434"/>
<path d="M105 284H135C130.543 277.989 125.217 271.295 118.696 260.639C113.544 252.223 107.5 240.011 105 234V284Z" fill="#FF3434"/>
<path d="M105 284H75C79.4565 277.989 84.7826 271.295 91.3043 260.639C96.4556 252.223 102.5 240.011 105 234V284Z" fill="#FF3434"/>
<path d="M105 284H75C79.4565 290.011 84.7826 296.705 91.3043 307.361C96.4556 315.777 102.5 327.989 105 334V284Z" fill="#FF3434"/>
<path d="M105 284H135C130.543 290.011 125.217 296.705 118.696 307.361C113.544 315.777 107.5 327.989 105 334V284Z" fill="#FF3434"/>
<path d="M255 284H285C280.543 277.989 275.217 271.295 268.696 260.639C263.544 252.223 257.5 240.011 255 234V284Z" fill="#FF3434"/>
<path d="M255 284H225C229.457 277.989 234.783 271.295 241.304 260.639C246.456 252.223 252.5 240.011 255 234V284Z" fill="#FF3434"/>
<path d="M255 284H225C229.457 290.011 234.783 296.705 241.304 307.361C246.456 315.777 252.5 327.989 255 334V284Z" fill="#FF3434"/>
<path d="M255 284H285C280.543 290.011 275.217 296.705 268.696 307.361C263.544 315.777 257.5 327.989 255 334V284Z" fill="#FF3434"/>
<path d="M255 441H225C229.457 447.011 234.783 453.705 241.304 464.361C246.456 472.777 252.5 484.989 255 491V441Z" fill="#FF3434"/>
<path d="M255 441H285C280.543 447.011 275.217 453.705 268.696 464.361C263.544 472.777 257.5 484.989 255 491V441Z" fill="#FF3434"/>
<path d="M255 441H285C280.543 434.989 275.217 428.295 268.696 417.639C263.544 409.223 257.5 397.011 255 391V441Z" fill="#FF3434"/>
<path d="M255 441H225C229.457 434.989 234.783 428.295 241.304 417.639C246.456 409.223 252.5 397.011 255 391V441Z" fill="#FF3434"/>
<path d="M31.42 72.54C27.42 72.54 24.42 71.08 22.42 68.16C20.46 65.2 19.48 61.34 19.48 56.58V40.2C19.48 34.96 20.4 30.78 22.24 27.66C24.08 24.54 27.14 22.98 31.42 22.98C35.18 22.98 38.08 24 40.12 26.04C42.16 28.08 43.22 31 43.3 34.8L43.36 35.52H36.88C36.88 33.04 36.48 31.22 35.68 30.06C34.88 28.86 33.46 28.26 31.42 28.26C27.74 28.26 25.9 31.72 25.9 38.64V46.02C26.54 44.98 27.46 44.16 28.66 43.56C29.9 42.96 31.34 42.66 32.98 42.66C36.78 42.66 39.48 43.88 41.08 46.32C42.68 48.72 43.48 52.18 43.48 56.7C43.48 61.46 42.5 65.3 40.54 68.22C38.58 71.1 35.54 72.54 31.42 72.54ZM31.42 67.2C33.42 67.2 34.84 66.38 35.68 64.74C36.56 63.1 37 60.94 37 58.26C37 55.82 36.9 53.88 36.7 52.44C36.5 51 36 49.82 35.2 48.9C34.4 47.98 33.14 47.52 31.42 47.52C30.18 47.52 29.08 47.84 28.12 48.48C27.2 49.12 26.46 49.9 25.9 50.82V58.08C25.9 60.84 26.32 63.06 27.16 64.74C28.04 66.38 29.46 67.2 31.42 67.2Z" fill="#FF3434"/>
<path d="M31.5 109.608H44C42.1431 107.131 39.9239 104.372 37.2065 99.9797C35.0602 96.5108 32.5417 91.4775 31.5 89V109.608Z" fill="#FF3434"/>
<path d="M31.5 109.608H19C20.8569 107.131 23.0761 104.372 25.7935 99.9797C27.9398 96.5108 30.4583 91.4775 31.5 89V109.608Z" fill="#FF3434"/>
<path d="M31.5 109.608H19C20.8569 112.086 23.0761 114.845 25.7935 119.236C27.9398 122.705 30.4583 127.739 31.5 130.216V109.608Z" fill="#FF3434"/>
<path d="M31.5 109.608H44C42.1431 112.086 39.9239 114.845 37.2065 119.236C35.0602 122.705 32.5417 127.739 31.5 130.216V109.608Z" fill="#FF3434"/>
<path d="M327.58 488.46C331.58 488.46 334.58 489.92 336.58 492.84C338.54 495.8 339.52 499.66 339.52 504.42L339.52 520.8C339.52 526.04 338.6 530.22 336.76 533.34C334.92 536.46 331.86 538.02 327.58 538.02C323.82 538.02 320.92 537 318.88 534.96C316.84 532.92 315.78 530 315.7 526.2L315.64 525.48L322.12 525.48C322.12 527.96 322.52 529.78 323.32 530.94C324.12 532.14 325.54 532.74 327.58 532.74C331.26 532.74 333.1 529.28 333.1 522.36L333.1 514.98C332.46 516.02 331.54 516.84 330.34 517.44C329.1 518.04 327.66 518.34 326.02 518.34C322.22 518.34 319.52 517.12 317.92 514.68C316.32 512.28 315.52 508.82 315.52 504.3C315.52 499.54 316.5 495.7 318.46 492.78C320.42 489.9 323.46 488.46 327.58 488.46ZM327.58 493.8C325.58 493.8 324.16 494.62 323.32 496.26C322.44 497.9 322 500.06 322 502.74C322 505.18 322.1 507.12 322.3 508.56C322.5 510 323 511.18 323.8 512.1C324.6 513.02 325.86 513.48 327.58 513.48C328.82 513.48 329.92 513.16 330.88 512.52C331.8 511.88 332.54 511.1 333.1 510.18L333.1 502.92C333.1 500.16 332.68 497.94 331.84 496.26C330.96 494.62 329.54 493.8 327.58 493.8Z" fill="#FF3434"/>
<path d="M328.5 451.608H341C339.143 449.131 336.924 446.372 334.207 441.98C332.06 438.511 329.542 433.477 328.5 431V451.608Z" fill="#FF3434"/>
<path d="M328.5 451.608H316C317.857 449.131 320.076 446.372 322.793 441.98C324.94 438.511 327.458 433.477 328.5 431V451.608Z" fill="#FF3434"/>
<path d="M328.5 451.608H316C317.857 454.086 320.076 456.845 322.793 461.236C324.94 464.705 327.458 469.739 328.5 472.216V451.608Z" fill="#FF3434"/>
<path d="M328.5 451.608H341C339.143 454.086 336.924 456.845 334.207 461.236C332.06 464.705 329.542 469.739 328.5 472.216V451.608Z" fill="#FF3434"/>
</g>
<defs>
<clipPath id="clip0">
<rect width="360" height="560.121" fill="white"/>
</clipPath>
</defs>
</svg>
