<svg width="360" height="561" viewBox="0 0 360 561" fill="none" xmlns="http://www.w3.org/2000/svg">
<g clip-path="url(#clip0)">
<rect width="360" height="560.121" fill="white"/>
<path d="M105 119H135C130.543 112.989 125.217 106.295 118.696 95.6393C113.544 87.2229 107.5 75.0109 105 69V119Z" fill="#FF3434"/>
<path d="M105 119H75C79.4565 112.989 84.7826 106.295 91.3043 95.6393C96.4556 87.2229 102.5 75.0109 105 69V119Z" fill="#FF3434"/>
<path d="M105 119H75C79.4565 125.011 84.7826 131.705 91.3043 142.361C96.4556 150.777 102.5 162.989 105 169V119Z" fill="#FF3434"/>
<path d="M105 119H135C130.543 125.011 125.217 131.705 118.696 142.361C113.544 150.777 107.5 162.989 105 169V119Z" fill="#FF3434"/>
<path d="M105 441H75C79.4565 447.011 84.7826 453.705 91.3043 464.361C96.4556 472.777 102.5 484.989 105 491V441Z" fill="#FF3434"/>
<path d="M105 441H135C130.543 447.011 125.217 453.705 118.696 464.361C113.544 472.777 107.5 484.989 105 491V441Z" fill="#FF3434"/>
<path d="M105 441H135C130.543 434.989 125.217 428.295 118.696 417.639C113.544 409.223 107.5 397.011 105 391L105 441Z" fill="#FF3434"/>
<path d="M105 441H75C79.4565 434.989 84.7826 428.295 91.3043 417.639C96.4556 409.223 102.5 397.011 105 391L105 441Z" fill="#FF3434"/>
<path d="M255 119H285C280.543 112.989 275.217 106.295 268.696 95.6393C263.544 87.2229 257.5 75.0109 255 69V119Z" fill="#FF3434"/>
<path d="M255 119H225C229.457 112.989 234.783 106.295 241.304 95.6393C246.456 87.2229 252.5 75.0109 255 69V119Z" fill="#FF3434"/>
<path d="M255 119H225C229.457 125.011 234.783 131.705 241.304 142.361C246.456 150.777 252.5 162.989 255 169V119Z" fill="#FF3434"/>
<path d="M255 119H285C280.543 125.011 275.217 131.705 268.696 142.361C263.544 150.777 257.5 162.989 255 169V119Z" fill="#FF3434"/>
<path d="M105 284H135C130.543 277.989 125.217 271.295 118.696 260.639C113.544 252.223 107.5 240.011 105 234V284Z" fill="#FF3434"/>
<path d="M105 284H75C79.4565 277.989 84.7826 271.295 91.3043 260.639C96.4556 252.223 102.5 240.011 105 234V284Z" fill="#FF3434"/>
<path d="M105 284H75C79.4565 290.011 84.7826 296.705 91.3043 307.361C96.4556 315.777 102.5 327.989 105 334V284Z" fill="#FF3434"/>
<path d="M105 284H135C130.543 290.011 125.217 296.705 118.696 307.361C113.544 315.777 107.5 327.989 105 334V284Z" fill="#FF3434"/>
<path d="M255 284H285C280.543 277.989 275.217 271.295 268.696 260.639C263.544 252.223 257.5 240.011 255 234V284Z" fill="#FF3434"/>
<path d="M255 284H225C229.457 277.989 234.783 271.295 241.304 260.639C246.456 252.223 252.5 240.011 255 234V284Z" fill="#FF3434"/>
<path d="M255 284H225C229.457 290.011 234.783 296.705 241.304 307.361C246.456 315.777 252.5 327.989 255 334V284Z" fill="#FF3434"/>
<path d="M255 284H285C280.543 290.011 275.217 296.705 268.696 307.361C263.544 315.777 257.5 327.989 255 334V284Z" fill="#FF3434"/>
<path d="M255 441H225C229.457 447.011 234.783 453.705 241.304 464.361C246.456 472.777 252.5 484.989 255 491V441Z" fill="#FF3434"/>
<path d="M255 441H285C280.543 447.011 275.217 453.705 268.696 464.361C263.544 472.777 257.5 484.989 255 491V441Z" fill="#FF3434"/>
<path d="M255 441H285C280.543 434.989 275.217 428.295 268.696 417.639C263.544 409.223 257.5 397.011 255 391V441Z" fill="#FF3434"/>
<path d="M255 441H225C229.457 434.989 234.783 428.295 241.304 417.639C246.456 409.223 252.5 397.011 255 391V441Z" fill="#FF3434"/>
<path d="M180 201H210C205.543 194.989 200.217 188.295 193.696 177.639C188.544 169.223 182.5 157.011 180 151V201Z" fill="#FF3434"/>
<path d="M180 201H150C154.457 194.989 159.783 188.295 166.304 177.639C171.456 169.223 177.5 157.011 180 151V201Z" fill="#FF3434"/>
<path d="M180 201H150C154.457 207.011 159.783 213.705 166.304 224.361C171.456 232.777 177.5 244.989 180 251V201Z" fill="#FF3434"/>
<path d="M180 201H210C205.543 207.011 200.217 213.705 193.696 224.361C188.544 232.777 182.5 244.989 180 251V201Z" fill="#FF3434"/>
<path d="M180 363H150C154.457 369.011 159.783 375.705 166.304 386.361C171.456 394.777 177.5 406.989 180 413V363Z" fill="#FF3434"/>
<path d="M180 363H210C205.543 369.011 200.217 375.705 193.696 386.361C188.544 394.777 182.5 406.989 180 413V363Z" fill="#FF3434"/>
<path d="M180 363H210C205.543 356.989 200.217 350.295 193.696 339.639C188.544 331.223 182.5 319.011 180 313V363Z" fill="#FF3434"/>
<path d="M180 363H150C154.457 356.989 159.783 350.295 166.304 339.639C171.456 331.223 177.5 319.011 180 313V363Z" fill="#FF3434"/>
<path d="M31 72.54C26.76 72.54 23.7 71.32 21.82 68.88C19.94 66.44 19 62.92 19 58.32C19 55.24 19.5 52.78 20.5 50.94C21.54 49.1 23.04 47.58 25 46.38C21.4 43.98 19.6 40.36 19.6 35.52C19.6 31.56 20.54 28.48 22.42 26.28C24.3 24.08 27.16 22.98 31 22.98C34.8 22.98 37.62 24.08 39.46 26.28C41.34 28.48 42.28 31.56 42.28 35.52C42.28 38.12 41.82 40.3 40.9 42.06C39.98 43.78 38.64 45.22 36.88 46.38C38.84 47.62 40.34 49.16 41.38 51C42.42 52.84 42.94 55.28 42.94 58.32C42.94 62.88 42 66.4 40.12 68.88C38.24 71.32 35.2 72.54 31 72.54ZM31 43.44C34.32 43.4 35.98 40.64 35.98 35.16C35.98 33 35.58 31.26 34.78 29.94C34.02 28.62 32.76 27.96 31 27.96C29.24 27.96 27.94 28.62 27.1 29.94C26.3 31.26 25.9 33 25.9 35.16C25.9 37.56 26.28 39.54 27.04 41.1C27.8 42.62 29.12 43.4 31 43.44ZM31 67.44C33.16 67.44 34.66 66.66 35.5 65.1C36.34 63.5 36.76 61.28 36.76 58.44C36.76 55.84 36.3 53.72 35.38 52.08C34.5 50.44 33.04 49.6 31 49.56C28.92 49.6 27.42 50.44 26.5 52.08C25.58 53.72 25.12 55.84 25.12 58.44C25.12 61.28 25.54 63.5 26.38 65.1C27.26 66.66 28.8 67.44 31 67.44Z" fill="#FF3434"/>
<path d="M31.5 109.608H44C42.1431 107.131 39.9239 104.372 37.2065 99.9797C35.0602 96.5108 32.5417 91.4775 31.5 89V109.608Z" fill="#FF3434"/>
<path d="M31.5 109.608H19C20.8569 107.131 23.0761 104.372 25.7935 99.9797C27.9398 96.5108 30.4583 91.4775 31.5 89V109.608Z" fill="#FF3434"/>
<path d="M31.5 109.608H19C20.8569 112.086 23.0761 114.845 25.7935 119.236C27.9398 122.705 30.4583 127.739 31.5 130.216V109.608Z" fill="#FF3434"/>
<path d="M31.5 109.608H44C42.1431 112.086 39.9239 114.845 37.2065 119.236C35.0602 122.705 32.5417 127.739 31.5 130.216V109.608Z" fill="#FF3434"/>
<path d="M328 488.46C332.24 488.46 335.3 489.68 337.18 492.12C339.06 494.56 340 498.08 340 502.68C340 505.76 339.5 508.22 338.5 510.06C337.46 511.9 335.96 513.42 334 514.62C337.6 517.02 339.4 520.64 339.4 525.48C339.4 529.44 338.46 532.52 336.58 534.72C334.7 536.92 331.84 538.02 328 538.02C324.2 538.02 321.38 536.92 319.54 534.72C317.66 532.52 316.72 529.44 316.72 525.48C316.72 522.88 317.18 520.7 318.1 518.94C319.02 517.22 320.36 515.78 322.12 514.62C320.16 513.38 318.66 511.84 317.62 510C316.58 508.16 316.06 505.72 316.06 502.68C316.06 498.12 317 494.6 318.88 492.12C320.76 489.68 323.8 488.46 328 488.46ZM328 517.56C324.68 517.6 323.02 520.36 323.02 525.84C323.02 528 323.42 529.74 324.22 531.06C324.98 532.38 326.24 533.04 328 533.04C329.76 533.04 331.06 532.38 331.9 531.06C332.7 529.74 333.1 528 333.1 525.84C333.1 523.44 332.72 521.46 331.96 519.9C331.2 518.38 329.88 517.6 328 517.56ZM328 493.56C325.84 493.56 324.34 494.34 323.5 495.9C322.66 497.5 322.24 499.72 322.24 502.56C322.24 505.16 322.7 507.28 323.62 508.92C324.5 510.56 325.96 511.4 328 511.44C330.08 511.4 331.58 510.56 332.5 508.92C333.42 507.28 333.88 505.16 333.88 502.56C333.88 499.72 333.46 497.5 332.62 495.9C331.74 494.34 330.2 493.56 328 493.56Z" fill="#FF3434"/>
<path d="M328.5 451.608H341C339.143 449.131 336.924 446.372 334.207 441.98C332.06 438.511 329.542 433.477 328.5 431V451.608Z" fill="#FF3434"/>
<path d="M328.5 451.608H316C317.857 449.131 320.076 446.372 322.793 441.98C324.94 438.511 327.458 433.477 328.5 431V451.608Z" fill="#FF3434"/>
<path d="M328.5 451.608H316C317.857 454.086 320.076 456.845 322.793 461.236C324.94 464.705 327.458 469.739 328.5 472.216V451.608Z" fill="#FF3434"/>
<path d="M328.5 451.608H341C339.143 454.086 336.924 456.845 334.207 461.236C332.06 464.705 329.542 469.739 328.5 472.216V451.608Z" fill="#FF3434"/>
</g>
<defs>
<clipPath id="clip0">
<rect width="360" height="560.121" fill="white"/>
</clipPath>
</defs>
</svg>
