<svg width="360" height="561" viewBox="0 0 360 561" fill="none" xmlns="http://www.w3.org/2000/svg">
<g clip-path="url(#clip0)">
<rect width="360" height="560.121" fill="white"/>
<path d="M253 72H283C278.543 65.9891 273.217 59.2951 266.696 48.6393C261.544 40.2229 255.5 28.0109 253 22V72Z" fill="#FF3434"/>
<path d="M253 72H223C227.457 65.9891 232.783 59.2951 239.304 48.6393C244.456 40.2229 250.5 28.0109 253 22V72Z" fill="#FF3434"/>
<path d="M253 72H223C227.457 78.0109 232.783 84.7049 239.304 95.3607C244.456 103.777 250.5 115.989 253 122V72Z" fill="#FF3434"/>
<path d="M253 72H283C278.543 78.0109 273.217 84.7049 266.696 95.3607C261.544 103.777 255.5 115.989 253 122V72Z" fill="#FF3434"/>
<path d="M253 213H283C278.543 206.989 273.217 200.295 266.696 189.639C261.544 181.223 255.5 169.011 253 163V213Z" fill="#FF3434"/>
<path d="M253 213H223C227.457 206.989 232.783 200.295 239.304 189.639C244.456 181.223 250.5 169.011 253 163V213Z" fill="#FF3434"/>
<path d="M253 213H223C227.457 219.011 232.783 225.705 239.304 236.361C244.456 244.777 250.5 256.989 253 263V213Z" fill="#FF3434"/>
<path d="M253 213H283C278.543 219.011 273.217 225.705 266.696 236.361C261.544 244.777 255.5 256.989 253 263V213Z" fill="#FF3434"/>
<path d="M253 346H223C227.457 352.011 232.783 358.705 239.304 369.361C244.456 377.777 250.5 389.989 253 396V346Z" fill="#FF3434"/>
<path d="M253 346H283C278.543 352.011 273.217 358.705 266.696 369.361C261.544 377.777 255.5 389.989 253 396V346Z" fill="#FF3434"/>
<path d="M253 346H283C278.543 339.989 273.217 333.295 266.696 322.639C261.544 314.223 255.5 302.011 253 296V346Z" fill="#FF3434"/>
<path d="M253 346H223C227.457 339.989 232.783 333.295 239.304 322.639C244.456 314.223 250.5 302.011 253 296V346Z" fill="#FF3434"/>
<path d="M253 487H223C227.457 493.011 232.783 499.705 239.304 510.361C244.456 518.777 250.5 530.989 253 537V487Z" fill="#FF3434"/>
<path d="M253 487H283C278.543 493.011 273.217 499.705 266.696 510.361C261.544 518.777 255.5 530.989 253 537V487Z" fill="#FF3434"/>
<path d="M253 487H283C278.543 480.989 273.217 474.295 266.696 463.639C261.544 455.223 255.5 443.011 253 437V487Z" fill="#FF3434"/>
<path d="M253 487H223C227.457 480.989 232.783 474.295 239.304 463.639C244.456 455.223 250.5 443.011 253 437V487Z" fill="#FF3434"/>
<path d="M180 284H210C205.543 277.989 200.217 271.295 193.696 260.639C188.544 252.223 182.5 240.011 180 234V284Z" fill="#FF3434"/>
<path d="M180 284H150C154.457 277.989 159.783 271.295 166.304 260.639C171.456 252.223 177.5 240.011 180 234V284Z" fill="#FF3434"/>
<path d="M180 284H150C154.457 290.011 159.783 296.705 166.304 307.361C171.456 315.777 177.5 327.989 180 334V284Z" fill="#FF3434"/>
<path d="M180 284H210C205.543 290.011 200.217 296.705 193.696 307.361C188.544 315.777 182.5 327.989 180 334V284Z" fill="#FF3434"/>
<path d="M107 73H137C132.543 66.9891 127.217 60.2951 120.696 49.6393C115.544 41.2229 109.5 29.0109 107 23V73Z" fill="#FF3434"/>
<path d="M107 73H77C81.4565 66.9891 86.7826 60.2951 93.3043 49.6393C98.4556 41.2229 104.5 29.0109 107 23V73Z" fill="#FF3434"/>
<path d="M107 73H77C81.4565 79.0109 86.7826 85.7049 93.3043 96.3607C98.4556 104.777 104.5 116.989 107 123V73Z" fill="#FF3434"/>
<path d="M107 73H137C132.543 79.0109 127.217 85.7049 120.696 96.3607C115.544 104.777 109.5 116.989 107 123V73Z" fill="#FF3434"/>
<path d="M107 214H137C132.543 207.989 127.217 201.295 120.696 190.639C115.544 182.223 109.5 170.011 107 164V214Z" fill="#FF3434"/>
<path d="M107 214H77C81.4565 207.989 86.7826 201.295 93.3043 190.639C98.4556 182.223 104.5 170.011 107 164V214Z" fill="#FF3434"/>
<path d="M107 214H77C81.4565 220.011 86.7826 226.705 93.3043 237.361C98.4556 245.777 104.5 257.989 107 264V214Z" fill="#FF3434"/>
<path d="M107 214H137C132.543 220.011 127.217 226.705 120.696 237.361C115.544 245.777 109.5 257.989 107 264V214Z" fill="#FF3434"/>
<path d="M107 347H77C81.4565 353.011 86.7826 359.705 93.3043 370.361C98.4556 378.777 104.5 390.989 107 397V347Z" fill="#FF3434"/>
<path d="M107 347H137C132.543 353.011 127.217 359.705 120.696 370.361C115.544 378.777 109.5 390.989 107 397V347Z" fill="#FF3434"/>
<path d="M107 347H137C132.543 340.989 127.217 334.295 120.696 323.639C115.544 315.223 109.5 303.011 107 297L107 347Z" fill="#FF3434"/>
<path d="M107 347H77C81.4565 340.989 86.7826 334.295 93.3043 323.639C98.4556 315.223 104.5 303.011 107 297L107 347Z" fill="#FF3434"/>
<path d="M107 488H77C81.4565 494.011 86.7826 500.705 93.3043 511.361C98.4556 519.777 104.5 531.989 107 538V488Z" fill="#FF3434"/>
<path d="M107 488H137C132.543 494.011 127.217 500.705 120.696 511.361C115.544 519.777 109.5 531.989 107 538V488Z" fill="#FF3434"/>
<path d="M107 488H137C132.543 481.989 127.217 475.295 120.696 464.639C115.544 456.223 109.5 444.011 107 438L107 488Z" fill="#FF3434"/>
<path d="M107 488H77C81.4565 481.989 86.7826 475.295 93.3043 464.639C98.4556 456.223 104.5 444.011 107 438L107 488Z" fill="#FF3434"/>
<path d="M30.7 72.54C26.9 72.54 23.98 71.5 21.94 69.42C19.9 67.34 18.84 64.36 18.76 60.48V59.94H25.18C25.18 62.42 25.58 64.26 26.38 65.46C27.22 66.62 28.68 67.2 30.76 67.2C34.36 67.2 36.16 63.74 36.16 56.82V49.44C35.52 50.48 34.6 51.3 33.4 51.9C32.24 52.5 30.8 52.8 29.08 52.8C25.28 52.8 22.58 51.6 20.98 49.2C19.42 46.76 18.64 43.28 18.64 38.76C18.64 34 19.62 30.18 21.58 27.3C23.54 24.42 26.58 22.98 30.7 22.98C34.7 22.98 37.68 24.46 39.64 27.42C41.64 30.34 42.64 34.16 42.64 38.88V55.2C42.64 60.44 41.72 64.64 39.88 67.8C38.04 70.96 34.98 72.54 30.7 72.54ZM30.7 47.94C33.06 47.94 34.88 46.82 36.16 44.58V37.38C36.16 31.3 34.34 28.26 30.7 28.26C28.7 28.26 27.26 29.1 26.38 30.78C25.54 32.42 25.12 34.56 25.12 37.2C25.12 39.64 25.22 41.58 25.42 43.02C25.62 44.46 26.12 45.64 26.92 46.56C27.72 47.48 28.98 47.94 30.7 47.94Z" fill="#FF3434"/>
<path d="M31.5 109.608H44C42.1431 107.131 39.9239 104.372 37.2065 99.9797C35.0602 96.5108 32.5417 91.4775 31.5 89V109.608Z" fill="#FF3434"/>
<path d="M31.5 109.608H19C20.8569 107.131 23.0761 104.372 25.7935 99.9797C27.9398 96.5108 30.4583 91.4775 31.5 89V109.608Z" fill="#FF3434"/>
<path d="M31.5 109.608H19C20.8569 112.086 23.0761 114.845 25.7935 119.236C27.9398 122.705 30.4583 127.739 31.5 130.216V109.608Z" fill="#FF3434"/>
<path d="M31.5 109.608H44C42.1431 112.086 39.9239 114.845 37.2065 119.236C35.0602 122.705 32.5417 127.739 31.5 130.216V109.608Z" fill="#FF3434"/>
<path d="M328.3 488.46C332.1 488.46 335.02 489.5 337.06 491.58C339.1 493.66 340.16 496.64 340.24 500.52L340.24 501.06L333.82 501.06C333.82 498.58 333.42 496.74 332.62 495.54C331.78 494.38 330.32 493.8 328.24 493.8C324.64 493.8 322.84 497.26 322.84 504.18L322.84 511.56C323.48 510.52 324.4 509.7 325.6 509.1C326.76 508.5 328.2 508.2 329.92 508.2C333.72 508.2 336.42 509.4 338.02 511.8C339.58 514.24 340.36 517.72 340.36 522.24C340.36 527 339.38 530.82 337.42 533.7C335.46 536.58 332.42 538.02 328.3 538.02C324.3 538.02 321.32 536.54 319.36 533.58C317.36 530.66 316.36 526.84 316.36 522.12L316.36 505.8C316.36 500.56 317.28 496.36 319.12 493.2C320.96 490.04 324.02 488.46 328.3 488.46ZM328.3 513.06C325.94 513.06 324.12 514.18 322.84 516.42L322.84 523.62C322.84 529.7 324.66 532.74 328.3 532.74C330.3 532.74 331.74 531.9 332.62 530.22C333.46 528.58 333.88 526.44 333.88 523.8C333.88 521.36 333.78 519.42 333.58 517.98C333.38 516.54 332.88 515.36 332.08 514.44C331.28 513.52 330.02 513.06 328.3 513.06Z" fill="#FF3434"/>
<path d="M328.5 451.608H341C339.143 449.131 336.924 446.372 334.207 441.98C332.06 438.511 329.542 433.477 328.5 431V451.608Z" fill="#FF3434"/>
<path d="M328.5 451.608H316C317.857 449.131 320.076 446.372 322.793 441.98C324.94 438.511 327.458 433.477 328.5 431V451.608Z" fill="#FF3434"/>
<path d="M328.5 451.608H316C317.857 454.086 320.076 456.845 322.793 461.236C324.94 464.705 327.458 469.739 328.5 472.216V451.608Z" fill="#FF3434"/>
<path d="M328.5 451.608H341C339.143 454.086 336.924 456.845 334.207 461.236C332.06 464.705 329.542 469.739 328.5 472.216V451.608Z" fill="#FF3434"/>
</g>
<defs>
<clipPath id="clip0">
<rect width="360" height="560.121" fill="white"/>
</clipPath>
</defs>
</svg>
