<svg width="360" height="561" viewBox="0 0 360 561" fill="none" xmlns="http://www.w3.org/2000/svg">
<g clip-path="url(#clip0)">
<rect width="360" height="560.121" fill="white"/>
<path d="M296 47.5593C296 54.1849 293.855 60.2217 290.336 64.7627C289.852 65.3877 289.341 65.9843 288.807 66.5502C284.952 70.6332 279.848 73.1186 274.25 73.1186C262.238 73.1186 252.5 61.6753 252.5 47.5593C252.5 33.4433 262.238 22 274.25 22C286.262 22 296 33.4433 296 47.5593Z" fill="#FF3434"/>
<path d="M274.25 73.1186C262.238 73.1186 252.5 61.6753 252.5 47.5593V109L288.807 66.5502C284.952 70.6332 279.848 73.1186 274.25 73.1186Z" fill="#FF3434"/>
<path d="M209 47.5593C209 54.1849 211.145 60.2217 214.664 64.7627C215.148 65.3877 215.659 65.9843 216.193 66.5502C220.048 70.6332 225.152 73.1186 230.75 73.1186C242.762 73.1186 252.5 61.6753 252.5 47.5593C252.5 33.4433 242.762 22 230.75 22C218.738 22 209 33.4433 209 47.5593Z" fill="#FF3434"/>
<path d="M230.75 73.1186C242.762 73.1186 252.5 61.6753 252.5 47.5593V109L216.193 66.5502C220.048 70.6332 225.152 73.1186 230.75 73.1186Z" fill="#FF3434"/>
<path d="M296 188.559C296 195.185 293.855 201.222 290.336 205.763C289.852 206.388 289.341 206.984 288.807 207.55C284.952 211.633 279.848 214.119 274.25 214.119C262.238 214.119 252.5 202.675 252.5 188.559C252.5 174.443 262.238 163 274.25 163C286.262 163 296 174.443 296 188.559Z" fill="#FF3434"/>
<path d="M274.25 214.119C262.238 214.119 252.5 202.675 252.5 188.559V250L288.807 207.55C284.952 211.633 279.848 214.119 274.25 214.119Z" fill="#FF3434"/>
<path d="M209 188.559C209 195.185 211.145 201.222 214.664 205.763C215.148 206.388 215.659 206.984 216.193 207.55C220.048 211.633 225.152 214.119 230.75 214.119C242.762 214.119 252.5 202.675 252.5 188.559C252.5 174.443 242.762 163 230.75 163C218.738 163 209 174.443 209 188.559Z" fill="#FF3434"/>
<path d="M230.75 214.119C242.762 214.119 252.5 202.675 252.5 188.559V250L216.193 207.55C220.048 211.633 225.152 214.119 230.75 214.119Z" fill="#FF3434"/>
<path d="M209 370.441C209 363.815 211.145 357.778 214.664 353.237C215.148 352.612 215.659 352.016 216.193 351.45C220.048 347.367 225.152 344.881 230.75 344.881C242.762 344.881 252.5 356.325 252.5 370.441C252.5 384.557 242.762 396 230.75 396C218.738 396 209 384.557 209 370.441Z" fill="#FF3434"/>
<path d="M230.75 344.881C242.762 344.881 252.5 356.325 252.5 370.441V309L216.193 351.45C220.048 347.367 225.152 344.881 230.75 344.881Z" fill="#FF3434"/>
<path d="M296 370.441C296 363.815 293.855 357.778 290.336 353.237C289.852 352.612 289.341 352.016 288.807 351.45C284.952 347.367 279.848 344.881 274.25 344.881C262.238 344.881 252.5 356.325 252.5 370.441C252.5 384.557 262.238 396 274.25 396C286.262 396 296 384.557 296 370.441Z" fill="#FF3434"/>
<path d="M274.25 344.881C262.238 344.881 252.5 356.325 252.5 370.441V309L288.807 351.45C284.952 347.367 279.848 344.881 274.25 344.881Z" fill="#FF3434"/>
<path d="M209 511.441C209 504.815 211.145 498.778 214.664 494.237C215.148 493.612 215.659 493.016 216.193 492.45C220.048 488.367 225.152 485.881 230.75 485.881C242.762 485.881 252.5 497.325 252.5 511.441C252.5 525.557 242.762 537 230.75 537C218.738 537 209 525.557 209 511.441Z" fill="#FF3434"/>
<path d="M230.75 485.881C242.762 485.881 252.5 497.325 252.5 511.441V450L216.193 492.45C220.048 488.367 225.152 485.881 230.75 485.881Z" fill="#FF3434"/>
<path d="M296 511.441C296 504.815 293.855 498.778 290.336 494.237C289.852 493.612 289.341 493.016 288.807 492.45C284.952 488.367 279.848 485.881 274.25 485.881C262.238 485.881 252.5 497.325 252.5 511.441C252.5 525.557 262.238 537 274.25 537C286.262 537 296 525.557 296 511.441Z" fill="#FF3434"/>
<path d="M274.25 485.881C262.238 485.881 252.5 497.325 252.5 511.441V450L288.807 492.45C284.952 488.367 279.848 485.881 274.25 485.881Z" fill="#FF3434"/>
<path d="M223 259.559C223 266.185 220.855 272.222 217.336 276.763C216.852 277.388 216.341 277.984 215.807 278.55C211.952 282.633 206.848 285.119 201.25 285.119C189.238 285.119 179.5 273.675 179.5 259.559C179.5 245.443 189.238 234 201.25 234C213.262 234 223 245.443 223 259.559Z" fill="#FF3434"/>
<path d="M201.25 285.119C189.238 285.119 179.5 273.675 179.5 259.559V321L215.807 278.55C211.952 282.633 206.848 285.119 201.25 285.119Z" fill="#FF3434"/>
<path d="M136 259.559C136 266.185 138.145 272.222 141.664 276.763C142.148 277.388 142.659 277.984 143.193 278.55C147.048 282.633 152.152 285.119 157.75 285.119C169.762 285.119 179.5 273.675 179.5 259.559C179.5 245.443 169.762 234 157.75 234C145.738 234 136 245.443 136 259.559Z" fill="#FF3434"/>
<path d="M157.75 285.119C169.762 285.119 179.5 273.675 179.5 259.559V321L143.193 278.55C147.048 282.633 152.152 285.119 157.75 285.119Z" fill="#FF3434"/>
<path d="M150 48.5593C150 55.1849 147.855 61.2217 144.336 65.7627C143.852 66.3877 143.341 66.9843 142.807 67.5502C138.952 71.6332 133.848 74.1186 128.25 74.1186C116.238 74.1186 106.5 62.6753 106.5 48.5593C106.5 34.4433 116.238 23 128.25 23C140.262 23 150 34.4433 150 48.5593Z" fill="#FF3434"/>
<path d="M128.25 74.1186C116.238 74.1186 106.5 62.6753 106.5 48.5593V110L142.807 67.5502C138.952 71.6332 133.848 74.1186 128.25 74.1186Z" fill="#FF3434"/>
<path d="M63 48.5593C63 55.1849 65.1453 61.2217 68.6641 65.7627C69.1484 66.3877 69.6586 66.9843 70.1929 67.5502C74.0477 71.6332 79.1519 74.1186 84.75 74.1186C96.7622 74.1186 106.5 62.6753 106.5 48.5593C106.5 34.4433 96.7622 23 84.75 23C72.7378 23 63 34.4433 63 48.5593Z" fill="#FF3434"/>
<path d="M84.75 74.1186C96.7622 74.1186 106.5 62.6753 106.5 48.5593V110L70.1929 67.5502C74.0477 71.6332 79.1519 74.1186 84.75 74.1186Z" fill="#FF3434"/>
<path d="M150 189.559C150 196.185 147.855 202.222 144.336 206.763C143.852 207.388 143.341 207.984 142.807 208.55C138.952 212.633 133.848 215.119 128.25 215.119C116.238 215.119 106.5 203.675 106.5 189.559C106.5 175.443 116.238 164 128.25 164C140.262 164 150 175.443 150 189.559Z" fill="#FF3434"/>
<path d="M128.25 215.119C116.238 215.119 106.5 203.675 106.5 189.559V251L142.807 208.55C138.952 212.633 133.848 215.119 128.25 215.119Z" fill="#FF3434"/>
<path d="M63 189.559C63 196.185 65.1453 202.222 68.6641 206.763C69.1484 207.388 69.6586 207.984 70.1929 208.55C74.0477 212.633 79.1519 215.119 84.75 215.119C96.7622 215.119 106.5 203.675 106.5 189.559C106.5 175.443 96.7622 164 84.75 164C72.7378 164 63 175.443 63 189.559Z" fill="#FF3434"/>
<path d="M84.75 215.119C96.7622 215.119 106.5 203.675 106.5 189.559V251L70.1929 208.55C74.0477 212.633 79.1519 215.119 84.75 215.119Z" fill="#FF3434"/>
<path d="M63 371.441C63 364.815 65.1453 358.778 68.6641 354.237C69.1484 353.612 69.6586 353.016 70.1929 352.45C74.0477 348.367 79.1519 345.881 84.75 345.881C96.7622 345.881 106.5 357.325 106.5 371.441C106.5 385.557 96.7622 397 84.75 397C72.7378 397 63 385.557 63 371.441Z" fill="#FF3434"/>
<path d="M84.75 345.881C96.7622 345.881 106.5 357.325 106.5 371.441V310L70.1929 352.45C74.0477 348.367 79.1519 345.881 84.75 345.881Z" fill="#FF3434"/>
<path d="M150 371.441C150 364.815 147.855 358.778 144.336 354.237C143.852 353.612 143.341 353.016 142.807 352.45C138.952 348.367 133.848 345.881 128.25 345.881C116.238 345.881 106.5 357.325 106.5 371.441C106.5 385.557 116.238 397 128.25 397C140.262 397 150 385.557 150 371.441Z" fill="#FF3434"/>
<path d="M128.25 345.881C116.238 345.881 106.5 357.325 106.5 371.441V310L142.807 352.45C138.952 348.367 133.848 345.881 128.25 345.881Z" fill="#FF3434"/>
<path d="M63 512.441C63 505.815 65.1453 499.778 68.6641 495.237C69.1484 494.612 69.6586 494.016 70.1929 493.45C74.0477 489.367 79.1519 486.881 84.75 486.881C96.7622 486.881 106.5 498.325 106.5 512.441C106.5 526.557 96.7622 538 84.75 538C72.7378 538 63 526.557 63 512.441Z" fill="#FF3434"/>
<path d="M84.75 486.881C96.7622 486.881 106.5 498.325 106.5 512.441V451L70.1929 493.45C74.0477 489.367 79.1519 486.881 84.75 486.881Z" fill="#FF3434"/>
<path d="M150 512.441C150 505.815 147.855 499.778 144.336 495.237C143.852 494.612 143.341 494.016 142.807 493.45C138.952 489.367 133.848 486.881 128.25 486.881C116.238 486.881 106.5 498.325 106.5 512.441C106.5 526.557 116.238 538 128.25 538C140.262 538 150 526.557 150 512.441Z" fill="#FF3434"/>
<path d="M128.25 486.881C116.238 486.881 106.5 498.325 106.5 512.441V451L142.807 493.45C138.952 489.367 133.848 486.881 128.25 486.881Z" fill="#FF3434"/>
<path d="M30.7 72.54C26.9 72.54 23.98 71.5 21.94 69.42C19.9 67.34 18.84 64.36 18.76 60.48V59.94H25.18C25.18 62.42 25.58 64.26 26.38 65.46C27.22 66.62 28.68 67.2 30.76 67.2C34.36 67.2 36.16 63.74 36.16 56.82V49.44C35.52 50.48 34.6 51.3 33.4 51.9C32.24 52.5 30.8 52.8 29.08 52.8C25.28 52.8 22.58 51.6 20.98 49.2C19.42 46.76 18.64 43.28 18.64 38.76C18.64 34 19.62 30.18 21.58 27.3C23.54 24.42 26.58 22.98 30.7 22.98C34.7 22.98 37.68 24.46 39.64 27.42C41.64 30.34 42.64 34.16 42.64 38.88V55.2C42.64 60.44 41.72 64.64 39.88 67.8C38.04 70.96 34.98 72.54 30.7 72.54ZM30.7 47.94C33.06 47.94 34.88 46.82 36.16 44.58V37.38C36.16 31.3 34.34 28.26 30.7 28.26C28.7 28.26 27.26 29.1 26.38 30.78C25.54 32.42 25.12 34.56 25.12 37.2C25.12 39.64 25.22 41.58 25.42 43.02C25.62 44.46 26.12 45.64 26.92 46.56C27.72 47.48 28.98 47.94 30.7 47.94Z" fill="#FF3434"/>
<path d="M46 96.9975C46 99.0706 45.2602 100.96 44.0469 102.38C43.8799 102.576 43.7039 102.763 43.5197 102.94C42.1905 104.217 40.4304 104.995 38.5 104.995C34.3579 104.995 31 101.414 31 96.9975C31 92.5806 34.3579 89 38.5 89C42.6421 89 46 92.5806 46 96.9975Z" fill="#FF3434"/>
<path d="M38.5 104.995C34.3579 104.995 31 101.414 31 96.9975V116.222L43.5197 102.94C42.1905 104.217 40.4304 104.995 38.5 104.995Z" fill="#FF3434"/>
<path d="M16 96.9975C16 99.0706 16.7398 100.96 17.9531 102.38C18.1201 102.576 18.2961 102.763 18.4803 102.94C19.8095 104.217 21.5696 104.995 23.5 104.995C27.6421 104.995 31 101.414 31 96.9975C31 92.5806 27.6421 89 23.5 89C19.3579 89 16 92.5806 16 96.9975Z" fill="#FF3434"/>
<path d="M23.5 104.995C27.6421 104.995 31 101.414 31 96.9975V116.222L18.4803 102.94C19.8095 104.217 21.5696 104.995 23.5 104.995Z" fill="#FF3434"/>
<path d="M328.3 488.46C332.1 488.46 335.02 489.5 337.06 491.58C339.1 493.66 340.16 496.64 340.24 500.52L340.24 501.06L333.82 501.06C333.82 498.58 333.42 496.74 332.62 495.54C331.78 494.38 330.32 493.8 328.24 493.8C324.64 493.8 322.84 497.26 322.84 504.18L322.84 511.56C323.48 510.52 324.4 509.7 325.6 509.1C326.76 508.5 328.2 508.2 329.92 508.2C333.72 508.2 336.42 509.4 338.02 511.8C339.58 514.24 340.36 517.72 340.36 522.24C340.36 527 339.38 530.82 337.42 533.7C335.46 536.58 332.42 538.02 328.3 538.02C324.3 538.02 321.32 536.54 319.36 533.58C317.36 530.66 316.36 526.84 316.36 522.12L316.36 505.8C316.36 500.56 317.28 496.36 319.12 493.2C320.96 490.04 324.02 488.46 328.3 488.46ZM328.3 513.06C325.94 513.06 324.12 514.18 322.84 516.42L322.84 523.62C322.84 529.7 324.66 532.74 328.3 532.74C330.3 532.74 331.74 531.9 332.62 530.22C333.46 528.58 333.88 526.44 333.88 523.8C333.88 521.36 333.78 519.42 333.58 517.98C333.38 516.54 332.88 515.36 332.08 514.44C331.28 513.52 330.02 513.06 328.3 513.06Z" fill="#FF3434"/>
<path d="M313 464.225C313 462.152 313.74 460.263 314.953 458.842C315.12 458.646 315.296 458.46 315.48 458.282C316.81 457.005 318.57 456.227 320.5 456.227C324.642 456.227 328 459.808 328 464.225C328 468.642 324.642 472.222 320.5 472.222C316.358 472.222 313 468.642 313 464.225Z" fill="#FF3434"/>
<path d="M320.5 456.227C324.642 456.227 328 459.808 328 464.225V445L315.48 458.282C316.81 457.005 318.57 456.227 320.5 456.227Z" fill="#FF3434"/>
<path d="M343 464.225C343 462.152 342.26 460.263 341.047 458.842C340.88 458.646 340.704 458.46 340.52 458.282C339.19 457.005 337.43 456.227 335.5 456.227C331.358 456.227 328 459.808 328 464.225C328 468.642 331.358 472.222 335.5 472.222C339.642 472.222 343 468.642 343 464.225Z" fill="#FF3434"/>
<path d="M335.5 456.227C331.358 456.227 328 459.808 328 464.225V445L340.52 458.282C339.19 457.005 337.43 456.227 335.5 456.227Z" fill="#FF3434"/>
</g>
<defs>
<clipPath id="clip0">
<rect width="360" height="560.121" fill="white"/>
</clipPath>
</defs>
</svg>
