<svg width="360" height="561" viewBox="0 0 360 561" fill="none" xmlns="http://www.w3.org/2000/svg">
<g clip-path="url(#clip0)">
<rect width="360" height="560.121" fill="white"/>
<path d="M27.46 23.4H34L44.38 72H37.96L35.74 59.76H25.84L23.5 72H17.14L27.46 23.4ZM34.84 54.9L30.76 33L26.74 54.9H34.84Z" fill="black"/>
<path d="M30.918 108.016C32.8311 108.016 34.6658 102.666 36.0185 101.314C37.3712 99.9608 38.1311 98.1262 38.1311 96.2131C38.1311 94.3001 37.3712 92.4654 36.0185 91.1127C34.6658 89.76 32.8311 89 30.918 89V108.016Z" fill="black"/>
<path d="M46 108.016C46 112 42.7706 114.41 38.7869 114.41C36.5417 114.41 34.8525 113.59 33.377 112.279C31.9016 110.967 31.7377 109.656 30.918 108.016C30.918 105.933 31.6371 104.907 33.0492 103.59C34.3376 102.389 36.8862 101.459 38.7869 101.459C42.7706 101.459 46 104.033 46 108.016Z" fill="black"/>
<path d="M30.918 108.016C29.005 108.016 27.1703 102.666 25.8176 101.314C24.4649 99.9608 23.7049 98.1262 23.7049 96.2131C23.7049 94.3001 24.4649 92.4654 25.8176 91.1127C27.1703 89.76 29.005 89 30.918 89V108.016Z" fill="black"/>
<path d="M16 108.016C16 112 19.0655 114.41 23.0492 114.41C25.2944 114.41 26.8776 113.86 28.459 112.279C29.9344 110.803 30.0984 109.656 30.918 108.016C30.918 105.933 30.3629 104.907 28.9508 103.59C27.6624 102.389 24.9498 101.459 23.0492 101.459C19.0655 101.459 16 104.033 16 108.016Z" fill="black"/>
<path d="M30.918 119V106.705H31.9016C31.9563 107.47 31.9016 109.984 32.5574 112.443C33.203 114.864 35.235 117.743 36.4918 119H30.918Z" fill="black"/>
<path d="M30.918 119V106.705H29.9344C29.8798 107.47 29.9344 109.984 29.2787 112.443C28.6331 114.864 26.6011 117.743 25.3443 119H30.918Z" fill="black"/>
<path d="M331.54 537.6L325 537.6L314.62 489L321.04 489L323.26 501.24L333.16 501.24L335.5 489L341.86 489L331.54 537.6ZM324.16 506.1L328.24 528L332.26 506.1L324.16 506.1Z" fill="black"/>
<path d="M328.082 452.984C326.169 452.984 324.334 458.334 322.982 459.686C321.629 461.039 320.869 462.874 320.869 464.787C320.869 466.7 321.629 468.535 322.982 469.887C324.334 471.24 326.169 472 328.082 472L328.082 452.984Z" fill="black"/>
<path d="M313 452.984C313 449 316.229 446.59 320.213 446.59C322.458 446.59 324.148 447.41 325.623 448.721C327.098 450.033 327.262 451.344 328.082 452.984C328.082 455.067 327.363 456.093 325.951 457.41C324.662 458.611 322.114 459.541 320.213 459.541C316.229 459.541 313 456.967 313 452.984Z" fill="black"/>
<path d="M328.082 452.984C329.995 452.984 331.83 458.334 333.182 459.686C334.535 461.039 335.295 462.874 335.295 464.787C335.295 466.7 334.535 468.535 333.182 469.887C331.83 471.24 329.995 472 328.082 472L328.082 452.984Z" fill="black"/>
<path d="M343 452.984C343 449 339.935 446.59 335.951 446.59C333.706 446.59 332.122 447.14 330.541 448.721C329.066 450.197 328.902 451.344 328.082 452.984C328.082 455.067 328.637 456.093 330.049 457.41C331.338 458.611 334.05 459.541 335.951 459.541C339.935 459.541 343 456.967 343 452.984Z" fill="black"/>
<path d="M328.082 442L328.082 454.295L327.098 454.295C327.044 453.53 327.098 451.016 326.443 448.557C325.797 446.136 323.765 443.257 322.508 442L328.082 442Z" fill="black"/>
<path d="M328.082 442L328.082 454.295L329.066 454.295C329.12 453.53 329.066 451.016 329.721 448.557C330.367 446.136 332.399 443.257 333.656 442L328.082 442Z" fill="black"/>
<path d="M179.59 300.082C189.155 300.082 198.329 273.331 205.092 266.568C211.856 259.804 215.656 250.631 215.656 241.066C215.656 231.5 211.856 222.327 205.092 215.563C198.329 208.8 189.155 205 179.59 205V300.082Z" fill="black"/>
<path d="M255 300.082C255 320 238.853 332.049 218.934 332.049C207.708 332.049 199.262 327.951 191.885 321.393C184.508 314.836 183.689 308.279 179.59 300.082C179.59 289.667 183.185 284.534 190.246 277.951C196.688 271.944 209.431 267.295 218.934 267.295C238.853 267.295 255 280.163 255 300.082Z" fill="black"/>
<path d="M179.59 300.082C170.025 300.082 160.852 273.331 154.088 266.568C147.324 259.804 143.525 250.631 143.525 241.066C143.525 231.5 147.324 222.327 154.088 215.563C160.852 208.8 170.025 205 179.59 205V300.082Z" fill="black"/>
<path d="M105 300.082C105 320 120.327 332.049 140.246 332.049C151.472 332.049 159.388 329.301 167.295 321.393C174.672 314.016 175.492 308.279 179.59 300.082C179.59 289.667 176.815 284.534 169.754 277.951C163.312 271.944 149.749 267.295 140.246 267.295C120.327 267.295 105 280.163 105 300.082Z" fill="black"/>
<path d="M179.59 355V293.525H184.508C184.781 297.35 184.508 309.918 187.787 322.213C191.015 334.318 201.175 348.716 207.459 355H179.59Z" fill="black"/>
<path d="M179.59 355V293.525H174.672C174.399 297.35 174.672 309.918 171.393 322.213C168.165 334.318 158.005 348.716 151.721 355H179.59Z" fill="black"/>
</g>
<defs>
<clipPath id="clip0">
<rect width="360" height="560.121" fill="white"/>
</clipPath>
</defs>
</svg>
