<svg width="360" height="561" viewBox="0 0 360 561" fill="none" xmlns="http://www.w3.org/2000/svg">
<path d="M25 549C22.259 549 19.7039 548.269 17.5024 546.996L14.9984 551.323C11.9634 549.567 9.43261 547.037 7.67656 544.002L12.0044 541.498C10.7306 539.296 10 536.741 10 534V509.81H5V485.619H10V437.238H5V413.048H10V364.667H5V340.476H10V292.095H5V267.905H10V219.524H5V195.333H10V146.952H5V122.762H10V74.381H5V50.1906H10V26C10 23.259 10.7306 20.7039 12.0044 18.5024L7.67657 15.9984C9.43262 12.9634 11.9634 10.4326 14.9984 8.67657L17.5024 13.0044C19.7039 11.7306 22.259 11 25 11H50.8333V6H76.6667V11H128.333V6H154.167V11H205.833V6H231.667V11H283.333V6H309.167V11H335C337.741 11 340.296 11.7306 342.498 13.0044L345.002 8.67657C348.037 10.4326 350.567 12.9634 352.323 15.9984L347.996 18.5024C349.269 20.7039 350 23.259 350 26V50.1905H355V74.381H350V122.762H355V146.952H350V195.333H355V219.524H350V267.905H355V292.095H350V340.476H355V364.667H350V413.048H355V437.238H350V485.619H355V509.809H350V534C350 536.741 349.269 539.296 347.996 541.498L352.323 544.002C350.567 547.037 348.037 549.567 345.002 551.323L342.498 546.996C340.296 548.269 337.741 549 335 549H309.167V554H283.333V549H231.667V554H205.833V549H154.167V554H128.333V549H76.6667V554H50.8333V549H25Z" stroke="black" stroke-width="10" stroke-dasharray="50 25"/>
</svg>
