<svg width="360" height="561" viewBox="0 0 360 561" fill="none" xmlns="http://www.w3.org/2000/svg">
<g clip-path="url(#clip0)">
<rect width="360" height="560.121" fill="white"/>
<path d="M330 226.545C330 246.128 322.602 263.97 310.469 277.392C308.799 279.239 307.039 281.003 305.197 282.676C291.905 294.744 274.304 302.09 255 302.09C213.579 302.09 180 268.267 180 226.545C180 184.823 213.579 151 255 151C296.421 151 330 184.823 330 226.545Z" fill="#FFEDED"/>
<path d="M255 302.09C213.579 302.09 180 268.267 180 226.545V408.143L305.197 282.676C291.905 294.744 274.304 302.09 255 302.09Z" fill="#FFEDED"/>
<path d="M30 226.545C30 246.128 37.3975 263.97 49.5314 277.392C51.2013 279.239 52.9609 281.003 54.8032 282.676C68.0955 294.744 85.696 302.09 105 302.09C146.421 302.09 180 268.267 180 226.545C180 184.823 146.421 151 105 151C63.5786 151 30 184.823 30 226.545Z" fill="#FFEDED"/>
<path d="M105 302.09C146.421 302.09 180 268.267 180 226.545V408.143L54.8032 282.676C68.0955 294.744 85.696 302.09 105 302.09Z" fill="#FFEDED"/>
<path d="M90.7 269.8C94.1 269.8 96.6 269.5 98.2 268.9C99.8667 268.233 101 267.067 101.6 265.4C102.2 263.667 102.5 261.033 102.5 257.5V195H113.7V257.7C113.7 262.567 113.2 266.467 112.2 269.4C111.2 272.267 109.4 274.4 106.8 275.8C104.267 277.2 100.7 277.9 96.1 277.9H90.7V269.8ZM139.178 195H150.078L167.378 276H156.678L152.978 255.6H136.478L132.578 276H121.978L139.178 195ZM151.478 247.5L144.678 211L137.978 247.5H151.478ZM195.506 276.9C187.506 276.9 181.873 274.533 178.606 269.8C175.34 265 173.706 258.4 173.706 250V221.4C173.706 212.533 175.306 205.8 178.506 201.2C181.706 196.6 187.373 194.3 195.506 194.3C202.773 194.3 207.973 196.267 211.106 200.2C214.306 204.133 215.906 209.933 215.906 217.6V224H205.206V218.3C205.206 214.567 205.04 211.7 204.706 209.7C204.373 207.7 203.506 206.1 202.106 204.9C200.773 203.7 198.606 203.1 195.606 203.1C192.54 203.1 190.24 203.767 188.706 205.1C187.24 206.367 186.273 208.167 185.806 210.5C185.34 212.767 185.106 215.833 185.106 219.7V251.8C185.106 255.933 185.44 259.167 186.106 261.5C186.773 263.833 187.84 265.5 189.306 266.5C190.84 267.5 192.94 268 195.606 268C198.473 268 200.606 267.367 202.006 266.1C203.406 264.833 204.273 263.1 204.606 260.9C205.006 258.7 205.206 255.7 205.206 251.9V245.9H215.906V251.9C215.906 259.967 214.373 266.167 211.306 270.5C208.306 274.767 203.04 276.9 195.506 276.9ZM226.671 195H237.971V233.2L256.571 195H267.071L251.071 230.7L269.671 276H258.671L243.171 238L237.971 247.4V276H226.671V195Z" fill="#FFC5C5"/>
<path d="M90.7 157.8C94.1 157.8 96.6 157.5 98.2 156.9C99.8667 156.233 101 155.067 101.6 153.4C102.2 151.667 102.5 149.033 102.5 145.5V83H113.7V145.7C113.7 150.567 113.2 154.467 112.2 157.4C111.2 160.267 109.4 162.4 106.8 163.8C104.267 165.2 100.7 165.9 96.1 165.9H90.7V157.8ZM139.178 83H150.078L167.378 164H156.678L152.978 143.6H136.478L132.578 164H121.978L139.178 83ZM151.478 135.5L144.678 99L137.978 135.5H151.478ZM195.506 164.9C187.506 164.9 181.873 162.533 178.606 157.8C175.34 153 173.706 146.4 173.706 138V109.4C173.706 100.533 175.306 93.8 178.506 89.2C181.706 84.6 187.373 82.3 195.506 82.3C202.773 82.3 207.973 84.2667 211.106 88.2C214.306 92.1333 215.906 97.9333 215.906 105.6V112H205.206V106.3C205.206 102.567 205.04 99.7 204.706 97.7C204.373 95.7 203.506 94.1 202.106 92.9C200.773 91.7 198.606 91.1 195.606 91.1C192.54 91.1 190.24 91.7667 188.706 93.1C187.24 94.3667 186.273 96.1667 185.806 98.5C185.34 100.767 185.106 103.833 185.106 107.7V139.8C185.106 143.933 185.44 147.167 186.106 149.5C186.773 151.833 187.84 153.5 189.306 154.5C190.84 155.5 192.94 156 195.606 156C198.473 156 200.606 155.367 202.006 154.1C203.406 152.833 204.273 151.1 204.606 148.9C205.006 146.7 205.206 143.7 205.206 139.9V133.9H215.906V139.9C215.906 147.967 214.373 154.167 211.306 158.5C208.306 162.767 203.04 164.9 195.506 164.9ZM226.671 83H237.971V121.2L256.571 83H267.071L251.071 118.7L269.671 164H258.671L243.171 126L237.971 135.4V164H226.671V83Z" fill="#FFC5C5"/>
<path d="M90.7 493.8C94.1 493.8 96.6 493.5 98.2 492.9C99.8667 492.233 101 491.067 101.6 489.4C102.2 487.667 102.5 485.033 102.5 481.5V419H113.7V481.7C113.7 486.567 113.2 490.467 112.2 493.4C111.2 496.267 109.4 498.4 106.8 499.8C104.267 501.2 100.7 501.9 96.1 501.9H90.7V493.8ZM139.178 419H150.078L167.378 500H156.678L152.978 479.6H136.478L132.578 500H121.978L139.178 419ZM151.478 471.5L144.678 435L137.978 471.5H151.478ZM195.506 500.9C187.506 500.9 181.873 498.533 178.606 493.8C175.34 489 173.706 482.4 173.706 474V445.4C173.706 436.533 175.306 429.8 178.506 425.2C181.706 420.6 187.373 418.3 195.506 418.3C202.773 418.3 207.973 420.267 211.106 424.2C214.306 428.133 215.906 433.933 215.906 441.6V448H205.206V442.3C205.206 438.567 205.04 435.7 204.706 433.7C204.373 431.7 203.506 430.1 202.106 428.9C200.773 427.7 198.606 427.1 195.606 427.1C192.54 427.1 190.24 427.767 188.706 429.1C187.24 430.367 186.273 432.167 185.806 434.5C185.34 436.767 185.106 439.833 185.106 443.7V475.8C185.106 479.933 185.44 483.167 186.106 485.5C186.773 487.833 187.84 489.5 189.306 490.5C190.84 491.5 192.94 492 195.606 492C198.473 492 200.606 491.367 202.006 490.1C203.406 488.833 204.273 487.1 204.606 484.9C205.006 482.7 205.206 479.7 205.206 475.9V469.9H215.906V475.9C215.906 483.967 214.373 490.167 211.306 494.5C208.306 498.767 203.04 500.9 195.506 500.9ZM226.671 419H237.971V457.2L256.571 419H267.071L251.071 454.7L269.671 500H258.671L243.171 462L237.971 471.4V500H226.671V419Z" fill="#FFC5C5"/>
<path d="M90.7 381.8C94.1 381.8 96.6 381.5 98.2 380.9C99.8667 380.233 101 379.067 101.6 377.4C102.2 375.667 102.5 373.033 102.5 369.5V307H113.7V369.7C113.7 374.567 113.2 378.467 112.2 381.4C111.2 384.267 109.4 386.4 106.8 387.8C104.267 389.2 100.7 389.9 96.1 389.9H90.7V381.8ZM139.178 307H150.078L167.378 388H156.678L152.978 367.6H136.478L132.578 388H121.978L139.178 307ZM151.478 359.5L144.678 323L137.978 359.5H151.478ZM195.506 388.9C187.506 388.9 181.873 386.533 178.606 381.8C175.34 377 173.706 370.4 173.706 362V333.4C173.706 324.533 175.306 317.8 178.506 313.2C181.706 308.6 187.373 306.3 195.506 306.3C202.773 306.3 207.973 308.267 211.106 312.2C214.306 316.133 215.906 321.933 215.906 329.6V336H205.206V330.3C205.206 326.567 205.04 323.7 204.706 321.7C204.373 319.7 203.506 318.1 202.106 316.9C200.773 315.7 198.606 315.1 195.606 315.1C192.54 315.1 190.24 315.767 188.706 317.1C187.24 318.367 186.273 320.167 185.806 322.5C185.34 324.767 185.106 327.833 185.106 331.7V363.8C185.106 367.933 185.44 371.167 186.106 373.5C186.773 375.833 187.84 377.5 189.306 378.5C190.84 379.5 192.94 380 195.606 380C198.473 380 200.606 379.367 202.006 378.1C203.406 376.833 204.273 375.1 204.606 372.9C205.006 370.7 205.206 367.7 205.206 363.9V357.9H215.906V363.9C215.906 371.967 214.373 378.167 211.306 382.5C208.306 386.767 203.04 388.9 195.506 388.9ZM226.671 307H237.971V345.2L256.571 307H267.071L251.071 342.7L269.671 388H258.671L243.171 350L237.971 359.4V388H226.671V307Z" fill="#FFC5C5"/>
<path d="M90.7 318.8C94.1 318.8 96.6 318.5 98.2 317.9C99.8667 317.233 101 316.067 101.6 314.4C102.2 312.667 102.5 310.033 102.5 306.5V244H113.7V306.7C113.7 311.567 113.2 315.467 112.2 318.4C111.2 321.267 109.4 323.4 106.8 324.8C104.267 326.2 100.7 326.9 96.1 326.9H90.7V318.8ZM139.178 244H150.078L167.378 325H156.678L152.978 304.6H136.478L132.578 325H121.978L139.178 244ZM151.478 296.5L144.678 260L137.978 296.5H151.478ZM195.506 325.9C187.506 325.9 181.873 323.533 178.606 318.8C175.34 314 173.706 307.4 173.706 299V270.4C173.706 261.533 175.306 254.8 178.506 250.2C181.706 245.6 187.373 243.3 195.506 243.3C202.773 243.3 207.973 245.267 211.106 249.2C214.306 253.133 215.906 258.933 215.906 266.6V273H205.206V267.3C205.206 263.567 205.04 260.7 204.706 258.7C204.373 256.7 203.506 255.1 202.106 253.9C200.773 252.7 198.606 252.1 195.606 252.1C192.54 252.1 190.24 252.767 188.706 254.1C187.24 255.367 186.273 257.167 185.806 259.5C185.34 261.767 185.106 264.833 185.106 268.7V300.8C185.106 304.933 185.44 308.167 186.106 310.5C186.773 312.833 187.84 314.5 189.306 315.5C190.84 316.5 192.94 317 195.606 317C198.473 317 200.606 316.367 202.006 315.1C203.406 313.833 204.273 312.1 204.606 309.9C205.006 307.7 205.206 304.7 205.206 300.9V294.9H215.906V300.9C215.906 308.967 214.373 315.167 211.306 319.5C208.306 323.767 203.04 325.9 195.506 325.9ZM226.671 244H237.971V282.2L256.571 244H267.071L251.071 279.7L269.671 325H258.671L243.171 287L237.971 296.4V325H226.671V244Z" fill="#FF3434"/>
<path d="M22.42 68.28C24.46 68.28 25.96 68.1 26.92 67.74C27.92 67.34 28.6 66.64 28.96 65.64C29.32 64.6 29.5 63.02 29.5 60.9V23.4H36.22V61.02C36.22 63.94 35.92 66.28 35.32 68.04C34.72 69.76 33.64 71.04 32.08 71.88C30.56 72.72 28.42 73.14 25.66 73.14H22.42V68.28Z" fill="#FF3434"/>
<path d="M46 96.9975C46 99.0706 45.2602 100.96 44.0469 102.38C43.8799 102.576 43.7039 102.763 43.5197 102.94C42.1905 104.217 40.4304 104.995 38.5 104.995C34.3579 104.995 31 101.414 31 96.9975C31 92.5806 34.3579 89 38.5 89C42.6421 89 46 92.5806 46 96.9975Z" fill="#FF3434"/>
<path d="M38.5 104.995C34.3579 104.995 31 101.414 31 96.9975V116.222L43.5197 102.94C42.1905 104.217 40.4304 104.995 38.5 104.995Z" fill="#FF3434"/>
<path d="M16 96.9975C16 99.0706 16.7398 100.96 17.9531 102.38C18.1201 102.576 18.2961 102.763 18.4803 102.94C19.8095 104.217 21.5696 104.995 23.5 104.995C27.6421 104.995 31 101.414 31 96.9975C31 92.5806 27.6421 89 23.5 89C19.3579 89 16 92.5806 16 96.9975Z" fill="#FF3434"/>
<path d="M23.5 104.995C27.6421 104.995 31 101.414 31 96.9975V116.222L18.4803 102.94C19.8095 104.217 21.5696 104.995 23.5 104.995Z" fill="#FF3434"/>
<path d="M335.58 492.72C333.54 492.72 332.04 492.9 331.08 493.26C330.08 493.66 329.4 494.36 329.04 495.36C328.68 496.4 328.5 497.98 328.5 500.1L328.5 537.6L321.78 537.6L321.78 499.98C321.78 497.06 322.08 494.72 322.68 492.96C323.28 491.24 324.36 489.96 325.92 489.12C327.44 488.28 329.58 487.86 332.34 487.86L335.58 487.86L335.58 492.72Z" fill="#FF3434"/>
<path d="M313 464.225C313 462.152 313.74 460.263 314.953 458.842C315.12 458.647 315.296 458.46 315.48 458.283C316.81 457.005 318.57 456.228 320.5 456.228C324.642 456.228 328 459.808 328 464.225C328 468.642 324.642 472.223 320.5 472.223C316.358 472.223 313 468.642 313 464.225Z" fill="#FF3434"/>
<path d="M320.5 456.228C324.642 456.228 328 459.808 328 464.225V445L315.48 458.283C316.81 457.005 318.57 456.228 320.5 456.228Z" fill="#FF3434"/>
<path d="M343 464.225C343 462.152 342.26 460.263 341.047 458.842C340.88 458.647 340.704 458.46 340.52 458.283C339.19 457.005 337.43 456.228 335.5 456.228C331.358 456.228 328 459.808 328 464.225C328 468.642 331.358 472.223 335.5 472.223C339.642 472.223 343 468.642 343 464.225Z" fill="#FF3434"/>
<path d="M335.5 456.228C331.358 456.228 328 459.808 328 464.225V445L340.52 458.283C339.19 457.005 337.43 456.228 335.5 456.228Z" fill="#FF3434"/>
</g>
<defs>
<clipPath id="clip0">
<rect width="360" height="560.121" fill="white"/>
</clipPath>
</defs>
</svg>
