<svg width="360" height="561" viewBox="0 0 360 561" fill="none" xmlns="http://www.w3.org/2000/svg">
<g clip-path="url(#clip0)">
<rect width="360" height="560.121" fill="white"/>
<path d="M179.18 320.164C198.311 320.164 216.658 266.663 230.185 253.136C243.712 239.608 251.311 221.262 251.311 202.131C251.311 183.001 243.712 164.654 230.185 151.127C216.658 137.6 198.311 130 179.18 130V320.164Z" fill="#F4F4F4"/>
<path d="M330 320.164C330 360.001 297.706 384.098 257.869 384.098C235.417 384.098 218.525 375.902 203.77 362.787C189.016 349.672 187.377 336.557 179.18 320.164C179.18 299.333 186.371 289.069 200.492 275.902C213.376 263.887 238.862 254.59 257.869 254.59C297.706 254.59 330 280.327 330 320.164Z" fill="#F4F4F4"/>
<path d="M179.18 320.164C160.05 320.164 141.703 266.663 128.176 253.136C114.649 239.608 107.049 221.262 107.049 202.131C107.049 183.001 114.649 164.654 128.176 151.127C141.703 137.6 160.05 130 179.18 130V320.164Z" fill="#F4F4F4"/>
<path d="M30 320.164C30 360.001 60.6549 384.098 100.492 384.098C122.944 384.098 138.776 378.601 154.59 362.787C169.344 348.033 170.984 336.557 179.18 320.164C179.18 299.333 173.629 289.069 159.508 275.902C146.624 263.887 119.498 254.59 100.492 254.59C60.6549 254.59 30 280.327 30 320.164Z" fill="#F4F4F4"/>
<path d="M179.18 430V307.049H189.016C189.563 314.699 189.016 339.836 195.574 364.426C202.03 388.636 222.35 417.432 234.918 430H179.18Z" fill="#F4F4F4"/>
<path d="M179.18 430V307.049H169.344C168.798 314.699 169.344 339.836 162.787 364.426C156.331 388.636 136.011 417.432 123.443 430H179.18Z" fill="#F4F4F4"/>
<path d="M95.3 195H106.6V233.2L125.2 195H135.7L119.7 230.7L138.3 276H127.3L111.8 238L106.6 247.4V276H95.3V195ZM145.412 195H156.512V276H145.412V195ZM169.616 195H177.316L200.316 248.8V195H209.716V276H202.516L179.216 220.7V276H169.616V195ZM241.748 277C234.415 277 229.115 274.7 225.848 270.1C222.582 265.433 220.948 258.533 220.948 249.4V222.3C220.948 216.033 221.582 210.9 222.848 206.9C224.182 202.833 226.415 199.733 229.548 197.6C232.748 195.4 237.115 194.3 242.648 194.3C250.115 194.3 255.482 196.2 258.748 200C262.082 203.8 263.748 209.767 263.748 217.9V220.9H253.148V218.4C253.148 214.533 252.915 211.567 252.448 209.5C251.982 207.367 250.982 205.767 249.448 204.7C247.982 203.633 245.782 203.1 242.848 203.1C239.715 203.1 237.382 203.833 235.848 205.3C234.315 206.7 233.315 208.6 232.848 211C232.448 213.4 232.248 216.6 232.248 220.6V250.6C232.248 256.8 232.982 261.267 234.448 264C235.982 266.667 238.882 268 243.148 268C247.348 268 250.215 266.533 251.748 263.6C253.348 260.667 254.148 255.967 254.148 249.5V243.9H243.848V235.9H264.348V276H257.248L256.148 266.7C253.615 273.567 248.815 277 241.748 277Z" fill="#DBDBDB"/>
<path d="M95.3 83H106.6V121.2L125.2 83H135.7L119.7 118.7L138.3 164H127.3L111.8 126L106.6 135.4V164H95.3V83ZM145.412 83H156.512V164H145.412V83ZM169.616 83H177.316L200.316 136.8V83H209.716V164H202.516L179.216 108.7V164H169.616V83ZM241.748 165C234.415 165 229.115 162.7 225.848 158.1C222.582 153.433 220.948 146.533 220.948 137.4V110.3C220.948 104.033 221.582 98.9 222.848 94.9C224.182 90.8333 226.415 87.7333 229.548 85.6C232.748 83.4 237.115 82.3 242.648 82.3C250.115 82.3 255.482 84.2 258.748 88C262.082 91.8 263.748 97.7667 263.748 105.9V108.9H253.148V106.4C253.148 102.533 252.915 99.5667 252.448 97.5C251.982 95.3667 250.982 93.7667 249.448 92.7C247.982 91.6333 245.782 91.1 242.848 91.1C239.715 91.1 237.382 91.8333 235.848 93.3C234.315 94.7 233.315 96.6 232.848 99C232.448 101.4 232.248 104.6 232.248 108.6V138.6C232.248 144.8 232.982 149.267 234.448 152C235.982 154.667 238.882 156 243.148 156C247.348 156 250.215 154.533 251.748 151.6C253.348 148.667 254.148 143.967 254.148 137.5V131.9H243.848V123.9H264.348V164H257.248L256.148 154.7C253.615 161.567 248.815 165 241.748 165Z" fill="#DBDBDB"/>
<path d="M95.3 419H106.6V457.2L125.2 419H135.7L119.7 454.7L138.3 500H127.3L111.8 462L106.6 471.4V500H95.3V419ZM145.412 419H156.512V500H145.412V419ZM169.616 419H177.316L200.316 472.8V419H209.716V500H202.516L179.216 444.7V500H169.616V419ZM241.748 501C234.415 501 229.115 498.7 225.848 494.1C222.582 489.433 220.948 482.533 220.948 473.4V446.3C220.948 440.033 221.582 434.9 222.848 430.9C224.182 426.833 226.415 423.733 229.548 421.6C232.748 419.4 237.115 418.3 242.648 418.3C250.115 418.3 255.482 420.2 258.748 424C262.082 427.8 263.748 433.767 263.748 441.9V444.9H253.148V442.4C253.148 438.533 252.915 435.567 252.448 433.5C251.982 431.367 250.982 429.767 249.448 428.7C247.982 427.633 245.782 427.1 242.848 427.1C239.715 427.1 237.382 427.833 235.848 429.3C234.315 430.7 233.315 432.6 232.848 435C232.448 437.4 232.248 440.6 232.248 444.6V474.6C232.248 480.8 232.982 485.267 234.448 488C235.982 490.667 238.882 492 243.148 492C247.348 492 250.215 490.533 251.748 487.6C253.348 484.667 254.148 479.967 254.148 473.5V467.9H243.848V459.9H264.348V500H257.248L256.148 490.7C253.615 497.567 248.815 501 241.748 501Z" fill="#DBDBDB"/>
<path d="M95.3 307H106.6V345.2L125.2 307H135.7L119.7 342.7L138.3 388H127.3L111.8 350L106.6 359.4V388H95.3V307ZM145.412 307H156.512V388H145.412V307ZM169.616 307H177.316L200.316 360.8V307H209.716V388H202.516L179.216 332.7V388H169.616V307ZM241.748 389C234.415 389 229.115 386.7 225.848 382.1C222.582 377.433 220.948 370.533 220.948 361.4V334.3C220.948 328.033 221.582 322.9 222.848 318.9C224.182 314.833 226.415 311.733 229.548 309.6C232.748 307.4 237.115 306.3 242.648 306.3C250.115 306.3 255.482 308.2 258.748 312C262.082 315.8 263.748 321.767 263.748 329.9V332.9H253.148V330.4C253.148 326.533 252.915 323.567 252.448 321.5C251.982 319.367 250.982 317.767 249.448 316.7C247.982 315.633 245.782 315.1 242.848 315.1C239.715 315.1 237.382 315.833 235.848 317.3C234.315 318.7 233.315 320.6 232.848 323C232.448 325.4 232.248 328.6 232.248 332.6V362.6C232.248 368.8 232.982 373.267 234.448 376C235.982 378.667 238.882 380 243.148 380C247.348 380 250.215 378.533 251.748 375.6C253.348 372.667 254.148 367.967 254.148 361.5V355.9H243.848V347.9H264.348V388H257.248L256.148 378.7C253.615 385.567 248.815 389 241.748 389Z" fill="#DBDBDB"/>
<path d="M95.3 244H106.6V282.2L125.2 244H135.7L119.7 279.7L138.3 325H127.3L111.8 287L106.6 296.4V325H95.3V244ZM145.412 244H156.512V325H145.412V244ZM169.616 244H177.316L200.316 297.8V244H209.716V325H202.516L179.216 269.7V325H169.616V244ZM241.748 326C234.415 326 229.115 323.7 225.848 319.1C222.582 314.433 220.948 307.533 220.948 298.4V271.3C220.948 265.033 221.582 259.9 222.848 255.9C224.182 251.833 226.415 248.733 229.548 246.6C232.748 244.4 237.115 243.3 242.648 243.3C250.115 243.3 255.482 245.2 258.748 249C262.082 252.8 263.748 258.767 263.748 266.9V269.9H253.148V267.4C253.148 263.533 252.915 260.567 252.448 258.5C251.982 256.367 250.982 254.767 249.448 253.7C247.982 252.633 245.782 252.1 242.848 252.1C239.715 252.1 237.382 252.833 235.848 254.3C234.315 255.7 233.315 257.6 232.848 260C232.448 262.4 232.248 265.6 232.248 269.6V299.6C232.248 305.8 232.982 310.267 234.448 313C235.982 315.667 238.882 317 243.148 317C247.348 317 250.215 315.533 251.748 312.6C253.348 309.667 254.148 304.967 254.148 298.5V292.9H243.848V284.9H264.348V325H257.248L256.148 315.7C253.615 322.567 248.815 326 241.748 326Z" fill="black"/>
<path d="M18.78 23.4H25.56V46.32L36.72 23.4H43.02L33.42 44.82L44.58 72H37.98L28.68 49.2L25.56 54.84V72H18.78V23.4Z" fill="black"/>
<path d="M29.918 108.016C31.8311 108.016 33.6658 102.666 35.0185 101.314C36.3712 99.9608 37.1311 98.1262 37.1311 96.2131C37.1311 94.3001 36.3712 92.4654 35.0185 91.1127C33.6658 89.76 31.8311 89 29.918 89V108.016Z" fill="black"/>
<path d="M45 108.016C45 112 41.7706 114.41 37.7869 114.41C35.5417 114.41 33.8525 113.59 32.377 112.279C30.9016 110.967 30.7377 109.656 29.918 108.016C29.918 105.933 30.6371 104.907 32.0492 103.59C33.3376 102.389 35.8862 101.459 37.7869 101.459C41.7706 101.459 45 104.033 45 108.016Z" fill="black"/>
<path d="M29.918 108.016C28.005 108.016 26.1703 102.666 24.8176 101.314C23.4649 99.9608 22.7049 98.1262 22.7049 96.2131C22.7049 94.3001 23.4649 92.4654 24.8176 91.1127C26.1703 89.76 28.005 89 29.918 89V108.016Z" fill="black"/>
<path d="M15 108.016C15 112 18.0655 114.41 22.0492 114.41C24.2944 114.41 25.8776 113.86 27.459 112.279C28.9344 110.803 29.0984 109.656 29.918 108.016C29.918 105.933 29.3629 104.907 27.9508 103.59C26.6624 102.389 23.9498 101.459 22.0492 101.459C18.0655 101.459 15 104.033 15 108.016Z" fill="black"/>
<path d="M29.918 119V106.705H30.9016C30.9563 107.47 30.9016 109.984 31.5574 112.443C32.203 114.864 34.235 117.743 35.4918 119H29.918Z" fill="black"/>
<path d="M29.918 119V106.705H28.9344C28.8798 107.47 28.9344 109.984 28.2787 112.443C27.6331 114.864 25.6011 117.743 24.3443 119H29.918Z" fill="black"/>
<path d="M341.22 537.6L334.44 537.6L334.44 514.68L323.28 537.6L316.98 537.6L326.58 516.18L315.42 489L322.02 489L331.32 511.8L334.44 506.16L334.44 489L341.22 489L341.22 537.6Z" fill="black"/>
<path d="M329.082 452.984C327.169 452.984 325.334 458.334 323.982 459.686C322.629 461.039 321.869 462.874 321.869 464.787C321.869 466.7 322.629 468.535 323.982 469.887C325.334 471.24 327.169 472 329.082 472L329.082 452.984Z" fill="black"/>
<path d="M314 452.984C314 449 317.229 446.59 321.213 446.59C323.458 446.59 325.148 447.41 326.623 448.721C328.098 450.033 328.262 451.344 329.082 452.984C329.082 455.067 328.363 456.093 326.951 457.41C325.662 458.611 323.114 459.541 321.213 459.541C317.229 459.541 314 456.967 314 452.984Z" fill="black"/>
<path d="M329.082 452.984C330.995 452.984 332.83 458.334 334.182 459.686C335.535 461.039 336.295 462.874 336.295 464.787C336.295 466.7 335.535 468.535 334.182 469.887C332.83 471.24 330.995 472 329.082 472L329.082 452.984Z" fill="black"/>
<path d="M344 452.984C344 449 340.935 446.59 336.951 446.59C334.706 446.59 333.122 447.14 331.541 448.721C330.066 450.197 329.902 451.344 329.082 452.984C329.082 455.067 329.637 456.093 331.049 457.41C332.338 458.611 335.05 459.541 336.951 459.541C340.935 459.541 344 456.967 344 452.984Z" fill="black"/>
<path d="M329.082 442L329.082 454.295L328.098 454.295C328.044 453.53 328.098 451.016 327.443 448.557C326.797 446.136 324.765 443.257 323.508 442L329.082 442Z" fill="black"/>
<path d="M329.082 442L329.082 454.295L330.066 454.295C330.12 453.53 330.066 451.016 330.721 448.557C331.367 446.136 333.399 443.257 334.656 442L329.082 442Z" fill="black"/>
</g>
<defs>
<clipPath id="clip0">
<rect width="360" height="560.121" fill="white"/>
</clipPath>
</defs>
</svg>
