<svg width="360" height="561" viewBox="0 0 360 561" fill="none" xmlns="http://www.w3.org/2000/svg">
<g clip-path="url(#clip0)">
<rect width="360" height="560.121" fill="white"/>
<path d="M179.18 320.164C198.311 320.164 216.658 266.663 230.185 253.136C243.712 239.608 251.311 221.262 251.311 202.131C251.311 183.001 243.712 164.654 230.185 151.127C216.658 137.6 198.311 130 179.18 130V320.164Z" fill="#F4F4F4"/>
<path d="M330 320.164C330 360.001 297.706 384.098 257.869 384.098C235.417 384.098 218.525 375.902 203.77 362.787C189.016 349.672 187.377 336.557 179.18 320.164C179.18 299.333 186.371 289.069 200.492 275.902C213.376 263.887 238.862 254.59 257.869 254.59C297.706 254.59 330 280.327 330 320.164Z" fill="#F4F4F4"/>
<path d="M179.18 320.164C160.05 320.164 141.703 266.663 128.176 253.136C114.649 239.608 107.049 221.262 107.049 202.131C107.049 183.001 114.649 164.654 128.176 151.127C141.703 137.6 160.05 130 179.18 130V320.164Z" fill="#F4F4F4"/>
<path d="M30 320.164C30 360.001 60.6549 384.098 100.492 384.098C122.944 384.098 138.776 378.601 154.59 362.787C169.344 348.033 170.984 336.557 179.18 320.164C179.18 299.333 173.629 289.069 159.508 275.902C146.624 263.887 119.498 254.59 100.492 254.59C60.6549 254.59 30 280.327 30 320.164Z" fill="#F4F4F4"/>
<path d="M179.18 430V307.049H189.016C189.563 314.699 189.016 339.836 195.574 364.426C202.03 388.636 222.35 417.432 234.918 430H179.18Z" fill="#F4F4F4"/>
<path d="M179.18 430V307.049H169.344C168.798 314.699 169.344 339.836 162.787 364.426C156.331 388.636 136.011 417.432 123.443 430H179.18Z" fill="#F4F4F4"/>
<path d="M101.5 292.4C97.4333 290.4 92.5667 285.2 86.9 276.8C86.5 276.867 85.8667 276.9 85 276.9C77.0667 276.9 71.3667 274.667 67.9 270.2C64.5 265.667 62.8 259.133 62.8 250.6V219.9C62.8 211.5 64.5333 205.133 68 200.8C71.4667 196.467 77.1333 194.3 85 194.3C92.8667 194.3 98.5333 196.5 102 200.9C105.467 205.233 107.2 211.567 107.2 219.9V250.7C107.2 263.567 103.233 271.667 95.3 275C98.6333 279.333 101.3 282.167 103.3 283.5L101.5 292.4ZM85 268C89.2667 268 92.1333 266.767 93.6 264.3C95.0667 261.833 95.8 258.1 95.8 253.1V217.6C95.8 212.667 95.0667 209.033 93.6 206.7C92.1333 204.3 89.2667 203.1 85 203.1C80.7333 203.1 77.8667 204.3 76.4 206.7C74.9333 209.033 74.2 212.667 74.2 217.6V253.1C74.2 258.1 74.9333 261.833 76.4 264.3C77.8667 266.767 80.7333 268 85 268ZM139.302 276.9C133.635 276.9 129.202 275.767 126.002 273.5C122.868 271.233 120.702 268.067 119.502 264C118.302 259.933 117.702 254.833 117.702 248.7V195H128.502V249.2C128.502 255.333 129.202 260 130.602 263.2C132.068 266.4 134.968 268 139.302 268C143.635 268 146.502 266.4 147.902 263.2C149.368 260 150.102 255.333 150.102 249.2V195H160.802V248.7C160.802 254.833 160.202 259.933 159.002 264C157.802 268.067 155.635 271.233 152.502 273.5C149.368 275.767 144.968 276.9 139.302 276.9ZM172.698 195H204.098V203.4H183.998V230.2H200.298V238.2H183.998V267.9H204.298V276H172.698V195ZM213.421 195H244.821V203.4H224.721V230.2H241.021V238.2H224.721V267.9H245.021V276H213.421V195ZM254.144 195H261.844L284.844 248.8V195H294.244V276H287.044L263.744 220.7V276H254.144V195Z" fill="#DBDBDB"/>
<path d="M101.5 180.4C97.4333 178.4 92.5667 173.2 86.9 164.8C86.5 164.867 85.8667 164.9 85 164.9C77.0667 164.9 71.3667 162.667 67.9 158.2C64.5 153.667 62.8 147.133 62.8 138.6V107.9C62.8 99.5 64.5333 93.1333 68 88.8C71.4667 84.4667 77.1333 82.3 85 82.3C92.8667 82.3 98.5333 84.5 102 88.9C105.467 93.2333 107.2 99.5667 107.2 107.9V138.7C107.2 151.567 103.233 159.667 95.3 163C98.6333 167.333 101.3 170.167 103.3 171.5L101.5 180.4ZM85 156C89.2667 156 92.1333 154.767 93.6 152.3C95.0667 149.833 95.8 146.1 95.8 141.1V105.6C95.8 100.667 95.0667 97.0333 93.6 94.7C92.1333 92.3 89.2667 91.1 85 91.1C80.7333 91.1 77.8667 92.3 76.4 94.7C74.9333 97.0333 74.2 100.667 74.2 105.6V141.1C74.2 146.1 74.9333 149.833 76.4 152.3C77.8667 154.767 80.7333 156 85 156ZM139.302 164.9C133.635 164.9 129.202 163.767 126.002 161.5C122.868 159.233 120.702 156.067 119.502 152C118.302 147.933 117.702 142.833 117.702 136.7V83H128.502V137.2C128.502 143.333 129.202 148 130.602 151.2C132.068 154.4 134.968 156 139.302 156C143.635 156 146.502 154.4 147.902 151.2C149.368 148 150.102 143.333 150.102 137.2V83H160.802V136.7C160.802 142.833 160.202 147.933 159.002 152C157.802 156.067 155.635 159.233 152.502 161.5C149.368 163.767 144.968 164.9 139.302 164.9ZM172.698 83H204.098V91.4H183.998V118.2H200.298V126.2H183.998V155.9H204.298V164H172.698V83ZM213.421 83H244.821V91.4H224.721V118.2H241.021V126.2H224.721V155.9H245.021V164H213.421V83ZM254.144 83H261.844L284.844 136.8V83H294.244V164H287.044L263.744 108.7V164H254.144V83Z" fill="#DBDBDB"/>
<path d="M101.5 516.4C97.4333 514.4 92.5667 509.2 86.9 500.8C86.5 500.867 85.8667 500.9 85 500.9C77.0667 500.9 71.3667 498.667 67.9 494.2C64.5 489.667 62.8 483.133 62.8 474.6V443.9C62.8 435.5 64.5333 429.133 68 424.8C71.4667 420.467 77.1333 418.3 85 418.3C92.8667 418.3 98.5333 420.5 102 424.9C105.467 429.233 107.2 435.567 107.2 443.9V474.7C107.2 487.567 103.233 495.667 95.3 499C98.6333 503.333 101.3 506.167 103.3 507.5L101.5 516.4ZM85 492C89.2667 492 92.1333 490.767 93.6 488.3C95.0667 485.833 95.8 482.1 95.8 477.1V441.6C95.8 436.667 95.0667 433.033 93.6 430.7C92.1333 428.3 89.2667 427.1 85 427.1C80.7333 427.1 77.8667 428.3 76.4 430.7C74.9333 433.033 74.2 436.667 74.2 441.6V477.1C74.2 482.1 74.9333 485.833 76.4 488.3C77.8667 490.767 80.7333 492 85 492ZM139.302 500.9C133.635 500.9 129.202 499.767 126.002 497.5C122.868 495.233 120.702 492.067 119.502 488C118.302 483.933 117.702 478.833 117.702 472.7V419H128.502V473.2C128.502 479.333 129.202 484 130.602 487.2C132.068 490.4 134.968 492 139.302 492C143.635 492 146.502 490.4 147.902 487.2C149.368 484 150.102 479.333 150.102 473.2V419H160.802V472.7C160.802 478.833 160.202 483.933 159.002 488C157.802 492.067 155.635 495.233 152.502 497.5C149.368 499.767 144.968 500.9 139.302 500.9ZM172.698 419H204.098V427.4H183.998V454.2H200.298V462.2H183.998V491.9H204.298V500H172.698V419ZM213.421 419H244.821V427.4H224.721V454.2H241.021V462.2H224.721V491.9H245.021V500H213.421V419ZM254.144 419H261.844L284.844 472.8V419H294.244V500H287.044L263.744 444.7V500H254.144V419Z" fill="#DBDBDB"/>
<path d="M101.5 404.4C97.4333 402.4 92.5667 397.2 86.9 388.8C86.5 388.867 85.8667 388.9 85 388.9C77.0667 388.9 71.3667 386.667 67.9 382.2C64.5 377.667 62.8 371.133 62.8 362.6V331.9C62.8 323.5 64.5333 317.133 68 312.8C71.4667 308.467 77.1333 306.3 85 306.3C92.8667 306.3 98.5333 308.5 102 312.9C105.467 317.233 107.2 323.567 107.2 331.9V362.7C107.2 375.567 103.233 383.667 95.3 387C98.6333 391.333 101.3 394.167 103.3 395.5L101.5 404.4ZM85 380C89.2667 380 92.1333 378.767 93.6 376.3C95.0667 373.833 95.8 370.1 95.8 365.1V329.6C95.8 324.667 95.0667 321.033 93.6 318.7C92.1333 316.3 89.2667 315.1 85 315.1C80.7333 315.1 77.8667 316.3 76.4 318.7C74.9333 321.033 74.2 324.667 74.2 329.6V365.1C74.2 370.1 74.9333 373.833 76.4 376.3C77.8667 378.767 80.7333 380 85 380ZM139.302 388.9C133.635 388.9 129.202 387.767 126.002 385.5C122.868 383.233 120.702 380.067 119.502 376C118.302 371.933 117.702 366.833 117.702 360.7V307H128.502V361.2C128.502 367.333 129.202 372 130.602 375.2C132.068 378.4 134.968 380 139.302 380C143.635 380 146.502 378.4 147.902 375.2C149.368 372 150.102 367.333 150.102 361.2V307H160.802V360.7C160.802 366.833 160.202 371.933 159.002 376C157.802 380.067 155.635 383.233 152.502 385.5C149.368 387.767 144.968 388.9 139.302 388.9ZM172.698 307H204.098V315.4H183.998V342.2H200.298V350.2H183.998V379.9H204.298V388H172.698V307ZM213.421 307H244.821V315.4H224.721V342.2H241.021V350.2H224.721V379.9H245.021V388H213.421V307ZM254.144 307H261.844L284.844 360.8V307H294.244V388H287.044L263.744 332.7V388H254.144V307Z" fill="#DBDBDB"/>
<path d="M101.5 341.4C97.4333 339.4 92.5667 334.2 86.9 325.8C86.5 325.867 85.8667 325.9 85 325.9C77.0667 325.9 71.3667 323.667 67.9 319.2C64.5 314.667 62.8 308.133 62.8 299.6V268.9C62.8 260.5 64.5333 254.133 68 249.8C71.4667 245.467 77.1333 243.3 85 243.3C92.8667 243.3 98.5333 245.5 102 249.9C105.467 254.233 107.2 260.567 107.2 268.9V299.7C107.2 312.567 103.233 320.667 95.3 324C98.6333 328.333 101.3 331.167 103.3 332.5L101.5 341.4ZM85 317C89.2667 317 92.1333 315.767 93.6 313.3C95.0667 310.833 95.8 307.1 95.8 302.1V266.6C95.8 261.667 95.0667 258.033 93.6 255.7C92.1333 253.3 89.2667 252.1 85 252.1C80.7333 252.1 77.8667 253.3 76.4 255.7C74.9333 258.033 74.2 261.667 74.2 266.6V302.1C74.2 307.1 74.9333 310.833 76.4 313.3C77.8667 315.767 80.7333 317 85 317ZM139.302 325.9C133.635 325.9 129.202 324.767 126.002 322.5C122.868 320.233 120.702 317.067 119.502 313C118.302 308.933 117.702 303.833 117.702 297.7V244H128.502V298.2C128.502 304.333 129.202 309 130.602 312.2C132.068 315.4 134.968 317 139.302 317C143.635 317 146.502 315.4 147.902 312.2C149.368 309 150.102 304.333 150.102 298.2V244H160.802V297.7C160.802 303.833 160.202 308.933 159.002 313C157.802 317.067 155.635 320.233 152.502 322.5C149.368 324.767 144.968 325.9 139.302 325.9ZM172.698 244H204.098V252.4H183.998V279.2H200.298V287.2H183.998V316.9H204.298V325H172.698V244ZM213.421 244H244.821V252.4H224.721V279.2H241.021V287.2H224.721V316.9H245.021V325H213.421V244ZM254.144 244H261.844L284.844 297.8V244H294.244V325H287.044L263.744 269.7V325H254.144V244Z" fill="black"/>
<path d="M41.1 81.84C38.66 80.64 35.74 77.52 32.34 72.48C32.1 72.52 31.72 72.54 31.2 72.54C26.44 72.54 23.02 71.2 20.94 68.52C18.9 65.8 17.88 61.88 17.88 56.76V38.34C17.88 33.3 18.92 29.48 21 26.88C23.08 24.28 26.48 22.98 31.2 22.98C35.92 22.98 39.32 24.3 41.4 26.94C43.48 29.54 44.52 33.34 44.52 38.34V56.82C44.52 64.54 42.14 69.4 37.38 71.4C39.38 74 40.98 75.7 42.18 76.5L41.1 81.84ZM31.2 67.2C33.76 67.2 35.48 66.46 36.36 64.98C37.24 63.5 37.68 61.26 37.68 58.26V36.96C37.68 34 37.24 31.82 36.36 30.42C35.48 28.98 33.76 28.26 31.2 28.26C28.64 28.26 26.92 28.98 26.04 30.42C25.16 31.82 24.72 34 24.72 36.96V58.26C24.72 61.26 25.16 63.5 26.04 64.98C26.92 66.46 28.64 67.2 31.2 67.2Z" fill="black"/>
<path d="M29.918 108.016C31.8311 108.016 33.6658 102.666 35.0185 101.314C36.3712 99.9608 37.1311 98.1262 37.1311 96.2131C37.1311 94.3001 36.3712 92.4654 35.0185 91.1127C33.6658 89.76 31.8311 89 29.918 89V108.016Z" fill="black"/>
<path d="M45 108.016C45 112 41.7706 114.41 37.7869 114.41C35.5417 114.41 33.8525 113.59 32.377 112.279C30.9016 110.967 30.7377 109.656 29.918 108.016C29.918 105.933 30.6371 104.907 32.0492 103.59C33.3376 102.389 35.8862 101.459 37.7869 101.459C41.7706 101.459 45 104.033 45 108.016Z" fill="black"/>
<path d="M29.918 108.016C28.005 108.016 26.1703 102.666 24.8176 101.314C23.4649 99.9608 22.7049 98.1262 22.7049 96.2131C22.7049 94.3001 23.4649 92.4654 24.8176 91.1127C26.1703 89.76 28.005 89 29.918 89V108.016Z" fill="black"/>
<path d="M15 108.016C15 112 18.0655 114.41 22.0492 114.41C24.2944 114.41 25.8776 113.86 27.459 112.279C28.9344 110.803 29.0984 109.656 29.918 108.016C29.918 105.933 29.3629 104.907 27.9508 103.59C26.6624 102.389 23.9498 101.459 22.0492 101.459C18.0655 101.459 15 104.033 15 108.016Z" fill="black"/>
<path d="M29.918 119V106.705H30.9016C30.9563 107.47 30.9016 109.984 31.5574 112.443C32.203 114.864 34.235 117.743 35.4918 119H29.918Z" fill="black"/>
<path d="M29.918 119V106.705H28.9344C28.8798 107.47 28.9344 109.984 28.2787 112.443C27.6331 114.864 25.6011 117.743 24.3443 119H29.918Z" fill="black"/>
<path d="M318.9 479.16C321.34 480.36 324.26 483.48 327.66 488.52C327.9 488.48 328.28 488.46 328.8 488.46C333.56 488.46 336.98 489.8 339.06 492.48C341.1 495.2 342.12 499.12 342.12 504.24L342.12 522.66C342.12 527.7 341.08 531.52 339 534.12C336.92 536.72 333.52 538.02 328.8 538.02C324.08 538.02 320.68 536.7 318.6 534.06C316.52 531.46 315.48 527.66 315.48 522.66L315.48 504.18C315.48 496.46 317.86 491.6 322.62 489.6C320.62 487 319.02 485.3 317.82 484.5L318.9 479.16ZM328.8 493.8C326.24 493.8 324.52 494.54 323.64 496.02C322.76 497.5 322.32 499.74 322.32 502.74L322.32 524.04C322.32 527 322.76 529.18 323.64 530.58C324.52 532.02 326.24 532.74 328.8 532.74C331.36 532.74 333.08 532.02 333.96 530.58C334.84 529.18 335.28 527 335.28 524.04L335.28 502.74C335.28 499.74 334.84 497.5 333.96 496.02C333.08 494.54 331.36 493.8 328.8 493.8Z" fill="black"/>
<path d="M329.082 452.984C327.169 452.984 325.334 458.334 323.982 459.686C322.629 461.039 321.869 462.874 321.869 464.787C321.869 466.7 322.629 468.535 323.982 469.887C325.334 471.24 327.169 472 329.082 472L329.082 452.984Z" fill="black"/>
<path d="M314 452.984C314 449 317.229 446.59 321.213 446.59C323.458 446.59 325.148 447.41 326.623 448.721C328.098 450.033 328.262 451.344 329.082 452.984C329.082 455.067 328.363 456.093 326.951 457.41C325.662 458.611 323.114 459.541 321.213 459.541C317.229 459.541 314 456.967 314 452.984Z" fill="black"/>
<path d="M329.082 452.984C330.995 452.984 332.83 458.334 334.182 459.686C335.535 461.039 336.295 462.874 336.295 464.787C336.295 466.7 335.535 468.535 334.182 469.887C332.83 471.24 330.995 472 329.082 472L329.082 452.984Z" fill="black"/>
<path d="M344 452.984C344 449 340.935 446.59 336.951 446.59C334.706 446.59 333.122 447.14 331.541 448.721C330.066 450.197 329.902 451.344 329.082 452.984C329.082 455.067 329.637 456.093 331.049 457.41C332.338 458.611 335.05 459.541 336.951 459.541C340.935 459.541 344 456.967 344 452.984Z" fill="black"/>
<path d="M329.082 442L329.082 454.295L328.098 454.295C328.044 453.53 328.098 451.016 327.443 448.557C326.797 446.136 324.765 443.257 323.508 442L329.082 442Z" fill="black"/>
<path d="M329.082 442L329.082 454.295L330.066 454.295C330.12 453.53 330.066 451.016 330.721 448.557C331.367 446.136 333.399 443.257 334.656 442L329.082 442Z" fill="black"/>
</g>
<defs>
<clipPath id="clip0">
<rect width="360" height="560.121" fill="white"/>
</clipPath>
</defs>
</svg>
