<svg width="360" height="561" viewBox="0 0 360 561" fill="none" xmlns="http://www.w3.org/2000/svg">
<g clip-path="url(#clip0)">
<rect width="360" height="560.121" fill="white"/>
<path d="M329.051 320.174C341.983 255.478 219.128 148.73 181.948 118C144.768 148.73 17.9898 255.478 30.9219 320.174C45.3426 392.316 125.913 379.478 160.938 360.609C160.399 374.626 154.719 398.554 149.546 406.318C143.08 416.022 112.121 441.478 86.2571 441.478H180.331H270.499C244.635 441.478 219.302 416.022 212.836 406.318C207.663 398.554 200.273 374.626 199.734 360.609C234.759 379.478 314.63 392.316 329.051 320.174Z" fill="#F4F4F4"/>
<path d="M40.1 81.84C37.66 80.64 34.74 77.52 31.34 72.48C31.1 72.52 30.72 72.54 30.2 72.54C25.44 72.54 22.02 71.2 19.94 68.52C17.9 65.8 16.88 61.88 16.88 56.76V38.34C16.88 33.3 17.92 29.48 20 26.88C22.08 24.28 25.48 22.98 30.2 22.98C34.92 22.98 38.32 24.3 40.4 26.94C42.48 29.54 43.52 33.34 43.52 38.34V56.82C43.52 64.54 41.14 69.4 36.38 71.4C38.38 74 39.98 75.7 41.18 76.5L40.1 81.84ZM30.2 67.2C32.76 67.2 34.48 66.46 35.36 64.98C36.24 63.5 36.68 61.26 36.68 58.26V36.96C36.68 34 36.24 31.82 35.36 30.42C34.48 28.98 32.76 28.26 30.2 28.26C27.64 28.26 25.92 28.98 25.04 30.42C24.16 31.82 23.72 34 23.72 36.96V58.26C23.72 61.26 24.16 63.5 25.04 64.98C25.92 66.46 27.64 67.2 30.2 67.2Z" fill="black"/>
<path d="M45.9051 109.25C47.1983 102.77 34.9128 92.078 31.1948 89C27.4768 92.078 14.799 102.77 16.0922 109.25C17.5343 116.476 25.5913 115.19 29.0938 113.3C29.0399 114.704 28.4719 117.101 27.9546 117.878C27.308 118.85 24.2121 121.4 21.6257 121.4H31.0331H40.0499C37.4635 121.4 34.9302 118.85 34.2836 117.878C33.7663 117.101 33.0273 114.704 32.9734 113.3C36.4759 115.19 44.463 116.476 45.9051 109.25Z" fill="black"/>
<path d="M317.9 479.16C320.34 480.36 323.26 483.48 326.66 488.52C326.9 488.48 327.28 488.46 327.8 488.46C332.56 488.46 335.98 489.8 338.06 492.48C340.1 495.2 341.12 499.12 341.12 504.24L341.12 522.66C341.12 527.7 340.08 531.52 338 534.12C335.92 536.72 332.52 538.02 327.8 538.02C323.08 538.02 319.68 536.7 317.6 534.06C315.52 531.46 314.48 527.66 314.48 522.66L314.48 504.18C314.48 496.46 316.86 491.6 321.62 489.6C319.62 487 318.02 485.3 316.82 484.5L317.9 479.16ZM327.8 493.8C325.24 493.8 323.52 494.54 322.64 496.02C321.76 497.5 321.32 499.74 321.32 502.74L321.32 524.04C321.32 527 321.76 529.18 322.64 530.58C323.52 532.02 325.24 532.74 327.8 532.74C330.36 532.74 332.08 532.02 332.96 530.58C333.84 529.18 334.28 527 334.28 524.04L334.28 502.74C334.28 499.74 333.84 497.5 332.96 496.02C332.08 494.54 330.36 493.8 327.8 493.8Z" fill="black"/>
<path d="M313.095 452.15C311.802 458.63 324.087 469.322 327.805 472.4C331.523 469.322 344.201 458.63 342.908 452.15C341.466 444.925 333.409 446.21 329.906 448.1C329.96 446.696 330.528 444.3 331.045 443.522C331.692 442.55 334.788 440 337.374 440L327.967 440L318.95 440C321.537 440 324.07 442.55 324.716 443.522C325.234 444.3 325.973 446.696 326.027 448.1C322.524 446.21 314.537 444.924 313.095 452.15Z" fill="black"/>
<path d="M101.5 292.4C97.4333 290.4 92.5667 285.2 86.9 276.8C86.5 276.867 85.8667 276.9 85 276.9C77.0667 276.9 71.3667 274.667 67.9 270.2C64.5 265.667 62.8 259.133 62.8 250.6V219.9C62.8 211.5 64.5333 205.133 68 200.8C71.4667 196.467 77.1333 194.3 85 194.3C92.8667 194.3 98.5333 196.5 102 200.9C105.467 205.233 107.2 211.567 107.2 219.9V250.7C107.2 263.567 103.233 271.667 95.3 275C98.6333 279.333 101.3 282.167 103.3 283.5L101.5 292.4ZM85 268C89.2667 268 92.1333 266.767 93.6 264.3C95.0667 261.833 95.8 258.1 95.8 253.1V217.6C95.8 212.667 95.0667 209.033 93.6 206.7C92.1333 204.3 89.2667 203.1 85 203.1C80.7333 203.1 77.8667 204.3 76.4 206.7C74.9333 209.033 74.2 212.667 74.2 217.6V253.1C74.2 258.1 74.9333 261.833 76.4 264.3C77.8667 266.767 80.7333 268 85 268ZM139.302 276.9C133.635 276.9 129.202 275.767 126.002 273.5C122.868 271.233 120.702 268.067 119.502 264C118.302 259.933 117.702 254.833 117.702 248.7V195H128.502V249.2C128.502 255.333 129.202 260 130.602 263.2C132.068 266.4 134.968 268 139.302 268C143.635 268 146.502 266.4 147.902 263.2C149.368 260 150.102 255.333 150.102 249.2V195H160.802V248.7C160.802 254.833 160.202 259.933 159.002 264C157.802 268.067 155.635 271.233 152.502 273.5C149.368 275.767 144.968 276.9 139.302 276.9ZM172.698 195H204.098V203.4H183.998V230.2H200.298V238.2H183.998V267.9H204.298V276H172.698V195ZM213.421 195H244.821V203.4H224.721V230.2H241.021V238.2H224.721V267.9H245.021V276H213.421V195ZM254.144 195H261.844L284.844 248.8V195H294.244V276H287.044L263.744 220.7V276H254.144V195Z" fill="#DBDBDB"/>
<path d="M101.5 180.4C97.4333 178.4 92.5667 173.2 86.9 164.8C86.5 164.867 85.8667 164.9 85 164.9C77.0667 164.9 71.3667 162.667 67.9 158.2C64.5 153.667 62.8 147.133 62.8 138.6V107.9C62.8 99.5 64.5333 93.1333 68 88.8C71.4667 84.4667 77.1333 82.3 85 82.3C92.8667 82.3 98.5333 84.5 102 88.9C105.467 93.2333 107.2 99.5667 107.2 107.9V138.7C107.2 151.567 103.233 159.667 95.3 163C98.6333 167.333 101.3 170.167 103.3 171.5L101.5 180.4ZM85 156C89.2667 156 92.1333 154.767 93.6 152.3C95.0667 149.833 95.8 146.1 95.8 141.1V105.6C95.8 100.667 95.0667 97.0333 93.6 94.7C92.1333 92.3 89.2667 91.1 85 91.1C80.7333 91.1 77.8667 92.3 76.4 94.7C74.9333 97.0333 74.2 100.667 74.2 105.6V141.1C74.2 146.1 74.9333 149.833 76.4 152.3C77.8667 154.767 80.7333 156 85 156ZM139.302 164.9C133.635 164.9 129.202 163.767 126.002 161.5C122.868 159.233 120.702 156.067 119.502 152C118.302 147.933 117.702 142.833 117.702 136.7V83H128.502V137.2C128.502 143.333 129.202 148 130.602 151.2C132.068 154.4 134.968 156 139.302 156C143.635 156 146.502 154.4 147.902 151.2C149.368 148 150.102 143.333 150.102 137.2V83H160.802V136.7C160.802 142.833 160.202 147.933 159.002 152C157.802 156.067 155.635 159.233 152.502 161.5C149.368 163.767 144.968 164.9 139.302 164.9ZM172.698 83H204.098V91.4H183.998V118.2H200.298V126.2H183.998V155.9H204.298V164H172.698V83ZM213.421 83H244.821V91.4H224.721V118.2H241.021V126.2H224.721V155.9H245.021V164H213.421V83ZM254.144 83H261.844L284.844 136.8V83H294.244V164H287.044L263.744 108.7V164H254.144V83Z" fill="#DBDBDB"/>
<path d="M101.5 516.4C97.4333 514.4 92.5667 509.2 86.9 500.8C86.5 500.867 85.8667 500.9 85 500.9C77.0667 500.9 71.3667 498.667 67.9 494.2C64.5 489.667 62.8 483.133 62.8 474.6V443.9C62.8 435.5 64.5333 429.133 68 424.8C71.4667 420.467 77.1333 418.3 85 418.3C92.8667 418.3 98.5333 420.5 102 424.9C105.467 429.233 107.2 435.567 107.2 443.9V474.7C107.2 487.567 103.233 495.667 95.3 499C98.6333 503.333 101.3 506.167 103.3 507.5L101.5 516.4ZM85 492C89.2667 492 92.1333 490.767 93.6 488.3C95.0667 485.833 95.8 482.1 95.8 477.1V441.6C95.8 436.667 95.0667 433.033 93.6 430.7C92.1333 428.3 89.2667 427.1 85 427.1C80.7333 427.1 77.8667 428.3 76.4 430.7C74.9333 433.033 74.2 436.667 74.2 441.6V477.1C74.2 482.1 74.9333 485.833 76.4 488.3C77.8667 490.767 80.7333 492 85 492ZM139.302 500.9C133.635 500.9 129.202 499.767 126.002 497.5C122.868 495.233 120.702 492.067 119.502 488C118.302 483.933 117.702 478.833 117.702 472.7V419H128.502V473.2C128.502 479.333 129.202 484 130.602 487.2C132.068 490.4 134.968 492 139.302 492C143.635 492 146.502 490.4 147.902 487.2C149.368 484 150.102 479.333 150.102 473.2V419H160.802V472.7C160.802 478.833 160.202 483.933 159.002 488C157.802 492.067 155.635 495.233 152.502 497.5C149.368 499.767 144.968 500.9 139.302 500.9ZM172.698 419H204.098V427.4H183.998V454.2H200.298V462.2H183.998V491.9H204.298V500H172.698V419ZM213.421 419H244.821V427.4H224.721V454.2H241.021V462.2H224.721V491.9H245.021V500H213.421V419ZM254.144 419H261.844L284.844 472.8V419H294.244V500H287.044L263.744 444.7V500H254.144V419Z" fill="#DBDBDB"/>
<path d="M101.5 404.4C97.4333 402.4 92.5667 397.2 86.9 388.8C86.5 388.867 85.8667 388.9 85 388.9C77.0667 388.9 71.3667 386.667 67.9 382.2C64.5 377.667 62.8 371.133 62.8 362.6V331.9C62.8 323.5 64.5333 317.133 68 312.8C71.4667 308.467 77.1333 306.3 85 306.3C92.8667 306.3 98.5333 308.5 102 312.9C105.467 317.233 107.2 323.567 107.2 331.9V362.7C107.2 375.567 103.233 383.667 95.3 387C98.6333 391.333 101.3 394.167 103.3 395.5L101.5 404.4ZM85 380C89.2667 380 92.1333 378.767 93.6 376.3C95.0667 373.833 95.8 370.1 95.8 365.1V329.6C95.8 324.667 95.0667 321.033 93.6 318.7C92.1333 316.3 89.2667 315.1 85 315.1C80.7333 315.1 77.8667 316.3 76.4 318.7C74.9333 321.033 74.2 324.667 74.2 329.6V365.1C74.2 370.1 74.9333 373.833 76.4 376.3C77.8667 378.767 80.7333 380 85 380ZM139.302 388.9C133.635 388.9 129.202 387.767 126.002 385.5C122.868 383.233 120.702 380.067 119.502 376C118.302 371.933 117.702 366.833 117.702 360.7V307H128.502V361.2C128.502 367.333 129.202 372 130.602 375.2C132.068 378.4 134.968 380 139.302 380C143.635 380 146.502 378.4 147.902 375.2C149.368 372 150.102 367.333 150.102 361.2V307H160.802V360.7C160.802 366.833 160.202 371.933 159.002 376C157.802 380.067 155.635 383.233 152.502 385.5C149.368 387.767 144.968 388.9 139.302 388.9ZM172.698 307H204.098V315.4H183.998V342.2H200.298V350.2H183.998V379.9H204.298V388H172.698V307ZM213.421 307H244.821V315.4H224.721V342.2H241.021V350.2H224.721V379.9H245.021V388H213.421V307ZM254.144 307H261.844L284.844 360.8V307H294.244V388H287.044L263.744 332.7V388H254.144V307Z" fill="#DBDBDB"/>
<path d="M101.5 341.4C97.4333 339.4 92.5667 334.2 86.9 325.8C86.5 325.867 85.8667 325.9 85 325.9C77.0667 325.9 71.3667 323.667 67.9 319.2C64.5 314.667 62.8 308.133 62.8 299.6V268.9C62.8 260.5 64.5333 254.133 68 249.8C71.4667 245.467 77.1333 243.3 85 243.3C92.8667 243.3 98.5333 245.5 102 249.9C105.467 254.233 107.2 260.567 107.2 268.9V299.7C107.2 312.567 103.233 320.667 95.3 324C98.6333 328.333 101.3 331.167 103.3 332.5L101.5 341.4ZM85 317C89.2667 317 92.1333 315.767 93.6 313.3C95.0667 310.833 95.8 307.1 95.8 302.1V266.6C95.8 261.667 95.0667 258.033 93.6 255.7C92.1333 253.3 89.2667 252.1 85 252.1C80.7333 252.1 77.8667 253.3 76.4 255.7C74.9333 258.033 74.2 261.667 74.2 266.6V302.1C74.2 307.1 74.9333 310.833 76.4 313.3C77.8667 315.767 80.7333 317 85 317ZM139.302 325.9C133.635 325.9 129.202 324.767 126.002 322.5C122.868 320.233 120.702 317.067 119.502 313C118.302 308.933 117.702 303.833 117.702 297.7V244H128.502V298.2C128.502 304.333 129.202 309 130.602 312.2C132.068 315.4 134.968 317 139.302 317C143.635 317 146.502 315.4 147.902 312.2C149.368 309 150.102 304.333 150.102 298.2V244H160.802V297.7C160.802 303.833 160.202 308.933 159.002 313C157.802 317.067 155.635 320.233 152.502 322.5C149.368 324.767 144.968 325.9 139.302 325.9ZM172.698 244H204.098V252.4H183.998V279.2H200.298V287.2H183.998V316.9H204.298V325H172.698V244ZM213.421 244H244.821V252.4H224.721V279.2H241.021V287.2H224.721V316.9H245.021V325H213.421V244ZM254.144 244H261.844L284.844 297.8V244H294.244V325H287.044L263.744 269.7V325H254.144V244Z" fill="black"/>
</g>
<defs>
<clipPath id="clip0">
<rect width="360" height="560.121" fill="white"/>
</clipPath>
</defs>
</svg>
